/* XPM */
static char *neon[] = {
/* columns rows colors chars-per-pixel */
"64 64 198 2 ",
"   c #01002F",
".  c #010033",
"X  c #080437",
"o  c #060339",
"O  c #0A053C",
"+  c #0D083F",
"@  c #11063F",
"#  c #0E0640",
"$  c #0E0941",
"%  c #110742",
"&  c #130A45",
"*  c #180A47",
"=  c #160D4A",
"-  c #1B0D4C",
";  c #16104D",
":  c #1A114F",
">  c #1E0E51",
",  c #171251",
"<  c #1D1152",
"1  c #1E1659",
"2  c #200E4E",
"3  c #210E52",
"4  c #280F56",
"5  c #270F58",
"6  c #280F58",
"7  c #221255",
"8  c #281457",
"9  c #211857",
"0  c #24155A",
"q  c #2A145C",
"w  c #24195C",
"e  c #2A195F",
"r  c #31155F",
"t  c #2E1761",
"y  c #261E62",
"u  c #2C1B63",
"i  c #2F1E68",
"p  c #341664",
"a  c #321A66",
"s  c #381967",
"d  c #371768",
"f  c #3B166B",
"g  c #341D6A",
"h  c #3A1C6C",
"j  c #371F70",
"k  c #3D1E72",
"l  c #2D2167",
"z  c #2E216A",
"x  c #33226D",
"c  c #3A206E",
"v  c #352471",
"b  c #3B2373",
"n  c #352A75",
"m  c #3C2877",
"M  c #3D2679",
"N  c #3D2A7B",
"B  c #40166F",
"V  c #40186B",
"C  c #411770",
"Z  c #431D73",
"A  c #491D76",
"S  c #461E79",
"D  c #4C1E7B",
"F  c #501F7C",
"G  c #422376",
"H  c #44247A",
"J  c #4A237D",
"K  c #432A7D",
"L  c #48287F",
"P  c #51217B",
"I  c #3E2F82",
"U  c #472680",
"Y  c #4E2681",
"T  c #452C82",
"R  c #4B2B84",
"E  c #4F2E8A",
"W  c #502684",
"Q  c #582182",
"!  c #532986",
"~  c #522788",
"^  c #5B258B",
"/  c #542C8A",
"(  c #5B2C8E",
")  c #433385",
"_  c #493086",
"`  c #46348A",
"'  c #4D328C",
"]  c #51328E",
"[  c #572F90",
"{  c #5D2E91",
"}  c #4E3B93",
"|  c #4E3994",
" . c #553492",
".. c #5B3494",
"X. c #543995",
"o. c #573598",
"O. c #5E349A",
"+. c #553C9B",
"@. c #5B3A9B",
"#. c #63268E",
"$. c #682795",
"%. c #632A93",
"&. c #682C97",
"*. c #672E9B",
"=. c #6C2C9B",
"-. c #623194",
";. c #62349A",
":. c #6A339D",
">. c #62399E",
",. c #6B389F",
"<. c #5C3DA1",
"1. c #792EA4",
"2. c #6C35A3",
"3. c #633DA3",
"4. c #6A3CA4",
"5. c #683FAA",
"6. c #7432A4",
"7. c #7339A6",
"8. c #7537AC",
"9. c #7E34AD",
"0. c #763AAD",
"q. c #7A3BAA",
"w. c #763EB1",
"e. c #7D3CB3",
"r. c #53419E",
"t. c #59419F",
"y. c #61409D",
"u. c #5C41A3",
"i. c #5D48A7",
"p. c #5D45A9",
"a. c #6443A4",
"s. c #6343AA",
"d. c #6646AC",
"f. c #7042AA",
"g. c #6C45B1",
"h. c #664CB4",
"j. c #6B4AB4",
"k. c #7646B6",
"l. c #7F44BC",
"z. c #744CBB",
"x. c #784ABB",
"c. c #6A52BB",
"v. c #7651BE",
"b. c #7C4EC4",
"n. c #7552C2",
"m. c #7B51C4",
"M. c #7D55CB",
"N. c #7A5ACB",
"B. c #8334AF",
"V. c #8535B3",
"C. c #8537B4",
"Z. c #8539B4",
"A. c #8A39BB",
"S. c #9036B8",
"D. c #923BBE",
"F. c #8542BD",
"G. c #8A42BF",
"H. c #9B3CC6",
"J. c #AA3FCF",
"K. c #8E44C3",
"L. c #824BC5",
"P. c #844EC9",
"I. c #8A4CCB",
"U. c #9343C7",
"Y. c #9B44CC",
"T. c #8453CB",
"R. c #8059CF",
"E. c #9E46D1",
"W. c #974AD1",
"Q. c #9C4CD5",
"!. c #845BD3",
"~. c #8B5AD7",
"^. c #8D5BD9",
"/. c #9453D6",
"(. c #935CDC",
"). c #A441CF",
"_. c #A543D2",
"`. c #AA47DA",
"'. c #A74EDF",
"]. c #8662D8",
"[. c #8A61DC",
"{. c #9B5AE2",
"}. c #BA44E2",
"|. c #A65AE5",
" X c #AD5DED",
".X c #B657EC",
"XX c #BE59F2",
"oX c #9362E3",
"OX c #9D64EB",
"+X c #966BEC",
"@X c #9A6AEE",
"#X c #9A6DF1",
"$X c #A262EA",
"%X c #AB68F5",
"&X c #B362F2",
"*X c #A072F7",
"=X c #C14AE9",
"-X c #C949EE",
/* pixels */
"o %.Y.< . . q O.= .   v g.= . . 1 +.< . . . z & . . { G.o . O Z.j.: . . o N & .   #.1.. . & V.k.& . . %.l.& . . ^ k.&   . j.z.O ",
"w + . 0 & . . . i = . . . w & . . . K - . . . g & . . . . + q.& O a.: .   . K $ . . . . + %.O X o.& . . o T + . . O @.@ . . X G ",
"+ . . . 7 % . . . t - . . . w & .   . b - . . . x & . . + f.& . . o >.2 . . o H * . . $  .O . . + ..& . . o R @ . . O O.+ . . O ",
". . . . . 0 * o . . t - o . . q * o . o H 3 o . . a = & y.& . . . . o :.7 o . o H : & ] + . . . . X %.- o . o J & o . O %.* o . ",
". o O . . . f ^ X . . D ^ o .   A ^ X   o =.9.. . . v.*X= . . . . . . o `.).  . . T.^.+ . . . . . . X Y.C.. . o 9.$.. . + ).1.. ",
". q O . . . :.W & . . 7 C o . X 6.Z o . O C.k.< .   ) N.< . . . . . . $ D.Z.O . . ' n.= . . . . . . O 6.P.- . . F D . . & B.Q . ",
"0 O . . O %.- . - & . . . . O { & . . $ :.* . m : . . . m < . . . . $ ! O . < + .   o L - . . . . O q o X  .- . .   . & a . . . ",
"+ . . O ] & . . . < $ . . + O.& . . + ;.@ . . . H 7 . . . H : . . + / X . . . 0 O . . . L = . . O u . . . o ;.= . . & a . . . 7 ",
". . O  .& . . . . . - * $ o.+ . . $ u.@ . . .   . G > o . o J 7 & ' O . . . . . 7 % . . o Y - $ y o . . . . O :.- = a . . o w ;.",
". ) ~.0 . . . . . . . u.oX; . . r.[.< . . X l . . . 6.V.X . . z.^.$ . . . . . . . Z S . . o l.l.. . . o o . . O /.I.o . . N.!.o ",
"+ @.s.: .   . . . . o E g.0 . . x p.= . . . ' l . . p ;.- . . K j.9 . . . . . . $ Z U = . . R O.$ . . . w + . . ] 5.& . . } g.& ",
"E + . = = . . . . o 0 o   i < . . . 1 & . . . ' e . . . i = . . . R 7 . . . . + t . . i & . . . w + . . . 0 O . . o M & . . . / ",
"$ . . . = = . . . q o . . . u 0 . . . - * . . o / s . . . t - . . . L q . . + w . . . . u = . . o q $ . . . 7 $   . o b & . . O ",
". . . . . - - & w o .   . . . a q @ . . > * X . . / G &   . a 2 O . . J r - w . . . . . . p - O . . 0 * o . . 0 % o . o G - o . ",
". . . . . . U w.O . . & 4 . .   ( C.O . . p B . .   Y.=XO . . ( 2.o . . L./.. . . o $ . . . ^ ^ . . . Y Y . . . S Z . . O 6.%.. ",
". . . . . + :.k . . & 9.@ . . * Z.~ > . . = 3 . . O Q #.. . * %.O.w . . c k.x . . . , $ . . q k $ . . 3 ' < . . 3 M $ . . d Y & ",
". . . . $ ( + . . & 7.@ . . * ,.@   < < . . . . O q . . . = Y o . K e   . . ' a . . . < & . . . < $ . . . M < . . . t & . . . a ",
"w . . &  .O . . & 4.O . . ; f.O .   . < - . . o w . . . = E o . . . L r .   . ..a . . . < & . . . 7 $ . . . G - . . . a & . . . ",
"< t , ] o . O w d.O . X 9 a.O . . . . . 7 > = w . . X : T . . . . . . J p @ . . %.Z = o . > * o . . 3 & o . o H q O . . p * X . ",
". @.#X7 . . i.#X: . . j.*X= . . o ; . . . [ x.o . . r.!.+ . . . . . . . U.Y.. .   ).J.O . . ^ D . . . ^ W . . . e.8.. . o ^ D . ",
"O H o.w . . w } X . : q.a.L . . . < < . . 0 ] i   . w t.m . . . . . . : =.>.t . . Z P . . 8 %.- . . q %. .w . . a ;.w . . 4 2 . ",
"w . . : q . . .   * 7.X . m L . . . < < . . . g a . . . _ G . . . . 7 / .   M q . . o . q ( . . . q ! . . R q . . . ' q . . . . ",
"o . . . = q . . = >.X . . . c L   . . - 7 . . . x s . . . G G . . < L . . . . c a . . e R . . . w L . . . . L e . . . R r . . h ",
". . . . . < a v t.O . . . . . G ( q . . - 7 $ . . s Z 2 . . Y ! c K o . . . . . G G x R . . ; v U . . . . . . Y Z - . . W b K R ",
". + u . . . d.#X= . . & N . .   C.-X*   . D *.. . . 6.H.O . . P.$XO . . - e . .   R.oXO . . n.M.  . . o & . . . U.U.. . X +X^.  ",
"$ u < z . . 1 N . . * G c ] . . 4 D . . & Z g w . . - p . . & H m . . - h i u   . w x . . 0 ! X.x . . . < = . . p @.i . . x a.a ",
"w . . < x . . . . * G o . x ] . . . . * g . . : 0 . . . . $ 7 . . . 2 g . . w t . . . . 0 h . . m a . . . < = . . . ] x . . . / ",
"o . . . - a . . & b . . . . c / . . & a . . . . 7 0 . . & w . . . ; a . . . . t q . . 0 c . . . . Y s . . . < * . . . ( h . .   ",
". . . . . - Z i b . . . . . . c :.x z . . . . . . - a 0 7 . . $ w l . . . . . . p b g g . . . . . . H J - . . 7 2 $ . . ^ P 2 . ",
". . . . . . <.{.& . . . . . .   F.XX& . . 4 h . . . O.P.O . . ` v.o . . $ n . .   n.~.O . . $ y . . . _.E.. . . C V . . X =X).  ",
". . . . . = J T N . . . . .   r 6.G .   7 Z = < . . = M i . . = ) T . . . b H . . 0 b = . . . l l . . q E i . . * &   . J %.r X ",
". . . . & k . . < M o . . . q -.  . . 7 L o . & < . . . 0 g . . . b R . . . x m o . . : = . . . a t . . . b g . . .   J J   . . ",
"m . . = v . . . . 2 L X . e ... . . 7 M . . . . & 0 . . . 7 h . . . c ( .   . h J . . . & > . . . a a . . . g h . . R c . . . ! ",
"= H b l . . . . . . 2 / ' X.. . ; v b . . . . . . & q = . . 0 Z q . . h &.s   . h %.s   . = 3 & . . a S 7 . . h E X.c . . l @.b ",
"  @.$X: . . . . . .   v.%X+ . . +.!.& . . . . . . . S 2.o .   %.F.O . . )..X. .   G.'.O . . f f . . . A.A.. . . ].!.X . X OXT.  ",
"< ( x >.o . . . . . : H y X . 7 G v ] . . . . . . & 7 w b . . & a b . . < R ' . . : H G . . + + . . r s q : . . 9 9   . G H < . ",
"K o . 9 y.O . . . 7 h . . . 7 a . . w ... . . . = - . . 7 M . . . 7 b   . . z ] . . . u L . . .   t 7 . . = - . . . . H r . . . ",
". . . . 2 ,.X . < x . . . < h . . . . e -.o . & = . . . . < G . . . q Z . . . s ! . . . a L . . w 7 . . . . - - . . b e   . . < ",
". . . . . 2 q.E x . . & z v . . . . . . 4 :.H = . . . . .   7 P q . . 7 P q . . s 6.s . . r ( R 0 . . . . . . = v ' u . . = w & ",
". & +.o .   f.&X= . . >.L.O . . q 2 . . . K. Xo . . + ` . . . =.I.X . . 1.B.  .   ).}.O   o /.Q.  . . A * . . . I.b.. . . O.b . ",
"& 7 ; o.o . & u . . h ( ; . . w a . . . 7 h b T o .   w T . . & h T . . * = . . h S 4 . . h h 7 . . H a . . . h h , . . a q O . ",
"< . . ; >.O . .   c -.. . . 7 a . . . < q . . - H o . . 0 ] . . . 7 R . . . . h a . . . g e . . . H a . . . a 7 . . . h 7 . . . ",
". . . . = :.X . b E . . . 0 t . . . 0 q . . . . - ! . . . : ( o . . 7 / . . v e . . . b w . . . H e . . . x 2 . . . v - . . . / ",
". . . . . = 3.a._ . . , N u . . = x 9 . . . . . . : #.A . . 7 &.D . . 7 >.@.u . . w N q . . z X.u . . 9 N < . . w n - . . n @.q ",
". < ' O . . i.@X& . . o.g.o . . ] z.+ . . o ' X .   =.D.O . . V._.+ . . M.OXo . . r.n.O . . h.c.  . . } +.. . . F.O.. . O (.b.. ",
"< q + T o   + : . . 7 q $ . . t g : K o . . ; @.X . O % . . 7 q 0 v . . $ y R . . + w K . . $ : 1 . . + O . . ;.a O   . ! a e a ",
"w . . $ R o . . . 0 q . . . t q . . & T . . . ; O.X . . . 7 - . . & c . .   - E . . . < R . . . + < . . . . -.e . . . ( 7 . . 7 ",
". . . . + Y O . < 0   . . u u . . . . = Y o . . : ( o   0 : . . . . = k o . . : Y o   . 7 Y o   . $ > . .  .u . . o ] 0 . . . . ",
". . o . . O { ..w . . < I i . . . . . . & ^ Z . . - Z...: . . . .   . & F r . . 2 &.Z . . 2 %.V . . + ' j.e . . n u.7 . . . . . ",
". 7 X.O . . o./.$ . . 4.b.O . . o z o . . %.B.. . . F.%X+   . + t.o . . #.=.. .   U.Y.O . . 9.B.  . . |.(.. . . /.!.. . . & N . ",
"< 7 + T O . O = . . h s & 7 . . . O z o . O % . . 7 7 7 N o . . : @.o . O O . . ! h < v o . $ @ . . / a $ . o ( t l ' . . . w G ",
"w . . + / $ . . . c k . . o w o . . O h o . . . q - . . & R O . . ; ;.X . . . ! q . . * c . . . . ( q .   o / 7 . . q ' . . . 0 ",
". . . . O ( + . M a . . . . o 0 o . . O j o . 7 & . . . . & W X . . - :.X . ' 0 . . . . & G . .  .< . . .  .: . . . . 0 { . . . ",
". . . . . O >.f.i . . . o . . o q 6 . . O R ( = . . . . . . & ^ D o . - k.z.9   . . o . . * a.g.7 . . N d.<   . . . . . 8 9.P . ",
". . . . . . 0.{.$ . . 0 u.$ . . 5 f o . . 0.k.O . . Z T o .   ( Z.O . . v.^.. . o ! N o . . n.!..   . c.[.O . . O 1 . . o U.W.X ",
". . . . . H a + . . 7 = # 3.$ . . o . . k 7 o . . G 7 O M o . . $ l o . o X . o / 3 + b o . o = ) o . o < X.o . . + w . . X 0 { ",
"$ . . . G t . . . 7 = . . $ 4.& . . . c 7 . . . G < . . $ G o . . O u o . . . / - . . & b . . . & H o . . < ;.o . . + 0 . . . 7 ",
"x + . b a . . . 0 = . . . . O 2.* . b 9 .   . b 1 . . . . + G O . . O a o . _ < . . . . & Z o . . * G X . . - ;.X . . + 0 . . . ",
"o  .z.x . . , v = . . . . . . O F.L.9 . . z @.< . . . . . . O ^ H o . O <.z.< . . o o . . & ^ Z . . & =.A . . - D.#.. . $ f 4 . ",
". ` @X, . . w | # . . . . . .   K.|.@ . . k.m.O . . . . . . . &.I.+ . . h.m.. . . W % . . . 6.L.. . . %.=.. . o H.S.o . O 6.( . ",
". . + b $ . . O w o . . . . . -.s O . . ! q # x O . . . . . w & =  .+ . o o . . Y - . . . a & : @.O . . o . . 0 % o . O H % & t ",
"= . . . G $ . . . q O . . . { e . . . Y 7 . . o h O . . . q $ . . O O.+ . . X L = . . o t O . . * O.+ . . o 7 O . . o H + . . $ ",
"H & . . o H * . . . q O    .8 . . . ' < . . . . . h O . w $ . . . . + ;.O . R & . . . i $ . . . . & :.o o 7 o . . o K O . . . . ",
"o ( &.O . . Y ^ o . . +.!.l . . n h.w . . . $ . . o ( O.$ . . X + . . & l.T.= . . y m # . . . . . . - K.0.o . . N | + . . . . . "
};
