/* XPM */
static char *n7[] = {
/* columns rows colors chars-per-pixel */
"64 64 217 2 ",
"   c #01022F",
".  c #000133",
"X  c #050B36",
"o  c #080F36",
"O  c #050D39",
"+  c #071036",
"@  c #091337",
"#  c #07113B",
"$  c #09153B",
"%  c #0C1B3D",
"&  c #101E3B",
"*  c #0F213E",
"=  c #11243D",
"-  c #142A3E",
";  c #081641",
":  c #0B1C42",
">  c #0E2344",
",  c #0D2449",
"<  c #0F294A",
"1  c #102642",
"2  c #122B44",
"3  c #112C4A",
"4  c #163245",
"5  c #193544",
"6  c #1B3B46",
"7  c #14334B",
"8  c #183649",
"9  c #17394E",
"0  c #1A3C4C",
"q  c #0E2C50",
"w  c #102E51",
"e  c #133552",
"r  c #163A53",
"t  c #193E52",
"y  c #113758",
"u  c #143D5A",
"i  c #212149",
"p  c #252A4C",
"a  c #27304E",
"s  c #2B3952",
"d  c #3F3F62",
"f  c #403F61",
"g  c #1D444D",
"h  c #1F494F",
"j  c #174057",
"k  c #1B4353",
"l  c #1E4954",
"z  c #16425B",
"x  c #19455B",
"c  c #1C4B5B",
"v  c #1F525D",
"b  c #214446",
"n  c #21464A",
"m  c #224B4B",
"M  c #25544C",
"N  c #29544C",
"B  c #2C5E4E",
"V  c #214D53",
"C  c #204F59",
"Z  c #334B56",
"A  c #334D5A",
"S  c #245452",
"D  c #275954",
"F  c #285C53",
"G  c #22555B",
"H  c #255A5C",
"J  c #285D5A",
"K  c #37575D",
"L  c #2B604E",
"P  c #2A6254",
"I  c #2F6A56",
"U  c #26625E",
"Y  c #2B635B",
"T  c #2E6B5C",
"R  c #316D55",
"E  c #337256",
"W  c #32725B",
"Q  c #36795D",
"!  c #38795B",
"~  c #164A64",
"^  c #174A64",
"/  c #1A4D63",
"(  c #1E5363",
")  c #1A546B",
"_  c #1E5B6A",
"`  c #1B5D72",
"'  c #205562",
"]  c #235C64",
"[  c #225D69",
"{  c #1E6376",
"}  c #1E6979",
"|  c #256165",
" . c #296463",
".. c #2C6B63",
"X. c #25646B",
"o. c #26696E",
"O. c #2A6C6B",
"+. c #386761",
"@. c #2C736C",
"#. c #2D776C",
"$. c #327563",
"%. c #357B65",
"&. c #387F64",
"*. c #30756A",
"=. c #337B6C",
"-. c #256C73",
";. c #266B77",
":. c #2A6E72",
">. c #206B7B",
",. c #2A7373",
"<. c #2D7975",
"1. c #277578",
"2. c #25747A",
"3. c #2C7C7B",
"4. c #337E72",
"5. c #404162",
"6. c #444A66",
"7. c #434A69",
"8. c #48556B",
"9. c #475974",
"0. c #555572",
"q. c #486769",
"w. c #477C6A",
"e. c #4B657A",
"r. c #577674",
"t. c #3B835D",
"y. c #3D8E5F",
"u. c #3A8463",
"i. c #3C8B64",
"p. c #35836C",
"a. c #3A876B",
"s. c #35896D",
"d. c #3A8C6A",
"f. c #3D956D",
"g. c #2E8173",
"h. c #2D817C",
"j. c #348374",
"k. c #388D75",
"l. c #32857A",
"z. c #348C7C",
"x. c #3B9878",
"c. c #3DA27D",
"v. c #449B61",
"b. c #439768",
"n. c #42996B",
"m. c #4C8770",
"M. c #5D877A",
"N. c #62927B",
"B. c #49A76B",
"V. c #4CB06A",
"C. c #52BC6E",
"Z. c #44A873",
"A. c #49AC72",
"S. c #4AB476",
"D. c #49B57C",
"F. c #52BE75",
"G. c #50BF79",
"H. c #4EC17E",
"J. c #55CA77",
"K. c #51C57A",
"L. c #5AD47C",
"P. c #68EF7E",
"I. c #237382",
"U. c #267B82",
"Y. c #297E83",
"T. c #237D89",
"R. c #4F7586",
"E. c #6D6D85",
"W. c #2C8583",
"Q. c #26818A",
"!. c #29868A",
"~. c #2B8D8B",
"^. c #318784",
"/. c #318C83",
"(. c #359886",
"). c #2D8F91",
"_. c #2E9392",
"`. c #2C9799",
"'. c #319A93",
"]. c #3DA985",
"[. c #31A39B",
"{. c #35A798",
"}. c #2D9DA0",
"|. c #36AEA2",
" X c #37B6A8",
".X c #34B5AD",
"XX c #5F9387",
"oX c #558993",
"OX c #5C9D9F",
"+X c #669F82",
"@X c #46B887",
"#X c #40BC96",
"$X c #6CAB89",
"%X c #5DA1A2",
"&X c #64B0A5",
"*X c #3CC19B",
"=X c #3AC6B5",
"-X c #3FD0BA",
";X c #4FC785",
":X c #5BDA84",
">X c #55D688",
",X c #45C59C",
"<X c #4DD99C",
"1X c #76C895",
"2X c #79D196",
"3X c #5CE28A",
"4X c #55E69A",
"5X c #61F08C",
"6X c #45CDA9",
"7X c #49D9A6",
"8X c #45DAB5",
"9X c #6CC7AD",
"0X c #51EAA9",
"qX c #4CECB7",
"wX c #7AE0A6",
"eX c #3DDDCB",
"rX c #6CE7D8",
/* pixels */
"0.5.M.+X5.5.f r.M.f f q.2Xr.f 5.8.N.q.5.f r.1X8.5.f 5.f 5.5.5.9X9X5.5.5.1XXXf 5.e.wXM.f 5.5.f 5.d A %XrX9.5.f &XwX6.5.5.N.$X6.E.",
"i . X m T . . . D V . . o 8 : . . X V $ . . o T @ . . . . . j : 4 T . . o . . ; X.@ g 1 . . . . . 3 z O . . c t * %.X . . % t 5.",
"+.. . . k O.. . . G C . . . 8 : . . . c $ . . o  .X . . . t # . . 2  .. . . # ] . . . 9 2 . . . 3 V . . . l 7 .   # *.O . . # R.",
"s V . . . l X.. . . ] c . . . 9 : . . . x # . . $ o.o . 0 # . . . . 9 [ . % J X . . . . r 3 . 4 V . . . m t . . . . $ O.X . . 5.",
"i : 2.y . . [  X^ . . ;.{.3 . . z ^ O . . _ ) X . o z.k.% . . X X . . r D.d.X . . X . . . c f.D . . 2 i.m . . . O . . $ _.} . d ",
"i # '.) . . , 8X3.. . e 7XO.. . < } ; . . ) T.X . . (.;XX . . # D . . X K.Z.. . . 4 g . . 4 H.4 . . Y A.% . . ;.< . . . '.`.. f ",
"p G # . . $ x $ * 2 . . O D k . . . . . , ; X . . 3 ; % T X . . % D . . o 6 ... . . 0 g . . o . . , : X . . o.e . . . e ; X . 5.",
"q.X . . $ c . . . > 2 . . . Y k . . . 2 ; . . . 3 O . . # ..O . . % G X . . 0  .. . . g k . . . 1 , . . . Y 4 . . . e O . . X R.",
"i . . @ V . . . . . , , . . . X.j . - % . .   2 + . . . . # :.# . . % ( X . . j o.X . . j j X > 1 . .   Y 4 . . . 9 X . . X v 6.",
"i X L F . . . : . . . < ) : . . @.,X7 . . * h @ . . X @ . . # '.>.. . : !.^ . . c  Xz . . v ].g .   m V.g . . 4 F # . . n P X A ",
"i . B 6 . . e <.4 . . # ) ; . . 3.,X8 . . % g . . . ( t.% . . 3.z.X . . h.f.. . : .Xu . . [ @XV . . n B.@ . . :.n.= . . n W X f ",
"p . . . . 7 <.. % 4 . . . . . | /   8 : . .   . X c # X p.$ . . O V X .   = $.X . . . . k ( . 0 4 . . . . . ' : X %.% . . . 7 6.",
"w.X . . 4 4.. . . % 7 . . . Y l . . . 3 : . . . C # . . + j.$ . . O c . . . 1 O.. . . l c . . . 9 7 . . . G : . . X j.: . . X e.",
"p ..X 5 $.. . . . . ; 7 . P l . . . . . 3 > . C $ . . . . X l.; . . O c X . . 2 ,.. m l . . . . . 7 7 . D % . . . . X <.> . . f ",
"i & J.S.. . . : . . . h >XQ . . . 6 . . . ..Z.1 . . . . . . X =X).. . ; W.^ . . l L.%.. . . . . . . #.;X7 . . . . . . O  X`.. 5.",
"i   B.P . . , u . . . o.@X4 . . x T S . . 0 f.> . . . . . . > |.I.. . # 2.p.X . % S.I . . . . . . X h.D.D . . . . . . : |.Q.. 5.",
"p . . . . 1 e . . .  .c . . . c : . D G . . . 4 : . . . . % <.O . . O , . $ $.X . . % l . . . . . X.> . P S . . . . @ l.O . . 7.",
"q.o . . 1 t . . . H C . . . l > . . . J G . . . 3 % . . > =.X . . O 1 . . . $ O.X . . > l . . .  .2 . . .  .c . . % j.# . . > OX",
"p ] = - n . . % D D . . # g * . . . . . ] ' ; . . 7 1 - %.. . . $ 1 . . . . . ; o.$ . . > x % Y 2 . . . . . :.c - a.o . X 2 4.5.",
"1 $ @Xa.. . @ L.i.. . = v.n . . . 6 . . . _.eX; . . A.>XX . . g 0 . . . % X . . e .X~ . . h :XS . . . . . . . Z.3X@ .   v.F.X 5.",
"i . Y 0 . . x d.W . . o P W . . . 6 Y . . r Q.X . O #.T . . $ x : . . : 3 l X . O >., . . X.d.D . . . . . . o (.n.4 . . N i.= 5.",
"a . . . . 7 e . % G X . . 1 Y X . . g H . . . . O l . . . # 7 . . . : , . X l X . . . . v > . 2 l . . . . # 3.# . g 2 .   . ] e.",
"K $ . . 4 t . . . # ' X . . 1 ] . . . l ] . . O l . . . # 7 . . . $ 1 . . . . x X . . G 2 . . . 1 c . . # p.o . . . C 3 . . . oX",
"i k * g 0 . . . . . # ' ; . . , -.: . . k o.* g X . . % 7 . . X % 1 . . . . . X c % D = . . .   . > c = &.X . . . . . x e X   f ",
"2 o D.a.. . . 3 X . . e `.y . . _ =X, . . z.4X> . . n E . . . N P . . . . . . . 2 <XU   . . J X . . u.3X8 . . . . . .   ~.~.. 5.",
"i . D 4 . . , : 2 X . X ) # . X -.} X . # ,.s.g . . = F 4 . . * W 2 . . . . . . :.g.% . . X.7 D X . - t.2 . . . . . . < 1.( % 5.",
"a . . . . , ; . X 3 . . . . X  .$ . . # ] X . 9 l . .   k 2 . . . ..2 . . . . ,.t . . . X.% . % H . . . # > . . . . > ] . . < 8.",
"A : . . 1 $ . . . X 3 . . .  .$ . . X H X . . . 7 x . . . k 3 . . X O.2 . . =.0 . . .  .> . . . %  .. . . $ > . . > H . . . . 9.",
"i 9 4 2 % . . . . . X , 0 J $ . X 4 J X . . . . . 7 x , . . x t ; . . -.S W 0 . . 5 P 1 . . . . . : ( w . . $ 7 m P . . . . . f ",
"i X x.@.. . . b * . . 6 K.m . . m @X= . . ; , . . . ~.}.. .   {./.  . + P.B.. . = J.S . . . N X . . _ *X> . . t.K.. . . . . . 5.",
"i . 3 m $ . . X &.% . X b X . @ 3.0 . . ; _ X . . , _ w . . t ) T 0 . . m = . . / m b.% . . % u.X . # c $.. . = S g . . . . . f ",
"s . . . 4 ; . . X p.% . . . # ,.# . . % G . . . 2 c . . . t t . . J 0   . . . c : . X p.$ . . % =.X . . 2 *.. . . 2 t . . . . 9.",
"A > . . . 7 $ . . X j.> . # =.O .   % H . . . 2 V . . . 8 l . . . .  .r . . V % . . . X j.% . . : l.X . . 3 o.. . . 3 r . . 3 e.",
"i 3 e ; . . u q O . . ^.D u.X . X 6 H . . @ 6 m .   = m g . . . . . . X.H H % . . . . . # /.) X . : ^.~ . . 2 1.u . . 3 ' V 2 f ",
"i X |.) . . X T.y . . V 5XY . . b v.= . . F Z.$ . . x.F.. . . = n . . @ 4Xx.. . X ~ . . . c qX( . . Y.qXw . . ~.6X. . . f.@X. 5.",
"i @./ O . . e q O . O o.V i.& . X - . . $ r - . . j [ D W . . . n g . . 0 % . X c O . . ; ^./ l X . # l P X . : c n . . 1 S c 5.",
"m.g . . . 7 O . . O O.# . X k.* . . . # 3 . . . 0 ] . . g ... . . V 9 . . . . C # . . $ j.X . X l X . . : ..X . . % k . . . t oX",
"Z . . . 4 o . . O ..O . . . X z.% . # 2 . . . g G . . . . k O.. . . l t . X V o .   + p.O . . . O c X . . ; o.X . . : x . . . 9.",
"i . 1 6 # . . N I # . . . . . # z.l.7 . . = E M . . . . . . k )./ . . c #.U # . X ! i.# . . . . . X / z . . : -.) . . : ( e . 5.",
"i . R I . . # C.Q . . . B - . . U 0X8 . . R J.% . . . . . . . -X.X. . @ 7Xk.. . 0 4XF . . . 5 @ . . u T.; . . ~.,XX . . -.].. d ",
"i . X M n . . % I 4 . . . a.1 . . 2 G o . X = 6 . . . . . . X.z ; . . c 2 X . # ^.- 4 $ . . . t # . . # . . c ] 4 ..X . X t  .5.",
"A . . . l C . . .  .7 . . X j.1 . . X G X . . X 0 . . . .  .3 . . . c # . . X l.$ . . 2 $ . . X k O . . . l ( . . % ... . . 7 OX",
"Z 9 . . . c k . . .  .e . . X l.< . . O ( O . . # k . . H 4 . . . V $ . . @ a.$ . . . . < # . . . j O . g H . . . . : X.. . . 9.",
"i : / , . . ' Y.q . . 2.2.: . . /.!.# . X X./ . . # ..i.5 . . 5 S # . . E n.$ . . . . . . e y X . X U i.I . . . X . . > Y.) . 5.",
"i X } ^ . . : 7Xg.. . r 7X] . . _ 0X9 . . ~ ).O . . @X@X. . . p.F . . # :Xb.. . ; 2.. . . w T.: . . %.3X1 . . / w . . . [.{.X A ",
"i . X X . O _ > M S . . : Y 2 . . , I * . . ; . . [ e @ . . e % X . . e % X . ; :.X . . 1 / O . . : < % . . G e . . . x > : 7 f ",
"A . . . $ ] X . . G k . . .  .3 . . .  .% . . . H 9 . . . 7 X . . X 7 X . . $ O.X . . 1 C . . . % 3 . . . x t . . . V : . . ; 9.",
"a 7 . # J . . . . . X.k . . . o.3 . . . o.$ . H 0 . . . 7 # . . . 0 X . . $ %.X . . : C . . . % 3 .   . n g . . . g : . . . . 7.",
"i $ d.%.X . . . . . . X.[.< . . -._.; . X l.S.0 . . 2 m # . . 6 g X .   t.u.O . @ W S . . @ m 2 . . - y.b . . - E = . . . . . d ",
"i # @Xn.. . . . . . . ) 8X| . . z .X: . . x.>X$ . . (.n.X . . n F . . X V.I . . 9 @Xm . . @ t.g . . m K.4 . . n E . . X ;.I . 5.",
"p 9 X 4 U . . . . . 7 X.. n 4 . . . . . ( x . . . ,.< @ T X . . o 2 . .   . . > :.. 2 2   . . S 2 .     H % . . . . . o.> $ X.6.",
"A X .   4  .. . . 2 | . . . l 3 . . . H k . . . *.2 . . @ @.O . . # 3 . . . *  .. . . 2 2 . . . G 2 . . . G % . . X #.% . . % oX",
"p . . . . 2 X.. 4  .. . . . . x e . J 0 . .   %.2 . . . . # O.X . . O 3 . = Y X . . .   2 3 . . . G 3 . . . ] : X ..% . . . . 5.",
"i . % X . . r G.i.. . . $ . . . T F.m . . M C.6 . . . X . . $ ).{ . . % Z.f.X . . $ . . . e ` ; . . 2.~.# . . s.S.= . . . X . 5.",
"i $ j.! .   o F.Y . . , G = . . n K.4 . . B J.- . . . n X . . U.} . . $ D.I . . $ G g . . ; ` ; . . !.#X7 . . W F.% . . X 0 X 5.",
"s *.X > p.X . X . . < 3 . 1 1 . . X 4 % . . X J : . . X g X . . . . X < X . . ; 3 . 2 n . . . . .  .r . V 1 . . X D $ . . X x 5.",
"w.X . . 1 j.. . . 1 3 . . . > 2 . . . 4 : . . . ] : . . X l X . . O 3 . . . % 2 . . . 3 c . .    .j . . . G > . . . ] % . . X R.",
"i . . . . , <.# * 8 . . . . . < < . . . e : . . X [ : X . . x # o 2 . . . % 2 . . . . . 3 x X Y g . . . . . ( > X . . ' $ . . A ",
"i . & o . . 4 <X#.. . . . . . . y 1.O . . z -.X . . !.Q.. . . z.,.. . . F h . . . . . . . S :XF . . . 1 . . . ;.!.. . . T.I.. f ",
"i . # Q X . X c.... . . . . . . X.j.V . . , j.6 . . ~ { . . % {.c . . : ..F . . . . . . . k S.= . . <.G 2 . . u x.1 . . ( ) . f ",
"p . . $ *.O . . # 4 . . . . . ] 7 . V g . . . Y 7 . . . . : <.X . . % e . + 0 . . . . . > ;     . @.< . 8 2 . . . H = . . . . 7.",
"K X . . $ 4.O . . # 3 . . . H 3 . .   C k . . .  .4 . . % j.X . . % 9 . . . O k . . . 1 > . . X ..7 . . . 9 1 . . . ] , . . 3 &X",
"p k X . . $ 3.$ . . # 3 X D 2 . . . .   x x X . . X.3 * u.X . . % 0 . . . . . # t X 2 % . . X W 2 . . . . . t 3 . . . | 1 2 l.f ",
"i @ !.~ . . 3 =X} . . 0 K.P .   X c . . . W. X$ . . F.:X+ . . M M   . . 2 . . . 2 c.l . X - J.D . . . 9 . . . X./.. . . F.L.O f "
};
