/* XPM */
static char *neon4[] = {
/* columns rows colors chars-per-pixel */
"64 64 252 2 ",
"   c #060112",
".  c #090115",
"X  c #0B021C",
"o  c #10031E",
"O  c #0D0323",
"+  c #0E042B",
"@  c #130424",
"#  c #13052C",
"$  c #1B052C",
"%  c #170B2B",
"&  c #140633",
"*  c #1B0635",
"=  c #1A0A36",
"-  c #1A073A",
";  c #160838",
":  c #16083C",
">  c #1B093C",
",  c #1D103B",
"<  c #220633",
"1  c #260937",
"2  c #27083A",
"3  c #23093C",
"4  c #1A0740",
"5  c #1D0A43",
"6  c #1E0C4A",
"7  c #250745",
"8  c #230A44",
"9  c #2A0B43",
"0  c #230C4B",
"q  c #2A0D4C",
"w  c #330A45",
"e  c #390A46",
"r  c #330C4B",
"t  c #3C0C4C",
"y  c #271249",
"u  c #31124D",
"i  c #250E53",
"p  c #2B0E53",
"a  c #270F59",
"s  c #2C0F59",
"d  c #330E52",
"f  c #3B0E52",
"g  c #3B0D5C",
"h  c #271056",
"j  c #2D1154",
"k  c #271059",
"l  c #2B115C",
"z  c #331155",
"x  c #3C1055",
"c  c #33125B",
"v  c #3B135C",
"b  c #35195D",
"n  c #360F63",
"m  c #2E1362",
"M  c #2F166A",
"N  c #331564",
"B  c #3C1563",
"V  c #351965",
"C  c #3A1B63",
"Z  c #34166A",
"A  c #3A166C",
"S  c #35186C",
"D  c #3B186C",
"F  c #391672",
"G  c #3B1A73",
"H  c #3E1B7A",
"J  c #410D53",
"K  c #4B0E58",
"L  c #540E5F",
"P  c #43125C",
"I  c #49125C",
"U  c #421564",
"Y  c #4B1463",
"T  c #451866",
"R  c #44166B",
"E  c #4B166A",
"W  c #44186C",
"Q  c #4B196D",
"!  c #54156B",
"~  c #4C0F72",
"^  c #441A73",
"/  c #4B1B73",
"(  c #471578",
")  c #431C7C",
"_  c #4C1C7B",
"`  c #5A1776",
"'  c #531C74",
"]  c #531D7A",
"[  c #5C1D7C",
"{  c #66116B",
"}  c #641A7A",
"|  c #78147B",
" . c #57207E",
".. c #60207F",
"X. c #441D82",
"o. c #4C1E83",
"O. c #4A1A89",
"+. c #541E84",
"@. c #591988",
"#. c #4D1892",
"$. c #551B95",
"%. c #631F82",
"&. c #691C88",
"*. c #761A86",
"=. c #661C98",
"-. c #791998",
";. c #4B2188",
":. c #52228C",
">. c #5A218A",
",. c #4F2491",
"<. c #552292",
"1. c #59239B",
"2. c #6A2187",
"3. c #75228D",
"4. c #7A228E",
"5. c #672398",
"6. c #772397",
"7. c #5B1BA8",
"8. c #5F13B6",
"9. c #6918A9",
"0. c #791CA7",
"q. c #6718B7",
"w. c #7718B6",
"e. c #5D23A6",
"r. c #6323A4",
"t. c #6523A9",
"y. c #7925A9",
"u. c #6924B7",
"i. c #7828B6",
"p. c #7B35BA",
"a. c #7819C7",
"s. c #751ED4",
"d. c #6E21C5",
"f. c #7926C7",
"g. c #7725DA",
"h. c #7A28E0",
"j. c #8B1993",
"k. c #961897",
"l. c #A3149B",
"z. c #862398",
"x. c #92249E",
"c. c #831BA4",
"v. c #9817A6",
"b. c #901BB8",
"n. c #A717A8",
"m. c #B317AB",
"M. c #A91CB7",
"N. c #B618B7",
"B. c #8A24A3",
"V. c #8B24AB",
"C. c #8628AA",
"Z. c #9826A8",
"A. c #9130AF",
"S. c #8526B6",
"D. c #842DB3",
"F. c #9727B6",
"G. c #8D33B4",
"H. c #8735B8",
"J. c #8B3CBC",
"K. c #9133B3",
"L. c #9736B9",
"P. c #933CBE",
"I. c #9C3DBC",
"U. c #A425AC",
"Y. c #A828B9",
"T. c #B424BB",
"R. c #B528BA",
"E. c #A636BD",
"W. c #C81BBA",
"Q. c #C822BC",
"!. c #D427BC",
"~. c #8A42BF",
"^. c #9742BC",
"/. c #9B43BD",
"(. c #851BC8",
"). c #921BCF",
"_. c #AE1DC6",
"`. c #8727C8",
"'. c #9828C9",
"]. c #863AC6",
"[. c #8C3DC4",
"{. c #9839C6",
"}. c #8929D5",
"|. c #972AD4",
" X c #8E31D7",
".X c #9833D7",
"XX c #A928C6",
"oX c #BA2AC4",
"OX c #B728C8",
"+X c #A63AC5",
"@X c #B635C9",
"#X c #A82DD3",
"$X c #B529D1",
"%X c #A636DB",
"&X c #B936D4",
"*X c #883AE3",
"=X c #973EE2",
"-X c #A43EE2",
";X c #C62AC8",
":X c #D32AC4",
">X c #C534CE",
",X c #D83ACB",
"<X c #C52ED2",
"1X c #C838D4",
"2X c #D23CD2",
"3X c #8B42C2",
"4X c #8C45C6",
"5X c #9244C3",
"6X c #9C44C1",
"7X c #954AC6",
"8X c #9B4BC4",
"9X c #9542CC",
"0X c #974ACA",
"qX c #9C50C7",
"wX c #9C53C9",
"eX c #9941D4",
"rX c #A346C4",
"tX c #A14CC4",
"yX c #A355CA",
"uX c #AC41DE",
"iX c #B242DD",
"pX c #AF56D2",
"aX c #8F4FEA",
"sX c #9343E6",
"dX c #9C46E5",
"fX c #A647E3",
"gX c #B34DE1",
"hX c #9E68ED",
"jX c #B86AE9",
"kX c #BB76EE",
"lX c #AC77F2",
"zX c #B579F1",
"xX c #C84AD8",
"cX c #D747D2",
"vX c #D64BD3",
"bX c #E651CD",
"nX c #EA6BD7",
"mX c #EB7ADE",
"MX c #F27DDD",
"NX c #C25FE0",
"BX c #C374EC",
"VX c #C678EC",
"CX c #DB7EE6",
"ZX c #D67DE8",
"AX c #E67EE1",
"SX c #AF89F6",
"DX c #B88AF6",
"FX c #F88ADE",
"GX c #CD8DF1",
"HX c #E485E6",
"JX c #F487E1",
"KX c #EF95E6",
/* pixels */
"X O O O + + O + & ; ; ; : 5 : 5 4 4 5 5 6 6 y 5 6 0 0 0 h 0 y 0 0 0 0 0 y 0 i > 8 0 5 8 5 5 5 > : : = ; ; ; & # O # + O O O X X ",
"  .   X X O X O O O O O O + + + # & & ; ; : ; & = : = = : = : > > > : = : > * * ; = & $ & $ % # $ @ @ @ O O X O . X . . . .     ",
"+ + + + + ; ; ; & : 4 4 5 5 : 5 6 0 0 i h h h h h h l l l l l 8 j j j l l j j j j y 0 p y 0 9 5 = 5 5 5 > > : = & * @ # + O O O ",
"+ & + : : : 4 4 5 5 6 6 6 h 5 h k k k l l m m m m m m M V M N i M V M V M N V m N l l j l l h y 8 0 0 0 6 8 5 > : : ; & & & + + ",
"+ + & & ; ; 4 4 6 6 6 6 6 6 6 h a k l l m m m m V M N M V V Z j V M Z N V N N N c m l l j j j 0 8 0 0 0 5 8 5 5 > : ; & & # + + ",
"+ & & ; 4 4 4 4 6 6 6 6 h h 6 h a m m m m m N N V M S S S S D s D D S S S V V V N V V c c l l q 0 p q 0 0 8 5 5 > > = & & # # + ",
"+ + : ; : ; 4 4 5 5 6 6 h h h h s a m m m N N Z M N S N D D G c D D A A D A S V V c c c b l c j 8 p 0 q 0 9 5 5 > > = & & & & # ",
"O O O + + + + & + & ; : : 5 : , 6 5 0 0 i i p a j p s s s l c a c p p c p p p d p p q q 0 9 0 9 3 3 > * & * $ % $ @ @ O O O X X ",
"+ & ; ; : : ; 5 6 6 6 k k k m k m m M M M S N N S D D ) ) H ) ^ H A ^ G ^ A W d B N V B C C c c c j q j 0 9 8 8 * * : * = : * @ ",
"4 4 4 6 0 i 5 i k k m m M M S S S F G H ) ;.) H ;.;.:.,.:.:.:.:.;.:.:.;.:.:.;.^ o.o._ ) ^ H G D A V c c c l l j 8 0 8 8 5 > > : ",
"4 4 4 6 6 i 5 h k k m m M M S S F F H X.;.O.O.X.:.<.<.:.,.<.<.<.<.<.>.:.<.>.@.( :.@.+._ ) W D A C N B c c j j q 8 0 8 5 8 : > * ",
"4 4 6 6 6 0 5 a k m m M M S S H H H X.O.,.7.e.$.e.e.r.1.r.t.r.r.r.r.r.5.r.r.5.@.5.5.$.@._ / ^ R W B V V c c z j 8 q 0 8 5 3 : : ",
": 4 5 6 0 i 6 a k l m m M S S G H H O.$.e.d.d.e.u.d.u.u.u.f.i.u.f.S.w.i.i.`.q.9.S.S.0.&.+.( Q ^ W D B v c c z j 9 q 0 9 8 > : = ",
"+ + + ; : 5 ; 5 6 6 0 h h k l M M M X.#.8.h.g.8.q.*Xs.q.a.sXa.q.a.=Xw.w.}..Xb.w..X).w.@.~ R B v c d d r q q 9 9 * 3 * $ $ $ @ @ ",
": 5 6 6 6 6 i k h l m M M M M S H ;.,.e.d.aXaXd.a.SX=Xf.g.GX}.w.}.DX).`.%XzX`.'.jXgXb.=.@.o./ R v B B B v b z z u 0 8 8 8 3 > * ",
"6 6 k k m m m M S S G H ) ;.H ;.,.,.1.u.g.aXaX`.}.SXsX`.*XGX}.`.|.DX|. XfXVX{.'.BXgX`.y.5.5.<. ./ _ _ / ^ W D B c c j p q 0 0 0 ",
"6 6 h h k k M M M F F H H X.H #.,.e.e.u.f.aXaXf.}.lX=X X XDX X(.|.zX|.{.uXBX'.'.jXiX'.C.y.5.5.+./ / / / W T A B c c j u q 0 8 8 ",
"6 6 6 h k m m M M F H H X.X.X.,.e.u.f.g. X*X X X X|..X X.X.X|.|.%X%X.X.X.X%X.X#X#X#X'.'.F.C.5.2.] >._ / ^ W T B v c z z q 0 0 8 ",
"6 i h h l l m M M F H O.O.O.O.e.u.d.h.hXlXlXlXlXlXlXlXzXkXzXkXkXzXkXkXVXBXBXBXBXVXVXBXNX#X'.y.=.@.@.>.' / ^ T B B c z j q y 9 8 ",
": : 5 6 6 6 i h a m F H O.#.#.#.8.d.DXhX*X*XsX*XsX=X=XsX=X-X=X-X-X-X%XuXuXuXfX&XiX&X&XjXGX_.c.&.` ` ` ! Y g f r q 9 9 2 3 3 * * ",
"5 6 6 h h k 6 m M F X.#.7.7.q.q.u.*XlXg.f.g.(.a.`.}. X|..X|.|..X|.'.'.#X'.#X'.b.'.'.F._.GX$Xb.B.c.c.-.&.` E U v w d u u q q 3 3 ",
"h k l M M G m H X.,.1.u.f.f.g.g.}.sXlX X].].].H.].4X4X9X0X9XeX9X9XeX9X9X9X{.9XD.P.L.{.#XZX&XXXOXXX_.XXc.5.@.] / v T V v c c j j ",
"h k l m Z S m G H #.1.u.g.SXSXSX*XsXSX X].p.p.i.~.~.J.].[.[.3X5X[.[.[.[.J.[.J.C.J.J.'.@XZX&XiXHXHXAX$XV.3.%.] ^ v T B c z j q 0 ",
"h k l m Z S m G H ,.1.8.s.g.h.h.}.sXlX X].p.p.u.f.p.~.].3X3X3X3X~.5X~.J.J.J.J.y.G.K.{.$XZX1XOXOXOXOXXXc.3.%.] Q B T B v c z j q ",
"h h l m Z S m H ) O.$.q.d.f.f.f.}.sXzX X].].p.y.p.~.~.~.~.~.~.~.5X~.~.~.~.~.~.6.J.K.+X&XCX&XXXXXY.Y.Z.0.3.}  .Q P T U v z z q y ",
": 5 0 i s m a n F H #.7.a.g.g.g.g.=XzX}.f.i.i.r.i.i.i.t.i.p.D.D.i.C.y.C.C.C.D.6.C.V.b._.AX$X_.OX_._.M.j.} ` Y Y t d r r 9 9 3 3 ",
"5 0 0 s a s N Z A O.$.q.h.SXDXDX*XsXzX}.`.i.u.i.t.i.p.p.p.D.D.0.D.D.G.D.H.H.D.C.D.V.F.$XCX<X1XKXHXJXoXv.*.} Y I P x r q u 9 2 3 ",
"l m Z F H H ) X.O.<.t.u.f. X}. X.XdXzX%X9X4X4X4X7X7X7X^.wXwXwXJ.wXwXqXqX/.wX/./.9X+X+X&XCX1X&XOXOXOXR.F.6.5... ._ / Q T v c c z ",
"k m m Z S G H ) X.<.e.u.f.`.`.}.|.dXDX%X.X[.3X3X4X4X4X7XqXqX8XJ.wXwXqXqX^./.^.^.I.{.+X1XCX1X@XXXY.Y.F.V.6.2. . ./ W T U v z z z ",
"l l m Z D G ) ) ;.<.r.i.}.sXsXdX=XfXzX.X.X[.[.4X~.4X7X7X7XqXqXP.wXwX/./././.^.^./.{.+X1XAX1X>XvXcXvXOXZ.z.2. .' ' W T U v c z u ",
"k l m Z S F H ) O.<.r.d.}.zXzXzX=XfXzX%X[.[.4X4X~.~.7X7X7XwXyXJ.wX/./.qX/.^.^.^.P.I.@X<XCX1X2XAXmXAX;XU.z.2. . .Q T U v v c d q ",
"8 0 0 s l c N N F ( #.9.w.f.`.(.).=XzX|.`.i.S.i.p.H.H.H.J.J.5XG.~.^.G.A.~.G.G.~.V.F.Y.OXAX<XXXN.M.M.M.j.*.{ Y I P P x r w 9 9 9 ",
"5 0 p p l c p N G o.$.9.w.(.`.`.`.dXBX|.`.S.i.y.i.D.H.[.5X3XP.[.^.G.L.L.G.A.G.z.V.F.Y.oXmX<XT.OXN.M.n.j.| ..! I J P x u u u w 3 ",
"l m Z F H ) F O.:.1.t.f. XlXkXzX-XfXVX-XeX9X4XJ.0XwXwXwXyXyXpXpXyXyXyXyXyXyXtXK.tXrXiX1XHX2XcXmXnXmX;XF.z.3... .T / / T T b c b ",
"l l N Z F G A ) o.1.r.f.}.dXdXfX%XfXGX.X.X9XJ.H.5X7X8X8XwXyXyXyXyXtXtXtXtXtX/.A.^.+X@X1XmX2X>XvXvXvX;XU.z.3...' Y Q T P v x z u ",
"l l N Z A G A ) ;.$.5.u.`.`.`.|.|.fXVX%X.X3X[.J.~.5X9X8X8X8X8XyXyXtXtXtX/./.^.A.I.+X@X1XmX2XoXoXR.R.U.Z.z...} ' Y Q T C v z z j ",
"j l m N A F Z ) _ <.r.i.`.|.|.|.#XfXVX%X.X[.[.D.5X5X8X8X6X8XrXrX8XrXtX6X/././.Z.E.E.@X1XAX,X>X;X;XR.R.Z.j.2... .P Q T P v c z u ",
"8 0 0 s c N c A ^ ( @.w.}.kXGXkX%X-XBX#XG.`.D.y.C.D.D.G.G.G.K.K.K.A.A.A.A.A.K.x.Z.Z.Y.oXMX:X,XJXJXJX!.l.*.{ ! Y J J x r u 9 2 3 ",
"* 8 8 p p p s n n ~ #.9.(.).).).).-XBX).S.c.y.y.0.y.C.C.C.C.V.-.V.c.B.B.A.C.z.B.B.c.M.W.MX:XW.Q.W.W.m.k.| { I P x t w 9 w 2 1 < ",
"a m Z S F ) ) X.o.1.5.w.`.`.`.'.#XgXVX&X{.9XP.3X^.^.{.5X8XtXyXG.tXtXtXtXtX/././.^.+X@X<XMX2X@XR.N.R.R.x.z.2... . .Q T U B c c j ",
"s l c N S A G ) X.@.5.w.|.|.|.#X|.iXVX%X{.P.H.J.J.[.P.I.^./.6XA././.I.I.I.I.I.A.L.I.E.,XMX,X:X:X!.!.Q.U.z.|  .' T T T b b z j q ",
"i s l N Z A A H X.@.5.i.|.GXGXGX&XiXVX#X'.J.H.K.L.I.{.{.rX{.+XF.+XrXI.+XE.E.I.I.L.U.E.;XMX,X,XFXFXFX!.m.z.} ' ! T T P v x z j q ",
"i s l l N Z A ^ ( +.=.0.(.).).'.|.fXZX#XF.F.{.{.{.{.+X{.+X+X+XF.+X+X+X+X+XE.E.E.E.E.Y.;XJX:XQ.!.m.Q.R.Z.4.}  .T T U v x z z q q ",
"5 8 0 p p s c c N ( ( =.-.0.0.0.F.&XVXXX'.'.XXXXXXXXXXOXOX@X&XXX@XoXoXoXoXoXoXoXT.T.T.Q.FX!.U.U.k.k.k.| { ! I P P f r w 9 2 8 3 ",
"* > > 8 0 q 7 q d n R ( ` @.@.=.c.'.KXiX&X&X&XiX&X1XxX1X1X2X2X2X2X2X,X2XcX,X,X,X,X,X,XbXFXQ.l.| | | { { ! K J t 2 w 2 2 2 3 1 $ ",
"a s s N Z A n G ) _ o.<.$.1.5.y.S.XX%XBXZXHXCXCXHXCXCXCXHXCXHXAXHXAXAXHXAXMXHXMXMXMXJXnX,XR.Z.z.4.4.2.2.[ ' Q Q I T T c c z j q ",
"0 q a s c N p A D ^ ^ _ +.+.>.5.y.C.F.XXXX$X$XOXOX<X<X&X&X<X<X@X<X<X<X<X<X2X;XN.:XQ.Q.R.R.x.z.z.......' ' Q E T f v x z j q y 9 ",
"0 0 i s s N p Z D D ( ( _ o.:.>.=.=.y.S.XXxXxXXXOXCX1XXX<XHX>XoX:XAX;XoXcXnX;XN.nXcXR.Z.x.z.z.} ..} ' ' Q E T P d x z z q q 0 8 ",
"6 0 0 i s s p N A A ^ ^ ( _ o.+.>.5.6.y.XXxXxXM.XXHX1XXX;XKX;XXX;XJX;XR.cXMXR.N.nXbXR.k.z.4.2.} } } ' Q Q T P v r c z z q q 9 5 ",
"* - > 7 q p 9 p p d g B B U R E ~ ~ @.-.M.NXxXM._.HX>XY.OXKX;XM.;XJXN.M.,XMXR.m.nXbXm.j.| } ! ! Y I I I x v x x w 9 9 2 1 * < & ",
"@ # & - > - - 8 7 7 q q d d d g g Y ~ *.v.OXOXv.n.1XN.v.M.,XN.l.N.,Xm.n.!.,Xm.l.!.!.l.| { L K J e J 2 J e w 2 2 1 < < $ $ $ @ @ ",
"6 0 i s a l n n N A A ^ ( _ R ( :.@.=.r.S.F.F.F.F.XXY.A.Y.XXY.v.T.T.E.U.R.R.U.U.R.m.Z.z.3...[ ' Y ' Q Q E R T v c z u q q 0 8 8 ",
"4 6 0 0 i i s s c c N B A R B ( ( ] +.&.5.0.0.6.6.y.C.6.B.C.B.*.B.V.z.z.x.x.z.z.x.x.z...} [ ' E I T T U P b c d d q q 9 8 8 > > ",
"4 4 4 0 7 0 q a s c N N B A n T ^ ^ ] [ @.&.&.&.&.&.2.3.&.3.6.} 3.4.4.3.4.4.3.3.| | ..} ` / Q T I T P v v v z z q q 8 8 8 > > * ",
"- - 4 5 0 0 i q p c c c N B g A R ^ / ~ ' [ [ [ %.@.2.%.&.%.&.! %.&.&.%.............} ' E E E Y x P P v z z z u q q 7 7 4 > * * ",
"& & ; - - > 4 7 7 7 0 p p c d d v v v U B U R R E E T E / ' ' Y ! ' ! E ! ' I Y I I I I P P U P w u u u 9 9 8 3 3 > * * * $ # & ",
"X O + @ @ # @ # # * - 3 3 3 3 7 9 9 w r r e e e f t f P P f J J f J f J J f t e e e e e r w 2 2 2 < < < < < $ $ @ @ @ @ o @ X X ",
"; - 4 5 6 0 > 0 p a s s n n N B A A A R ( ( ^ U ( ] / _ ] ] ] ] ] ' ' ] ' ' / P / Q Q W W T T U U v v c z j j 0 3 8 7 4 > > * * ",
"& & ; - - 4 * 7 0 0 q p s p s c c c N B B R B v T T R E W Q ^ E Q E W W R E E f T U U v v v v c d d q q q 8 9 8 * 3 > * * * & # ",
"# & & - - - ; 5 4 0 0 0 q a p p p c c c n c g c B B U A U R T T T A T U U U U d P v b v c c d j d p q q q 8 8 5 * > : * & & # + ",
"+ + & & : : # 5 4 8 8 8 q q i p p z d z c c c d B B B B B B U B B B v B B B v r z v z v z d u z q q 8 8 9 8 > 3 $ : = ; & # # O ",
"X O + @ # & @ * * > : : > > 8 > 8 3 8 q q d p 9 p q d r d d r r r r r r r d d 9 w u 9 9 9 9 8 2 3 3 < * * & & * # @ # @ O O O X ",
"    . X X X X X X O # @ @ @ @ @ % % $ < * * * < < < < < 1 < < < < < 1 1 3 < < < < $ $ $ $ $ % @ @ @ @ @ o @ o o X X     .       ",
"% = = : , , , y 8 y y y y j 0 u j j b c V b b C b V C C C C C u C C C C B C B C v b b b b z b u 3 y u u y y y y 3 , , = , = % % "
};
