/* XPM */
static char *n5[] = {
/* columns rows colors chars-per-pixel */
"64 64 138 2 ",
"   c #07022D",
".  c #09012E",
"X  c #050B2F",
"o  c #080B2F",
"O  c #070532",
"+  c #0C0132",
"@  c #060C32",
"#  c #090B34",
"$  c #090E38",
"%  c #130C37",
"&  c #130C38",
"*  c #071435",
"=  c #0A1136",
"-  c #091B37",
";  c #07163A",
":  c #0A153B",
">  c #071B3C",
",  c #091B3B",
"<  c #101639",
"1  c #07243E",
"2  c #09243A",
"3  c #071E41",
"4  c #091E41",
"5  c #072541",
"6  c #0A2443",
"7  c #072945",
"8  c #092B45",
"9  c #072E49",
"0  c #0A2C49",
"q  c #0A3047",
"w  c #083947",
"e  c #07354F",
"r  c #0A344E",
"t  c #09394E",
"y  c #073650",
"u  c #093551",
"i  c #0B3B52",
"p  c #103B53",
"a  c #074657",
"s  c #0B4255",
"d  c #084A57",
"f  c #074559",
"g  c #094558",
"h  c #074E5A",
"j  c #0A4C5A",
"k  c #0A535D",
"l  c #12525D",
"z  c #104A60",
"x  c #075364",
"c  c #0D5462",
"v  c #095E63",
"b  c #125765",
"n  c #11596B",
"m  c #0C6164",
"M  c #0D636A",
"N  c #0D6B6E",
"B  c #106267",
"V  c #106169",
"C  c #12696F",
"Z  c #0B716F",
"A  c #0D6C73",
"S  c #0D7574",
"D  c #077975",
"F  c #097C77",
"G  c #0F7678",
"H  c #0A7B7A",
"J  c #117575",
"K  c #117479",
"L  c #107A7C",
"P  c #0C817A",
"I  c #14837C",
"U  c #0A937D",
"Y  c #0E7F80",
"T  c #157A81",
"R  c #0A8683",
"E  c #0D8D85",
"W  c #0D8E88",
"Q  c #138384",
"!  c #108E8C",
"~  c #0A9186",
"^  c #0B9C86",
"/  c #0E968B",
"(  c #0C9C8D",
")  c #11968C",
"_  c #139C8C",
"`  c #0F9392",
"'  c #0B9C90",
"]  c #149C91",
"[  c #07A392",
"{  c #0BA394",
"}  c #06AF97",
"|  c #09AA95",
" . c #0FA599",
".. c #0AAC98",
"X. c #15A192",
"o. c #19A195",
"O. c #10A993",
"+. c #10AD9B",
"@. c #0DB59E",
"#. c #0CB99E",
"$. c #11B39E",
"%. c #10B89F",
"&. c #18B89E",
"*. c #0EB6A0",
"=. c #0EBCA3",
"-. c #12B3A1",
";. c #18B7A0",
":. c #11B8A1",
">. c #18B8A1",
",. c #07C7A7",
"<. c #0CC3A5",
"1. c #06C9A6",
"2. c #07C7AB",
"3. c #0BC4A9",
"4. c #06C8A8",
"5. c #0BCDAD",
"6. c #12C2A5",
"7. c #11C4AC",
"8. c #14C9A8",
"9. c #06D5AE",
"0. c #0CD2AC",
"q. c #0CD4B3",
"w. c #05DEB3",
"e. c #0BDBB3",
"r. c #07DEB8",
"t. c #12DCB6",
"y. c #05E2B6",
"u. c #0AE0B6",
"i. c #06E6BC",
"p. c #09E5BB",
"a. c #05EDBD",
"s. c #09EABC",
"d. c #03F1BD",
"f. c #04EFC1",
"g. c #0AECC1",
"h. c #03F4C3",
"j. c #0AF3C3",
"k. c #02F8C6",
/* pixels */
"& & & & & & & 4 & & p e.0.r % & & & & & & & & $ & & % V a.+.< % & & & & & & & & & & & < ) j.I % % % % % % % % % % & % % 6 8.p.l ",
"+ + + + + + + + & + r w.9.8 + + + + + + + + + + + + O m a.@.$ . + + + + + + + + + + + $ ) j.P . + + + + + + + + + + + + < 8.s.j ",
"+ + + + + + + + + + p r.9.9 + + O + + + + + + + + + O v a...= + + + + + + + + + + + + # ) j.H   + + + + + + + + + + + + , ,.s.j ",
"+ + + + + + + + + + u e.9.q + + + + + + + + + + + + O v d.} # + + + + + + + + + + + + $ / j.P . + + + + + + + + + + + + , 8.p.j ",
"+ + + + + + + + O + y w.9.9 + + + + + + + + + + + + O v f...# + + + + + + + + + + + + @ ) h.H . + + + + + O + + + + + + > <.p.j ",
"& 4 : , , , $ + + + e r.9.9 + + + $ : 3 4 3 : # + + O M f...# + + + : : 4 < , < O + + @ / j.L . + + O > : 3 : , = + + + > ,.p.j ",
"z 7.4.4.,.3.A # + + 0 -.+.7 + + . H 2.,.3.,.=.s + + + z =.W $ + + & { 2.,.1.,...1 O + # L 7.C O + + e =.2.2.,.,.~ @ + + : o.6.s ",
"C g.k.k.h.h.R $ + + O : 3 O O + O / k.h.h.h.s.z + + + $ 3 ; . . + : 4.k.h.h.k.0.7 + + + : , $ + + + i i.h.h.h.h.} @ + + + - - % ",
"s { [ [ [ [ n O O + + + + + + + O A ' { [ [ ] u + + + . + . . . . $ R { [ [ [ E - + + O O + + + + . 6 ' [ [ [ [ G O + + + + + + ",
". @     o   O + O O + + + + + + + + O O + O # + + + + . + + + . + .   o @ O O o + + + + + + + + + + + O + # O O + O + + + + + + ",
"+ . . O + . + + + + + + + + + + + + + + + + + + + + + + + + + + + . + + + + + + + + + + + + + + + . + . + + + + + + + + + + + + ",
"+ + + + . + + + + + O 3 3 + + + + + + + + + O + + + + O 3 $ + + + + . + + + + + + O + + # 4 O + . + . + . + + + + + + + + : , + ",
"+ $ : , 3 $ + + + + + Q A . + + + + $ > 4 3 # + + + + ; ] s + + + + + ; > > : + + + + + 0 o.4 + + + + O > , : = + + + + + b Q @ ",
"+ c =.=.=.Y O + O + O / Y O + + + $ T 3.=.=.j . + + + > %.j + + . + 3  .3.=.&.6 + + + + u >., + + + + i -.=.3.! $ + + + + B _ # ",
"+ A j.a.h.' O + + O + ] H . + + + = { j.f.g.M + + + + > >.j + . . + 1 5.k.h.t.0 + + + + u >., + + + O g p.h.h.@.$ + + + + v _ # ",
"+ j ' { { A O + + + O / H + + + + $ A { { { s + + + + > %.j . + + + > E [ { ` 6 + + + + u >.6 + + + + r _ { | L % + + + + v _ # ",
"+ + O # O + + + + + # ) H . + + + + O O @ O . + + + + , :.d + + + + + O @ # + + + + + + r >.6 + + + + + . # @ + + + + + + m ] # ",
"+ + + + + + + + + + + _ F . + + + + + + . + + + + + + 3 :.d + + + + + + + + + + + + + + r >.> + + + + + + + + + + + + + + m _ @ ",
"+ + , r 6 + + + + + O / F   O + + + + 6 r : + + + + + > :.d + + + + + % 0 q $ . + + + + u >., + + + + + : q 6 # + + + + O v _ $ ",
"+ + A u.W # + + + + + ` H . + + + + @ ' r.m + + + + + > :.d + + + + + 6 =.5.r + + + + + r >.4 + + + + + z q.$., + + + + O v _ # ",
"+ . D k.` @ + + + + + / F . + + + + O | h.N . + + + + , %.d + + + + + 6 5.y.r . + + + + r >.6 + . + + + b p.<., + + + + + v ] $ ",
"+ . D h.( @ + + + + + _ H . + + + + O | d.M + + + + + 1 =.j . + + + + 6 5.y.t + + + + + r >., + + + + + c p.<., + + + + O m ] @ ",
"+ . D j./ $ + + + + O / F . . + + + @ | d.M # + + + + > #.d + + + + + 6 5.y.p + + + + & u >.> + + + + + c p.<.1 + + + + + v ] @ ",
"+ . D j.( $ + + + + + / F   + + + + @ @.d.M + + + + + > %.j + + + + + 0 5.u.r + + + + + r >.5 + + + + . c p.<., + + + + O v ] $ ",
"+ + S h.) # + + + + + ) F   . + + + $ | f.v + + + + + 3 *.d + + + + + 6 8.w.t + + + + + r &.> + + + + + c p.=.4 + + + + + v ) $ ",
"+ . A g.) # + + + + = _ ( - + + + + O { g.M O + + + + 6 <.H $ + + + + 6 7.e.e + + + + + s 8.h + + + + O c q.:.4 & + + + $ A %.9 ",
"+ . 0 x r + + + + + t 9.a.Q # + + + + i x 0 + + + + O M i.u.l + + + + % g j : + + + + # ! a.8.0 . + + + 4 j p $ + + + + 4 3.d.X.",
"+ + + . + + + + + + s u.d./ $ + + + + O + + + + + + + G s.p.M + + + + + + . . + + + + : X.d.e.i + + + + + + + & + + + + 7 q.h.*.",
"+ + + + + + + + + + = | #.t + + + + + + + + + + + + + 8 5.) , + + + + + + + + + + + + + c q.J # + + + + + + + + + + + + $ H 5.j ",
"+ + + + + + + + + + o / F   + + + + + + + + + + + + + - %.d . + + + + + + + + + + + + + r ;., + + + + + + + + + + + + + + v _ # ",
"+ + + + & + + + + . + / F . + + + + + + + + + + + + + , %.j . + + % + + + + + + + + + + r &.4 + + + + + + + + + + + + +   m _ o ",
"+ + + + + + + + + + # ) F . . + + + + + + + + + + + + , %.j . + + + + + + + + + + + + + r >.4 + + + + + + + + + + + + O   m _ = ",
"+ + + + + + + + + + # / G . . + + + + + + + + + + + + , :.d + + + + + + + + + + + & + + p ;.4 + + + + + + + + + + + + + O v _ # ",
"+ + + + + + + + + + + / F . + + + + + + + + + + + + . , :.d . + + + + + + + + + + + + + u ;.4 + + + + + + + + + + + + + + m _ = ",
"+ + + $ + + + + + + + / F . + + + + + + & + + + + + + - :.j . + + + + + # + + + + + + + u ;.4 + + + + + + # O + + + + + O m _ o ",
"+ + 3 ! 0 + + + + + # / F . + + + + + u ` : + + + + + , -.j . + + + + + n K % + + + + + u ;.4 + + + + + O T z + + + + + O m _ @ ",
"+ + 3 =.i + + + + + # ) F . + + + + + g 7., + + + + + - :.d + + + + + . K ] + + + + + + p >.4 + + + + + % ] V + + + + + . m ] @ ",
"+ + 4 *.e + + + + + + ) F . + + + + + g 7., + + + + + - =.j . + + + + . K ) # + + + + + r >.4 + + + + + o ] B + + + + + O v ' @ ",
"+ + 4 *.r + + + + + # ) F . + + + + + a 6., + + + + + - -.j . + + + + . K ) # + + + + + r ;.4 + + + + + + _ B + + + + + O v ] * ",
"+ + 4 *.r + + + + . + ) F . + + + + + a 7., + + + + + - >.d . + + + + . K ) # + + + + + u ;.4 + + + + + o o.B + + + + + O v _ @ ",
"+ + 4 :.u + + + + + + / F . . + + + O f <., + + + + + - ;.j . + + + + . G / # + + + + + r ;.4 + + + + + o X.M + + + + + + v ] @ ",
"+ + 4 $.y + + + + + % / F . + + + + + f <.- + + + + + - :.j . + + + + . K / # + + + + + r ;.4 + + + + + o X.V + + + & + O v _ @ ",
"+ + 4 :.r + + + + . # / F . + + + + . f 6., + + + + + , :.j + + + + + . K ) % + + + + + r ;.4 + + + + + . _ M + + + + + O m _ * ",
"+ + 4 ;.e + + + + + + ) F . + + + + + f <.2 + + + + + - :.j . + + + + . S _ + + + + + + p >.4 + + + + + o X.M + + + + + O m ^ X ",
"+ + 4 #.y + + + + + # ) F . + + + + O f <., . + + + . - -.j . + + + + . J ) o + + + & + u ;.4 + + + + + o ] n + + + + + O v _ X ",
"+ + 4 #.y + + + + + + ) F . + + + + . f <.2 + + + + + - :.d . + + + +   J ) o . + + + + u ;.4 + + + + + o X.M + + + + + + m _ X ",
"+ + 4 @.y . + + + + O / F . + + + + . a 6., + + + + + > :.j . + + + +   J _ o + + + + + u ;.4 + + + + + o ] V + + + + + X v _ X ",
"+ + 4 @.e + + + + + + / F . + + + + + d 6.2 + + + + + , :.j . + + + + . Z ^ o + + + + + u ;.4 + + + + + o X.V + + + + . o v _ * ",
"+ + 6 6.k O + + + + # ) F   . + + + . k 0.w + + + + + > :.j + + + + + . F | , + + + + + u ;., + + + + + o O.F = + + + + + v _ @ ",
"+ + N s.q.i + + + + + / F   + + + + # / d..., + + + + - :.j . + + + + 8 6.s.P # + + + + r ;.6 + + + + + j w.e.c o + + + O m _ o ",
"+ . E d.g.b . + + + + / G . + + + + , :.d.q.8 + + + . , :.j . + + + + i q.d. .@ + + + + p ;.4 + + + + + A i.g.H . + + + o v _ X ",
"+ . s w.' , + + + + % / F . + + + + O Z i.S O + + + . , :.d . + + + + @ _ w.k + + + + + r ;.4 + + + + + 8 <.#.q . + + +   v _ * ",
"+ + > #.s o + + + . # / F . . + + + + a 3.1 + + + + + - >.j . + + + +   J ( = + + + + + r >.4 + + + + + % _ M o + + + + O v _ o ",
"+ + > :.r + + + + + + / F o + + + + . a 3.> + + + + + - -.j + + + + + . K ) @ + + + + + u >.4 + + + + + o o.V . + + + + O v _ * ",
"+ + , @.e + + + + + + ) G . + + + + + a 3.- + + + + + - :.j + + + + + . K ) # + + + + + r >.4 + + + + + + o.B + + + + + X v _ X ",
"+ . 4 -.e + + + + + # / F . + + + + . a 7.1 + + + + + - :.j . + + + O . K ` # + + + & + r >.4 + + + + + + o.B + + + + . o v _ X ",
". . , %.q + + + + + % ) F . . + + + + f <., + + + + . , :.j . + + + + . S ) @ + + + + + r >.6 + + + + + # ] V + + + + + + v _ o ",
".   > | p + + + + + + ^ F . + + + + . f <.4 + + + + + , >.j . + + + + . S ) @ + + + + + r ;., + + + + + O o.B . + + + + O m _ * ",
". . - O.q + . . + + + ) F . + + + + . f <., + + + + + - *.h . + + + + . J ) # + + + + + r &.1 . + + + + O X.B + + + + +   v ^ X ",
". . - _ 2 . . . + + - | #.t + + + + + f <.4 O + + + + 9 0.( 4 + + + + . J ) # + + + + + k t.G $ + + + + # X.B . + + + + o P 0.k ",
". . = U 2 . . . + . s e.a._ $ + + + . s 7., + + + + + J s.p.B + + + +   J ) @ + + + + $  .a.q.t + + + + + X.B . + + + + 8 0.d.$.",
". . o m 2 . . . . . r 3.p.P @ + + + O f <.2 . + + + + v p.e.k . + + + . J ) # + + + + # E j.3.8 + + + + o X.B . . + + + 2 =.j.( ",
"+ . . % . . . . . .   t z , + + + + + g <., + + + + + = j z # + + + + . J ) # + + + + + , v p + + + + + O X.V . + + + + O 9 v 7 ",
"+ . . . . . . . . .       . + + + + + s <.6 + + + + + + . . + + + + + . J ) # + + + + + .   + + + + + + O X.B . + + + + + + . . "
};
