/* XPM */
static char *_1[] = {
/* columns rows colors chars-per-pixel */
"64 64 230 2 ",
"   c #030304",
".  c #080706",
"X  c #060807",
"o  c #030609",
"O  c #060A0C",
"+  c #090C0E",
"@  c #060D11",
"#  c #090E11",
"$  c #061114",
"%  c #0B1215",
"&  c #05141C",
"*  c #0C151B",
"=  c #02191E",
"-  c #0D191E",
";  c #11171B",
":  c #131818",
">  c #121A1D",
",  c #0D1720",
"<  c #061B23",
"1  c #051A26",
"2  c #0D1A22",
"3  c #0C1E2A",
"4  c #141C23",
"5  c #181E25",
"6  c #141E28",
"7  c #191F29",
"8  c #0D2124",
"9  c #06232D",
"0  c #0C222C",
"q  c #162026",
"w  c #1A2126",
"e  c #16222A",
"r  c #1A242B",
"t  c #1D282E",
"y  c #0B2531",
"u  c #082837",
"i  c #0B2C3B",
"p  c #122631",
"a  c #1C2730",
"s  c #142B33",
"d  c #1E2A32",
"f  c #142D39",
"g  c #0C313B",
"h  c #16333C",
"j  c #19323A",
"k  c #21272A",
"l  c #22292B",
"z  c #2D342E",
"x  c #222C34",
"c  c #232F39",
"v  c #243135",
"b  c #293235",
"n  c #25323A",
"m  c #2A353C",
"M  c #2D393E",
"N  c #363A36",
"B  c #32393C",
"V  c #41463F",
"C  c #062D45",
"Z  c #0B2D42",
"A  c #0C3342",
"S  c #0B3847",
"D  c #0A344B",
"F  c #093D4E",
"G  c #123442",
"H  c #163947",
"J  c #0C3B52",
"K  c #0B3B58",
"L  c #103B52",
"P  c #283941",
"I  c #2D3A42",
"U  c #303740",
"Y  c #323D45",
"T  c #333F49",
"R  c #0A3F60",
"E  c #18454A",
"W  c #0C4254",
"Q  c #0C455D",
"!  c #0C4A5D",
"~  c #134254",
"^  c #164859",
"/  c #124B5D",
"(  c #344146",
")  c #394144",
"_  c #35424A",
"`  c #39454C",
"'  c #3C494E",
"]  c #254653",
"[  c #384750",
"{  c #3D4A53",
"}  c #27555B",
"|  c #0B4B67",
" . c #0C4B6B",
".. c #134C61",
"X. c #114967",
"o. c #0B5266",
"O. c #0D546C",
"+. c #0B596D",
"@. c #155164",
"#. c #185467",
"$. c #14536A",
"%. c #0E4E75",
"&. c #0B5A73",
"*. c #0D5779",
"=. c #135473",
"-. c #155B74",
";. c #165B7C",
":. c #285965",
">. c #0B647B",
",. c #14627C",
"<. c #19657B",
"1. c #17717E",
"2. c #1A707F",
"3. c #306168",
"4. c #2C6C76",
"5. c #444848",
"6. c #434B4D",
"7. c #4D514B",
"8. c #50534A",
"9. c #424D54",
"0. c #494F51",
"q. c #424F58",
"w. c #455154",
"e. c #4A5356",
"r. c #4A545A",
"t. c #4A565B",
"y. c #515B5C",
"u. c #595F5D",
"i. c #5D645F",
"p. c #535D61",
"a. c #5C6562",
"s. c #6A6C64",
"d. c #6B7069",
"f. c #71746A",
"g. c #76786B",
"h. c #6C7373",
"j. c #0E5E84",
"k. c #165985",
"l. c #135C84",
"z. c #0C6586",
"x. c #0D698C",
"c. c #176386",
"v. c #1D6583",
"b. c #146D82",
"n. c #1A6C84",
"m. c #14628B",
"M. c #126B8D",
"N. c #1D6C8A",
"B. c #0C728B",
"V. c #197081",
"C. c #0D6A95",
"Z. c #126B91",
"A. c #176A93",
"S. c #0D7699",
"D. c #1B7494",
"F. c #177699",
"G. c #216A88",
"H. c #377988",
"J. c #297791",
"K. c #0E7CA2",
"L. c #0674AF",
"P. c #127AA0",
"I. c #1C7AA5",
"U. c #067CB5",
"Y. c #217BA3",
"T. c #10819C",
"R. c #2C818E",
"E. c #278C9D",
"W. c #378494",
"Q. c #0D8BAA",
"!. c #1487AB",
"~. c #1291AE",
"^. c #0A88B4",
"/. c #0283BC",
"(. c #0B83BB",
"). c #1586B4",
"_. c #1283BA",
"`. c #198BBB",
"'. c #1697B8",
"]. c #2B89A9",
"[. c #378EA6",
"{. c #278DB4",
"}. c #2B93B5",
"|. c #2897BD",
" X c #3298B8",
".X c #0286C1",
"XX c #038BC3",
"oX c #038EC8",
"OX c #1889C3",
"+X c #0494CC",
"@X c #0997CC",
"#X c #0598CE",
"$X c #1997C3",
"%X c #0697D0",
"&X c #069BD2",
"*X c #089DD3",
"=X c #2798C6",
"-X c #379BC1",
";X c #0AA2D6",
":X c #07A2D8",
">X c #0BA5DA",
",X c #0CAADD",
"<X c #11ABDD",
"1X c #26ACD8",
"2X c #2CB3DB",
"3X c #31B3DC",
"4X c #0EACE0",
"5X c #13AEE1",
"6X c #14B3E3",
"7X c #19B6E5",
"8X c #1BB9E6",
"9X c #17B8E8",
"0X c #1DBAE9",
"qX c #22BFEB",
"wX c #44BCDC",
"eX c #27C3ED",
"rX c #35CAEF",
"tX c #2CC7F1",
"yX c #33CAF2",
"uX c #39CCF3",
"iX c #43C2E3",
"pX c #58D4ED",
"aX c #43D3F6",
"sX c #4AD6F8",
"dX c #5FD7F0",
"fX c #55DCFB",
"gX c #5CDDFB",
"hX c #62DEFA",
"jX c #5CE0FB",
"kX c #65E1FE",
/* pixels */
"{ { { 6.9.9.9.9.9.q.U U U U T y.e.0.e.y.g.y.w.i.6.) ` ` T ` ` ` ` ` ` _ ` ' ( ' [ 9.f.p.e.e.r.r.d.e.T T T e.t.9.q.q.9.9.9.9.6.T ",
"x x c c c m c m m m m U U U U U 0.T Y Y 0.u.( ' s.s.d.d.f.f.f.f.f.f.f.f.f.f.f.s.' ` ' a.9.T ` T T a.5.T T T T T T T T U Y U Y Y ",
"7 r x c c b n n m m m m B U U Y Y Y T T T T T _ ( _ ( ' _ ` ` ` ` ' ` ` ' ) ( ' ` ` ` ' T ` ` ` ` ` T T T T T T U T Y T T U Y U ",
"Y U 4 l c b 7 7 7 7 5 5 5 5 w 7 7 5 k k w r w r k k w k k k k k k k k k t t l t l l l l l l l l x l l l l l l l l b U T e.h.h.h.",
"d x n > l d o   o O Z D D J J K ^ ....^ ....@.$.$.#.#.$.#.@.#.@.@.@.@.@./ / / @......./ ^ ^ ^ L L H Z i Z & + . . % T 9.h.q.T T ",
"H x x 5 4 7 o . # , j.C.C.C.A.Y.Y.].{.{.}.}.}.}.}.}.}.}.}.}.}. X X X}. X X}.}.}.}.}.{.].].].[.].Y.N.m.k.l.A # # + % ( { 9.T H #.",
"`.j c 5 4 7   + # ; Q  . . . .%.=.;.;.;.<.N.n.v.v.N.G.G.G.G.G.G.G.G.G.G.G.G.2.n.G.;.G.;.<.;.<.-.=.X.X.X. .y % # + + [ _ { T ..:.",
"!.-.x 4 4 4   @ # # # % % ; ; : : : > > > > > > 4 > > 5 5 4 4 > 4 : > > > > > > > > : > > > * * > : ; # % % % + + # [ _ { T X.T ",
"F.N.l 4 4 5 X + # ; w r r t a a d x d d d j x v v m m m m M m m m m m m b b v x d d d d d d d t a r r r r 5 % + + + { T q.[ X.] ",
"P.<.x 4 5 >   + # 7 r t a a x c P P d P n n n n 6.r.y.y.y.y.y.y.y.y.y.y.t.r.e.w.M v j v x j d d a r a t r w 5 + + + 5.` { [ X.] ",
"$XH x > q >   + 4 w t p a a n m c d j c P c ` y.' ( _ _ _ _ _ _ _ _ ( Y I I I I w.0.z d d d d d n d t p r r 5 * + + ) 9.[ [ ^ P ",
"^ c t * q :   + w w d P n m x x x c c n c t.q.T ( ( _ _ _ _ ( I I Y I Y T T I I M ( y.B d x d d s n n n H r 7 4 + . b 9.T _ ~ J.",
"x x > 4 q + X # e w L j a d x x x c x B p.` P ( I ( M v t q 8 8 2 q q q s n P I M m P e.5.a a d d a r r ~ j r > O . # { { T P P ",
"a r % 4 -   X # e d X.a d d x d x x Y u.Y I I ( n e - - 2 8 2 2 2 3 q < , - 4 t m m m m 6.0.r a d t t r s / 7 4 O O   b { _ [ { ",
"a : > 7 +   X +.! O.G r d d x x x Y p.I P I n e - - 2 - * * * * * * * - - 4 2 2 0 d n n n 5.5.r d a r r w / G ,.! . X $ { { n [ ",
"t % 5 4 o X 9 Q.W $.a d d d l a M r.m U P n 8 2 - - & % % - q e 0 q * % % & - 2 , 2 r c n n 0.5.w a a r r j +.G ).1 o X m q._ n ",
"> > e %   X B.+.$.f d t a d x x y.m m P a , 4 , * $ $ i -.D.F.D.N.D.D.,.S * % & * - - q x c x 0.B w a r r 7  .J S.$.X   : 9.9.n ",
"# 4 5 o o u ^.F X.w a a a x t r.B m m a , , * * * A D.D.~ 0 = $ % & 8 A <.D.~ @ @ $ - - 5 x c x y.k r r r r e *.A !.& X o m 9.P ",
"* 7 %   $ S.! &.f t t a a t Y ( n m l , - * $ , -.N.g 2 8 j } :.3.} E s - 9 $.c.9 o O * * 4 x x b 8.k w r r 7 Q W b.=.X   4 { ` ",
"4 5 o X S S.S o.w r t a t x 6.b n c 4 - $ $ 2 A.$.2 8 :.].|.'.$X@X$X|. X4.f 2 f M.u o X % * e d l T N 7 r r w r &.S `.2   o T { ",
"q * o O S.F *.g r r r r w ' m n n q - $ $ - F.^ > f E.$X^./.XXoXXXXX/./.$X X:.4 y F.0     $ - r d a 5.w w w r 7 ~ ~ ,.,.X   5 ` ",
"q o   W C.F ! e r a a t b ) b n t - % % * <...* P  X(..XoX@X;X*X:X;X&X+XXX/.=X4.q i F.&   o * 4 a a m N 7 r r w p &.i ).0   . Y ",
"; X + K.W &.e r r r a w B b c b q - % % ~ n.: v W.U.XX@X;X;X,X5X4X,X:X:X&XoX/.=X3.- X.;.o   + * a a r 5.5 r r 7 w L W -.c.    k ",
"O   | x.F W w w r r r l B c c a * * % * F.i 4 H.^.XX#X;X<X6X8X0XqX9X6X,X:X+XoX/.-XH 2 F.9   o $ 7 7 r b N w 7 7 e r &.p P.y   # ",
"o & ).i o.e r r r w r l x x x e $ % % ~ v.- } OX.X@X;X<X0XtXuXaXuXuXtX9X6X:X&XXX^.W.& ! ,.    @ 4 k r r 8.5 5 w w q S W $.M.    ",
"  %.*.A S 5 e r r r e e x x x 4 & % $ A.L 4 W.(.oX*X<X8XtXsXfXgXjXgXaXtX9X,X&X+X/.-Xj y P.@   + * r r w 7.w q 5 w q 6 ..f !.y   ",
"< P.9 ! e q r r r r e w x x x * % o $ !.9 s  XXX#X;X5XeXsXjXkXkXjXjXjXaXeX6X:X+X.X`.3.2 F.u   o $ w r w 5.w q 5 7 5 7 f g ..Z.@ ",
";.O.g f e e 6 w r e 7 r x x a * O   < Y., ] =XXX#X>X6XrXgXkXkXkXkXkXjXfXtX6X:X#X/.(.H.- c.Q     $ w r w V k q q 5 7 e 5 H 8 ).i ",
").g G e q e e 7 r 7 6 e d x a * O   u F., :.OXXX%X>X7XrXgXkXkXkXhXhXhXfXyX9X>X+X.X^.W.- &.@.    + 5 e e N l w 5 7 5 e e r p &.z.",
"S.+.4 q q 7 e e 6 r 4 7 d d a * o   9 I.2 :.$XXX#X>X7XrXfXkXkXkXhXhXhXfXyX9X>X&X.XU.W.> $. .  o * w w w z k w 5 4 q 4 4 q 0 Q.W ",
"u ~.e q q 7 e e r e 4 6 d a t % O   1 I.0 ] $X/.@X;X6XeXsXjXkXhXhXhXhXsXqX5X;X+X.XU.H.2 =.X.  o # q r r z w 4 7 5 6 4 q 5 Q ~.O ",
"o B.-.4 5 e 7 e 7 r 6 4 d x x % O   $ I.Z j =X/.+X%X,X7XrXsXgXgXhXhXsXrXqX<X*X+X.X^.3.2 l.Z   X $ e w e z q q 5 4 5 7 4 e ~.S   ",
"o u '.f 5 5 q w 7 7 7 4 a d d 4 O     M...0 [.U..X+X:X4X0XtXuXaXsXaXtXqX<X*X@X.X/.|.j 0 c.1   O $ w r e l > w 5 5 5 4 7 o.T.o   ",
"  O S.,.6 7 e q r 6 7 4 a d d r @     J j.0 3.`.U.XX&X*X,X6XqXeXqX7X7X<X*X@XoX/.U.E.% J ;.@   @ > w w 5 l 4 5 5 5 4 6 e ~.g     ",
"#   1 '.f 6 e e 6 r 7 , r l x c $ o   $ m.J 2 [.U./.oX+X%X;X<X<X,X>X;X*X@X@XXXL.`.E , k.D     O q 5 w e > 4 4 7 4 7 4 $.B.X   + ",
"l     B.,.f e e r 6 7 7 , a a x 5 @     R ;.y ] }.U.1X1X+X+X%X%X%X%X@X*X2XrX(.).4.* L l.&   o * r e 7 5 > 5 4 4 5 4 6 '.u .   r ",
"' .   9 ~.! S q 7 e r 6 , 7 a d x # o   $ k.R 3 :.|.OXiXpXiX3X1X1X3XiXpXwX).U.W.2 i m.C   o @ w r q 5 - > 5 4 5 q q <.B.X o   P ",
"( :   o z.B.-.p 6 e r 6 7 , a t n w O     9 k.K , } -XU.OXiXpXhXdXpXwX`.L.|.4.% y l.Q o   X * t w w 4 * 5 4 4 5 4 g '.= X X % _ ",
"v N     9 '.Q W 4 e r 6 r , 7 a x P % .     Z k.R 3 d H. X`._.(.`.).`.}.W.H 2 G l.X.O   o O v r w e - 4 4 4 5 4 > 1.>.      v v ",
"q ' O   o >.M.&.s q e r r 7 , a d d m @       C k.%.Z 3 g } 4.R.W.4.} j 8 y X.l.K @   o + t t r r 2 > 4 4 4 4 5 h Q.=     X ( t ",
"% M k     < '.! | q q q w r 4 , t d n I @ X     1  .m.*.K 9 1 < = 1 < A X.m.l.u o     @ t n r r 4 ; 4 > 4 5 5 4 B.+.      > ( r ",
"X t (     X >.x...f q e r r r 2 4 a d I m # o       u  .x.C.z.*.;.z.Z.Z.%.C @       @ d n r r q % > 4 4 4 4 4 g ~.= .   . M d r ",
"X > 9.%     < ~.W  .7 e r r 6 6 - 5 d d I ) % O       o & 9 C K J C u 1 X       + # n P a r 7 * 4 4 4 4 5 4 q T.!       $ _ 8 e ",
"$ % m b   X X +.M.J A q 6 r r r e - e d x M w.x @ @                         . + 5 Y m a r 7 * , 4 4 4 4 4 4 A !.$       l n e q ",
"> o w ) O   . < ~.A W e e e 6 r r 6 * 7 x x x 9.y.l # O X + o o   o X X @ # 4 _ 5.x r l 7 * 4 4 4 4 4 4 4 4 e 0       X _ e e - ",
"> + % ( >   o . O.! f G q e r 6 r r 7 * 4 d x x m 9.p.5.l : : $ % % : t B 9.6.b t d t 4 , , 4 4 4 4 4 4 , 4 4 $   o   > I q q - ",
", % + x m     X 2 e e G e e 6 r r 6 r 7 , , a x x x n _ w.p.p.y.y.r.e.{ Y n x t l r * 2 4 5 4 4 4 4 4 4 4 > 4 % X   o m d q * 8 ",
"> , O > T +   . 4 5 5 p g q r 6 r r a r w 4 * w x c c c c c c v v d d d x d x t 5 * , 5 4 4 4 4 ; 4 4 : 4 4 > % o X X _ q 4 % s ",
", , # # M w   o 5 5 q q s e e r r r r r r r 7 * , a c c c c c v n x x d x x t , % 4 4 7 5 4 4 4 4 4 4 ; 4 , , ;     r m 4 ; > e ",
"> * ; # e m   o - 4 4 q q p e e r r 4 r p r a r 5 - > 4 4 4 4 4 4 4 4 2 - , * 4 7 5 e 4 5 4 4 4 4 4 4 4 4 4 4 # o . Y w 4 $ 4 2 ",
"% ; % # 4 M +   $ 5 5 e q e e r r e r r 7 r p r a r r 7 e e e e e e e e 7 7 7 7 e e r 4 4 6 4 4 7 , , 4 4 , ; @   : m 4 % $ 4 4 ",
"* * * @ 5 l 5   O 4 4 4 q 4 e e e e e r r r r r r d r p a d r d r a r r r r p e e 7 6 6 4 4 4 4 4 4 4 4 4 , # o   7 r 4 # $ 4 2 ",
"; * % @ 4 w 4 X o $ 2 5 q q e e e e e w r r r r p d s t r d a r d r r a r r 6 6 7 7 5 4 4 4 4 4 4 4 , , 4 , O o   q 4 > # # 4 > ",
"* * # + , 5 >   X + % $ $ % % * * * * - 2 - & 1 - - > - - - - , 1 - , - * , , , & < * * & * $ * # # % # # # + o X > 4 - # + @ @ ",
"; * # + > 4 : o + @ @ @ @ K |  .j.S.S.!.K.K.K.T.K.K.K.K.S.K.K.K.K.P.K.S.P.K.K.K.K.K.K.K.K.K.S.S.%.%.9 @ # + + +   > 5 > # o + @ ",
"* * # O * > % X + % @ @ @ %.z.C.M.C.C.C.Z.Z.Z.M.M.Z.Z.x.Z.Z.A.M.A.M.A.A.M.M.M.C.Z.M.M.x.M.M.x.x.C.j.C @ # # # +   ; : * + o @ @ ",
"* * # O ; , # . + + O O @ S ,.n.n.n.n.V.V.1.1.1.1.1.1.1.1.1.n.2.1.1.1.2.2.1.V.V.V.V.b.b.b.b.V.n.V.<.u o + + + O   % : % + X @ % ",
", * # o # * ; + @ @ # O + + + + + @ + @ @ @ # @ $ + @ # @ # # @ # # $ # + + + # @ @ @ @ @ + @ @ @ # # O + + + + + : % % o o + + ",
"1 , # o # * ; , > - , 4 4 4 , 4 2 4 4 2 2 3 4 4 2 > 4 3 4 4 4 3 4 4 2 8 > 8 2 8 > - 2 > 2 4 - 2 4 , , 4 > > 4 4 > : $ + X X + $ ",
"y & # o # # * * * * & - & & , , 2 2 2 6 2 2 2 & - - - & 2 * > & & - - * * * * * - 2 > 4 8 2 - , 2 , - * * * $ $ * ; # + o o o + ",
"& , @   @ # , * * , , 2 4 2 2 2 2 2 2 0 0 2 4 2 2 2 2 2 2 2 2 2 2 2 2 2 2 2 - - 2 2 4 y 3 4 , 2 2 2 2 , , , , * - % # X     o O ",
"# # @     # , , , > < , , - - 2 4 - 3 2 y 6 3 4 3 4 r y p p s s p p p p 0 p 8 q 4 4 3 y 2 3 & , , , , , , * , , , - +       o O ",
"@ o o     # - > , , , * * 2 2 , , - & e 3 i 3 6 4 3 1 2 < 2 3 1 2 2 2 , 2 2 4 4 2 3 u - 3 & , < 1 , 4 , , , , 2 , & o         o ",
"o o         & , > , 2 , , , 4 , 4 2 2 2 2 3 i 6 6 3 q r r p e e 0 e 3 6 3 6 4 3 6 Z - 3 4 2 , , , , , , , 4 , , 2 #             "
};
