/* XPM */
static char *_0[] = {
/* columns rows colors chars-per-pixel */
"64 64 238 2 ",
"   c #0F1427",
".  c #07102F",
"X  c #0E152B",
"o  c #0E182E",
"O  c #111426",
"+  c #181827",
"@  c #1C1926",
"#  c #11152A",
"$  c #11192D",
"%  c #1A1929",
"&  c #0E1632",
"*  c #0E1935",
"=  c #0D173B",
"-  c #0E1B3C",
";  c #111634",
":  c #111934",
">  c #161A36",
",  c #111B3C",
"<  c #231B25",
"1  c #2B1D26",
"2  c #2A1C2A",
"3  c #18223D",
"4  c #352438",
"5  c #432A37",
"6  c #562B37",
"7  c #6D3135",
"8  c #0F1742",
"9  c #0E1C43",
"0  c #0E1E4B",
"q  c #111D44",
"w  c #111E4B",
"e  c #0E1F51",
"r  c #111E51",
"t  c #2E1F44",
"y  c #0E2144",
"u  c #0E204D",
"i  c #132244",
"p  c #12214D",
"a  c #19254D",
"s  c #172848",
"d  c #0F2253",
"f  c #0E245B",
"g  c #0E285F",
"h  c #122354",
"j  c #182656",
"k  c #162A54",
"l  c #1B2B54",
"z  c #12255B",
"x  c #142A5D",
"c  c #1B2B5B",
"v  c #19355A",
"b  c #1C325C",
"n  c #36314A",
"m  c #252E59",
"M  c #362A54",
"N  c #233759",
"B  c #22335D",
"V  c #0E2664",
"C  c #0E2B6B",
"Z  c #122662",
"A  c #142B64",
"S  c #1A2E64",
"D  c #132B6C",
"F  c #182D69",
"G  c #1C3265",
"H  c #183666",
"J  c #1C3962",
"K  c #16326B",
"L  c #1C326C",
"P  c #0E2D74",
"I  c #132D73",
"U  c #182D71",
"Y  c #132E7B",
"T  c #0D3178",
"R  c #153274",
"E  c #1A3372",
"W  c #14337C",
"Q  c #19357C",
"!  c #1A3C78",
"~  c #1B397C",
"^  c #242E65",
"/  c #233463",
"(  c #2B3566",
")  c #233B65",
"_  c #2B3C65",
"`  c #23346C",
"'  c #233B6B",
"]  c #2D3D6A",
"[  c #363866",
"{  c #263B74",
"}  c #343972",
"|  c #43324A",
" . c #1C4164",
".. c #1D4374",
"X. c #284467",
"o. c #27416A",
"O. c #2A426D",
"+. c #2A4B6B",
"@. c #35446A",
"#. c #28516F",
"$. c #244475",
"%. c #2B4472",
"&. c #2A4974",
"*. c #28457A",
"=. c #2C4C7D",
"-. c #354875",
";. c #324B7A",
":. c #2D5972",
">. c #2A5678",
",. c #315778",
"<. c #4C4154",
"1. c #525F77",
"2. c #7C6066",
"3. c #943D33",
"4. c #AC3F3E",
"5. c #AE4036",
"6. c #0B368A",
"7. c #143483",
"8. c #193781",
"9. c #153984",
"0. c #1A3B84",
"q. c #14368C",
"w. c #153A8B",
"e. c #1B3D8C",
"r. c #143B94",
"t. c #143996",
"y. c #1B3F92",
"u. c #153B9D",
"i. c #153DA2",
"p. c #143EA8",
"a. c #1E4689",
"s. c #1B428C",
"d. c #1C4193",
"f. c #1A459D",
"g. c #1C449C",
"h. c #195092",
"j. c #234687",
"k. c #2B4D82",
"l. c #334F83",
"z. c #334B87",
"x. c #2B5083",
"c. c #2B5787",
"v. c #365688",
"b. c #234996",
"n. c #2B5799",
"m. c #305A98",
"M. c #2C638A",
"N. c #346587",
"B. c #346798",
"V. c #367191",
"C. c #1343A4",
"Z. c #1C45A3",
"A. c #1749A1",
"S. c #1D4AA4",
"D. c #1E4BAC",
"F. c #1D55AB",
"G. c #1648B4",
"H. c #164BBA",
"J. c #1C56B8",
"K. c #214BA8",
"L. c #2B5AA5",
"P. c #2658A9",
"I. c #315CA5",
"U. c #214EB1",
"Y. c #2959B3",
"T. c #3769A4",
"R. c #3C76A9",
"E. c #2A68B8",
"W. c #346AB7",
"Q. c #2B7ABC",
"!. c #3876B9",
"~. c #4C698B",
"^. c #576B88",
"/. c #476694",
"(. c #4279B5",
"). c #617CA3",
"_. c #1659C5",
"`. c #1D69CA",
"'. c #246BC5",
"]. c #2879C6",
"[. c #3679C3",
"{. c #2E7FD0",
"}. c #217AE2",
"|. c #9F7988",
" X c #3C80AF",
".X c #498AB5",
"XX c #4789B8",
"oX c #6D99BD",
"OX c #51A6BB",
"+X c #2D88CF",
"@X c #318AD1",
"#X c #3699D5",
"$X c #36A9D2",
"%X c #338EE4",
"&X c #2E99EB",
"*X c #2FB3F3",
"=X c #4787C9",
"-X c #4897CE",
";X c #4B87D6",
":X c #6696CB",
">X c #58A2D8",
",X c #4DB2D5",
"<X c #66A7D5",
"1X c #6CAED0",
"2X c #77BCDB",
"3X c #5392E2",
"4X c #5CBBE2",
"5X c #3BD1F5",
"6X c #59C3DE",
"7X c #73C9DA",
"8X c #51D3EC",
"9X c #67C8E1",
"0X c #74CBE1",
"qX c #77D7E2",
"wX c #50E7F9",
"eX c #5BF4FB",
"rX c #6EE3E8",
"tX c #68F7FA",
"yX c #75F9F9",
"uX c #8AD6DE",
"iX c #97DCE1",
"pX c #AEDFE2",
"aX c #92E5E7",
"sX c #8AFBFB",
"dX c #97F9F8",
"fX c #B7E5E9",
"gX c #A6F8F8",
"hX c #B8FAF9",
"jX c #C8E6EA",
"kX c #D1E2E8",
"lX c #CCEEF1",
"zX c #C9F7F9",
"xX c #D7F8F9",
"cX c #E8F7FC",
"vX c #E4F9FA",
"bX c #ECFBFB",
"nX c #F3F6FD",
"mX c #F1F9FA",
/* pixels */
"O #   O O + % @ < < 2 2 1 1 1 1 1 1 1 < < @ % +       X X X     # + @ @ @ % @ @ @ @ < @ % % + + # O O       #                   ",
"    #   # # + + % % % < < < < 1 < < @ @ @ @ + O #   X               O O O O + + O + + + # + # #           # O             # #   ",
"          # # # + + + % @ @ @ @ @ 3 3 i 3 3 3 i i i q q y , , - = = , = * = * ; & ; ; # # # #                 #         #       ",
"# # #   # X           # $ $ O # + $ % : $ $ * o o X & # X X * X & X   X   X           # # #   O       #   O # #     # # #     O ",
"    #   #       X X X X o o O # O     # X X & X X X   X & X * X & & X & & # X & # # #     O # ; X X X X X X #           O       ",
"# # X X # , m N b B / B b c a ; $ X X - b J J / ) ' ' ' J E H G G G F S A A x x c r X     # - r z z j c c j l i X     O         ",
"  #     : _ -.@.O.] _ _ _ _ ;.s * : * B -.X.X._ X.) X.' o.) J G c c c c c j j a c %.w = ; 8 Z ` ^ m ^ m ^ B O.] i # O           ",
"X $ # : N @.3 3 > : $ > : > l &./ c / _ , # o * X * X X * X & X o * X & X & & X * m ( r r Z c , ; $ * * o o 3 @.} a &       O   ",
"# # $ N @.3 & & & X X : & i B ) ' ) / c a a a s p s i i i i q q i q i - q q , , , q a c z x z j 9 , X #   # $ > @.@.p O         ",
"# # s -.s & X & * X X = x E c s , , , , , 3 - - : * = * , * : * * * : * * * * = , * * , - S 8.y.e.E 9   X #   # > -./ o         ",
"X X N @.& ; X & ; o * L b.8.S p p h u 0 u 9 0 q w q 9 9 q 9 9 9 9 0 0 0 0 d e 0 d 0 p w r I y.D.S.e.p o o #   X ; / ` *         ",
"X X N &.X & * & & & = s.g.Q x p f f z u w 0 0 w 0 0 0 0 9 8 9 0 w 0 w r r h e r h h d f f I y.K.Z.e.u X o X X X & / L *     O   ",
"& & N %.& & & * * o = s.g.8.x p f V V d d e e e 0 w w 0 0 0 9 0 0 w w r e z e z f r z f Z Y u.K.K.e.w X X & X   & / L ; X X #   ",
"X X v O.X * & * * * - s.g.8.A h A C D Z z z z z z h z h h d e d e r h h z z z z z z Z Z Z R y.D.D.e.p & & X X & . / E , #   #   ",
": X N &.X * * * * * - d.g.Q S h D P D Z Z z z z z h h r p d d d d h h h r z r z z x A C U W y.K.D.e.h X & & X & X L ` = # # #   ",
"& * N &.* * : * : * - d.g.8.G h I W I V f f z z h d h w w p w 0 r r r h h z z z z f D T I W y.U.S.e.p * & & X & X G E = # X   # ",
"* * v &.= * * * * * - d.g.8.S h W 7.T V V V f f f f d d r 0 0 e 0 r z r r z z Z r Z P 7.W Q y.D.D.e.h o & & X X X L ` , # # # # ",
"& o N =.p y 9 q q - q d.g.8.S z 7.q.7.W R I K D A D Z z z z f z Z Z Z Z Z D D D I I Y 7.7.7.d.U.D.y.z p p r h h d { ~ , ; # ;   ",
"& & ) B.*.Z r w 0 q p s.g.8.G z q.t.q.I I D D A Z z z z z h h d h h z z Z A A V D D 7.6.q.7.g.S.D.0.d D Y 7.7.8.d.b.8., ; : N   ",
": ; ) T.L.j.x r w i u d.Z.0.K z t.C.7.f d e e 0 0 9 0 9 9 9 9 9 9 9 9 0 0 0 0 0 e 0 Y t.t.e.g.D.S.A 9 D 8.q.d.L.D.U.s.- ; : +.$ ",
"* * ..T.P. XM.V d u d d.Z.0.S x i.p.q.r d d e 0 w w 0 0 q 9 - 9 9 9 w q w 0 0 u w e 7.p.u.e.g.D.8.= 9 Y w.d.!.'.p.P.e.i ; : +.o ",
"* * o.T.].&X@XM.A g k f.Z.9.K A p.G.t.Z V f f f d d 0 0 0 u 0 u 0 e e e r r f f r V 7.p.p.d.g.d.u * 9 T s.!.$X}.H.P.s.q = , +.* ",
"= - o.T.+X*X8XOXM.g x f.S.s.K g C.H.p.Y Y I P D D V x z z h z f z z z Z Z Z D D D P t.p.p.r.g.R * * 9 8.(.6X5X&X`.Y.s.i = , +.& ",
", -  .R.+XwXeXrX1Xx.A f.Z.s.K x 7.H.p.Y Y I P P C C V f f f d f f f Z V C C D P Y 6.i.p.t.0.g.R * & 9 x.7XtX5X*X].Y.s.p , , +.: ",
", 9 %.!.#XwXtXrXqXB.P S.D.s.R x K H.p.7.Y T 7.T D A x z z d h p h h A Z x D Y W Y Y p.G.7.7.Z.Q * * q c.rXtXeXwX+XE.b.p , , #.* ",
", 9 %.XX,XeXyXdXuXB.h.E.D.d.R H .X_.p.q.7.0.Q D z [ O.G d h u 9 w h x ( <.A Z C j.z.C.H.!.b.Z.Q * : q m.aXsXtXtX#X[.b.w , s c.* ",
"9 8 =.XX4XyXdXzXiXR.+X@XS.d.~ { <X`.H.Z.7.P z j p <.-.c p u p p p p z ( | ^ Y Y z.).C.H.>XL.Z.8.= & w B.aXhXsXtX,X{.b.j s B.:.* ",
"8 0 k.XX6XdXzXxXfX(.+X!.6.9.~ $.1X_.G.i.7.D z r , | a 9 y - - - - - 9 A | { t.p.c.).C._.>XP.Z.8.* * w N.fXxXhXsX4X[.n.z >.M.#.X ",
"q w x.XX9XgXcXvXjX;X@X].T Q 8...1X_.H.u.Y A r = > n q q , , - - = , , z | } t.i.v.).Z._.>XL.Z.0.- = d /.jXmXxXgX2X@Xn.L ..v #.. ",
"q w x.XX0XhXbXvXlX;X%X[.T Q W ..<X_.p.q.Z z = & > 5 > p = = , = = > q j | { Y u.v.^.t._.<XI.Z.0.8 9 I /.kXnXbXhX2X=XP.x u H :.o ",
", w k.XX0XzXmXcXlX3X%X].T W ~ ! =XH.q.7.r z & # ; 5 > h p q q p q i > r | ^ r I l.^.q._.>XI.Z.e.8 h W /.kXnXmXlX2X;XL.A d H :.o ",
"q w k.XX0XzXmXcXlX3X%X[.T ~ ~ ..W.Y.I F r z = ; : 5 > ,.B.m.c.z.c.k.8 e | ^ 0 . &.^.7.f.%XL.f.s.9 h Y /.kXnXmXxX2X=XL.V u  .:.. ",
"q w x.XX0XzXmXcXjX3X%XQ.T ~ R H F.f.C 0 w h = q X 7 4 =.*...' ! { ! 9 s 7 M z & ;.^.c W ].F.Z.e.q h Y /.kXcXmXlX7X=XI.V 0 H :.X ",
", p x.XX0XzXbXvXlX;X%X].T 9.E x s.w.A y w z d w # 3.7 k A x x x x x x 4 4.t I D N.1.x 9.'.A.b.e.9 h Y v.jXnXcXzX2X=XI.Z 0 H ,.X ",
"q q >.XX0XhXbXxXfX@X+X#XA.s.R x a.6.D u q L s.e ; 3.6 k y J  . .v y s n 4.M T `.:Xn j w.'.S.Z.s.- 0 Y v.fXnXxXhX7X=Xn.f 0 J :.o ",
", 9 &.XX9XgXxXxXpX(.f.J.F.d.R x s.9.A i - v.=XR 8 2.1.k s N.V.V.N.s y -.|.( 6.%X1X3 d 9.'.A.Z.s.- : j l.fXxXhXsX9X!.n.f 0 J :.X ",
", 9 %.XX4XsXhXlXiX/.w.U.F.r.R z ..6.A y = ~.-Xs.z /.%.' s 9 9 y y p x J ^.} K.`.oXs h 9.'.S.g.K.d * 9 >.iXhXdXsX4X!.b.S x J :.O ",
"= , %. X,XyXdXgXuXv.W K.D.s.K v n.w.R d d G ..D ( c h p p w 9 w 0 p p q w M } R /.a j 8.'.b.g.U.0.= = >.aXgXsXtX$XW.a.x >...:.. ",
"* - &. X$XtXyXaXuXM.C S.S.y.L J :XD.d.T I I D A Z z z p w 0 9 9 y w w p h h z x Z A U W .Xm.b.G.D.S 9 #.qXsXyXwX#XE.s.p k R.#.  ",
": = O.R.$XwXyXqXOX$.A f.S.y.H k x.d.w.T D I D Z Z z d u 0 9 9 9 9 9 9 0 p h h z z A A U k.0.y.J.D.s.j v OXrXeX8X].E...i 3 v :.o ",
"* = X.R.@X5XwXOXc.x z f.S.e.S p z w.7.I D D Z Z z h h w w 9 9 9 9 q w p p h z j z x S I Z R g.D.D.s.z ,  .OX8X*X`.Y.Q i , : #.> ",
"; ; X.R. X$XOX,.x h p d.S.8.K z R q.W A Z z f z h h e w w q - 9 - - 9 - , q q i p p x C K E d.D.D.s.j : > v .X]._.Y.W q : = +.> ",
"* & ) T..X.XM.v p p p d.Z.e.A z W 7.R x h z h d p p w 0 9 9 = = = * * * = - - - - q z D I W f.D.D.y.z * $ : v (.Y.P.Q q * * #.+ ",
"& * ) (. X>.d u p p d d.f.0.G d R 7.D f h h h p p w 9 - - - * * * & & * * * - - - q h Z F W d.D.D.e.k & ; X * v b.K.Q , : o +.3 ",
"X * ) B.+.u u u y p u d.f.9.S h D R D f d d p 0 w 9 9 9 = = * & X & & & * * * = - , p x A R d.D.D.w.z & & ; # ; c j.R , : * +.: ",
"& * ) c.- - y - , q i d.f.9.S k D P D Z k z j h h w a w i 9 9 , - = , - , - - , 9 i p z z Y d.D.D.e.h ; X ; ; ; = E R * ; X N $ ",
"X X o.,.* * * : : * - d.f.8.x h A C A z z d d d w h w w w w q 9 9 9 - - 8 9 - 9 9 9 p z j E y.D.S.e.h * : ; & o o L E , # & O   ",
"X . ) =.* : : : : : - d.f.8.S d z A z z h h h h h r r w w w 0 0 0 w p r e r r h h h z u j D y.D.D.e.h * ; * X o X L E = # X     ",
"X . ' =.& & ; : : & - s.f.9.x p h z z r h e d 0 0 w 0 w 0 0 0 0 0 p 0 p w h h z d d z u r L y.D.D.e.h X X : X o X L L * X X #   ",
"X * ) =.X & ; ; : ; = y.g.8.x s h h h h h h p h p w p w 9 0 9 q q q w p w w p p h p i 9 w F y.D.D.e.d * X : o o # S L ; #       ",
"X & J %.& X $ X o X = s.f.8.S i w p p 0 9 9 9 9 9 , - - - - = = = = = * * * * * * * , = 9 A y.U.S.e.p o # X   o & S G =         ",
"X & c ' & # X * X o * 0.f.Q x 9 ; * & & ; # $ # $ * X & o   o X X o # # # # #   # X # # ; A y.D.D.s.u X $   X     S L *         ",
"  & c / X & X X X o * E y.W A y X     #                 X     X X   X   X               # S y.D.D.9.y             S L *     #   ",
"  & c ` - X X & o X   p D k p q * * * ; : : : : * : o & o & $ X $ # # & # # # ; & X X & ; w F U K u o X       O , } S * #   #   ",
"  X 0 ` ( ,   X           X l *.k.k.*.v p i y y y y y y y y - y y - y - - - 9 8 9 9 x L F S r 8 & X     X   X : ( z.j &       X ",
"    X s ( / ,   X * * X * % N v.l.&.=.O.- * . & . X X X . X . X X . X   .   . X . a { ` E ` c *     . o X X : ( %.^ ;         # ",
"    # & a / ] ] ] ] O.] _ O.-.N 9 = - J *.{ o.o.O.O.O.O.O.O.%.O.%.O.O.' ) _ B / / } c q q j { ` ^ / / / ^ B ] -.^ ;             ",
"#       # p / ` ( ) ( / _ / m ;   # $ 3 ) ' { %.=.=.=.=.=.=.l.x.l.l.l.l.l.l.;.&.} ^ * X # & h ` { *.} %.%.%.{ B > O O O O       ",
"        #   X X X * X X X X             : ; * * * * * * * , = = - = - , ; = = ; ; ; O O X   X ; , * ; , ; ; * o # O         #   ",
"      #                           o : , : : , ; , ; = : : * * * & & X & & & & ; ; ; . ; X   X     O O # # # # #     #   # O #   ",
"X     #   #             X         : , 3 i , i 3 , , 3 3 > , , > , ; ; ; ; ; ; ;   # . #                         O           #   ",
"# #   # #     # # # O               #   # #     # # # #   O O O O O O   #           O O           # O #   # #   # O   $ # # # O ",
"#   # O   O                         O   O O O   O O O O                           O                 O O           # O     #   # ",
"O # #     #   #                         O O                                 O O O O           O O # O           # O   $ O #   O "
};
