/* XPM */
static char *_9[] = {
/* columns rows colors chars-per-pixel */
"64 64 129 2 ",
"   c #070C1D",
".  c #080D1D",
"X  c #09171B",
"o  c #070E20",
"O  c #0A1224",
"+  c #0C162D",
"@  c #0D192E",
"#  c #111E2B",
"$  c #0D1730",
"%  c #0E1933",
"&  c #0F1D39",
"*  c #111C35",
"=  c #121E39",
"-  c #0F2125",
";  c #0F2B2B",
":  c #10272E",
">  c #122A2B",
",  c #0E3126",
"<  c #173025",
"1  c #173D2E",
"2  c #0F2332",
"3  c #132135",
"4  c #102830",
"5  c #182E35",
"6  c #14213C",
"7  c #18253E",
"8  c #152B3C",
"9  c #1A293F",
"0  c #1E3E39",
"q  c #094E10",
"w  c #0C5214",
"e  c #1E432D",
"r  c #1A5026",
"t  c #1F4735",
"y  c #164835",
"u  c #1A4C35",
"i  c #1B4E39",
"p  c #1D523C",
"a  c #25522E",
"s  c #23463D",
"d  c #25483F",
"f  c #26553C",
"g  c #28573F",
"h  c #1A6431",
"j  c #216728",
"k  c #267B27",
"l  c #2F6436",
"z  c #326736",
"x  c #377A3C",
"c  c #387B3D",
"v  c #152441",
"b  c #192641",
"n  c #162840",
"m  c #1C2A45",
"M  c #1E2D49",
"N  c #1C3445",
"B  c #1D3942",
"V  c #1E324B",
"C  c #1F3150",
"Z  c #202F4B",
"A  c #22314E",
"S  c #202F50",
"D  c #243452",
"F  c #283753",
"G  c #253954",
"H  c #283855",
"J  c #253759",
"K  c #26395B",
"L  c #293A5C",
"P  c #2A3D61",
"I  c #1F5540",
"U  c #264741",
"Y  c #254942",
"T  c #285641",
"R  c #274956",
"E  c #2B435B",
"W  c #2F4D5C",
"Q  c #376943",
"!  c #377D42",
"~  c #397C41",
"^  c #32675B",
"/  c #278026",
"(  c #20802F",
")  c #239C24",
"_  c #26873E",
"`  c #2B9234",
"'  c #2DAD26",
"]  c #2BA528",
"[  c #2EA829",
"{  c #30AA29",
"}  c #33B425",
"|  c #35B729",
" . c #35B829",
".. c #3ABB2B",
"X. c #37AF35",
"o. c #469C29",
"O. c #45933A",
"+. c #4B9839",
"@. c #52AB33",
"#. c #55B135",
"$. c #60BA3F",
"%. c #41C52D",
"&. c #44C92E",
"*. c #45C930",
"=. c #53C330",
"-. c #5CCD33",
";. c #55DA35",
":. c #65C33B",
">. c #66D738",
",. c #60E33A",
"<. c #6EE03D",
"1. c #65E83B",
"2. c #6FEF3F",
"3. c #6FF03F",
"4. c #70F03F",
"5. c #40A147",
"6. c #69C743",
"7. c #6ECC44",
"8. c #70CD46",
"9. c #77DA46",
"0. c #79DE47",
"q. c #77DE48",
"w. c #79DF48",
"e. c #6FEF40",
"r. c #77E643",
"t. c #7DED45",
"y. c #6FF040",
"u. c #70F040",
"i. c #D1D4DA",
/* pixels */
"i.i.i.i.i.i.i.i.i.i.i.i.i.i.i.i.i.i.i.i.i.i.i.i.i.i.i.i.i.i.i.i.i.i.i.i.i.i.i.i.i.i.i.i.i.i.i.i.i.i.i.i.i.i.i.i.i.i.i.i.i.i.i.i.",
"m m Z m Z Z Z m m Z Z Z Z B A A A A A A A F A A F F D F F F F F F F F F F D F F D G D A D A Z Z A A Z Z Z Z Z Z Z Z Z Z Z m Z 9 ",
"b 9 9 9 7 9 7 Z m m Z Z Z m m A M A M M A Z A A Z A Z A D Z A A Z D Z Z A S Z Z A M A A Z Z Z Z m Z B Z M m m m 7 9 9 9 m m 7 7 ",
"6 7 * 9 7 9 3 9 m m m m Z m Z m M Z S A Z A A Z A Z A A S A A A Z Z Z D Z Z S Z A M M M Z Z Z Z Z m Z m m O O O O O O O . O . . ",
"* 7 6 3 b 7 7 3 m m m m m m m A Z Z Z Z A Z Z D A A A A D A D Z Z Z Z D D S Z S C S S M M S S M Z 7 Z Z Z 7 v 7 7 7 = = 7 * = = ",
"* 9 * 9 7 7 7 7 m m A Z Z m A m Z Z Z A Z Z Z A A A A A D A Z Z m L D D F D D D C D D A D M D V Z F 7 Z Z m Z Z Z Z Z Z Z Z Z Z ",
"9 7 9 9 7 7 7 m m m m m m A m A Z A Z Z A A D Z A A A A A F Z Z L A A A A A S D A A D M M C M A Z Z D 7 9 9 9 n 7 v b 7 7 = = = ",
"7 7 = 7 7 7 7 7 9 9 9 m m m A m Z Z Z A Z A Z Z A D D A A Z Z L A F F A D D A A A D Z D Z A Z S Z Z Z A A A S A S S Z Z Z Z Z Z ",
"M S M S Z Z Z Z F A A A 7 7 7 m m m m b m m Z m Z Z Z Z Z Z L D D A D D D D A A D Z A A A Z A Z Z V A m M M m M Z Z m m m m m b ",
"b b m m m m m Z Z m m A F F F F D J J J K K J L H L H L L L D A D D D D A A D A A D A A A Z A M Z Z M M M m M M = Z m Z m b b m ",
"b m m b m m 7 Z m Z m Z Z Z Z Z Z Z A A Z D Z S Z Z A A A D A F F A D D Z Z Z Z Z m Z Z m m m m m b b n b 9 b b 7 b 7 b 7 b = = ",
"v m b m m m Z Z m m Z m Z Z Z Z Z A Z A S Z D A Z F D A D D D D D D A Z L J H L J H F F K D J G D D D J J D C J D S S S S S S Z ",
"= = 6 6 = 7 7 = = 7 7 9 = 7 7 7 7 b 7 b 7 Z S D F Z F D A F F F F F 9 P F F A A Z F A A A A V A A M A P P K K K P K J J L J Z m ",
"S C S D S D S F D F H H F F J H H L L L L Z Z Z A F D D D F F F F 9 P F D D G G D Z A D A A A A Z A A L P K K P K J J K L J m m ",
"m b b b * % # * * * * * * * * * * * Z A Z L M Z F F A D A F F G Z P F F D H H H G G G G D G C C V V V V V V N N N M N b m b b b ",
"b m m m $ O O O + O O O + O + + + * Z A A A L S Z Z S A D D S D L F F F E r w w w w w w w w w w w w w w w q w q w w w w w q w q ",
"m m m m C J J D D D K K D K K K L K M D A D Z D F F D F D H F H G F H W _ ) ' |  . . . .| |  . . . . . .| | | |  . .| | | | } ' ",
"b n b m m m m m m Z M M M Z M A M D A A A A A D A A D D D G D F F H E 5.&.;.1.e.e.y.y.u.y.e.e.e.y.3.3.y.3.2.e.u.e.e.4.4.4.4.2.,.",
"m m N y u y y i i p i s p p p I I I I I R A D Z D D A D D D F F G L Q o.@.$.6.7.8.8.8.8.8.8.8.8.7.7.7.8.8.8.7.8.8.7.7.8.8.7.6.:.",
"b B ` ..*.*.*.*.*.*.&.*.*.*.*.*.*.*.*.%.X.^ D A D A D G D F A D L b O # 5 0 s U Y U Y Y U Y Y U Y Y Y Y Y d d s Y s s s s s s 0 ",
"b z #.7.q.q.q.w.0.0.0.0.w.w.w.w.0.0.0.9.:.+.L G D D J H H D H L m O + * = 6 6 = 6 = v 6 6 6 = v 6 6 6 6 6 6 6 = 6 = = = = = & = ",
"$ X > t T f f f g g g g g T T U f g g f t # + 6 7 9 7 6 7 7 7 6 O * 3 6 7 6 n v 6 n v v v 6 n v 6 6 6 7 v 6 = v 6 6 = 6 6 6 = = ",
"  O @ % @ % % & * @ % * = * * % = * * * * % O O O O + O + O + + + * 6 v 6 6 6 6 7 6 6 6 n v 6 7 v v 6 6 6 6 v 6 = = v = = = = 6 ",
"o + % * $ % $ & % % % * * * * * * * * * * 3 * * % * * # * * * & 3 = = v 6 6 6 6 7 6 6 6 n 6 6 6 6 7 = 6 = 6 6 = = = 6 = = = & 6 ",
"@ $ % $ % $ @ = $ $ * * = % * * 6 % * * = = = = * = = = = = 6 = = 6 = v 6 6 6 7 6 6 6 6 v v 6 6 6 v 6 6 6 6 6 = v = v = = 6 * 6 ",
"$ % % % % % % = & % * = % = * = = = = * = = = = = 6 6 6 6 6 = v 6 6 6 v v 6 6 v v n 7 n v v 6 6 v n 6 6 v 6 v 6 = 6 6 6 = = v & ",
"& $ $ % % % $ % $ = % % * * 6 % * * = = * * & 6 & = = = v = = = 6 6 6 = = v = 7 6 6 b v v n v v 6 6 = b 6 6 6 6 v = = = 6 6 & = ",
"% $ $ % % * $ % $ = * % * % = * * % = = * & = = * = = = 6 6 = 6 6 = = 7 7 v 6 6 6 6 v = 6 6 6 n 6 6 6 6 7 = = 6 v = 6 = = = = = ",
"% $ $ $ $ & % % % = * % % * = % * * = = = * = 6 * = = * 6 6 = 6 = 6 6 = = v 6 6 6 6 v 7 6 6 v v 6 v 6 v = 6 6 = v = = = 6 & = = ",
"% % $ & $ & % % % * * * * = * = & * = = = = = 6 6 6 = 6 6 6 = 6 6 v v = 7 6 v v v b v v 6 6 v v n = v 6 v 6 6 6 6 6 = v 6 6 6 & ",
"$ $ & $ $ % % & % % % * & * % * = & * * & 6 & * & 6 6 = & 6 6 & 6 = = b = 7 = v v = 6 6 b n = 7 = n 6 6 = 6 6 = 6 = 6 = = * & 6 ",
"$ $ % $ $ $ $ & % % % * * % * * = % * * * = * = * * = = 6 = 6 = = 6 6 v = = = 7 6 = 7 7 v = 7 = 7 b = 6 6 6 6 6 6 = 6 = = = & v ",
"$ $ $ $ $ $ $ = * $ $ * * $ = $ = % * * = = * * = = = = = = 6 = * 7 = v = = 7 6 6 = 7 = v 7 = = 7 v = = = b = = = = v = * = = 6 ",
"$ $ & = $ $ $ = = $ * * = = * = & = * * = = = = = 6 = = = = 6 v = = v = 7 = 7 v v v = v v v 7 = v 6 m = = b v v = = 6 6 = 6 6 = ",
"& $ $ $ = = $ = $ = = $ $ = = * * * = = = * & 6 = = = = v = 3 = 7 v = 7 = b = = = 6 b = = = 7 v = = = b 7 = = = m = * * = 6 = = ",
"$ $ $ $ $ $ $ $ $ = $ * * $ = * * * * = * * * & = * = = = = = = = = = = 6 v = = 6 = v = = 7 = 7 v = = 6 = = = = 6 = = = = = * = ",
"& $ $ $ $ = $ $ * = $ $ * $ = * * * & = * * * = = * = * 6 & = = = 6 = = = v = = = = v = 6 = v 6 = = = v = * = = 6 = = = = = = = ",
"& $ $ $ $ = $ $ $ = = * $ * = = % * = & = * = = = = * = v = = & 6 6 6 = 7 6 v = = v v 7 = = v v = 7 v 6 v = = v v 6 = = 6 = = = ",
"$ $ & $ $ $ $ = * $ $ * * * * * = * * % = = = * = = 6 = * = v = = = 6 v = = = v v = = 6 v 6 = = = b 6 = = v v = & = v = = * = v ",
"$ $ $ $ $ $ $ = $ $ * $ * * * $ = * * * * = * * = = = * = = = = = = = v = = = = 6 * 7 = 6 = 6 = = v = = = = = * = = = % = = & & ",
"$ $ $ $ $ $ & & $ $ % % % * % * = % * * * = * * * * 6 * * * 6 = = * = 6 * 6 6 6 6 & 6 * = = = = = v = = = 6 = = = = = = = * * = ",
"$ $ & $ $ $ & $ % * % * = % % = = = * % * = = * * 6 6 & = 6 = 6 = = 6 6 6 = = 6 6 6 * 6 v 6 = = = 6 6 = 6 6 6 = = & 6 = * = = 6 ",
"& $ $ $ & & $ $ % % % * $ % = % % = = = * * * = = * * * 6 = * = 6 6 & = * 6 6 6 = = v 6 = = v 6 = = = 6 = = * = = = * * = = = * ",
"$ $ $ $ $ $ $ $ % % $ % * $ = % % % * * * * * = * * * * 6 & * * & = = = & 6 * * = = = = = & & 6 = = = 6 = = * * 6 = * = = = * * ",
"$ $ $ $ $ $ $ $ $ = $ % * $ % * % % % * * * % & % * * * 6 * * = * = * * 3 6 * = * = 6 & & * & = = = = = = = * = 6 = * * = = = * ",
"& $ $ $ $ & & $ % % % % $ % & % % % = * * * & = = * * = 6 = * & = 6 = = = 6 = = = 6 6 6 = 6 6 6 = = & 6 = = = = = = * & & = * * ",
"$ $ $ & $ $ $ & $ $ $ = = % $ * = = $ * & = = % * & = * % = = = & & = = & * = 6 6 = * = 6 = & 3 = v = = = = = = * & 6 = * * = = ",
"$ $ $ $ $ $ $ $ $ * $ % % $ * * % * * % * = * * * & * & * * = * * * * 6 * = * = = * = * = = * * = = % = % = * = % * & * * % * & ",
"$ $ $ $ $ $ $ & + $ % % % $ & $ & $ * % * = % % * % = * % * * * * * * 6 * * * = = * * * 6 * * @ + % + + + @ @ + + + % + + + + + ",
"+ $ $ $ $ $ $ & % $ % % % % + & = * % % * = = % * = = = * & 6 = * = = = * & = = = = * & 6 % + O O O O O O O O O X O O O O O O O ",
"$ $ $ $ $ & $ $ $ % % % % $ & % * $ & & % * % = * * % = = * * 2 = * + + % & $ + % % & @ @ O O % v 6 = 6 6 = = = = = = = * * % % ",
"$ $ $ $ $ $ $ $ $ % $ $ $ @ & @ $ % % * % % % = * % % % * * * * $ + O X O O O O O O O O O O @ n 7 7 6 v 7 7 6 6 6 6 6 6 7 3 6 6 ",
"$ $ $ $ $ $ $ $ $ % $ $ $ @ % $ % @ % % * * * & * % * * = % @ @ + O + * * = & * * * * * * & b 6 6 7 * * * * * * * # * * * # * % ",
"$ o o $ $ $ $ $ & % % $ % & & % @ % & & % @ % & * * * * = * @ + O % b 9 b n 9 n n b n 7 7 b 7 7 6 6 o         O                 ",
"o o o o o O $ 2 % - 2 % 2 % % 2 6 % 2 % 3 3 * * * * 6 * & % + O @ n 7 7 n 6 6 7 6 7 6 7 9 6 6 6 6 7 n v n n b b v v n v v v 6 v ",
"$ $ $ o o > a Q x x x x x x x x ~ c x x x ! c ~ c ~ ~ x l e - + n 7 6 6 n 8 6 n 6 6 6 7 6 6 6 7 7 6 6 6 6 6 = = = = 6 * * = = = ",
"= = 3 6 l =.>.r.r.t.t.t.t.t.t.t.t.t.t.t.t.t.t.t.t.t.t.t.<.-.O.b n = 6 6 6 6 6 6 = 7 = = = 6 = = = = = = 6 = = = = = * = * = = * ",
"= = = * 3 h ) ] ' ' { [ { { { { ' { { { { { { { { { { ' ) ( B 7 = v b n v v n n v 7 m 7 6 b 7 7 b b b v 6 7 6 = 6 6 7 6 = = = = ",
"* = = 6 6 & 3 8 8 8 8 8 8 8 8 8 9 9 9 9 5 8 9 5 N 8 8 8 8 b 7 = 6 b v 6 6 v 6 6 7 = = 7 6 7 = 7 = = = = 6 = 3 = = = = * = 6 = = ",
"@ * * = = 3 = = = 6 = = * = 6 6 3 6 6 7 7 6 6 6 6 6 6 6 6 7 * = b 6 6 6 6 = 7 6 = 7 7 7 6 6 a e r a 1 j > k : / * 6 = 7 = * = = ",
"6 % % % * = % * * * * * * * * * * * = * * = * * = = = = * * 6 v 7 = 7 = 7 7 7 = 6 7 * = = 6 > 4 > ; : , 3 < 2 , * * = = * = * 6 ",
"* 6 6 6 = 6 = v 6 6 7 v v v v v v b v v v b b b n v v v v 7 v 7 * 7 = 7 6 = = 7 7 6 7 = * 3 6 * 6 6 & & * * & & = $ * = = = * * ",
"* & & % % = % = = = * * = * = = = = 7 = = = = = * 7 = 7 = 7 = 7 7 = 7 = = 7 = 7 6 3 = * 6 v 6 = = 6 = 6 = 6 = = = n % * = * = * ",
"& * * * * = = = * = = = = = = = = = * * 7 = * 7 = = = = * 7 = * 7 = = * 7 = = = 6 6 % v 6 = 6 6 * 6 = 3 = 6 = = * = 6 % * = * * "
};
