/* XPM */
static char *_2[] = {
/* columns rows colors chars-per-pixel */
"64 64 163 2 ",
"   c #0B0B0E",
".  c #0C0C12",
"X  c #0E0E18",
"o  c #100F13",
"O  c #0F1016",
"+  c #0D121B",
"@  c #111115",
"#  c #14151B",
"$  c #18171E",
"%  c #17181D",
"&  c #191A1F",
"*  c #0C1521",
"=  c #0E1923",
"-  c #161621",
";  c #181722",
":  c #141922",
">  c #1C1D23",
",  c #121E29",
"<  c #1E1E29",
"1  c #201F28",
"2  c #1F2025",
"3  c #11232D",
"4  c #1E212A",
"5  c #0F2531",
"6  c #0E2C3B",
"7  c #122532",
"8  c #1B2732",
"9  c #122936",
"0  c #1C2933",
"q  c #132D3C",
"w  c #1E2D3A",
"e  c #15313E",
"r  c #1E313D",
"t  c #202126",
"y  c #23242C",
"u  c #29272E",
"i  c #27282E",
"p  c #2A292F",
"a  c #252631",
"s  c #262934",
"d  c #2B2B34",
"f  c #232D39",
"g  c #2A2E39",
"h  c #2F3035",
"j  c #24313E",
"k  c #2C313C",
"l  c #303136",
"z  c #34343B",
"x  c #37383D",
"c  c #38393F",
"v  c #132F40",
"b  c #0E3041",
"n  c #143443",
"m  c #1B3645",
"M  c #153947",
"N  c #1E3847",
"B  c #13364A",
"V  c #1D3748",
"C  c #153B4B",
"Z  c #1B3B4B",
"A  c #163D50",
"S  c #1B3F51",
"D  c #263644",
"F  c #283341",
"G  c #253846",
"H  c #263B4A",
"J  c #2D3D4B",
"K  c #363641",
"L  c #363840",
"P  c #3B3C44",
"I  c #3E3E49",
"U  c #1C404F",
"Y  c #174254",
"T  c #1D4152",
"R  c #174558",
"E  c #1B4659",
"W  c #1D4B5E",
"Q  c #2C444F",
"!  c #3F414C",
"~  c #224455",
"^  c #2C4151",
"/  c #234658",
"(  c #234A5D",
")  c #394D57",
"_  c #3D4D59",
"`  c #1C4C62",
"'  c #1C5367",
"]  c #264D61",
"[  c #245265",
"{  c #215469",
"}  c #235D74",
"|  c #276076",
" . c #366575",
".. c #42424C",
"X. c #454651",
"o. c #464954",
"O. c #484B56",
"+. c #494D58",
"@. c #465D69",
"#. c #2F6A82",
"$. c #346C81",
"%. c #2D788D",
"&. c #367187",
"*. c #34728A",
"=. c #3E788E",
"-. c #2D7B96",
";. c #2E7F9B",
":. c #327C95",
">. c #3E7A91",
",. c #427E95",
"<. c #3C8097",
"1. c #33829C",
"2. c #3C849A",
"3. c #3586A2",
"4. c #3588A3",
"5. c #3A8DA7",
"6. c #3E8EAA",
"7. c #3D90AD",
"8. c #438194",
"9. c #43839A",
"0. c #48869D",
"q. c #508A9F",
"w. c #468CA3",
"e. c #4C8CA3",
"r. c #538DA2",
"t. c #4292AC",
"y. c #4A92A9",
"u. c #4798AD",
"i. c #5691A5",
"p. c #5891A5",
"a. c #5594AB",
"s. c #4495B1",
"d. c #4399B4",
"f. c #4D9AB2",
"g. c #4B9EB9",
"h. c #539BB2",
"j. c #5C99B0",
"k. c #619AAF",
"l. c #639FB3",
"z. c #5CA0B7",
"x. c #54A4BC",
"c. c #5CA2BA",
"v. c #57A9BF",
"b. c #64A5BC",
"n. c #67A8BF",
"m. c #71A8BD",
"M. c #53A7C0",
"N. c #56AAC4",
"B. c #5AADC4",
"V. c #64ABC2",
"C. c #6EACC1",
"Z. c #6DB3CA",
"A. c #6CB8CD",
"S. c #72B0C6",
"D. c #73B2C8",
"F. c #76BAD1",
"G. c #79BBD2",
"H. c #7DC2D7",
"J. c #7FC5DC",
"K. c #82C8DE",
"L. c #83CBE2",
"P. c #88CDE3",
"I. c #88D0E6",
/* pixels */
"4.y.x.3.B.6.u.N.4.N.7.6.v.1.x.d.&.f g ] H a < a a a a a u y y y 1 t 1 1 t > 2 t 2 > y k ~ ^ s w r.5.B.5.g.h.3.N.1.s.x.1.N.7.u.v.",
"m n B m m S m A S C T C Z A Z T D F ] H s 1 a 4 a a 1 ; # X X X X o X X @ # $ > < < 2 y s ~ ~ f r Z M M C v C n M M 6 B e 9 e 9 ",
"s s s g [ ( ( ( ( ( ( / ( ( ( ( ] / H 8 4 a 1 - X . . .   .     X .   . . . .   X X > < y d H E ~ E T ~ ~ T T S U T T T U t 2 t ",
"f j D [ D g s f D _ J f a a f s s a a < ; X . . X @ ; 1 u u d h d h p p u y > #     . X $ t s i a y u 4 < 8 J J 4 : > 2 r U 0 0 ",
"{ { { D g # + B r.e.B * # y < 4 < 1 ; . . o & p x P P c x l l h h p u u p g z x K a # X .   - < < < < < * , S l.,.6 + % y m ( ( ",
"k k k d # * A l.>.b + < 8 y 4 a - .   X d P ....P c c x x l h h p u u h h l x P P I I K < .   . ; y < < 4 ; * B r.e.6 + % y y i ",
"; ; $ # + Y b.=.9 X < a a a 4 + . X u I I I I P P x x z l l h p u u p l z c x P I X.X.o...K y . . # 4 a a < < * n p.i.b + : 4 < ",
"; & $ + C n.8.9 X s a a a ; X . ; P ..I I I P c c x z l l h u u p p l z z c I ..X.X.o.X.X...I L - . X 4 a a a 1 # n j.a.q O < 4 ",
"; ; + v V.e.v + g s a s ; X . a ......P P ..c c x x l l l p p p h l l x P ....X.o.O.O.X...I P P P d . . < s s s y + C b.w.5 + y ",
"< @ 6 a.j.n - s s s a - X . K ! X.X.....P c c x l c P x p t 2 > & & $ 1 t h c ..O.O.X.X...P x x z k K X . ; s s s 1 # R F.&., # ",
"$ 3 *.G.R = a s s a X . X K X.X.........c c c c x p & @ % % % % $ $ # $ % # % t l P ....I P c x l h d L -   ; f f s 1 , } K.{ = ",
"+ W L.} , a g s F - X X P O.X.......c c P c h $ # % & & & & & & # @ # # % & % @ # % p c c c z l l p u a K + . ; s s s ; 7 <.F.B ",
"v Z.y.9 ; g s g ; . # P O.X.X.....! c c p % # % 2 & @ o                     o $ & & $ & h x l l h p u u p P # . ; s a a @ n V.w.",
"*.G.C : g g g 1 . @ P +.o.X.......c l & # % 2 %         o                       o $ & % @ t x d u u p p h l P X . y s s y = [ I.",
"J.#., y g s a . X z O.X.X.....I c p # # & 2           o o o o o o o o o o           o & > # $ l u u h h g l z K X . u s a % 9 w.",
"Z.n : g g g + . d o.X.X.....I K t # # t @       o o o o o @ o o @ @ @ @ o o @ o         $ 1 # # h h p h k z z P s . # a a y = Y ",
"} : a g s < . ; X.o.X.....P P u @ % t o       o o o @ @ @ & @ % # @ # # # @ @ @ o o o     o t @ # h l l x x x P ..# . ; a a ; < ",
"n ; d g g X . ..o.X.....P P p # % t       o o @ o @ % @ & @ % @ % # # @ # @ $ @ @ @ o       o t # $ z z c c c I ..c . X a 1 < # ",
": a s s ; . a X.X.......P z $ # t       o o @ # @ & @ @ % @ & % % # % $ $ $ $ @ # @ o o o       ; # $ x c c I I ..X.1   ; y y # ",
"# f s s X X X.X.....P P P 2 $ 2       o o # @ @ % & & % & % & & & & # $ $ $ % % # # # @ o o     o 1 # u c I ....X.X.x   X y t > ",
"< g g 1 . a X.....I P c l @ & @     o @ @ @ $ @ @ & & & & & & & & & & & % & % % $ % @ @ @ o o o   @ $ # z ......X.O.O.: . ; t t ",
"a a s X   I ..I I P c c & % 2     o o @ # $ $ % % & & & & & & & & & & & & & & % $ @ % % @ o o       $ $ 1 P X.X.O.O.+.z   + t t ",
"s s y . ; X...I P x x h # > o   o o @ $ @ % $ $ & & & & & & & > > & & & & & & % % % % @ # # o o     o $ # z X.O.O.+.O.! . . t 2 ",
"a a ; . g I I P x x P > $ >     o o @ @ % @ % % & & & & > > > > > > > 2 > > & > & % % % # # @ o o     @ # > ..+.+.O.X...< . $ 2 ",
"a u - . c I c c x z P # & o     o @ @ & % % % & & & & 2 > > > > > > > > > > > & & % & % % @ # o @     o $ % P +.O.X.....g . # < ",
"a u X X P P c x x x l # &     o o @ @ % % & % & & 2 2 & > > > 2 > > t > > > > > 2 & & % % % # o @       $ @ d O.X.X...P c . X t ",
"s 1 . # c c x z l x 1 # $   o o @ @ % % & & & & & > > 2 > 2 > 2 t > > > > > > > & & & & % % # # @ o     # % > ..X...I P c @ . t ",
"a ;   < x x z l l x # $ @     o @ @ % % & & & & > > 2 & > 2 2 > > t t > 2 > > & 2 & & & % % # @ @ o     @ % $ P ! P P x x # . < ",
"y ;   4 z z l h h l # 1     o o $ @ # % % & & > > 2 > t t > > 2 > t > 2 2 > > 2 2 & & & % % # # @ @     @ $ # x ..c c x z & . < ",
"u # . u z l h h u h # 1     o o @ % % % & & & > > > > > t > t > t > t > > 2 2 & & 2 & & % % % % @ @ o   . $ @ d c c z l l 2 . > ",
"y @ . u l h d p u p # &       o # $ $ % & & & > > > > t > t > > > > > t 2 > 2 > 2 & & & % % % @ @ @       > @ u c z z l p < . : ",
"y X . u h g p u u u # $     o o @ $ # % & & & 2 > > t > t > > t > t > 2 > 2 2 > & 2 & & % % % % @ o o o   > # p z z l d p < . $ ",
"y X   u h p u u p i % #       @ @ @ @ % & & & > > > > 2 > 2 2 > t > t > t t > > > > & & & & % % o @ o     > # p z l h u u 2   & ",
"t o . u p u u h l i # %     o @ & % & & & & & > > > > > 2 2 > 2 > t > t & t > > > > & & & % % % o o o     > @ p l p u u u >   > ",
"t @ . y i p p l z u % %     o @ o & & & & & > > > > 2 2 2 > 2 > t t > t t t > > > > & & & % % @ % o     o > @ l h p u u h $   1 ",
"y @   t p p l z x p @ %     o @ @ @ @ & & & & > > > > > 2 2 > 2 & t t & > > > > > > & & % % o % o o o   @ > @ z p u p h l # o y ",
"2 % . > h h z x c z @ &       @ @ & % % & & & & > > > > 2 2 2 2 t & & 2 > > > & > & & & & # # # @ o     & & % l y p h l l # . u ",
"2 ; . # h z x c ! c % % @     @ % o o % @ & & > > > > > > > & t t t t t > t & t > & & & & & # @ o o     & % u h p h h l l o X u ",
"2 < . + z x P ! ....& % $     . o % & % & & & & & > > > 2 2 > 2 & t t & t > t & & & & % # # # @ o o     > @ z p h l z x k . # a ",
"2 1 X . z c ! ....X.p @ $     . o @ @ @ & @ & & & > > > & 2 & > t & t & & > > & & & & # % % # @ o     & & % x p l l x L d . ; s ",
"2 t % . s P ....o.o.K # - #     o o @ & % % % % & & & > > > > > & 2 & 2 > & & & & & % % % @ @ @ o     > # 1 h h l x P P > . < s ",
"t t 2 . $ ....O.o.! I ; % :     o o o o % % @ % & % & & > & > > 2 & & & & & & & & & @ % % @ @ o     o ; $ k p h l x P I o X g a ",
"> t y @ . P X.X.I I K z g # %     o o % @ & % % % % & & % > % % & & & & & & & & & % & @ # @ @       < ; h p p h z P P x X ; s s ",
"$ t y & . a X.! I K K g s 1 - o     o o @ @ @ % % % % % % % > % & & & & & & & @ @ % & @ @ o o     $ # a g s a h z P ..; . a s g ",
"# t y y . X I K K z g g u i # &       o o @ & @ # % # % % % % % & & % % % @ & % & @ o % o o     o ; > u s g g g K K K . X s s g ",
": < t y # . a K z g g s u i 2 o >       o o @ @ # $ # % % % # % & & % % % % % & % @ o o o       ; # y u u g f g K K ; . < s g 4 ",
"q $ y y 1 X . F g f s u y t t > @ >       o @ @ @ @ # % @ % % % & & % % @ & @ @ o o o o       2 @ 2 2 t u u a g g a . X a s s - ",
"' # 1 y 1 # # g d s p i t t t u t @ &       o o o @ @ @ @ # # @ @ @ @ % @ @ @ @ o o o o   o 2 @ y y 2 t 1 y a g g s X ; a s 4 , ",
"V.e : y < < % s s a i t t t t i u a # - .         @ o @ @ @ @ @ @ @ @ @ o o o o         @ ; # u s u y 2 2 y y p s > ; # i s # C ",
"L.| : ; 4 d u . y u t t t y i s s f s - # o       .   o @ @ @ @ o o o o o . o         > - ; s s s a y y t t t i t O s s : < 7 <.",
">.A.C : d s s $ O 2 2 t y y p s g g g s ; # # X                 o       o       . $ < # y g f g d s s y y 2 t t . t i s s : W P.",
"n G.2.8 t p y t @ # t y u s d f f g g g g a # # @ o                         o > 1 # 1 g f g g g g f s u y y 2 @ % y u u $ e c.h.",
"- ' L.' : 2 t t 1 # > y i s g f g g g g g s ; o # % % % % # % @ # # $ & < > $ # X # s d g g g g d g s s a y X @ 2 2 y < 3 *.H.Y ",
"# 3 ,.G.A + > < t y X 1 s d d d s g s g s l P g 1 # # % % % $ ; $ $ % $ # # # y h z d u s g g s f g g s s @ @ < t < > = [ J.| = ",
"< + q z.a.v % t y y s # y s g f g g s s g L I X.X.! l p t > > $ ; & 2 u p z c z d d d u p d g g s g f a # # a a t > # A Z.8.3 % ",
"< ; + C D.<.9 % y a s s - : a s s s s g K I I X.O.X.....I P x x x x l d p p p p h h h h h k g s s s y X - a a y < # e h.h.q # & ",
"< < - * Y S.$.7 - a s s s ; X 4 s a s K K I X.X.o.......I c x z z h p p p p d l l l x z z K k s s < X ; s a a y + q e.b.n + & % ",
"< ; < # = ` C.#.7 - a a 8 a 4 O - # a K I ..X.X.X.....P P x z z l p p u p h l l x z K L K K 1 $ # @ y a a a < + q 0.l.B X : # # ",
"g g g s + = E m.$.7 # < 8 a y < . . . # g P ......I P P x z l l p p u p p l z z P P I P s X . . @ a a 8 8 ; + n 9.k.M + % > 2 2 ",
"] ] ] F d X * A l.,.6 * ; 4 < # < < # . o % y z P P c x z z z p p u p l l z c c P l t # o X # ; % # y y - = B p.q.e X % 4 r / / ",
"G G H [ D d u s G @.^ f a s a a i i y < % o @ o $ t u u h l p p p p h g l p u t # o X @ % y s s a u a y 2 8 Q ) 8 > > t r E j j ",
"f g g F [ ~ / / / / / / ~ ~ / E / / G s t 2 % $ # @ # @ @ @ # # # # @ @ @ @ @ @ # % < 1 y k J ~ T ~ T Z U Z U Z C Z Z Z / i a s ",
"m f F w j C N N Z V V V G C m V G G ] G t 2 t > t t t t 1 & $ $ $ $ % % % % t y y y < u k H / j m n n e e e e 9 e e e e 0 8 w w ",
"3.3.g.-.f.6.<.M.;.h.6.:.x.-.y.s. .k k ] k i > t t t t u s d s s d s s s s i s u y y y g ~ / p f 8.2.x.:.g.0.-.x.%.t.y.-.v.1.d.u."
};
