/* XPM */
static char *b0077fcc091e4dbed91f6c3e26e7de73j4FiO8lmbO0mctgH[] = {
/* columns rows colors chars-per-pixel */
"117 86 16 1 ",
"  c #130905",
". c #30180F",
"X c #462314",
"o c #5B2F1C",
"O c #6E3923",
"+ c #7A442B",
"@ c #845033",
"# c #8F5939",
"$ c #996443",
"% c #9F714E",
"& c #AC835A",
"* c #BB966B",
"= c #CCA983",
"- c #DCC6A5",
"; c none",
": c none",
/* pixels */
":;;;;;;;;;;;;;;;:::::::::::::::;;;;;;;;;;;;;;;:::::::::::::::;;;;;;;;;;;;;;;:::::::::::::::;;;;;;;;;;;;;;;:::::::::::",
":;;;;;;;;;;;;;;;:::::::::::::::;;;;;;;;;;;;;;;:::::::::::::::;;;;;;;;;;;;;;;:::::::::::::::;;;;;;;;;;;;;;;:::::::::::",
":;;;;;;;;;;;;;;;:::::::::::::::;;;;;;;;;;;;;;;:::::::::::::::;;;;;;;;;;;;;;;:::::::::::::::;;;;;;;;;;;;;;;:::::::::::",
":;;;;;;;;;;;;;;;:::::::::::::::;;;;;;;;;;;;;;;:::::::::::::::;;;;;;;;;;;;;;;:::::::::::::::;;;;;;;;;;;;;;;:::::::::::",
":;;;;;;;;;;;;;;;:::::::::::::::;;;;;;;;;;;;;;;:::::::::::::::;;;;;;;;;;;;;;;:::::::::::::::;;;;;;;;;;;;;;;:::::::::::",
":;;;;;;;;;;;;;;;:::::::::::::::;;;;;;;;;;;;;;;:::::::::::::::;;;;;;;;;;;;;;;:::::::::::::::;;;;;;;;;;;;;;;:::::::::::",
":;;;;;;;;;;;;;;;:::::::::::::::;;;;;;;;;;;;;;;:::::::::::::::;;;;;;;;;;;;;;;:::::::::::::::;;;;;;;;;;;;;;;:::::::::::",
":;;;;;;;;;;;;;;;:::::::::::::::;;;;;;;;;;;;;;;:::::::::::::::;;;;;;;;;;;;;;;:::::::::::::::;;;;;;;;;;;;;;;:::::::::::",
":;;;;;;;;;;;;;;;:::::::::::::::;;;;;;;;;;;;;;;:::::::::::::::;;;;;;;;;;;;;;;:::::::::::::::;;;;;;;;;;;;;;;:::::::::::",
";:::::::::::::::;;;;;;;;;;;;;;;:::::::::::::::;;;;;;;;;;;;;;;:::::::::::::::;;;;;;;;;;;;;;;:::::::::::::::;;;;;;;;;;;",
";:::::::::::::::;;;;;;;;-;;;--;:::::::::::::::;;;;;;;;;;;;;;;:::::::::::::::;;;;;;;;;;;;;;;:::::::::::::::;;;;;;;;;;;",
";:::::::::::::::;;;;;;:=*--=*&-:::::::::::::::;;;;;;;;;;;;;;;:::::::::::::::;;;;;;;;;;;;;;;:::::::::::::::;;;;;;;;;;;",
";:::::::::::::::;;;;;;;=------=;::::::::::::::;;;;;;;;;;;;;;;:::::::::::::::;;;;;;;;;;;;;;;:::::::::::::::;;;;;;;;;;;",
";:::::::::::::::;;;;;:==----=--*::::::::::::::;;;;;;;;;;;;;;;:::::::::::::::;;;;;;;;;;;;;;;:::::::::::::::;;;;;;;;;;;",
";:::::::::::::::;;;;;-=----*==-=;:::::::::::::;;;;;;;;;;;;;;;:::::::::::::::;;;;;;;;;;;;;;;:::::::::::::::;;;;;;;;;;;",
";:::::::::::::::;;;;:-=---=*==--=-::::::::::::;;;;;;;;;;;;;;;:::::::::::::::;;;;;;;;;;;;;;;:::::::::::::::;;;;;;;;;;;",
";:::::::::::::::;;;:-*=--=***==--=::::::::::::;;;;;;;;;;;;;;;:::::::::::::::;;;;;;;;;;;;;;;:::::::::::::::;;;;;;;;;;;",
";:::::::::::::::;;;-&*==*&%%&*=-=;::::::::::::;;;;;;;;;;;;;;;:::::::::::::::;;;;;;;;;;;;;;;:::::::::::::::;;;;;;;;;;;",
";:::::::::::::::;;;*===&#@#%&*==---:::::::::::;;;;;;;;;;;;;;;:::::::::::::::;;;;;;;;;;;;;;;:::::::::::::::;;;;;;;;;;;",
";:::::::::::::::;;*=-*@@++@$&*====-:::::::::::;;;;;;;;;;;;;;;:::::::::::::::;;;;;;;;;;;;;;;:::::::::::::::;;;;;;;;;;;",
";:::::::::::::::-&=-*+O++O+#%**===-:::::::::::;;;;;;;;;;;;;;;:::::::::::::::;;;;;;;;;;;;;;;:::::::::::::::;;;;;;;;;;;",
";::::::::::::::;%=--$@#@@+@#%&*==*-:::::::::::;;;;;;;;;;;;;;;:::::::::::::::;;;;;;;;;;;;;;;:::::::::::::::;;;;;;;;;;;",
";::::::::::::::;*--*&&$##@#$%&*===;:::::::::::;;;;;;;;;;;;;;;:::::::::::::::;;;;;;;;;;;;;;;:::::::::::::::;;;;;;;;;;;",
";::::::::::::::;*-*==*%%$$$$&**===-:::::::::::;;;;;;;;;;;;;;;:::::::::::::::;;;;;;;;;;;;;;;:::::::::::::::;;;;;;;;;;;",
":;;;;;;;;;;;;;;;*-=-==*&%$##%&**=---;;;;;;;;;;::::::::::::;:$*-----=-;;;;;;;:::::::::::::::;;;;;;;;;;;;;;;:::::::::::",
":;;;;;;;;;;;;;;;*-----=*&%%%%&**==-==;;;;;;;;;::::::::::;:%*--=*&**=--;;;;;;:::::::::::::::;;;;;;;;;;;;;;;:::::::::::",
":;;;;;;;;;;;;;;;*------=***&&&&**==*&=;;;;;;;;::::::::::%&--=*&&$$&*=-;;;;;;:::::::::::::::;;;;;;;;;;;;;;;:::::::::::",
":;;;;;;;;;;;;;;-&------=--=*&&&&&&&&*&-;;;;;;;:::::::;;=--=&&%$#$$%*=-;;;;;;:::::::::::::::;;;;;;;;;;;;;;;:::::::::::",
":;;;;;;;;;;;;;;;==--------==*&&&&%%&&*=;:;;;;;:::::::=&-=&&$$$@@##$%**-;;;;;::::::::;-;::::;;;;;;;;;;;;;;;:::::::::::",
":;;;;;;;;;;;;;;;;&---------==&&%$$$$$%$*=;:;;;:::::-=*$$#@###@@@+@@##&;;;;;;:::::;:;=*-;:::;;;;;;;;;;;;;;;:::::::::::",
":;;;;;;;;;;;;;;;:----------=*&$@@@@@@#$$#*=::;::::---*$XX++O+O+OO+@@+=:;;;;;:::-;==*=-=*-::;;;;;;;;;;;;;;;:::::::::::",
":;;;;;;;;;;;;;;;:;=--------=&$@OOO+O+@@####**:::;;=====%..oOooOOO+@O#;;;;;;;::-==&%%%&**=-:;;;;;;;;;;;;;;;:::::::::::",
":;;;;;;;;;;;;;;;:-*-------=*%#+OOOOOOO+@+####*=&=====*=-*o.XoooO+@+@;:;;;;;;:--=%$###$%**==;;;;;;;;;;;;;;;:::::::::::",
":;;;;;;;;;;;;;;;::-=------=&$#OoooooOO+@+@@###$%****====-=#o.XoO++$;:;;;;;;--%&$+OOOO@$%**&;;;;;;;;;;;;;;;:::::::::::",
":;;;;;;;;;;;;;;;::-%-----=*%@OOoXXXooOOOO+@@@#$%&=*===**=--&. XoO$;:;;;;;;;=$@OooooooO@$$&&;;;;;;;;;;;;;;;:::::::::::",
":;;;;;;;;;;;;;;;:::-=----=%#+oX..XXXooooOOOO+@@#$%%*=**&&&==$.Xo#;;;;;;;;;-%@OoXXXXXXXo+#$$;;;;;;;;;;;;;;;:::::::::::",
":;;;;;;;;;;;;;;;:::-*---=*%@OoXXXXoXXXXXooOoOO+@#$$$&=**&%&%#Xo#;:;;;;;:;=&+ooX....X.XXO#@;;;;;;;;;;;;;;;;:::::::::::",
":;;;;;;;;;;;;;;;::::-=--=*%#OooXooooX.XXXoooOoO+@@#$$&=*&&&$@o+;;;;;;:--*#OoXXX......XXO+@;:;;;;;;;;;;;;;;:::::::::::",
":;;;;;;;;;;;;;;;::::-*-=**&$+OoooooXX.X.XXXoooOOO+@$%&=*=&%@@%;:;;;;;;*+OoX.X.........Xo+;:;-----*;;;;;;;;:::::::::::",
";:::::::::::::::;;;;=*==**%#+OOoOoooX.X...XXXooOo++@$%&=*&&@&:::::::;&#@OX..........XXo+-::%@#&*=--:::::::;;;;;;;;;;;",
";:::::::::::::::;;;;:=**&*&#+O+OOOooX......XXXoXoooO@#%&==*&;::::::;$+OooX...........X@-:;@Xo+$&=-==::::::;;;;;;;;;;;",
";:::::::::::::::;;;;;=*==*&$#+@+OOoXX.X.X....XXXoooOO+#%&==;;:::::-OooooXXX. .......XO-:%X.XoO@$*=-;::::::;;;;;;;;;;;",
";:::::::::::::::;;;;;:**=*%%$##++OOooXX........XXoXoOO@$&&=;;::::-OO+OOoXXXX......Xoo-:$.XXXXoO#&*=-::::::;;;;;;;;;;;",
";:::::::::::::::;;;;;;=*=*&%$$$#@++OooX....X...XXXooooO@&&&=;:::-+#@@++OoooOX.. .Xo$-;+ XXXXXXXO#$#*::::::;;;;;;;;;;;",
";:::::::::::::::;;;;;;:===*&%&&%$@@+oXXX.........XXoXooo#%&&*::-+@##@@@@OOoO+O...O=-$ .XX....X.XO#@&::::::;;;;;;;;;;;",
";:::::::::::::::;;;;;;;-==*&*&*&%$#+OoXXX...X..X..XXXXXXO+$%%=;O@##$##++++OO@#o X-:@ XXX.X...X.XoO@-::::::;;;;;;;;;;;",
";:::::::::::::::;;;;;;;:*****&**&%#+OoXXXX..........X.XXoO@$%%=%@###$#@++OO+O@o.*-@ .XX........Xoo@:::::::;;;;;;;;;;;",
";:::::::::::::::;;;;;;;;-==&**&*&$$#+OooXXX.X...X......XXoO@$%&*%@#@###+++++O@+*:+...........XXooo-:::::::;;;;;;;;;;;",
";:::::::::::::::;;;;;;;;:&****&*&%%$#+OoooXoXX....X.....XXoO+#$&*%@@@@@@+@@+X---*#O+X. .....X.XoX;::::::::;;;;;;;;;;;",
";:::::::::::::::;;;;;;;;;-*=*%&*&&%$$#+OoooooX......X.X..XXXoO@%*=&@@@@#@@+o=:=&#+OOOo   ..XXXoo;:::::::::;;;;;;;;;;;",
";:::::::::::::::;;;;;;;;;:*=*&%&&&%$$#@+OOoooXX.X..........XXo+@$&=&@##@@+X-;=%#+ooXoOo. ..XXoo;::::::::::;;;;;;;;;;;",
";:::::::::::::::;;;;;;;;;;&=**%&%%%%%##@+OOooX..............XXoO+#%*$@#@+X-;-&#+OoXoXOOX..X.oo;:::::::::::;;;;;;;;;;;",
";:::::::::::::::;;;;;;;;;:%-=*%%%%%%%$$#@OOoXX............X..XXoO+#&*&##+;:-*$+Ooooooo+oX..ooO::::::::::::;;;;;;;;;;;",
";:::::::::::::::;;;;;;;;;:$==&@+@#$$%%$$@+OoX.................XXoO+$%%#@;:=&@+oOoooooo@@OX.X+:::::::=---*;;;;;;;;;;;;",
":;;;;;;;;;;;;;;;::::::::::%=-*#ooO+@$&%$$@+OX..X...............XXoO@$$@-:&##Oooooooooo@#+X.O;:;;;:;#@%*=-=;::::::::::",
":;;;;;;;;;;;;;;;:::::::::::*-*#OooO@%&&&%$@ooX...............X..XoO+#&-;%@++OooXooOO+O+@O.;:;;;:;;XoO@%*=-*;:::::::::",
":;;;;;;;;;;;;;;;:::::::::::$-=$OXoo+$*=*&&#OoX..................XXoO+-=@#@++OoooooO++OOOo;:;;;:;X..Xo@#&=--::::::::::",
":;;;;;;;;;;;;;;;:::::::::::@*-%OXXoO#*===*$+OX....... ...........XXo+#$####@@+OOoo+@#OoO-::;;:;X.XoXXO@%*==::::::::::",
":;;;;;;;;;;;;;;;:::::::::::&*=&@X..o#*===*%@oX....................XoO@########++OOO@+oX-::::-- .XXXX.Xo@$$#;:::::::::",
":;;;;;;;;;;;;;;;::::::::::::%=*#o..o#*=-=*%@oXX....................Xo+@###$$$#++OO++oo;::::-. .XX.....Xo@#+;:::::::::",
":;;;;;;;;;;;;;;;::::::::::::$==$OXXO%==--=%@oXX......... ..........XXO@###@##@@@++OoO-::::;..X.X........o+%::::::::::",
":;;;;;;;;;;;;;;;::::::::::::@==%+oX@*---=*%+ooX....................XXo+@##@@@@#@+OXo-:::-=X.X...........Xo;::::::::::",
":;;;;;;;;;;;;;;;::::::::::::=*-*#O+%-----&$OooXX... ................XoO####@@##+OXO-:::;o..............Xo#:::::::::::",
":;;;;;;;;;;;;;;;:::::::::::::%-=%@$*----=&#OooXX............ ........XO+####@@+OOo;:::;+#$oX.........XXX#;:::::::::::",
":;;;;;;;;;;;;;;;:::::::::::::+==*&*=---=&$@OoXXX.....................XXO@$$#@OOOo-::;%$#%#+oX. ....X.XX+;::::::::::::",
":;;;;;;;;;;;;;;;:::::::::::::-=*==---==&#@OoXXXXXX..... ..............Xo+%&$+O@+;:::+O%%#+oooX  ..XXXX#;:;:::::::::::",
":;;;;;;;;;;;;;;;:::::::::::::=*==----=%#+OoooXXX...X........... ....X.XXO%%%###;::+++%$+OooXXoX. .XXX@;:;;:::::::::::",
":;;;;;;;;;;;;;;;::::::::::::%&==-----&$@OoXoXXXX.X..................X.XXo@#$$o;::OO+@#@++OooooooXXXX@;:;;;:::::::::::",
":;;;;;;;;;;;;;;;::::::::::::&==--===*$$@OoooXXXXX...X..............XXXXXXO@%&;::#+#$###@+++oooO+OX.+;:;;;;:::::::::::",
";:::::::::::::::;;;;;;;;;;:%**---===&#@+OoXoXXXX.XX........ .........X.Xoo#$*:;@+#$######@++Oo++O.o:::::::;;;;;;;;;;;", 
";:::::::::::::::;;;;;;;;;;%$*==-=-=&$@OOooooXXX.X.....................XXoO+@&*-=####@#$$$@+++O+@+O::::::::;;;;;;;;;;;",
";:::::::::::::::;;;;;;;;;:$&==-==*&%$@OoooXXXXXX....... ...............XooO+%&==*%%%@#@@#@+++OOoX:::::::::;;;;;;;;;;;",
";:::::::::::::::;;;;;;;;;;*=-=-==&&%#+OoooXXXX.....X...X...............XXoO+%*==--=&$#@++++@++oX::::::::::;;;;;;;;;;;",
";:::::::::::::::;;;;;;;;;&*==-=*&$%$#+OoooXXXX.XXXX.XX.................XXooO$%*=====&%#@+@$@+Oo:::::::::::;;;;;;;;;;;",
";:::::::::::::::;;;;;;:&@**-=**&$$$$#+OooooXXXXX.X.X.X.XX.............XXXooO@$&**====&$##@#@OO::::::::::::;;;;;;;;;;;",
";:::::::::::::::;;;;;;;&&*===&&$$%$#@OOOooooXX..X.XX.X.X.XXXXX..........XXoo+#%%**==**%$#@+oO:::::::::::::;;;;;;;;;;;",
";:::::::::::::::;;;;:;&%*==***&%$%$@+OOOOoooXXXX.XXXXX.XX.X..XXX.........XooO##$%*=*==&%$#@+::::::::::::::;;;;;;;;;;;",
";:::::::::::::::;;;;;*&**==*&*&$$$$@OOOOOOooXXXXXXXXXXX.XX.XXX..X........XXXO@#$%*=*=*&&%$O:::::::::::::::;;;;;;;;;;;",
";:::::::::::::::;;;;&%**=-=***%$$$#+OOO+OOoooXoXXXXXXXX.X.XXXXXXXX......XXXXo+@#%&*****&%@%:::::::::::::::;;;;;;;;;;;",
";:::::::::::::::;;;-&**====**&%$%#@+OOOOOoooooooXoXXXXXXX.XXX.XXXXXX.....XXXoO+##$%&&**&&O;:::::::::::::::;;;;;;;;;;;",
";:::::::::::::::;;;==*=---=**&$$#++++OOO+OooooXXXXoXoXXX.XXXoXX.XXXXX.X.XXXXXO@@$$%&%%%&&+-:::::::::::::::;;;;;;;;;;;",
";:::::::::::::::;;=**=----**&%$$@+@+OOOOOoOoooooXoXXXX.XX.XoXXXXooooX.X.X.XXXX+@$$$%%%%&%+-:::::::::::::::;;;;;;;;;;;",
";:::::::::::::::;=*===---=**&%$#@++++O+OooooooXXXXXoXXXXXXXXXoXoXoXooXXX.X..XXo+@$$%%%%&%O-:::::::::::::::;;;;;;;;;;;",
";:::::::::::::::===----==**&%$%##@++OOoOoooooXooooooooXXXXXXXXXXoooOoooXX.XX.oXoO@@$#$$@O*;:::::::::::::::;;;;;;;;;;;",
":;;;;;;;;;;;;;;;===---=***&%$$$###@+OOooooooooooXoooXXXoXXXXXXooooOOOoXXXX..XXXoO@++@#@o=::;;;;;;;;;;;;;;;:::::::::::",
":;;;;;;;;;;;;;;**--===$&&&+@++++OOOooooXXXXXXX    ............ .XXoooX......   XooXooOX*:::;;;;;;;;;;;;;;;:::::::::::"
};
