/* XPM */
static char *_9[] = {
/* columns rows colors chars-per-pixel */
"64 64 222 2 ",
"   c #0D262D",
".  c #0E282E",
"X  c #13272E",
"o  c #13292F",
"O  c #0E2B33",
"+  c #152730",
"@  c #142C34",
"#  c #1A2E35",
"$  c #132D38",
"%  c #192F39",
"&  c #0F3139",
"*  c #153136",
"=  c #1B3136",
"-  c #15323A",
";  c #1B343C",
":  c #15383F",
">  c #1D383E",
",  c #21353C",
"<  c #21393E",
"1  c #163641",
"2  c #1C3641",
"3  c #153A43",
"4  c #1C3A43",
"5  c #1D3F49",
"6  c #233C43",
"7  c #2A3C44",
"8  c #223E49",
"9  c #1C4047",
"0  c #1C424B",
"q  c #1E4552",
"w  c #234146",
"e  c #2B4146",
"r  c #24434C",
"t  c #2B444B",
"y  c #25494F",
"u  c #2A494E",
"i  c #314247",
"p  c #30464D",
"a  c #32494D",
"s  c #234551",
"d  c #294651",
"f  c #244A53",
"g  c #2B4B53",
"h  c #264B59",
"j  c #2B4E5A",
"k  c #324C53",
"l  c #394D54",
"z  c #334F59",
"x  c #26515D",
"c  c #29545A",
"v  c #2B525C",
"b  c #355155",
"n  c #3D5357",
"m  c #34545C",
"M  c #3A555C",
"N  c #35595F",
"B  c #3B595D",
"V  c #2B5561",
"C  c #2A5863",
"Z  c #2E5A63",
"A  c #335761",
"S  c #3A5761",
"D  c #345B63",
"F  c #3B5C63",
"G  c #335D6A",
"H  c #3C5E69",
"J  c #356167",
"K  c #3C6266",
"L  c #35626C",
"P  c #3B636B",
"I  c #3E686E",
"U  c #366573",
"Y  c #3B6672",
"T  c #366976",
"R  c #3D6B75",
"E  c #3D6C79",
"W  c #3E7075",
"Q  c #3D727D",
"!  c #41545A",
"~  c #42595E",
"^  c #435D62",
"/  c #465E66",
"(  c #436166",
")  c #496266",
"_  c #43646B",
"`  c #4A656A",
"'  c #436A6E",
"]  c #4B696D",
"[  c #536B6F",
"{  c #476771",
"}  c #436C73",
"|  c #4B6C73",
" . c #436D79",
".. c #4B6E79",
"X. c #536E73",
"o. c #556E75",
"O. c #447176",
"+. c #4A7175",
"@. c #44737C",
"#. c #4B747B",
"$. c #46797D",
"%. c #4C797D",
"&. c #547276",
"*. c #5B7275",
"=. c #53757B",
"-. c #5C757C",
";. c #537A7E",
":. c #5C7A7E",
">. c #62787D",
",. c #3E7581",
"<. c #457581",
"1. c #497682",
"2. c #467984",
"3. c #4B7A84",
"4. c #4D7E8A",
"5. c #567B84",
"6. c #537D84",
"7. c #5C7D83",
"8. c #547F8A",
"9. c #627D84",
"0. c #617F8A",
"q. c #4F8184",
"w. c #4D818B",
"e. c #528185",
"r. c #5A8285",
"t. c #54838B",
"y. c #5B858B",
"u. c #57888C",
"i. c #5C898D",
"p. c #4E8592",
"a. c #4E8995",
"s. c #538592",
"d. c #578794",
"f. c #5D8B93",
"g. c #5C8D9A",
"h. c #5F909C",
"j. c #628185",
"k. c #63858B",
"l. c #6B8689",
"z. c #6B868A",
"x. c #648A8D",
"c. c #73888D",
"v. c #668790",
"b. c #638C93",
"n. c #6C8E93",
"m. c #638E9A",
"M. c #738E93",
"N. c #659096",
"B. c #6B9295",
"V. c #64929B",
"C. c #6C949B",
"Z. c #65989D",
"A. c #6D9A9D",
"S. c #749195",
"D. c #73959B",
"F. c #7B9499",
"G. c #749A9E",
"H. c #799A9E",
"J. c #76A09F",
"K. c #6695A2",
"L. c #6897A1",
"P. c #6C9BA3",
"I. c #749DA2",
"U. c #7B9DA2",
"Y. c #729EA9",
"T. c #75A1A4",
"R. c #7BA2A5",
"E. c #75A2AA",
"W. c #7CA4AB",
"Q. c #7EAAAD",
"!. c #7AA6B2",
"~. c #7DAAB3",
"^. c #84979A",
"/. c #849A9F",
"(. c #839DA3",
"). c #8B9EA3",
"_. c #81A2A6",
"`. c #8FA2A7",
"'. c #82A6AA",
"]. c #8AA6AC",
"[. c #82ACAE",
"{. c #8BABAE",
"}. c #95A7AB",
"|. c #93A9AD",
" X c #83A8B3",
".X c #84AEB1",
"XX c #8AAEB2",
"oX c #92ACB1",
"OX c #9DADB2",
"+X c #86B3B4",
"@X c #8AB2B5",
"#X c #8DB4B9",
"$X c #8FB9B9",
"%X c #92B2B6",
"&X c #92B6B9",
"*X c #93BABB",
"=X c #99BCBE",
"-X c #A3B5B8",
";X c #97C0BE",
":X c #97BAC0",
">X c #9BBEC2",
",X c #A7BEC0",
"<X c #9CC2C3",
"1X c #9EC5C8",
"2X c #A2C5C5",
"3X c #A5C9C7",
"4X c #A4C6C9",
"5X c #AAC4C8",
"6X c #A4CACB",
"7X c #AACCCD",
"8X c #B4C5C6",
"9X c #B5C7C9",
"0X c #B5C9CB",
"qX c #BCCBCD",
"wX c #ABCDD1",
"eX c #AED1D1",
"rX c #B5D2D2",
"tX c #BBD3D5",
"yX c #B7DADB",
"uX c #C1D8DB",
"iX c #CCE2E4",
"pX c #D1E6E7",
/* pixels */
"$ @ * $ $ @ $ @ @ * $ = ; $ 2 6 2 > ; % ; ; ; < 7 < < , , ; * * * * = = , , 6 6 > > , < < ; @ $ $ $ $ $ @ = $ * @ @ @ * $ @ $ * ",
"$ $ * @ $ ; > 7 r u k m B ` X.-.../ S a , e -.S.F.l.*.~ ~ ~ a 7 , , o @ 7 m F F S S m m z u t , # % * @ $ $ @ $ $ * $ @ @ * $ @ ",
"$ < = 7 a k ^ | #.#.3.w.K.!.!.Y.K.v.7.u - x.@X2XwX7X5X2X%X}._.-.; X @ z D 1.g.3.<.<.@.@.O.} } t # ; = ; < 6 6 < , > , ; * $ * @ ",
"a i # e S H #.s.t.p.p.a.g.h.g.g.g.g.t.r ; D.$X;X7XwXeX3X=X2X=X{.t @ 1 v Z g.K.3.E ,.<.<.@.#. .8 = t e e a l ! ~ ~ ) n e = * @ $ ",
"*.7 o b N K 6.t.d.4.4.a.g.g.h.g.a.d.6.5 t U.W.$X<XwXwXeX2X@X+XXX( @ 3 j Y <.<.@.@.<.<.<.Q Y V 1 * ) l.F.(.`.|.%XoX'.U.~ < * $ $ ",
"OX! . n A J 4.s.a.a.a.a.g.s.a.g.s.a.#.1 u '.k.R.@X&X<X<X;X@X@X{.&.- 8 A  . .<.@.@.Q E U G v h - k ]._.{.>X>X4X4X>X%X].[ 6 = $ $ ",
"uX[ X b A L t.s.4.a.4.2.4.2.<.s.a.t.Y - k _.;.H.%X@X@X@X+X@X{.[.| - 5 V C T ,. .E U Z x x x s $ F (.x.'.XX.XXX.X.X.X@X:.7 = @ * ",
"qXl.X l D J 4.4.,.,.<.T E E E s.s.2.Z - t H.&.I.@X@X@X+X@X+X+XT._ : 3 x V G T G C V V x x j 5 O B n.x..X+X.XXXXX@XT.U.x.7 * $ @ ",
"qX/.# g D Z R Q U U E U U R L 2.<.T Z & w S.] R.@X@X+X@X+X+X@XG.] 4 : c v V V x x V h V v g 1 + l H.| ;.C.U.U.D.I.5.C.H.a ; @ @ ",
"qX}., 6 A f Z R U U E U V G G U U R V * 7 k.( R.@X@X@X@X@X#X{.7.&.6 - g j j x v x h 8 h f r 8 $ 6 9.n.r.7.k.k.k.k.n.{.(.l ; @ * ",
"8XOX6 @ g d f G x x U G f x C Y U U v O 6 l._ I.XX X'.'.U.n.7.:.5.; $ g j j j h h 8 8 8 5 5 1 @ + % t M ^ / S B m M m a , - @ - ",
"9XOX7 + ; w f q q q h h s s h G G V j - e B.y.S.n.y.r.r.j.7.7.-.t + @ ; ; - : - 1 1 5 5 4 6 > * t F g 6 6 5 > > ; @ @ > ; - @ @ ",
"8XOX7 + + $ 5 0 y y r r y 0 f Z J J c $ 6 k.H.H.G.G.F.l.` k 6 $ @ % 2 r g S H _ ....=.5.5.;.+.u { %X_.U.W.U.G.S.M.9.o.~ k > $ @ ",
"9XOX7 + + +   O & - : - & O O - : > -   . u +.j.9.-.^ 4 $ t M { 7.S.U.].XX%X:X&X#X#XXXW.P.n.x.F ' @X@X*X<X6X7XwX6X4X2X%X/.^ * $ ",
"8X}., + % k ` X.-.:.9.9.>.>.*.o.^ n ! ! l a w < ; = * w { k.B.r.I.'.Y.I.P.C.C.B.m.b.m.m.b.b.k.K ' {.@X@X@X$X$X&X*X*X;X2X%X>.> @ ",
"uX^.# , &.%X5X9XrXuXuXuXuXtXtXtXrXrX0X5X2X-X}.M.n @ 4 =.7.#.6.I 1.1.r.t.8.r.r.r.v.C.Y.U.I.V.y.P +.@X+X+X@X+X+X+X+X+X.X<X=Xl.< $ ",
"-X^.o &.%X4X5X0XtXtXtXrXrXrXeX3X3X3X3X3X5XtXpXpX(., 6 r.;.%.3.O.$.#.t.u.u.u.N.E.+X+XW.C.b.i.%.K +.+X+X+X+X+X+X+X+X+X+X1X1Xl.> * ",
"8X>.< H.@X;X4X4X5X3X4X2X<X;X*X%X%X*X*X$X=X,XuXiX`.7 7 5.5.%.6.O.O.#.t.y.P.Q.Q.R.L.f.u.e.t.e.$.K +.+X+X+X+X+X+X+X+X+X+X6X6Xv.; $ ",
"qX[ ! '.Q.;X6X4X6X2X<X*X$X&X&X=X;X2X2X2XeXtXrXiX).7 6 5.5.+.6.#.} #.V.Q.T.N.f.i.f.f.t.t.t.t.} D O.@X+X+X+X+X+X+X+X$X$XwX*Xl.; @ ",
"8X) [ `.J.<X3X1X<X*X*X$X&X=X;X3X3X3X3X2XeXyX3X5X9.% ; =.r.O.6.%. .f.T.f.t.u.N.f.f.u.t.t.e.t.R D K @X+X+X+X+X+X+X+X+X+X:X%Xj.= * ",
"8X^ :.{.B.*X;X;X$X$X*X<X;X3X;X;X3X;X;X$X@X@XXXS.k + ; o.r.} 5.#.+.#.y.t.u.f.i.f.f.u.t.t.8.8.' D ' [..X@X@X@X@X+X+X+X+X+X@X:.* * ",
"8X^ :.[.y.'.XX$X=X<X1X4X6X3X;X;X$X{.[.{.[.'.r.^ k # $ ] k.} #.=.' D y.y.f.N.f.u.t.w.s.t.t.#.P m 5.@XW.T.T.T.Q.@X{.@X+X+X@X*.= $ ",
"8X~ j.'.r.G.@X<X2X6X3X<X;X;X;XQ.[.[.[.[.J.+.) &.g = $ / v.} ..1.O.D f.i.f.i.u.u.w.t.t.s.t.} K j r.%X@X.XR.A.B.C.R.[.+X+X@X[ = $ ",
"0X` :.'.:.G.$X6X1X<X*X+X[.[.J.;X[.[.[.x.] e.x.K X.M + S b...} #.#.' b.b.f.u.t.t.t.t.4.t.e.v _ y =.'. XXX@X$X@X[.R.R.[.G.[.[ ; @ ",
"qX*.&.[.;.J.[.;X@X[.+X[.Q.Q.Q.[.[.[.r.;.G.B._ r._.^ . k k.6.P #.r.#.b.i.u.t.t.t.t.e.y.8.D f ( w 7.k.9.r.x.B.G.R.'.[.+X[.[.` > * ",
"qX*.] _.e.R.R.[.[.[.[.[.Q.Q.[.[.[.B.x.R.J.' x.J.l.b . w 7.8._ ..i. .6.i.t.t.t.e.t.e.#.K b w r > &.7.7.5.=.#.&.+.' ' K ' ] e = * ",
"qX>.~ [.r.J.[.[.Q.Q.[.Q.Q.;X[.[.[.'.{.[.;.r.[.G.B.^ . : &.y.} ' r.#.J t.t.t.6.6.' D K N r t b ; t u g g N B B S B N N y w > = * ",
"qXl.n _.x.J.[.J.Q.Q.;XQ.Q.+XQ.[.[.[.[.r.;.[.[.B.J.[ . O ( k.#.P #.6.J e.3.@.L Z x N A 9 d | F t ` ] ] ' | { { ] _ K ' &.) < * * ",
"qX^.b _.B.J.Q.B.Q.Q.[.[.[.[.[.[.[.{.A.;.R.+X[.r.R.j.@ o k r.6.} I 6.} $.t.4.3.%.%.O.v m | 5.m F 9.&.` m g m m N { v.(.].-.; * * ",
"qX/.b _.J.J.[.N.J.;X[.[.Q.;X[.[.+XJ.i.J.[.R.N.r.{.j.# @ > ;.7. .P +.%.} e.u.t.6.O.N I %.5.| 9 : 2 $ 6 u S | 5.D.'.].(.9.a = * @ ",
"qX).! _.[.J.[.J.q.x.J.J.J.J.J.J.N.y.J.[.Q.R.J.[.].` o o o ) k.] P F ;.{ ' 3.| N B +.;.=.+.k @ .   o w n ^ _ _ ( ^ S k = < = @ * ",
"uX^.a F.[.[.[.Q.A.u.q.r.q.x.A.J.J.[..X_.S.x.:.[ ~ = o o o , n k u w w M 6 1 > 4 r r r u 1 . * w ; * 6 r r w 8 1 ; $ o X o ; - @ ",
"qX}., m n.W.'.'.'.W._._._.R.U.S.9.| B t 6 2 $ @ + # + + + + # + o o o @ o + @ $ % 2 2 2 S 9.S.M.=.| | #.| #. .D m 6 + t ~ e = $ ",
"qXOX6 O 4 g z m S ^ ^ S b g 6 = o     O + @ $ ; 6 6 6 4 : @ o + o o @ ; = 6 d m { 5.v.D. X(.I.V.D.Y.W.B.b.f.} J m < ; *.F.*.= ; ",
"qX|.6 g A z g d r 8 3 ; + O X X o @ O $ 8 S ' | o...+.+.} K g > @ - B X./ { 0.U.W.I.n.b.I. X XI.K.Y.+X!.V.t.D G d @ $ r _ j.e = ",
"qX|.t H } E E E Y } I F d + X @ X @ w I 7.b.b.V.C.L.Z.A.P.f.=.d @ u k.1.s.U. XK.v.b.Y. XY.m.t.6.B.Y.m.4.1.3.V N r + r { K >.~ ; ",
"qX}.g L E E R R E R 6.1.F 2 + + + u +.N.I.+X~.~.P.b.f.f.Z.V.| 1 @ z b.L.~.m.8.m. X~.C.t.8.m.g.4.8.4.,.4.2.2.Z v 8 $ ] I.n.j.) < ",
"qX(.M } E T R E E } 8.8.Y w @ + ; F %.3.d.Z.g.u.p.3.3.q.3.6.F - + z b.C.8.d.Y.~.K.1.8.m.Y.K.8.2.<.<.4.,.<.3.N c 6 2 k.I.G.n.` < ",
"qXU.k  .R  .R E  .E  . .E 0 @ + * N ' } 3.3.2.q.w.q.w.q.3.3.d % @ d d.8.P.Y.v.4.<.m.:XY.s.1.<.2.2.2.2.4.2.3.Z c ; w D.Y.I.B.) < ",
"uXc.s { E E E E R Y R } R s + + ; d D J %.3.q.2.q.2.q.2.4.H s 5 O d 8.K.h.1.1.8.K.!.d.3.1.2.2.2.2.2.2.,.<.3.D g 1 z U.R.T.B.` < ",
"qX*.d } E R R E T E E R { 8 + # ; ; c g v F H A G L R R Y s A 8 O y 3.3.2.4.8.K.g.4.1.1.1.2.2.2.2.2.2.2.3.3.m j r S U.I.D.n.X.; ",
"qX[ h  .E R R E R  . . .G 2 @ , n 6 3 s g g h V Z J H Y G h / 8 O r %.<.4.K.8.4.1.1.1.1.1.2.2.2.2.2.2.2.@.O.x K w ) (.S.{ B e = ",
"9X/ z  .E R R E  .Y G s 5 4 = e _ ] A x v c v P P P L I V h F 6 + 8 #.3.a.g.4.1.4.2.2.1.4.2.2.2.1.2.2.@.Z D N ' w a >.X.m ; = 6 ",
",X^ F  .E E Y U G D j r z d < 6 b S S A F D D N m g u r 8 % 2 + + 6 #.3.4.2.<.2.1.2.2.2.2.2.2.2.2.1.@.Z Z D | S 7 ; # $ $ # = < ",
"-Xl H } } } Y F F F S z k 7 , # % 2 % - ; 1 1 - @ + . o + + $ % - 2 ..3.2.2.2.1.1.2.2.2.2.2.1.2.2.E C v v { ( w # @ 2 z S ^ k , ",
"OX6 u h g s r 8 2 @ + % 6 7 = t t 7 p a t t t e 7 % + - d S G Y S 1 L 2.2.2.1.2.2.2.2.2.2.2.2.1.<.G j V { m 4 ; @ r ] ..%.#.| p ",
"^.# O & : 2 4 6 7 _ 0.(.}.(.) l.oXoXoXoX]./.(.F.c.o.% s  .<.E @.P 3 Z E ,.2.1.<.2.2.2.2.2.2.2.<.T V A H z 6 @ @ 8 | 6.g.L.f.#.S ",
">.6 m P o.j.M.H.oX5X9X:X{.D.(. X&X%XoX{._.G.U.D.M...1 G <.,.,.@.R 3 x U Y 1.1.4.1.2.2.2.2.2.<.U V H _ 8 $ 2 ; 8 o.K.E.L.s.2.O.m ",
"! &.r.S.$X<X%X_.R.D.C.D.R.%XXXI.G.S.B.x.x.r.r.r.:.w y W ,.,.p.s.T 9 f I C W <.$.<.<.4.2.$.Q L J Y H 8 + & 4 g .. Xm.3.1.<.<.@.m ",
"a :.i.R.[.B.x.x.n.H. X@X'.D.+.+.y.y.y.y.r.q.%.y.K : D @.Q ,.s.s.W 0 c W Z x L T L L E O.O.I I K m 2 + 1 y g D v.8.#.@.1.@.V.P.k ",
"b 7.i.k.i.r.x.D.@XXXG.x.r.r.} } i.y.i.y.i.O.+.#.3 5 } @.Q Q 4.d.R 0 y I Z f x x C J P I I F b 9 % + 2 d j x E 8.8.1.@.@.@.K. Xg ",
"b r.y.i.j.A.[..XG.y.6.6.e.e.I ' f.y.y.y.r.' :.b & y D  .@.E 1.K.O.0 9 I ' J K F K D m u 9 * . . + $ d j j Z t.Y.m.<.<.<.<.t.b.u ",
"b r.y.i.'.=XA.r.%.q.q.q.q.3.' P i.y.u.u.;.| ` : s R c J Q L U d.O.9 & 4 r t r 5 1 - & O O - 9 k h $ r j v Y m.8.1.<.<.<.<.<. .u ",
"b r.u.A.XXB.;.+.O.%.q.q.q.e.' D y.u.u.y.=.` u - _ O.R c Z Y L P A 5 O + O O $ - 1 9 r v D ' ;.k...$ s f f G #.1.1.<. .<. .Y m t ",
"b r.i.b.x.5.$.+.$.q.q.r.e.t.O.j %.u.u.y.| u o y +.O.@.W N c T J v 6 O - y x m J ' +.#.3.y.I.W.A. .- s r 5 A @.<.1.1.<.T G v g r ",
"k r.i.r.u.e.$.$.%.e.q.e.q.e.' u +.i.t.r.M ; * J $.O.W $.W L c D g 1 + k O.$.$.$.$.t.V.P.P.V.e.#.F : d r 0 x U <. . .U V x v g 6 ",
"u 5.e.e.u.e.e.e.e.q.q.e.e.;.O.u #.y.y.;.w O 9 I O.O.Q O.@.O.I D u ; O m #.@.3.V.E.P.f.t.3.$.$.$.G 1 d d 8 j V U G v V h h q 8 8 ",
"u r.6.%.q.e.e.e.e.e.e.q.%.q.I 0 +.i.:.N * & w b J I W O.O.} } A d - @ c L 3.E.Y.f.2.2.@.$.@.Q $.A 1 d d 8 j j j q 5 8 8 5 h 8 8 ",
"u r.3.%.e.e.e.3.q.q.e.q.O.I N 3 c ] ( > . * w y y f x v m c g y r 1 - g x R p.@.@.2.$.2.<.,.,.$.V & s d 5 v j j V j h j v j h 7 ",
"u r.6.%.q.e.e.e.q.e.q.q.q.#.' N +.-.B , o u ( ^ K N N N k 9 r v m > - d v c Z Y @.$.$.@.<.<.$.Q f - 2 2 1 q h j h V j j x h d 6 ",
"k r.%.+.e.r.e.5.6.6.e.e.q.#.O.( 5.( t @ + $ 8 8 u g g t 4 6 r w > @ $ g N m y 5 s D R  .O.@.O.P d - + @ * 1 1 4 5 3 5 9 9 5 6 = ",
"u :.;.B ' +.+.%.#.%.+.| O.' D b ( M r @ $ $ O O O O O . + O + . o o @ 6 b m m g y 8 w 9 9 y d r 5 # + + # 6 t 8 8 6 w w w r 6 ; ",
"< B =.] F N m b b j g y r u k b k 8 2 8 8 6 8 5 4 2 : ; - - ; 4 4 ; ; 2 8 6 4 2 2 4 > : + O + @ @ + @ o @ @ # % % % = = = # # ; ",
"*.w > 7 w w 4 > = * # @ * * = # $ ; r d d r 8 s 8 8 s r r r z F H H H S z s 2 - $ @ O + . O @ o @ o o o o o + X @ o o + # = $ @ "
};
