/* XPM */
static char *_0[] = {
/* columns rows colors chars-per-pixel */
"64 64 231 2 ",
"   c #04050C",
".  c #07080B",
"X  c #040610",
"o  c #060A13",
"O  c #0B0D13",
"+  c #070D18",
"@  c #090E1A",
"#  c #0D1115",
"$  c #0D131C",
"%  c #0E181F",
"&  c #111316",
"*  c #12151A",
"=  c #18171B",
"-  c #15191D",
";  c #191B1D",
":  c #20201E",
">  c #0D1522",
",  c #0E1A24",
"<  c #0E1C29",
"1  c #121623",
"2  c #141B24",
"3  c #1A1D22",
"4  c #141E29",
"5  c #191F29",
"6  c #1B2126",
"7  c #16212A",
"8  c #182329",
"9  c #1B232C",
"0  c #1D2631",
"q  c #1D2A32",
"w  c #242425",
"e  c #23252A",
"r  c #25292D",
"t  c #2A2B2D",
"y  c #312E2C",
"u  c #242A35",
"i  c #232C34",
"p  c #2B2D32",
"a  c #232E39",
"s  c #2D3135",
"d  c #263339",
"f  c #24323B",
"g  c #2B343D",
"h  c #333435",
"j  c #383635",
"k  c #32353B",
"l  c #35393D",
"z  c #3A3B3D",
"x  c #413E3B",
"c  c #3F403F",
"v  c #41413D",
"b  c #263642",
"n  c #2A3742",
"m  c #2B3B44",
"M  c #2C3D4B",
"N  c #323C44",
"B  c #3B3D41",
"V  c #323E4A",
"C  c #2F404D",
"Z  c #3C4145",
"A  c #33424C",
"S  c #3D444B",
"D  c #3F484D",
"F  c #334451",
"G  c #364954",
"H  c #394B55",
"J  c #384A58",
"K  c #3B4E5A",
"L  c #3D515C",
"P  c #384F60",
"I  c #3B5363",
"U  c #3E5969",
"Y  c #454545",
"T  c #42464A",
"R  c #444A4D",
"E  c #4B4B4B",
"W  c #524F4D",
"Q  c #54524D",
"!  c #454D52",
"~  c #4A4E52",
"^  c #434D58",
"/  c #4C5255",
"(  c #43535A",
")  c #4D555B",
"_  c #555555",
"`  c #5A5956",
"'  c #525559",
"]  c #54595D",
"[  c #5B5C5C",
"{  c #615E5A",
"}  c #62615D",
"|  c #60605F",
" . c #465B67",
".. c #545C62",
"X. c #595D62",
"o. c #4D626B",
"O. c #5E6264",
"+. c #59646A",
"@. c #466274",
"#. c #4A6679",
"$. c #576B76",
"%. c #5B727A",
"&. c #646463",
"*. c #65696B",
"=. c #6B6B6A",
"-. c #6F706E",
";. c #73726D",
":. c #78726D",
">. c #656D72",
",. c #697579",
"<. c #747573",
"1. c #797877",
"2. c #7D7D7A",
"3. c #817F7D",
"4. c #82827E",
"5. c #506F81",
"6. c #597586",
"7. c #5C7A8D",
"8. c #5E7E91",
"9. c #667C86",
"0. c #727E84",
"q. c #607E91",
"w. c #69828B",
"e. c #798488",
"r. c #638293",
"t. c #6B8A97",
"y. c #728D98",
"u. c #74929D",
"i. c #7A949A",
"p. c #708EA0",
"a. c #6F93A3",
"s. c #7595A3",
"d. c #7798A4",
"f. c #7A9AA5",
"g. c #7C9DAA",
"h. c #7EA1AC",
"j. c #7EA4B1",
"k. c #848584",
"l. c #8B8985",
"z. c #8B8C8B",
"x. c #8C8F8F",
"c. c #92918D",
"v. c #8D9597",
"b. c #979895",
"n. c #9C9C9A",
"m. c #A29E98",
"M. c #9DA09F",
"N. c #A3A297",
"B. c #A2A19D",
"V. c #839DA8",
"C. c #9D9FA1",
"Z. c #82A3AD",
"A. c #8AA5A9",
"S. c #95A9AD",
"D. c #83A6B1",
"F. c #86A9B3",
"G. c #8BACB5",
"H. c #8CACB7",
"J. c #93ADB4",
"K. c #92AFB8",
"L. c #8EB0B8",
"P. c #98B1B3",
"I. c #94B3BB",
"U. c #9AB5BC",
"Y. c #9DBABE",
"T. c #A3A4A2",
"R. c #A4A8A7",
"E. c #AAAAA6",
"W. c #ABADAC",
"Q. c #B0AEA9",
"!. c #AEB0AF",
"~. c #B2B2AD",
"^. c #A7BABB",
"/. c #B3B5B4",
"(. c #B7B6B5",
"). c #B6B8B6",
"_. c #BABAB6",
"`. c #B6BAB9",
"'. c #BBBDBB",
"]. c #C1BEBA",
"[. c #BEC1BE",
"{. c #C1C2BF",
"}. c #C6C4BC",
"|. c #98B6C1",
" X c #9EBCC1",
".X c #A6BBC2",
"XX c #A2BDC2",
"oX c #A6C1C5",
"OX c #A9C2C6",
"+X c #ABC7CB",
"@X c #ACC5C9",
"#X c #BEC5C4",
"$X c #B4C8CA",
"%X c #BCCBCC",
"&X c #B3CCD1",
"*X c #BCD2D5",
"=X c #C3C5C2",
"-X c #C9C7C5",
";X c #C6C8C5",
":X c #C9CAC6",
">X c #C3CBCB",
",X c #CDCDCA",
"<X c #D2CEC7",
"1X c #D0CFCC",
"2X c #C5D1CD",
"3X c #CDD0CC",
"4X c #D2D2CE",
"5X c #DBD8CE",
"6X c #C1CCD0",
"7X c #C7D4D4",
"8X c #D5D4D1",
"9X c #D8D7D3",
"0X c #D4DAD4",
"qX c #DBDAD4",
"wX c #D2DDDA",
"eX c #DDDDDA",
"rX c #E1DED7",
"tX c #D9E1DB",
"yX c #E3E1D6",
"uX c #E3E3DD",
"iX c #CFDFE1",
"pX c #DEE7E6",
"aX c #E5E5E1",
"sX c #E7E7E5",
"dX c #EAEAE5",
"fX c #EDEDEA",
"gX c #F2F1ED",
"hX c #EDF1F2",
"jX c #F4F5F4",
"kX c #F9F9F6",
"lX c #F9FAF8",
/* pixels */
"* O X * / v..X>X%X;X#X>X2X2X2X2X2X2X2X2X2X}.[.f.i.u. .d e e 9 < < , 2 $ o p ! $.0.y.y.y.e.w.,.%.$.( A 6 1 - 2 ; - - * o     + % ",
"t & Z R.#X#X;X>X%X$X%X>X2XpXpXtXwXwXtX0X0X0X*XP.A.i.o.d @ 3 7 < , , , 1 o ; ; & 3 3 6 9 8 7 7 - & # O - 3 * * O 2 3 2 * % $ % > ",
"3 j ;X>X6XsXwX%X#X#X$X*X%XtXtX0XwXwXwX7X2X%X[.[.P.w.C b 0 1 i 4 , , , 1 o 4.*.T e...g a g n m m A C H ) .. .H M 9 9 g a q < % > ",
"3 =.7X7XhXlXhXwX$X%XiX6X%X%X%X%X+X[.P.A.P.P.P.h.u.%.U A M 2 0 4 , , , > . l.S.S..X$XP.$.F F G G F I o.$. .( H G G n q 0 8 8 > % ",
"3 z.7XiXjXhX7X%X&X*X7X*X*X$X&X$X+X+XY.F.A.i.t.7.6.#.@.K C < 0 0 , , 1 @ s 4XjXpX$X.XOX^.i.o.H H ( o.o... .F H H J n f N d q q > ",
"8 M.7X*XiX&X+X+X[.Y.Y.Y.Y. X[.Y. X XY.[. XP.r.#.#.#.@.U b > 8 u 4 1 2 @ =.jXlX&XJ.XXoXoX@X Xv.w.%.$.H L F G G H J M 4 m b f 8 $ ",
"6 M.*X&XXXU.I.L.L.L.Y.Y. X XY.Y. X X X X X XF.5.#.#.@.U d 2 7 q 4 , < @ <.lXpXJ.I.Y. XoXoXoXOX+XoXJ.i.w.$. .( L K F 2 i n q 9 > ",
"3 v.*XI.D.L.L.|.L.Y. X X X X X X XI.[. X XI.H.6.#.#.@.U f 8 , q 9 > 1 @ *.jX6XG.U.Y.Y. X XoX@X@X@X^.Y.Y.Y.U.J.V.i.,.q 5 A 0 q , ",
": i.j.j.L.I.|.|.Y.Y. X XXXXXXX XXX X X XI.I.h.7.6.#.@.I f 8 $ a 9 > 4 + *.hX#XK..X|.|..XoX@X+X@XoX X XU.P.U.Y.Y. XP.e.G m d q 6 ",
"- w.u.L.L.I.L. X XI.Y. XXXXXoXoXoXXX XI.I.I.h.7.7.#.#. .f 9 $ q q , 4 @ O.hX$XK..X.X.X.X+X@X@XoXoXoXoXY.Y.U.U.Y.U.H.h.9.d m q 8 ",
"& w.L.L.|.L. X XoX X X XoXoXoXoXoX XU.U.I.I.j.r.7.5.#.@.F q 2 a q , 2 $ ' fX.XU. X.XXX+X@X+XoXXXoXXXoXY.U.U.I.I.H.Z.u.t.n n q a ",
"& w.L.j.L.|.oX XoXY. XoXoXoXoXoXoXY.I.I.I.I.h.r.7.6.#.U F q 4 a i 2 , * ~ sX^.U.U.OX@X&X+XoXoXoX XXX XY.P.I.L.F.Z.h.u.y.C g i i ",
"* 9.L.L.|. X X X X X XoXoXoXoX[.XX X|.K.K.|.g.8.7.7.#.P F q 4 q q 5 @ $ s wX.XI..XOX+X@XOXXX X XY.I.L.F.A.F.h.Z.Z.g.u.y.A g q f ",
"* ,.I.I. X XI.Y. XoXoXoXoX+XoX X.X X|.I.K.K.s.8.r.7.U P M a 9 0 q 7 + $ * `..XK. XU. X.X X|.L.L.F.F.F.Z.D.Z.Z.h.Z.f.d.u.A g f u ",
"* %.XX|. XI.L.I.Y.XX X XoXoXoXoX.X|.|.|.K.K.p.8.8.6.U U C b 0 8 0 9 @ @ o 1.6XZ.K.H.F.F.H.F.j.j.F.F.F.Z.Z.Z.h.h.f.i.d.u.f f g a ",
"* 9.+X|.Y.L.I.I.I.U.[.@XoXoXoX XK.K.|.|.K.|.p.8.8.7.U P C f f 2 0 7 2 + O e `.OXs.Z.F.D.D.F.F.j.h.h.F.Z.Z.h.h.h.d.f.f.i.q g f i ",
"e e.&X|.L.H.L.I.P.U.U.XX.X.X.XI.I.I.|.K.|.K.p.q.r.5.U P F f f 1 7 9 1 o + . G [.a.a.h.j.F.F.j.F.h.h.D.h.h.h.h.h.u.d.u.w.f N i i ",
"s 0.+XL.G.F.L.I.I.I.I.U.U. XU.I.I.|.U.I.K.K.s.q.r.6.U P M a d , , 8 $ o , # # ,.u.u.a.h.j.D.D.j.j.h.Z.h.h.h.g.d.d.u.u.$.9 n 9 5 ",
"p +.OXF.F.F.G.L.I.I.I.I.U.U.|.U.I.I.I.I.|.|.p.q.r.6.U P G b a 4 7 9 + o $ , . 8 N L o.u.j.j.j.j.j.h.h.h.h.g.g.d.u.u.u. .4 i i 2 ",
"k S J.Z.D.F.F.G.K.I.I.U.I.U.U.|.I.I.I.I.H.K.q.8.r.6.U P C a f < 8 4 + X $ < o Z v.,.L o.h.d.a.s.d.d.f.h.g.d.d.u.u.w.$.m 7 f 9 1 ",
"6 r y.V.j.D.D.D.H.I.U.|.|.|.K.|.I.I.K.K.|.V.q.q.r.#.I P M f f 2 9 4 o X + 7 % - v.P.e.( o.r.r.t.a.a.a.d.d.s.u.y.%.H i 0 i f 2 * ",
"e 6 w.u.j.j.D.D.F.I.I.|.I.I.|.K.I.K.|.|.H.t.q.q.8.@.P J M n f 7 7 2 X X % < < # k v.,.%.F g b U q.r.r.t.r.9.$. .N 6 i a f f 1 @ ",
"u 8 9.t.d.g.j.D.F.K.K.I.I.I.|.K.K.K.K.H.j.r.r.q.6.U J C m b i 8 9 2 o X + < > 2 . r ) o. .( A a b H L L L G A i 8 i i d f u O @ ",
"g 2 %.r.t.d.g.D.D.H.K.K.|.K.K.K.H.H.H.g.r.r.r.q.#.I J M m b 9 9 5 3 X X + < < > % . # s ! ( ^ G n q m g q 8 2 9 d d d a a 2 . 1 ",
"p & ..r.w.u.d.h.j.H.H.L.K.K.H.K.H.F.s.r.q.8.8.5. .K M M b d 6 6 3 #   X @ < > < 1 > .   O e d g d 0 q 8 q a u i i i t 8 O . - 4 ",
"O   ^ 9.6.t.t.a.d.d.d.h.D.D.D.D.V.y.t.q.8.8.6.@.I C b b g i 2 * O X @ 1 1 1 > > @ * + O     . O > - 6 - 7 7 3 - # # . . o & 7 g ",
"O 2 g 9.6.6.%.#. .q.t.r.t.p.p.t.r.q.q.q.6.#.@.J C n M g g 6 o $ , 1 4 1 $ @ X X .   . . X                     . . .   o O # e 9 ",
"V A q G o.o.( A b q G o.>.6.6.6.6.$.#.@. .J V n b V ^ g e   O # $ @ $ o * h E ' &.&.{ { [ ` _ ` ` { =.2.l.b.B.E.S.z.1.| ~ / O.W ",
"A m m q 6 i g A V n d u b M M M V M M m b d b n A ~ ! s # - 6 6 8 * O z E.4X5X5X5X5X5X5X5X5XyX5X5X5XyX5X5XyX5XrXqX9X8X,X-X;X;X).",
"b C m m a - # - 2 0 u g g g n k g d u e 0 9 5 e l s g 6 i g g m u = 1.R.4XuX5X4X5X].].}.<X5XyXyXyXyX5XyXyX5X5XrX5X5X5XrXqXyX3X1.",
"m m m C C d 6 .   & - 1 1 1 3 1 1 5 5 5 5 0 N ! Z A l g g g m l 3 l.dXuX'.rXrX8X3.y W Y x x Y Q N.5XyX5X<X5X5XrX5XrX9X4X-XT.,./ ",
"m C m g i - . . . = p z c T T T Z B N s s T ! ! g g g g n g l i z 4XqXrXaXeX_.` W ].dXrX5X].].c.Q ` 3.3.3.:.3.4.m.m.v.-.*.] / ] ",
"d d m q # j 2.Q.E.c.k.l.3.3.z.x.z.c.l.l.c.m.b.2.&.Y g s g g N 6 &.:XQ.~.0Xb.` B.dXkXkXkXlXkXjXgXdX].3.Y _ b.T.m.l.3.1.O.X.' n ' ",
"8 i d - =.0XuXuXrXsXfXfXfXsXsXrX}.4XrXuXdXuXrXqX<X=XC.*.l g N 6 l.=X[.4X;X4.-XfXjXjXsXfXkXkXjXhXfXfXfX9X].T.<X9X9X-X-XC.O.~ e ~ ",
"i r & } 5XuXuX5Xl.Q.<X8X<X].m.:.y c.rXdXdXuXyXqX9X<X8X:XS.Y N 6 n.uXtXqX,X8XqXeXeXeX].1.].eXaXeX9X1X9XeXfX].].9X9X9X8X9X.X~ e ~ ",
"d 8 r :XfXkXlXlX4Xc.3.3.3.l.m.].].m.c.Q.c.c.E.].:X,X_.n.{ s V 8 B.dXdXuXeX9XqX9X4X4X8XW._ [ =.:.0.3.3.3.x.=.-X9X9X,X8X1X1XX.e ~ ",
"d & e.gXlXlXjXdXuXrX4X:X,X9X9X9XrXrX<X,Xn.2.4.k.n._.4.j Y R S 3 N.gXdX_.qXwXqX8X4X,X-X-X-X=X}.-X].].].T.c.&.3.].8X8X8X4X,X..u ~ ",
"r : 4XkXlXfXtX~.3.=.=.:.2.<.1.3.3.m.4XrXeXqXqXqX:XE.W 2.k.~ ! - b.gXB.} qX8X4X,X-X].].].{.1X4X1X1X8X8X9X9X9XE.{ '.8X8X8X-X] u ~ ",
"8 B gXgXuX<X4.=.~.9X9XqX9X-X1X4X-X3.W 3.c.c._.k.z.c.T.C.0.Z ! = b.fX_ W.8X4X,X[.{.{.]..X-X4X8X8X8X9X9X9X9X8X9Xm.2.9X8X8X-X..u ~ ",
"& z uXuX0X} 1.uXtXqX9X9X9X9X9X9X8X8X/.~.{.}.4X~.n.&.z.b.*.p ! - b.qXE qXqX,X,X-X-X].}.,X1X8X8X8X8X8X1X8X9X8X8X-XW {.1X1X=XX.u ~ ",
". : B.yXb.<.dXtX1X6Xk.C.4X4X8X9X8X4X8X4X4X,X,X/.,X'.` e.Y B ! - x.}.} uX9X1X,X,X,X:X1X1X8X8X8X8X9X4X3X<X4X9X4XqX;.{ -X,X.X..p ! ",
"O <.;.:X2.uXsX4X1X1X(.].1X4X4X4X8X1X4X8X8X8X,XB.;._.n.O.z ! ! 3 4.B.<.aX8X1X1X1X1X4X4X4X4X8X8X4X4X4X4X4X5X9X4X9X}.~ k.,X'.~ p ! ",
"& E.~.} l.kXqX,X1X,X1X1X4X4X1X1X1X4X4X4X4X4X8XeXB.;.-Xe.' T S 3 2.4.N.uX4X1X1X4X1X1X4X8X4X8X4X4X5X4X4X9X8X8X4X4X9X]./ (.R.g h ! ",
"& Q.uX} W.fX3X,X,X3X1X1X1X1X1X1X4X1X1X,X3X3X,X4X:X` ~.z.] N N p Q } :XtX4X,X1X<X4X1X4X4X4X4X8X8X8X4X8X4X4X4X4X4X4X8X=.x.v.r B R ",
"* ~.gXz.,XeX,X1X1X3X1X3X1X,X4X,X4X,X:X,X<X,X;X:X8X2._ <.&.n S N = } uX5X3X,X4X4X1X1X-X-X8X1X8X4X8X4X3X=X{.=X:X,X<X8Xx._ X.e Y R ",
"* (.gXx.8X9X-X,X1X1X3X3X,X4X,X3X4X:X:X:X,X:X:X:X4X/.y X.>.n R Z = m.dX4X1X1X:X4X:X].'.].:X4X4X4X4X-X'.{.[.'.'.=X1X4XB.p p z Y R ",
"= _.fX3.9X=X`.`.=X,X,X,X1X1X3X,X4X,X,X;X-X,X3X,X<X=XB ..+.T ! S : '.dX3X,X<X:X-X].'.{.;X;X;X,X,X;X'.[.[.'.{.'.'.-X1X/.p r _ B ! ",
"3 (.uX3.9X/.]..X`.#X,X8X,X8X4X3X8X>X-X-X;X;X;X,X:X{.Y ..X.V H S r }.dX<X:X4X{._.].=X;X=X'.'.'.{.{.[.[.{.{.{.[.=X:X1X'.B h ] Z R ",
"3 /.,Xl.1X/..X].'..X'.,X1X8X1X4X4X-X-X;X;X=X-X:X:X{.h O...g ! R r ).aX4X,X<X[.[.=X;X[.[.[.[.[.[.{.[.[.[.[.{.[.[.:X:X[.[ j B z ~ ",
"- /.9X'.4X].].].].].].].,X1X1X4X3X-X;X;X;X=X=X:X-X/.B >.' d ^ R w T.uX4X<X:X[.=X=X{.[.[.[.[.=X#X{.{.[.{.{.[.[.[.}.[.{.] ~ ~ k / ",
"= E.aX'.8X.X]..X].[.[..X].<X1X1X3X;X;X=X=X}.=X=X:XB.! ,.! s ^ ^ e c.yX,X,X:X[.;X:X[.[.[.[.[.[.}.=X{.[.{.[.[.[.[.[.[./.Z ..~ s / ",
"- S.uX-X,X].].].{.{.[.{.]..X].{.=X=X=X;X=X-X=X-X:X0.' ,.T s / ^ e 4.qX3X,X>X;X=X;X=X{.[.[.[.[.[.[.{.{.{.[.[.[.[.[.#Xx.g O.R e / ",
"t b.tX0X,X'.[.[.].].[.[.=X{.#X=X[.{.=X=X;X=X:X}.].[ +.,.S k ~ ^ e ;.9X,X4X-X;X:X#X{.{.{.[.{.=X=X=X[.=X[.=X[.[.[.[.[.O.l O.! w / ",
"l n.sX8X,X'.{.].]..X'.'.].{.{.[.{.[.=X=X;X>X:X:X).T ,.,.T B ~ ! e ;.9X<X3X-X=X=X{.=X{.=X{.{.=X=X#X=X[.=X[.[.[.).).!.R B ../ p T ",
"Z E.fX>X>X`.'..X]..X'.'..X]..X}.[.#X=X=X{.=X>X>XE.! ,.>.k B ! ! e <.eX8X3X#X[.{.=X=X=X=X=X#X=X=X{.=X[.[.[.[.)._.[.x.s R X./ Z h ",
"k B.aX/.z.>X/.`.(.].'.(.].(.'.].[.[.[.[.{.{.[.}.<...>.+.1 Y R R r [ qX8X:X[.[.#X=X=X=X=X}.#X=X[.{.{.[.[.`.`.).'./.-.r ] [ Z ! r ",
"- 2.}._.&.1./.!.(.(.(.(.'.(.'./.[.).[.`.[.`.[.,.Z $.>.Z t T T R Y j 3.Q.-X_.'.}.;X=X=X=X=X{.}.#X{.{.'.'._.)._.}.e.h l O.! Z / e ",
"* v /.=X/.1.&.k.S.W.W.(./.W./.`.)./.).[.).b.] Z *.>./ p T T B B E Q 4.W c.].=X=X=X{.=X=X=X=X[.[.'.'._.'._.).)..X] 6 S R l W / l ",
". w ).[.'.[.R.<.} ' 3.0.k.b.!./.[./.[.R.-.D ] >.) Z e S T ! R B h W Q.m.v <.=X=X;X{.[.=X[.[.[.[.'._.)._.).).;XR.h # 6 l ' _ W l ",
"# * <._.T.k.<.O.B R x.C.x.X.~ ] | ] / h s h / D B p / R ! ~ B 3   w Q.].E.z b.:X=X{.'.'.[.[.[./././.=X-X-X.XC.] & 3 B _ ' / ! s ",
"9 6 - h Y ~ ! ~ / ..X.+.,.1.>...| X.X.] ! D / / / R / ! l e o   X O <.R.E.;.z b.[.'._.[.).).).).!./.W.b.l.*.Y = = R ~ _ / E ~ t ",
"8 * = * . * r B T ~ ~ ' ] ' ) ~ ! / / / ! D Z v Z l r *   o $ 5 0 q 8 r } 4.} y E ` [ &.&.<.1.;.=.&.X.] W w O : ~ ..' _ E Z p & ",
"2     O 2 # O O O * = = * - - * & # & # # O # O # + & 7 q a f f d f i 8 # ; y Y E E x Y Z r z ` _ _ ~ h = : j Y ~ B k e & * = * ",
"5 X     > 0 q 0 e 5 6 8 3 8 3 5 6 6 6 6 6 6 q q q d i d f b f f f f f a 8 # ; . . = ; w s w O : t : & . O & O * X X X . . 3 k 9 "
};
