/* XPM */
static char *_9[] = {
/* columns rows colors chars-per-pixel */
"64 64 230 2 ",
"   c #030304",
".  c #080707",
"X  c #040509",
"o  c #050A0D",
"O  c #0A0B0D",
"+  c #0F100F",
"@  c #060D13",
"#  c #0A0D13",
"$  c #080E1A",
"%  c #0C1215",
"&  c #07111B",
"*  c #0C141B",
"=  c #0E191D",
"-  c #121414",
";  c #12161A",
":  c #131A1D",
">  c #1B1B1B",
",  c #1E201F",
"<  c #071724",
"1  c #0B1623",
"2  c #0D1924",
"3  c #0C1C2B",
"4  c #131C23",
"5  c #161D25",
"6  c #0F212D",
"7  c #152124",
"8  c #1C2225",
"9  c #13222C",
"0  c #1B252B",
"q  c #1D292E",
"w  c #142533",
"e  c #182833",
"r  c #1D2B33",
"t  c #162C3A",
"y  c #192D3B",
"u  c #1E3237",
"i  c #1D333C",
"p  c #232424",
"a  c #22282B",
"s  c #2B2C2D",
"d  c #222D34",
"f  c #282E34",
"g  c #233035",
"h  c #24343B",
"j  c #2B353A",
"k  c #2A383C",
"l  c #343739",
"z  c #1E3641",
"x  c #1E3A47",
"c  c #253641",
"v  c #243C43",
"b  c #263A45",
"n  c #2B3C44",
"m  c #2C3D4A",
"M  c #353E47",
"N  c #2C4347",
"B  c #26424A",
"V  c #2B434B",
"C  c #2C494F",
"Z  c #334145",
"A  c #32444D",
"S  c #39484B",
"D  c #2C4651",
"F  c #2D4A52",
"G  c #2B4954",
"H  c #324552",
"J  c #334A54",
"K  c #394C54",
"L  c #354D59",
"P  c #394B59",
"I  c #2F5259",
"U  c #365257",
"Y  c #35555D",
"T  c #38555B",
"R  c #385862",
"E  c #3C5C63",
"W  c #3D6268",
"Q  c #474A4C",
"!  c #414D53",
"~  c #47575A",
"^  c #545656",
"/  c #5A5B5C",
"(  c #475D67",
")  c #456367",
"_  c #43656B",
"`  c #456A6E",
"'  c #49696E",
"]  c #596669",
"[  c #476C72",
"{  c #4B6C74",
"}  c #546E74",
"|  c #467176",
" . c #4C7276",
".. c #4C737A",
"X. c #4E797C",
"o. c #52767D",
"O. c #58757A",
"+. c #54797C",
"@. c #626467",
"#. c #636A6B",
"$. c #696A68",
"%. c #706E6D",
"&. c #676D71",
"*. c #647273",
"=. c #6B7372",
"-. c #67797E",
";. c #6E7C7D",
":. c #727575",
">. c #797C7C",
",. c #557B82",
"<. c #5A7E84",
"1. c #6A7B82",
"2. c #767D81",
"3. c #548185",
"4. c #5B8186",
"5. c #5B848B",
"6. c #5C8A8E",
"7. c #568992",
"8. c #5D8D93",
"9. c #5F9196",
"0. c #5E949A",
"q. c #5F989E",
"w. c #638589",
"e. c #69868A",
"r. c #63898E",
"t. c #788585",
"y. c #628D93",
"u. c #6A8D92",
"i. c #638F99",
"p. c #778D92",
"a. c #639296",
"s. c #6B9296",
"d. c #63959B",
"f. c #6B959B",
"g. c #64999E",
"h. c #6B9A9D",
"j. c #779598",
"k. c #74959B",
"l. c #5B97A0",
"z. c #5E9BA2",
"x. c #649DA3",
"c. c #659BA5",
"v. c #6B9EA3",
"b. c #749DA2",
"n. c #7A9DA2",
"m. c #65A1A5",
"M. c #6AA2A6",
"N. c #66A2AB",
"B. c #6BA5AC",
"V. c #6DA9AD",
"C. c #73A3A6",
"Z. c #72A6AB",
"A. c #7BA3A8",
"S. c #73AAAE",
"D. c #7AAAAE",
"F. c #6CA6B0",
"G. c #67AAB0",
"H. c #6DAAB2",
"J. c #71A7B1",
"K. c #73ADB4",
"L. c #7AAEB3",
"P. c #75AFB8",
"I. c #6DB0B8",
"U. c #75B1B6",
"Y. c #7AB2B6",
"T. c #75B1B9",
"R. c #7CB4BA",
"E. c #7EB8BD",
"W. c #858C8B",
"Q. c #888A89",
"!. c #848D92",
"~. c #879799",
"^. c #939697",
"/. c #8A9EA3",
"(. c #909FA0",
"). c #88A5A9",
"_. c #95A3A4",
"`. c #98A4A7",
"'. c #95A9AB",
"]. c #9CABAD",
"[. c #85ADB2",
"{. c #93ACB1",
"}. c #9AADB1",
"|. c #82B2B6",
" X c #8BB3B6",
".X c #82B5BA",
"XX c #84B9BD",
"oX c #8ABABD",
"OX c #9CB1B4",
"+X c #93B4B9",
"@X c #99B4B8",
"#X c #A3A6A4",
"$X c #ABAEAC",
"%X c #A1ADB0",
"&X c #A5B5B6",
"*X c #AAB5B8",
"=X c #ACBBBD",
"-X c #B6B8B6",
";X c #B3BCBC",
":X c #ABC3BF",
">X c #BCC0BF",
",X c #85BCC1",
"<X c #8ABCC1",
"1X c #98BEC1",
"2X c #B3BFC1",
"3X c #95C1C2",
"4X c #AAC2C3",
"5X c #ADC6C9",
"6X c #B7C5C7",
"7X c #BDCDD1",
"8X c #B8D1D1",
"9X c #C4CAC9",
"0X c #C1CCCD",
"qX c #C1CFD4",
"wX c #C8D7D7",
"eX c #CEDCDD",
"rX c #D3DCDD",
"tX c #D4DFE2",
"yX c #D7E4E5",
"uX c #DCE5E5",
"iX c #DCE7E9",
"pX c #DDEAEB",
"aX c #E1E8E7",
"sX c #E2EDED",
"dX c #E9EEEE",
"fX c #E4F0EF",
"gX c #EAEEF1",
"hX c #E6F1F1",
"jX c #EBF3F3",
"kX c white",
/* pixels */
", - k Z M k Z Z Z n Z Z h d q q a a 0 7 > : + + + + + - - O . .     > -XaXdXaXdXhXhXgXaXiX=X!./.+X.XL.k.n.{./.k.k.S.K.L.L.[.,.J ",
"j . o - ; - : : ; - - - ; p l M Q / $.>.^.#X$X$X#X$X-X-X$X!.j : #   p 9XaXaXsXrX2X2X}././.n.[.<X,XR.R.Y.P.[.P.R.R.R.E.E.XXR.C.T ",
"j . > s M ^ @.@.#.>.W.`.-X9XrXuXiXdXdXjXjXdXuX7X>X6X*X^.~.t.A 0 4 X > >XsXiX}.e.u.k.b.C.[. X.X.XR.R.E.R.,XP.R.R..X|..XXXR.E.L.( ",
"S Q.-XwXrXuXuXiXsXsXhXjXjXjXdXgXdXuXrXuXwX).j.j.f.C.k.r.H M c q : X - $XuX{.b.D.K.L.Y.XX<X<XY.R..XXXR..XP.,XR.R.R.R..XR..XR.R.,.",
"2.uXsXhXhXsXpXfXfXfXfXuXrX9X>X_.j.1.w.e.w.C.Y.|.Y.Y.|.b.T A n r ; O - -X/.b.P.L.U.Y.XX<XXXE.T.R.E.R.E.E.T.T.R.R.Y.R.R.R.R.R.Y.Y.",
"~.gXhXhXsXpXyX5X).~.'.p.e.u.e.a.C.S.U.S.Y.|.Y.R.Y.|.f. .K A c r : + p ;X1.K.P.K.K.XXXXXXE.T.Y.R.R.R.T.E.T.E.E.T.Y.Y.Y.U.R.R.Y.E.",
"!.hXsXsXsXsX).+.s.A.[.|.|.Y.Y.Y.R.Y.Y.U.R.R.R.R.R.|.r.U P m n q > # s ;Xu.K.K.T.,X,X,XE.T.U.U.T.T.R.R.T.E.E.P.P.U.Y.U.Y.Y.R.R.R.",
"!.sXsXpXsXiXp.C.|..X3X|.Y.R.R..XR.Y.Y.Y.Y.Y.Y.R.R.|..X<.H A M 4 ; X s ;Xk.K.Y.XX<X,XT.U.U.U.U.T.T.R.R.T.T.T.E.P.U.U.U.U.T.U.U.Y.",
"~.sXfXpXfXuXn.|.oX.X.XR.R.R.R.R.Y.L.K.U.Y.Y.Y.R.R.R..Xb.L m m 5 # X s _.h.Y.|.oXXXY.U.I.U.K.U.U.T.T.T.E.T.Y.T.U.U.U.P.P.P.T.T.Y.",
"~.hXpXhXyX'.n.oXXXY.Y.Y.Y.Y.R.R.Y.U.Y.L.Y.R.R.Y.R.R..Xf.P M c 5 ; X p ^.C.Y.oX.XR.U.I.U.T.K.U.U.U.U.T.T.T.T.T.U.K.P.P.I.K.P.Y.U.",
"_.fXuX8Xj.j..X,XY.Y.V.K.Y.Y.Y.Y.L.L.K.Y.Y.Y.R.Y.Y.R.R.v.L H n 5 -   > _.S.D.E.T.K.I.U.U.U.K.U.U.U.U.T.T.T.T.T.T.T.T.T.K.K.T.U.Y.",
"`.&Xj.j.D.oXXXE.K.M.m.S.U.Y.Y.Y.K.L.Y.Y.T.R.U.U.Y.Y.R.b.L H c 9 ;   > _.S.K.P.P.U.U.K.U.K.K.U.U.V.U.T.T.T.T.K.P.P.K.T.K.T.T.K.U.",
"1.-.h.L.XX|.|.S.m.m.x.m.S.U.D.U.K.L.L.U.K.U.Y.Y.K.Y.Y.c.P H m a * . + ^.S.S.K.P.K.T.P.H.K.K.P.H.I.I.Y.U.P.T.P.P.P.I.K.K.K.P.K.K.",
"` k.L.|.E.R.S.M.m.m.m.m.m.m.K.Y.L.S.S.K.V.K.U.K.Y.Y.L.,.P H c e *   . ;.L.S.P.T.P.K.T.K.K.I.P.P.U.I.I.U.I.T.K.I.P.P.K.K.K.K.K.K.",
"] [..X.XY.S.V.m.x.m.m.z.m.m.V.Y.K.S.S.S.V.S.U.U.T.Y.L.{ P P c a #     } [.L.U.U.P.P.K.P.K.H.H.H.I.T.U.U.T.K.H.P.H.K.H.F.H.L.K.[.",
"~.+X.XD.S.S.G.m.m.x.z.m.m.m.M.U.L.K.K.V.M.V.K.K.Y.K.K.,.H P m 5 @ . . #.S.S.V.U.P.U.T.I.I.K.H.H.I.T.H.I.K.I.T.P.I.H.N.c.K.L..XD.",
"/.@XM.K.K.K.V.N.N.m.m.m.N.N.B.L.Y.K.L.Z.Z.S.K.K.Y.U.L.M.T J m 5 + . + e.Z.V.H.K.P.T.T.K.T.H.H.H.U.H.V.I.K.I.U.I.H.K.V.V.K.R.,X).",
"p.6Xh.Z.K.K.B.V.H.B.H.H.F.G.H.Y.Y.L.S.S.S.K.K.L.L.L.L.S.o.J m 1 % . - t.Z.H.K.H.H.H.H.T.H.K.K.K.V.N.B.V.I.I.H.U.K.I.K.U.E.XXY.L.",
"t.7Xa.B.L.K.J.S.U.H.K.U.H.K.U.Y.Y.D.S.S.S.L.L.L.S.S.S.S.4.J m 0 % o + W.Z.V.V.H.H.K.K.H.T.I.H.H.B.N.G.G.I.S.I.U.I.G.H.R.,XR.K.K.",
"*.tXu.v.S.S.K.K.K.K.K.H.K.U.Y.Y.L.K.L.S.S.L.S.S.D.S.Z.Z._ V m j % o . Q.oXB.H.H.H.H.H.H.H.H.G.B.N.V.H.I.I.V.U.I.H.V.R.U.XXK.K.J.",
"*.sXj.h.S.S.S.K.U.V.U.K.U.Y.U.Y.L.L.L.L.L.S.S.L.L.D.S.B.E c m c % o   >.8XS.H.N.F.H.H.H.H.H.H.H.V.I.H.I.I.H.H.G.I.T.R.R.K.J.K.K.",
"=.7Xa.C.Z.S.S.S.V.S.S.U.K.U.L.L.L.L.U.L.L.S.S.S.L.Y.Y.Z.7.m c d % O . $.eX.XV.H.H.H.H.H.H.H.V.V.H.U.I.H.I.I.I.G.R.XXR.K.V.H.K.J.",
"*.).M.S.S.S.S.V.V.S.K.S.K.L.L.Y.L.L.L.L.D.S.S.S.|.oX|.Z.c.P y j * .   $.eX<XF.H.H.H.H.H.N.m.m.B.V.H.H.I.G.I.V.R.R.S.H.H.H.H.H.H.",
"~ b.S.U.D.U.S.V.V.S.S.K.K.L.L.Y.S.S.S.L.S.S.S.Y.|.|.L.V.h.T d d ;     $.eX1XG.G.F.H.G.H.G.m.N.B.V.H.H.I.I.H.R.E.R.K.G.H.H.H.K.V.",
"K b.H.K.L.K.K.Z.M.Z.J.K.S.S.L.S.S.S.C.S.S.D.Y.Y.C.S.V.V.6.J d q #     :.wXoXB.G.G.H.H.I.F.F.H.V.B.F.H.H.H.E.E.T.K.H.G.I.G.H.H.H.",
"A b.V.Z.Z.B.S.Z.Z.Z.S.K.P.D.S.Z.S.C.C.S.S.Y.oXD.M.V.V.m.X.n u r # X . =.5XD.G.V.F.F.H.G.N.N.B.N.B.H.K.H.G.K.E.G.H.I.I.G.G.B.H.J.",
"n k.Z.Z.A.F.S.S.S.S.S.S.S.S.S.Z.V.V.V.S.|.XXY.S.V.V.V.m.X.n v u # X X #. XB.N.F.F.F.H.H.F.N.N.N.F.H.K.H.H.K.K.H.H.H.I.G.N.N.B.V.",
"h u.Z.Z.Z.Z.A.S.S.S.S.S.S.S.Z.B.M.C.S.XX|.oXY.V.V.V.V.C.o.n N u = X   / [.x.N.B.H.F.F.F.H.F.F.N.B.V.F.H.H.H.H.H.H.G.G.H.V.M.V.V.",
"S A.S.V.Z.Z.Z.Z.S.S.S.V.V.Z.V.V.C.S.|.|.XXY.C.V.V.V.V.S.` N N r = o   :.+X0.m.N.F.F.F.H.H.H.F.G.H.G.B.F.V.J.V.H.H.H.H.V.B.V.V.V.",
"} ).S.Z.Z.Z.V.M.Z.J.V.B.B.M.S.V.V.E.XXY.S.S.V.V.V.C.V.C.E Z S u # o   >.1Xg.N.N.F.F.F.B.J.B.H.H.H.B.B.B.B.B.V.V.F.F.H.H.H.M.M.Z.",
"&.k.S.S.J.S.Z.Z.Z.S.V.V.B.m.V.V.Y.XXY.S.S.V.m.m.M.V.C.C.` N U g # @ . Q.7Xs.c.v.N.N.N.B.F.V.H.V.V.B.B.M.M.B.B.M.v.8.8.8...U W ..",
"#.k.K.Z.S.K.K.Z.Z.J.K.V.V.V.S.R.E.Y.U.S.S.S.V.m.m.M.V.M.) N Z , @ . . Q.iX@X7.,.c.v.N.B.M.N.B.N.B.B.V.M.s.o.[ ..E F F G v V B m ",
"( s.v.B.Z.Z.Z.Z.Z.V.S.H.S.S.Z.Z.Y.S.S.H.S.S.V.B.M.M.C.5.F H m ; # .   $.6X=X@X} E ..,.W W ,.6.d.d.8.X._ K b h i v N Z b m b v k ",
"Z 1.( { c.Z.M.M.Z.Z.Z.Z.V.M.V.Z.Z.V.V.m.M.V.M.v.h.s.X.J J M c 4 @     O s Q ~ Z d r h h c b N S S n j d d f g r d d r q q 0 7 : ",
"s ;.A F R <.h.v.y.,.y.v.M.M.v.v.v.f.` F W 6.6.W T I V J H n M 4 .             . . o @ % # # * * ; # # O O O # # O O O O O . O O ",
"T Z A S J J W E D m J  .r.u.r.O.' E Z C N C J H U C J A m n f $ o $ $ $ # .     p ^ $.:.=.@./ ^ ^ ^ ^ / / @.&.:.:.Q.W.W.2.>.Q.^.",
"h.O.U n r q q q r r d d r d 0 = 7 8 q q 0 0 0 0 7 7 4 7 1 1 $ $ < 3 3 3 2 : # s 6XiXaX;X}.}.].].*X*X}.].(.~.p.!.].*X2X2XwXrX0X6X",
"Z.Z.C.h.W e q 9 4 4               . & & * * & 1 2 2 2 2 1 3 w w 3 3 < < 1 3 5 &.jXjX0X5.c.c.c.c.d.i.i.i.i.c.d.,.' } ,.e.u.u.y.s.",
"M.V.M.C.,.v v B g r #         o   * 9 w e w e t t t t t w z z t t 6 6 6 D V r W.gXfXOXg.J.P.P.J.J.J.J.J.J.J.J.Z.<.<.v.S.Z.v.B.J.",
"Z.M.M.M.b. .v B h t *     . % * @ 2 w w y y y t y y t t w z w w t z x { v.v.w.].iXeXs.v.H.Z.H.c.c.c.v.F.F.J.J.B.J.D.F.Z.V.V.V.Z.",
"M.Z.C.M.M.h.) B v u = X o % 2 * o 2 t w t t y z z y y y y y z z z W 7.c.M.L.n.*XuX_.a.V.J.P.F.l.l.N.v.B.B.B.F.J.J.Z.J.V.N.F.F.V.",
"v.V.M.M.M.M.} v h t 7 X @ 7 7 2 o * w t y G G x v G R R I R E W <.F.v.J.Y.D.n.:XyXe.V.H.I.J.F.c.c.N.F.N.v.B.B.V.V.F.N.N.B.M.F.F.",
"g.V.M.M.M.M._ b v u & X @ 2 7 7 @ * w z W g.0.9.0.x.B.M.c.v.B.M.F.B.J.S.Y.D.u.6XiXj.V.F.H.F.F.F.H.F.H.v.F.F.F.F.B.F.v.F.c.B.B.F.",
"m.M.B.S.Z.M.4.B v u @   @ = 2 * o = I 6.F.B.N.m.M.M.M.m.N.c.N.N.v.v.S.|.D.B.u.:XaXj.V.F.F.F.F.F.F.H.P.N.N.N.B.F.B.B.F.F.N.N.V.H.",
"g.Z.L.|.L.M.s.C x h = X @ * = * o g 5.x.N.N.N.M.M.M.N.N.m.N.N.N.J.L.L.D.Z.x.6.%XwXx.H.F.F.F.N.N.N.F.F.B.B.N.F.B.V.N.N.V.N.B.F.F.",
"v.D.L.L.Z.M.M.Y v v q o @ & 2 = o S a.c.N.N.B.M.M.m.m.m.m.m.m.M.L.L.L.V.c.x.r.%X5Xd.N.F.F.N.N.F.F.F.B.B.N.N.V.N.N.V.F.F.V.F.H.F.",
"Z.[.D.Z.M.M.B.3.z v u o @ & 2 = % ) 0.z.c.N.c.m.m.m.m.m.m.m.M.L.L.L.B.m.v.x.a.OX2Xl.N.N.F.N.N.N.B.F.V.B.B.B.N.F.F.F.F.F.H.F.F.V.",
"L.C.B.M.V.V.v.v.D v g @ @ = 4 = + *.v.x.N.m.m.m.z.m.m.m.m.x.x.S.S.v.c.M.v.m.r.'.2Xl.N.F.N.F.F.F.F.B.F.F.F.V.F.B.N.V.F.F.N.F.B.B.",
"L.S.M.B.B.M.v.v.T z h @ @ = 4 2 o *.C.z.m.z.z.m.m.z.m.m.m.x.x.M.M.m.m.g.x.c.y.'.2Xd.G.N.F.F.N.G.B.B.F.F.F.F.F.F.F.N.F.B.N.N.V.H.",
"D.v.Z.M.B.B.v.c.W z h @ @ * 5 2 o ~ g.z.z.z.z.z.z.m.m.m.c.x.g.m.x.m.m.x.v.g.w._.5Xc.N.N.N.N.F.v.B.B.B.B.F.N.N.N.N.G.F.c.x.B.V.F.",
"Z.B.M.M.M.M.v.x._ v h O @ & 3 2 o S q.z.m.z.m.z.N.m.N.N.M.M.x.M.M.m.x.x.g.d.4._.1Xc.N.F.F.N.N.F.N.F.N.F.N.G.N.F.G.G.F.N.N.H.B.H.",
"M.M.M.M.M.M.M.M.` i h @ @ & 2 2 o U q.z.m.m.m.m.z.c.N.x.c.v.V.M.v.M.v.g.g.d.4.'./.l.c.N.F.N.N.G.N.c.G.N.N.F.N.N.N.F.N.F.B.B.N.N.",
"M.M.M.M.M.M.M.v.W i b @ @ * 2 2 O ! g.q.z.z.x.x.m.c.c.z.g.v.M.c.x.v.x.g.a.0.4.].1Xi.c.N.N.N.B.N.N.z.N.N.N.G.c.H.L.L.V.N.N.N.N.N.",
"Z.M.M.M.M.v.M.9.B z h # o 2 w 4 O ] h.q.z.z.x.x.l.l.c.c.v.N.m.g.g.g.f.g.d.a.4.%XqXi.N.N.B.B.v.N.N.N.G.N.N.N.F.L.R.D.V.m.m.x.x.c.",
"v.v.x.x.c.M.v.a.B i c = o 9 6 6 @ ] [.q.z.x.x.c.7.7.c.x.v.B.c.q.0.g.g.d.a.a.O.`.tXu.c.c.N.N.c.B.N.N.G.N.N.v.P.D.C.v.x.c.c.x.c.c.",
"c.x.x.g.g.x.v.h.R i z 4 o 3 w 3 & ^ 4Xg.z.z.x.x.c.g.c.c.c.c.v.x.x.g.h.g.d.s.) `.tXk.c.c.v.c.N.N.N.N.c.N.N.D.D.v.v.c.g.g.x.x.c.M.",
"9.g.g.g.q.d.g.3.F i i 7 o 2 3 1 @ M =Xg.q.q.g.g.d.g.d.d.9.g.x.m.x.x.g.g.f.4.U _.0X<.c.l.a.c.c.v.m.m.v.M.C.[.C.g.d.c.g.g.g.d.v.v.",
"d.g.a.9.9.a.X.C V i g 7   1 1 1 $ 5 ~ | 3.9.0.0.d.g.g.g.9.q.g.g.g.g.g.g.d.` ) ~.7X{ 7.9.d.8.0.d.g.g.v.Z.D.C.M.g.d.h.c.g.0.0.0.g.",
"a.a.6.X.W U C F C i u 4   < 3 < $ 2 H R Y  .....3.y.a.+.| 5.g.g.g.6.5.6.3.4.` *.wX1.U R [ <.8.8.q.g.D.Z.D.M.x.q.c.c.g.g.0.9.0.a.",
"+. .T N N N C C B u q %   o $ $ @ @ M ! S N N N C _ E C F I X.3._ C A V I E Z k !.~.D V b D Y ,.a.C.n.D.v.g.g.c.0.0.0.0.9.0.9.5.",
"N B C C F C C N h r : X       X . , a s - % 4 a g k k n Z n k h h k j k g u 0 , ! H V D D V m G O.j.n.f.a.a.a.9.8.y.6.| _ { [ I ",
"N C C N B N v u q % o . # # # * a f a ; o o o > p 5 5 p 8 p 8 : : % % - + O o . 8 M M j n V J ~ ) ~ ( [ { ' T R R E J B B B G G ",
"g u u k g 7 % 7 l s ; % % * 4 f d 0 4 % # # / ;X6X>X-X:X:X6X:X&X*X%X].].;.Z k a ; . % * : = f M j d 0 q r d r d h k k n n A A V ",
"kXkXkXkXkXkXkXkXkXkXkXkXkXkXkXkXkXkXkXkXkXkXkXkXkXkXkXkXkXkXkXkXkXkXkXkXkXkXkXkXkXkXkXkXkXkXkXkXkXkXkXkXkXkXkXkXkXkXkXkXkXkXkXkX"
};
