/* XPM */
static char *_8[] = {
/* columns rows colors chars-per-pixel */
"64 64 121 2 ",
"   c #292632",
".  c #2E2B37",
"X  c #2E2E3B",
"o  c #332E36",
"O  c #312E3C",
"+  c #2E313E",
"@  c #31313E",
"#  c #2F3140",
"$  c #333442",
"%  c #393645",
"&  c #373945",
"*  c #3A3946",
"=  c #3A3748",
"-  c #363949",
";  c #3C3C4B",
":  c #3C3F50",
">  c #3E404E",
",  c #3E4151",
"<  c #41414F",
"1  c #434453",
"2  c #454856",
"3  c #444758",
"4  c #474A5B",
"5  c #4A4C5C",
"6  c #4F515D",
"7  c #4D4F61",
"8  c #4D5262",
"9  c #4B566A",
"0  c #4E596D",
"q  c #535565",
"w  c #555966",
"e  c #595A66",
"r  c #525769",
"t  c #535B6C",
"y  c #5A5C6B",
"u  c #525C72",
"i  c #5E616E",
"p  c #566173",
"a  c #5C6274",
"s  c #576078",
"d  c #596379",
"f  c #5F6A7B",
"g  c #626573",
"h  c #666976",
"j  c #626679",
"k  c #656B7B",
"l  c #6B6C7B",
"z  c #6B717F",
"x  c #636D80",
"c  c #677082",
"v  c #6C7283",
"b  c #6D7789",
"n  c #727583",
"m  c #757986",
"M  c #787A87",
"N  c #747A8D",
"B  c #7A7D8C",
"V  c #747D91",
"C  c #7B7F92",
"Z  c #7D818E",
"A  c #758293",
"S  c #7D8395",
"D  c #7E8599",
"F  c #7E899C",
"G  c #80818E",
"H  c #828594",
"J  c #838896",
"K  c #818799",
"L  c #828A9C",
"P  c #898D9C",
"I  c #8E929F",
"U  c #858DA1",
"Y  c #8A8EA2",
"T  c #8792A4",
"R  c #8C93A4",
"E  c #8E96AC",
"W  c #8F98AA",
"Q  c #9194A4",
"!  c #9399A7",
"~  c #9197AC",
"^  c #949BAC",
"/  c #9A9DAC",
"(  c #9197B1",
")  c #949BB2",
"_  c #999FB2",
"`  c #9DA1AE",
"'  c #96A1B3",
"]  c #9AA2B4",
"[  c #9EA5B8",
"{  c #9FA8BA",
"}  c #A0A2AF",
"|  c #A1A5B3",
" . c #A5A9B6",
".. c #A1A7BA",
"X. c #A3AABC",
"o. c #A9ADBC",
"O. c #ACB1BE",
"+. c #A7ADC1",
"@. c #A8AEC1",
"#. c #ADB3C4",
"$. c #AFB6C9",
"%. c #B1B6C6",
"&. c #B3B9C6",
"*. c #B1B6C9",
"=. c #B5BBCC",
"-. c #B9BFCE",
";. c #B7BDD0",
":. c #BABFD1",
">. c #B7C0CF",
",. c #BBC0CF",
"<. c #BBC1D1",
"1. c #C1C3CF",
"2. c #C1C6D5",
"3. c #C4C9D7",
"4. c #C8CBD7",
"5. c #C0C7D8",
"6. c #C4CAD9",
"7. c #C9CEDC",
"8. c #CCD1DD",
"9. c #C7CDE0",
"0. c #CED3E0",
/* pixels */
"O O O O o + o . + . o + + o o & 6 h M J ! }  .o.o.%.%.&.<.<.2.2.2.1.,.<.<.,.,.=.=.&.&.&.O.o.X.` ^ ! P J N v h i q 1 ; @ X O O O ",
"6 w h n m h i w w w e h n Z P | &.1.4.3.3.3.2.<.-.,.,.-.<.<.<.5.<.,.<.>.,.-.>.>.>.<.,.,.<.<.<.<.<.<.<.,.-.=.&.$.O.X.^ b 2 O O O ",
"` >.4.8.0.8.8.8.<.8.4.8.4.8.4.4.1.1.-.-.-.,.,.<.<.<.<.<.6.<.<.<.<.<.<.<.<.,.,.,.<.<.<.<.,.>.>.-.<.>.<.>.-.<.>.<.<.6.6.X.n % o O ",
"` <.6.<.4.<.,.<.,.,.,.,.,.,.>.>.-.-.-.,.-.,.<.<.<.<.<.2.<.<.<.,.<.<.<.<.,.<.<.<.<.<.<.<.<.,.<.<.<.<.-.-.-.<.<.<.6.9.6.{ S < . O ",
"| >.<.<.<.<.,.,.,.,.,.,.,.,.,.,.,.,.>.,.<.<.<.<.<.<.<.<.<.<.<.:.<.<.>.,.<.<.,.<.<.<.<.<.<.<.:.<.-.<.<.<.-.<.<.<.0.7.=.R B 1 O O ",
"` >.<.,.<.<.>.<.<.<.<.<.,.,.,.,.,.<.<.<.<.<.<.<.<.5.2.<.2.<.-.<.<.<.<.:.<.<.<.<.<.<.<.<.<.<.<.:.<.<.<.<.<.<.<.6.0.3.X.K Z 2 o O ",
"Z O.<.>.<.,.,.<.<.>.,.>.>.,.,.,.,.<.<.,.<.<.<.>.<.2.<.<.<.<.<.:.<.:.<.,.<.<.<.<.<.<.<.,.-.<.<.<.<.;.<.<.<.<.<.6.7.<.~ S C 4 . O ",
"z ! >.>.>.,.,.<.<.<.,.,.,.,.,.,.<.,.<.:.<.-.:.,.<.<.<.<.<.<.:.<.,.<.:.<.<.<.<.6.5.<.2.3.5.2.<.:.-.<.,.<.:.,.-.5.7.=.P S S 7 o o ",
"6 Z R #.-.-.<.>.<.<.<.<.<.<.<.<.<.<.<.<.<.<.:.<.<.<.<.<.>.<.<.<.;.<.,.<.2.3.2.:.$.#.#.*.<.6.5.5.<.:.-.:.:.<.:.5.7.=.Y S S q . o ",
", Z S ! $.>.:.,.>.<.<.<.<.<.<.<.<.<.<.<.<.<.<.>.<.<.<.<.<.<.<.<.<.<.<.<.<.&.X.] ] ] ] [ ] #.=.<.<.:.:.:.<.:.:.<.7.,.! S S e O o ",
"> n S P X.<.<.<.<.>.<.<.,.>.<.<.:.,.:.<.:.;.<.,.<.:.<.<.<.<.<.<.,.2.3.=.X.' ] ] ] ] _ ] ] _ X.#.*.=.:.:.:.<.<.5.5.7.X.D S i O o ",
"+ z S F X.<.>.<.<.<.<.<.,.<.<.<.<.>.<.<.,.<.,.<.<.<.<.<.<.<.<.<.2.=.o.] _ ' ] ] ] ] _ ] _ ] _ | #.#.*.*.:.:.:.:.,.5.2.! H h O o ",
"X i S F +.<.<.>.>.<.<.-.,.,.,.>.<.>.<.<.-.=.-.>.<.-.-.,.<.<.<.-.#.] _ _ _ ] ' ' ) ) ^ ^ ' ' ' _ ..#.#.#.$.*.:.:.<.<.5.#.R n @ o ",
"X p P I =.<.<.<.<.-.<.<.>.>.>.>.<.;.>.-.=.=.=.;.;.>.;.<.<.=.#.[ ' ' _ _ ^ / _ ' ' ' _ _ _ _ _ ' _ ] @.#.$.$.;.:.5.:.<.<.] H * o ",
"+ i ! O.<.>.<.;.:.<.,.,.,.&.&.>.>.<.>.;.>.<.;.>.;.&.=.$.+.] _ _ _ ' _ _ _ _ _ _ _ ' ' _ ) ) ' ' ' _ [ +.@.*.*.*.:.:.:.5.#.R < o ",
"+ w ^ >.<.-.,.<.-.<.,.,.-.>.>.>.>.=.;.=.$.#.#.#.X.] ' ] ] _ ' _ ' ] ' _ _ ) ^ _ _ ) ) ' ^ W ^ ' ' _ ] [ +.$.$.$.;.:.:.6.$.Q 6 o ",
"X 6 { <.6.<.<.>.:.:.:.:.=.:.=.*.*.$.X.{ ' ' ] _ ) ( ( _ _ ] _ _ ' ' ' ' ' ' ' ' ' ' ' ' ) W _ ' ] ] [ { { ] X.#.#.&.>.9.;.^ y X ",
"+ 6 ' O.>.<.<.<.:.:.:.=.=.%.$.#.#.X.' ^ _ _ ) _ ] ( ( ) ) ~ E Y A A A A A A A F T T T W ' ' _ ' ] [ [ { ] ' ' { +.$.;.9.*.) l O ",
"+ 5 F F F F T W ( _ [ _ _ ....] ^ R T T U L D D C C V N v x u u 0 9 9 9 9 9 9 9 0 p p c b A L ^ ' { { [ ] ' ' ' { #.$.>.@./ m O ",
"+ 4 D D F S S D C D K V b v v x d p d d s s s s x u u u u 0 t t 0 0 0 0 9 9 0 0 0 0 0 9 9 0 u N T W ) ) ' ' ' { +.#.$.#.[ ^ S % ",
"X q S S F F S D C C N c j u u y 0 0 0 r 0 0 u u u u u u p p t p u u u 0 9 9 9 9 9 9 9 9 t u k x N U F F F F L P R W ^ R U E H = ",
"@ w S S S S A Z N x j r 7 3 < = ; ; : ; : : : 1 4 5 7 7 , 5 2 , , , , > ; * - & - # - - 1 5 t a k b S D J S S F D D S S H K H 1 ",
"$ 1 9 r r 8 6 8 7 : = % # O O O $ $ % % = = = ; ; ; * > > > > > > @ - & @ * & & * * + + % ; ; ; , r k z z z z k k h a a y e q @ ",
"O X X X X + & & % % = < 5 q i g l n M M C C H K P P R R ` ` ' ' ` ` ` ' ` ` } ` / I J S M l e 3 > # + & @ + + + + + + + X X X   ",
"O O $ # % = ; 4 e n G Y Q Q / / _ ] | X.{ +.$.;.<.<.<.9.<.0.0.0.4.8.8.8.8.8.8.8.0.0.8.8.8.4.1.=.O.} I G z i 6 $ + + + + + + @ . ",
"$ O O # ; q C } %.%.&.%.*.O.o.#.%.%.&.=.>.<.<.6.<.9.<.7.0.<.<.0.3.4.4.6.4.3.3.3.3.3.3.4.4.4.7.3.4.4.3.2.1.&.o.Z 2 + + X O O O O ",
"# O $ < n } 1.4.1.1.1.1.1.*.&.:.<.5.5.6.6.9.9.6.7.<.9.7.<.0.<.8.3.3.6.3.6.6.3.3.4.6.6.3.3.6.6.3.4.2.6.3.4.4.<.%.J , + + O O O O ",
"O # = l } :.4.1.:.:.1.:.:.:.1.:.<.<.5.6.9.<.6.6.<.7.8.<.0.<.0.<.6.6.3.6.6.3.4.3.3.6.3.6.6.3.3.3.3.3.6.4.3.2.*.X.R z ; + O @ O @ ",
"# = < P o.1.1.:.1.:.&.1.:.:.:.:.:.<.<.2.2.3.6.6.0.<.<.7.<.0.0.8.6.4.6.6.6.6.4.7.6.6.6.6.4.3.4.3.3.4.7.7.=.{ _ ^ R S v ; + O X ; ",
"= = 5 P %.1.:.1.1.:.1.:.:.1.1.:.<.:.:.:.<.5.6.3.<.0.7.8.<.7.<.0.6.6.6.6.6.6.6.6.6.6.6.3.5.9.5.4.8.8.2.+.) ^ ( ) R D K h $ O . 2 ",
"= = 1 P &.1.:.1.:.1.1.1.1.:.1.:.:.:.:.<.:.<.<.5.0.9.7.<.8.<.8.<.6.6.6.6.6.6.6.6.6.6.6.6.4.5.4.0.0.:._ ( ( ( ) ) W D D k $ @ . 5 ",
"= = ; I 1.1.:.:.:.:.&.:.:.:.:.:.:.1.:.<.<.<.<.<.<.<.<.7.<.0.<.0.6.6.6.6.6.4.6.6.6.6.6.6.5.4.7.0.:._ ( ( ) ( ( ) W L F y # O . e ",
"O O 1 } 2.-.<.-.-.<.<.:.<.:.<.<.<.:.-.<.<.<.,.<.<.,.<.2.6.3.3.5.4.6.6.6.6.6.6.6.6.6.6.6.5.6.8.<.X.W ) ) ( ) ( ) ( F D 0 # # X a ",
"O o g &.-.-.<.<.<.<.-.<.<.<.:.<.<.<.<.<.:.,.<.<.<.<.<.,.<.<.6.7.6.6.6.6.6.6.7.6.7.6.6.6.6.3.7.>.' ) ( ) ( ) ) ( ( F V 9 # # O a ",
". = I -.-.,.<.<.<.<.<.<.<.<.<.<.<.:.,.<.<.<.<.,.<.,.<.<.>.<.<.<.<.6.6.6.6.6.6.6.6.6.6.6.6.4.7.&.' ) ( ) ) ( ( ) ( F A 7 # O O 3 ",
"O l %.-.-.,.<.,.<.<.<.<.<.<.<.<.:.<.<.;.<.,.,.,.,.<.,.<.>.<.,.=.>.,.,.<.<.6.6.6.6.6.6.6.6.6.6.>.' ( ) ( ) ( ) ( ( F D 4 X O O O ",
"< Q :.:.-.1.:.:.<.<.<.<.<.<.<.<.,.:.<.,.,.,.,.,.<.>.<.,.,.<.=.$.#.$.-.,.<.<.6.<.6.6.6.6.6.7.7.<.+.) ( ) ( ) ( ) E U C 3 # # O X ",
"q / &.&.-.-.<.-.<.<.<.<.<.<.<.<.>.<.-.-.>.=.=.>.,.<.<.-.,.<.,.&.&.&.-.,.<.<.<.<.<.<.<.9.6.6.6.<.;.+.) ) ) ( ) ( E F C 3 X O O # ",
"l ~ %.1.-.-.<.<.<.<.<.<.<.<.<.<.>.,.-.-.>.O.O.&.>.,.-.-.>.<.,.,.<.<.,.>.>.>.<.<.<.<.<.<.<.7.6.6.<.<.@.' ( ( ( ) E U V 1 O O O X ",
"C Y @.=.<.:.<.<.<.<.<.<.<.>.<.,.<.<.-.;.>.&.O.O.=.,.,.,.<.5.,.>.,.<.,.>.=.=.>.<.<.<.<.<.<.6.6.6.9.9.6.>.+.) W ( ( D V , X O X ; ",
"H U X.=.<.<.:.<.<.<.<.<.<.<.;.<.:.<.>.:.-.=.&.&.,.,.<.2.<.<.>.,.<.<.-.-.=.&.=.,.-.<.<.<.<.<.6.6.6.6.6.6.5.*._ ( E D V , # O % G ",
"U H ] -.<.<.<.<.<.<.<.<.<.<.-.-.<.-.-.;.,.-.>.>.<.<.2.<.,.,.,.,.>.-.=.-.-.,.-.;.<.<.<.<.-.<.<.<.5.5.5.6.9.5.$.) ( U V , O # h  .",
"L C _ :.<.<.<.<.<.<.<.<.<.;.<.-.-.-.&.=.,.,.>.,.,.,.,.,.,.>.&.,.<.<.-.-.=.-.-.<.<.;.<.<.<.<.<.<.:.5.5.6.5.6.:.[ ( D V 3 O 1 I } ",
"U C ~ :.<.<.<.-.;.<.:.<.:.<.<.-.-.<.-.-.>.,.,.,.<.,.=.-.,.>.O.,.,.;.-.=.$.$.&.<.,.<.-.<.<.<.-.,.:.:.:.5.5.6.<.+.E U C 3 O i ` / ",
"U D W ;.-.,.<.<.<.<.<.<.<.<.<.<.<.>.-.<.,.,.2.,.<.<.<.,.-.&.&.$.-.-.-.&.#.#.&.<.-.<.:.<.<.<.<.<.:.<.<.:.<.<.<.$.] L A 2 $ m ` ^ ",
"F A ^ ;.<.:.-.-.<.<.6.5.6.<.<.<.:.,.<.,.,.<.<.,.<.<.<.<.-.-.-.-.-.-.-.-.$.#.$.<.-.<.<.<.<.<.<.;.<.:.<.,.<.:.<.;.] L S 6 ; H / ! ",
"F D ^ >.<.<.<.<.<.9.9.6.6.6.<.<.,.<.<.<.<.<.2.<.<.<.-.-.-.-.-.-.>.:.<.:.&.$.&.-.-.<.>.<.<.-.<.<.:.,.<.-.:.:.:.;.X.U D w < P ! ! ",
"F A _ <.<.<.<.6.6.6.6.6.<.6.6.6.<.:.,.<.5.2.5.<.<.>.=.$.=.-.:.-.-.-.>.<.-.-.-.-.-.-.<.<.<.<.<.-.<.<.:.<.:.:.:.:.#.T D i 5 I ! ` ",
"F D _ ;.<.<.9.6.9.6.6.9.<.6.6.6.0.<.<.<.<.<.>.>.>.>.>.&.-.>.,.-.-.-.:.<.<.;.<.<.;.<.-.<.-.<.;.<.<.-.,.-.-.:.:.:.$.~ L j 5 I ! ! ",
"F D ' ;.<.<.6.6.6.6.6.6.9.9.9.6.<.9.9.<.<.<.>.#.>.>.>.>.;.-.&.$.=.-.-.>.,.<.-.<.-.&.-.<.<.<.<.-.=.=.-.<.<.:.:.;.=.] Y n 5 R ! R ",
"F D ] >.6.6.6.6.6.6.6.6.6.6.<.9.<.0.9.<.<.<.>.>.O.=.>.>.-.-.&.#.$.-.-.=.-.-.:.,.-.-.-.:.-.<.<.&.#.#.&.<.;.<.:.:.=.] ) H 5 P ` R ",
"D D ] <.<.6.6.6.6.6.6.6.6.6.6.6.0.0.<.9.0.<.<.>.#.$.,.<.-.<.;.&.&.,.-.-.-.-.&.$.&.-.-.<.<.>.-.-.=.=.-.<.:.:.:.;.=.] ) P 2 J ` ^ ",
"D D [ <.9.6.6.7.6.6.6.6.6.7.6.6.8.<.0.0.9.<.<.<.=.&.-.<.-.-.:.<.<.<.;.<.<.<.&.#.$.-.-.>.<.:.<.<.<.<.-.-.&.=.-.;.-.] ^ P 2 Z ! ^ ",
"V D { <.6.6.6.6.6.6.6.7.6.6.6.6.<.0.9.<.<.0.0.<.<.,.<.>.,.;.-.<.<.>.<.-.<.<.>.-.$.&.<.<.<.<.-.<.<.:.:.-.&.$.-.:.;.] _ I > z ! ^ ",
"V D ] <.9.6.6.6.6.6.6.6.6.7.6.6.0.<.0.<.0.9.<.8.6.<.<.>.<.&.-.<.-.-.-.-.;.;.<.;.-.-.-.<.<.>.&.-.<.-.-.-.<.-.-.:.;.] ^ L * f ` ! ",
"v F ] <.6.6.6.6.6.6.6.6.6.6.6.6.<.8.<.9.0.<.8.<.6.6.9.6.<.-.;.>.>.-.-.-.&.&.<.-.-.-.-.<.;.-.-.-.,.<.-.-.>.:.;.;.;.[ ' J & 6 R ` ",
"k F ' >.<.8.0.<.6.4.7.4.6.6.7.6.6.6.6.<.7.6.8.7.6.6.6.6.7.3.5.>.-.=.:.:.:.:.:.<.;.<.-.-.-.-.-.=.,.<.-.<.*.&.=.;.;.[ ) H & , P ^ ",
"f F ' >.8.<.8.0.6.6.6.6.6.6.6.6.6.6.6.4.6.6.<.7.6.6.6.6.6.3.3.5.@.E :.:.<.<.:.<.-.=.<.-.-.-.<.;.-.;.-.-.&.o.&.-.;.[ ^ H & & Z ^ ",
"a F ' >.<.8.0.<.6.6.6.6.6.6.6.6.6.6.6.6.6.7.7.<.6.6.6.7.7.6.5.6.+.U *.:.:.,.<.<.-.=.<.<.<.<.6.<.<.>.-.<.&.#.$.-.-.[ ^ S $ $ h ^ ",
"y A ' >.0.<.<.8.6.6.6.6.6.7.4.6.6.6.6.6.6.7.7.7.6.6.6.6.6.6.7.5.*...:.5.<.<.:.<.,.-.<.<.>.<.<.<.<.<.:.>.-.&.&.;.-.[ _ B $ + 6 P ",
"9 S W *.7.<.8.<.6.6.6.6.6.6.6.6.6.3.6.6.6.6.6.7.6.6.6.6.7.6.6.6.6.6.5.6.2.<.<.<.<.,.<.<.-.-.<.;.:.-.-.-.,.;.,.-.;..._ B $ @ 1 B ",
"6 S R #.7.<.<.8.6.6.7.6.6.6.4.6.3.6.3.6.6.6.6.6.6.6.6.6.6.6.6.6.6.6.6.6.6.6.5.<.>.<.<.<.<.-.>.-.=.-.-.-.-.-.-.-.,.X.^ M @ @ * b ",
"4 S T X.7.7.8.<.7.6.6.6.6.6.7.6.3.6.6.6.<.7.6.4.6.6.8.6.7.6.6.6.6.6.6.6.6.9.3.<.-.&.-.<.<.<.,.&.$.&.-.-.-.-.,.>.<.X.^ N @ o @ k ",
"3 N R X.<.<.7.6.6.6.7.6.6.6.6.6.6.6.6.6.6.6.6.6.6.6.6.4.6.6.6.6.6.6.6.3.6.6.6.6.<.=.&.,.<.,.,.=.#.=.<.;.>.=.-.,.6.#./ n @ @ @ y "
};
