/* XPM */
static char *_5[] = {
/* columns rows colors chars-per-pixel */
"64 64 256 2 ",
"   c #0C023A",
".  c #13023A",
"X  c #0C0143",
"o  c #0D014C",
"O  c #0C0849",
"+  c #13024C",
"@  c #1A0448",
"#  c #0D0153",
"$  c #0E015C",
"%  c #0E0A5A",
"&  c #130253",
"*  c #180857",
"=  c #13025C",
"-  c #0B1A54",
";  c #131352",
":  c #260657",
">  c #240850",
",  c #10215A",
"<  c #0E0063",
"1  c #0F006A",
"2  c #0C0C6B",
"3  c #130165",
"4  c #1A0665",
"5  c #14016C",
"6  c #1C026C",
"7  c #0C1D68",
"8  c #161A69",
"9  c #0E0376",
"0  c #140174",
"q  c #1A0173",
"w  c #180C75",
"e  c #14017C",
"r  c #1A017B",
"t  c #191978",
"y  c #270568",
"u  c #350969",
"i  c #261868",
"p  c #270578",
"a  c #330877",
"s  c #25147A",
"d  c #361478",
"f  c #1A2468",
"g  c #0E2F76",
"h  c #142877",
"j  c #262777",
"k  c #2A2A76",
"l  c #18447F",
"z  c #140184",
"x  c #1A0183",
"c  c #190C86",
"v  c #15008B",
"b  c #1A018C",
"n  c #181788",
"m  c #160193",
"M  c #1A0194",
"N  c #180C97",
"B  c #16009B",
"V  c #19019B",
"C  c #1C1798",
"Z  c #270788",
"A  c #370887",
"S  c #251885",
"D  c #391786",
"F  c #260598",
"G  c #3A0999",
"H  c #281C96",
"J  c #3B1B99",
"K  c #0D2B88",
"L  c #172A88",
"P  c #0C3B86",
"I  c #163988",
"U  c #0F2A93",
"Y  c #152998",
"T  c #1A3799",
"R  c #252A89",
"E  c #352C88",
"W  c #293488",
"Q  c #282A98",
"!  c #352997",
"~  c #243899",
"^  c #363A9A",
"/  c #1A01A3",
"(  c #1808A6",
")  c #1A01AC",
"_  c #1C19AA",
"`  c #1B00B3",
"'  c #1A0BB6",
"]  c #1B00BA",
"[  c #191BBB",
"{  c #2707A8",
"}  c #3908AA",
"|  c #2519A7",
" . c #3A1BA6",
".. c #2605B6",
"X. c #3606B6",
"o. c #2F1AB6",
"O. c #192BA8",
"+. c #1835A5",
"@. c #182CB7",
"#. c #1A31BA",
"$. c #262AA5",
"%. c #372BA6",
"&. c #2537A9",
"*. c #3739A9",
"=. c #2428B3",
"-. c #382AB3",
";. c #2837B7",
":. c #373AB5",
">. c #430C8B",
",. c #460A98",
"<. c #4C1690",
"1. c #481699",
"2. c #462597",
"3. c #462D93",
"4. c #4808A7",
"5. c #540CA7",
"6. c #4918A8",
"7. c #5A13A5",
"8. c #4708B5",
"9. c #550BB7",
"0. c #4718B6",
"q. c #5716B8",
"w. c #6D13B9",
"e. c #651ABD",
"r. c #4726A7",
"t. c #4638A8",
"y. c #4627B5",
"u. c #562DB4",
"i. c #4937B8",
"p. c #702FBA",
"a. c #1D448B",
"s. c #084B9C",
"d. c #165099",
"f. c #2D4299",
"g. c #084BA7",
"h. c #174AA9",
"j. c #1956A8",
"k. c #184BB6",
"l. c #1559B6",
"z. c #254AA9",
"x. c #2853AA",
"c. c #2848B9",
"v. c #3452B2",
"b. c #1865AD",
"n. c #1965B6",
"m. c #2568B6",
"M. c #3865B7",
"N. c #2C73B7",
"B. c #474BB2",
"V. c #5849B6",
"C. c #674CB8",
"Z. c #7054BF",
"A. c #4366BA",
"S. c #1B0CC1",
"D. c #1C1AC4",
"F. c #3012C5",
"G. c #192AC5",
"H. c #1A2BCB",
"J. c #1A2ECD",
"K. c #3030CE",
"L. c #5312CA",
"P. c #6A0CC5",
"I. c #4837C6",
"U. c #5530CF",
"Y. c #6937CA",
"T. c #743BCA",
"R. c #6A2ED2",
"E. c #7235E3",
"W. c #154DC7",
"Q. c #0E5BCB",
"!. c #135BC7",
"~. c #184DD8",
"^. c #1559D6",
"/. c #285AC7",
"(. c #3252CF",
"). c #1C67C8",
"_. c #1C62D7",
"`. c #2864C6",
"'. c #306ECC",
"]. c #2961E3",
"[. c #534FC9",
"{. c #4754C7",
"}. c #465BD8",
"|. c #704BCB",
" X c #4B6BD1",
".X c #6C66D9",
"XX c #535AE3",
"oX c #4C61E2",
"OX c #6E67E7",
"+X c #891FB5",
"@X c #8C12CD",
"#X c #A60CD2",
"$X c #9430D2",
"%X c #AD2FE4",
"&X c #894DD2",
"*X c #AA50D9",
"=X c #984EE9",
"-X c #B254EC",
";X c #956BEB",
":X c #C957E7",
">X c #CF73EA",
",X c #2F8DCB",
"<X c #2E91CD",
"1X c #348BD5",
"2X c #3A96D6",
"3X c #3593DA",
"4X c #3DA2DB",
"5X c #478AD8",
"6X c #508BD2",
"7X c #4794D6",
"8X c #5794D8",
"9X c #688DDA",
"0X c #6C92DB",
"qX c #50A7DC",
"wX c #69A4D9",
"eX c #538FE2",
"rX c #4895E3",
"tX c #6D90E3",
"yX c #7993E7",
"uX c #45A7E6",
"iX c #57B4E9",
"pX c #6AB1E9",
"aX c #79C4EC",
"sX c #7EC9EC",
"dX c #6CC2F0",
"fX c #79C6F2",
"gX c #7AC3F5",
"hX c #8596E8",
"jX c #8895EC",
"kX c #82B6E5",
"lX c #EEBCFC",
"zX c #86C7ED",
"xX c #82CAEC",
"cX c #99C6EC",
"vX c #87D2EF",
"bX c #89C7F3",
"nX c #95C8F4",
"mX c #9DDBF6",
"MX c #A2C2ED",
"NX c #A6D0F3",
"BX c #A6DBF7",
"VX c #B4DBF9",
"CX c #AEE2F9",
"ZX c #B3E3FA",
"AX c #BAE5F9",
"SX c #F4D3FC",
"DX c #C2E4F9",
"FX c #C4E9FA",
"GX c #CBEEFC",
"HX c #D4EDFB",
"JX c #D8EDFA",
"KX c #CEF2FD",
"LX c #D3F2FD",
"PX c #DBF2FC",
"IX c #DDF8FC",
"UX c #E6F8FD",
/* pixels */
"2.f.x.b.N.,X<XqXwXwXwX7XN.N.N.N.N.b.b.l.j.j.j.j.x.h.z.x.f.^ d u d 3.t.V.V.V.C.V.C.C.C.Z.C.C.C.C.Z.Z.C.C.C.C.C.C.C.C.C.C.p.p.+X#X",
"V.v.N.iXvXvXCXAXFXFXAXmXmXvXsXsXsXsXsXsXxXsXsXsXsXxXzXkXA.B.3.3.3.C. XkXcXcXcXcXMXMXcXkXMXMXMXMXMXMXMXMXMXMXcXMXMXMXMXhXZ.+X+X#X",
"B.v.7XGXKXFXFXIXIXIXIXGXAXCXCXAXAXZXAXAXZXAXZXCXCXCXAXHXvXv.*.2.t.M.nXLXAXAXFXFXDXVXDXDXDXDXDXDXDXDXDXDXDXDXDXDXDXGXHXJX9Xp.+X#X",
"t.m.4XKXiX<XqXaXkXkXaXwX<X<X<X<X).,X).).b.b.b.b.b.N.N.sXVXm.W H ! v.BXcXb.N.M.M.M.M.M.M.A.A.A.M.M.M.M.A.M.A.A.A.A.{.0XPX0Xp.+X#X",
"i.x.4XKXqXN.N.6X6X6X6XN.N.b.b.x.h.h.k.h.I P I I a.a.j.dXAXb.~ S &.l.BXzXd.W W k W W W W W W W W k k k W W W W ^ 3.t.9XUXhXC.+X#X",
"i.x.4XGXuXb.d.f.x.x.x.x.d.d.z.a.T $.Y C t h t L L I g.aXVXn.Y H $.b.BXxXz.R n t s s t s s s s s j i y s s D a D E 3.9XJXhXp.$X#X",
"*.x.qXGX4Xb.l l W ~ ~ ~ ~ ~ R L L t n w 2 4 0 5 w U g.aXZXn.Y n L l.mXxXk.L t y q 6 y 6 y q 6 6 y y > y y y a a 2.t.9XJXhXZ.%X%X",
"t.B.qXGX4Xb.l l k E k j h f f i i 8 * ; @ ; ; @ ; h d.sXZXb.I 8 I j.BXxXh.R s y y : @ @ > @ > @ @ . . > > : : u D t.0XUXhX+X*X:X",
"u.A.rXKX4Xj.a.j Q W j j j f i i i i : ; & ; + & i h d.sXAXm.W j W m.VXzXx.t.6.G 1.a : @ @ * > @ + + @ > : : : u 3.3.9XPXjX&X*X>X",
"t.z.2XKX<Xd.g h n t 8 , 8 ; ; ; % % ; & & o o o ; g s.dXZXn.I 8 I j.mXsXs.L n c w & X . X X X X X X X + & @ * y d B.9XPXjX&X*X>X",
"r.z.,XmX<Xd.g 8 c 8 ; 8 % O ; % ; % & % # # o # % g g.dXCXb.K 7 P g.mXxXs.L H F r # X   o o o o + o + & & @ : y D t.0XUXhX&X*X>X",
"1.~ g.,Xb.g 7 ; w 4 % % % ; 4 0 0 w 0 0 5 1 5 1 w U k.fXCXl.U n U l.mXsXg.I n b e #   X $ 5 5 5 5 5 5 5 q p p p ! t.0XUXhX&X:X>X",
"G R T T a.g - O w % O O O * 5 w r b x x z b z z N Y k.fXCXn.O.U +.!.mXsXj.I n v 5 o     # z z z z z r x Z Z p Z  .t.9XPXhX&X*X>X",
"A i h 7 , .     * ;       O 4 s w 5 5 5 5 5 5 5 w U k.fXZXl.T n U l.mXvXj.g 2 5 = X     + 5 q 0 5 5 3 6 5 p p a 1.t.0XJX0X&X*X>X",
"<.1.! E f ; . > D u > > > u <.1.5.,.,.,.a a >.>.6.t.(.nXAX Xi.%.i.}.CXxXh.E 1.5.>.: : : y ,.,.,.>.,.y >.5.1.7.7.u.C.yXUXjX*X*X:X",
"G Q T h.g g ; : Z 4 & + * s F F F G { { G A { M ( @.W.aXZX_.#.[ ;./.BXsXh.W  .X.b = * & 3 b F F V F a G G G G G 6.I.tXPXjX&X#X%X",
" .~ n.1Xb.P - # 0 = X O * s m b m M M V b e V V ( @.W.fXCX_.#._ #.!.mXsXg.K N B z $ # $ 1 v m m M m 0 b b F Z F  .I.tXHXyXT.@X#X",
" .&.1XAX,XP - o 0 = o * * q v m M V V V x r / / ( @.W.dXCX_.#.[ #._.mXsXg.U ( B v $ $ $ 1 m B B B b 5 b M F F F  .i.9XPXyXE.@X#X",
"%.&.1XGX<Xg - O 5 = ; ; * 5 e z v v v v e 0 m v N @.W.gXZX_.G._ #.Q.mXaXs.K N m z $ # # 1 m m m v r 4 r x Z Z F | :.tXLXtX|.R.#X",
"J T 1XGX<Xl - O = 8 : & = 5 0 0 0 e e z r 5 z z v O.W.dXCX).+._ O.Q.mXaXs.g c b 9 o X o $ e z z e t y q e r p p H *.eXLXtXY.P.@X",
"1.*.2XKX<Xl , . y d y y y * y a a a p q y a p Z G %.v.bXZX`.$.J ;./.BXvXj.L A Z y @ . . * a p a d D u p a a a a D *.9XPXyX|.P.@X",
"u.v.8XKX2Xd.j i 1.,.G G 4.>.4.} } 8.8.8.8.8.X.X.X.K.XXMXDXOXE.R.U.XXVXnXc.%.q.8.G a : u A 4.9.q.8.8.8.9.9.4.4.4.u.V.tXPXtX|.$X#X",
"%.&.1XKX<XP 7 * e e 0 0 z p M B / B B B B ) / ) ' G.~.nXDXoXK.=.H.^.BXsXg.U ' ) v < & * 9 / { { { V B V V M F F | c.eXHXeXI.L.@X",
" .&.1XAX<XP 7 $ e 1 $ # < 5 m V / / / ) ) ) ` ) [ K.~.pXAX_.J.D.J.^.mXxXg.U ( ` m 1 = & e | { { / V / V V V F V | *.eXPXeXI.e.P.",
" .&.).uXb.g 7 $ 9 < o o # = b V B / / ) ) ) ) ) o.K.^.gXZX_.J.D.J.^.mXsXg.O.' ` B 5 o * S { ) / / / V V V M M M | &.7XKXeX:.L.P.",
"G Q +.s.a., - O 1 $ X   X + e v v v m m V V / { _ @.W.fXZX_.J.[ G.^.BXfXg.U ( ) v $ o * w m V M M m v z z b x Z Q &.5XKXrX:.6.@X",
"A t h h , -   . & +     . X 5 0 q r 9 0 r r S Z N C W.fXZX^.@._ +.!.BXsXg.h c z 0 o . O = r r r r r q q q 5 0 w S ~ 5XKX5Xt.6.w.",
",.1.! D f > . : >.u : : : >.5.5.9.8.5.4.,.<.L.9.9.U.}.bXAXoXI.L.I.}.VXsXz.! q.9.4.y * 3 p 4.9.4.4.,.a 5.5.5.5.7.u.V.0XPXtX[.p.@X",
"6.! +.T K 7 O y A s * : 4 Z { } { / ....} } ..] S.H.~.pXAX].K.H.K.^.BXxXh.Y ..F./ 1 < < 9 ) ..{ { { p 8.} 8.4.} -.K.rXLXrX:.q.P.",
"6.&.h.!.s.g - $ e < # o # e B B / / ) | | V ..] S.H.].pXAX].K.F.K.].BXsXg.O.' ] B 1 < < 9 ) ` ) ) / q / V V m B O.#.rXKXrX(.0.P.",
"r.&.,XmX,XP - $ e < # # # 9 / / / / ) ..M V ] ] S.H.~.bXAXoXU.R.U.].BXsXg.U ' ] / 1 < < z ) ` ) ) V r V V V V N _ k.rXKXrX;.y.P.",
" .&.,XFX<XP - # 0 < o o # 9 B B B / / ) b b ) ] ' H.~.pXAXXXE.-XE.XXVXfXg.U ' ] B 1 < < 9 / ) / / M 5 v m M M b O.c.rXKX2Xc.0.P.",
"! T 1XGX<Xg - O = = o X o 5 0 e e z e z 0 0 v v N @.~.gXAX}.=XSX=X{.VXsXs.K N m e # # o < z v z z 9 = e e 9 9 n Q z.1XKX2Xz.r.9.",
"r.^ 7XGX<Xa.f @ y p y a a y p A A A G ,.>.G G 4.8.y.(.kXDX|.=XSX*X.XAXbXh.Q G ,.A : @ @ : Z A G A A a a A A D D ^ z.7XLXrXB.u.w.",
"u.*.1XGX<Xa.7 w F F G { { p ,.L.9.9.X.F.F.X...F.F.K.(.nXFX;X-XSX-XOXVXbXk.O.L.L.8.6 y : Z X.X...{ X...} } } 0.y.-.z.eXPXwX[.u.P.",
" .&.3XGX<XP 7 % e b z v m 0 b / / ) ) ` ` ] ] ` S.H.~.gXVXoX=XSX=XXXVXgXg.U ' ] B 0 = # e ) ` ` ) ) ) / ( | | N O.z.7XKXrXW.i.P.",
" .;.1XGX<XP 7 < r e 1 $ 0 0 m / ) ) ) ` ` ] ] ] S.H.~.kXDXXX=XSX-XoXVXxXg.O.' ] B 9 # o 9 ) ` ` ) ) ) ( ( | C | =.h.2XLX4XW.y.P.",
" .&.1XGX<XP 7 $ e 5 # % # = e v m / ` ` ` ` ` ] S.H.~.gXDX}.=XSX;X}.BXsXg.O.N v v 5 # o 9 B / / B V V / ( / ( ( +.k.2XKX3X(.:.P.",
"! &.<XGX<Xl , + 3 * ; @ o & 5 z z b m m m m B B ( @.~.gXAX X=XSX-X}.BXxXg.K 2 # $ # o X < v m v v z v c c N n C +.z.2XKX4Xc.-.e.",
"2.~ 1XGX<XP , . * ; @ . . + 4 y q 5 q q q q r p c $.k.xXAX.X=XSX*X{.BXaXs.h % X + X . . & q p q q q 6 w w s S S ~ x.7XLX2Xx.t.w.",
"u.t.eXGX7Xa., u 2.<.: u u >.9.9.9.9.9.P.,.5.P.L.P.E.XXNXHX;X%XSX-X.XDXbXv.! s u a u y u A } 8.9.9.,.a e.q.e.e.U.[.[.pXPXpX X|.$X",
" .*.5XGX2Xa.f d 1.p @ & = r { { ..{ ) ] } } ....S.K.~.pXDXXX=XlX=XoXVXkXk.U w 5 5 5 3 = e / ) ) ..4.>.L.0.0.o.-.(.(.rXLXrX(.I.P.",
"y.:.1XGX<Xa.f i r < o # # e V / / / ) ) M / ` ] S.J.~.gXDXoXE.=XE.}.VXgXg.Y 2 1 1 1 < < e ) ` ) ) V Z ( { _ _ =.;./.uXKXuX/.{.R.",
"0.*.5XGX2Xd.f 4 e < # # # e V / / ) ) ) M V ] ] S.J.~.gXDXoXU.L.U.].CXsXg.U 9 1 1 1 < 1 e ..) ) ) N c ( _ _ O.;.c./.uXHXuX/.[.L.",
"6.*.5XGX2Xa., & e < o o # 5 m B B / / V x M ) ` ' G.~.gXAX].K.F.K.~.BXsXg.K 2 $ < $ $ = s { V V / c w ( _ | =.=./.`.uXLXuX'.{.u.",
"6.*.7XHX<Xa., + = o     X = 0 0 9 z z z q r v v m @.k.pXZX!.@._ @.Q.mXsXg.g % o o # + ; * z z z r r 4 c S Y Y Q z.`.uXLXuX`.v.i.",
"u.V.8XHX7Xa.f : a : @ @ @ @ a G ,.,.G G G G G } 4.y.(.nXAX}.I.0.i.}.VXbXz.W u : : : : > y G ,.,.G G J J 1.%.%.i.v.'.iXLXiX XB.i.",
"e.i.6XJX2XT f 4 r 5 + & = y F { { X.{ ) ] ] ` ..F.K.(.bXFXOXE.R.E.XXVXbXh.! w 5 q d i y x { ....) ) { | | =.;.c.{. XpXIXiX X(.-.",
"e.i.8XKX2XT 8 4 r 3 o # # 3 v V / / / ( ....] ` ' H.~.gXZX].J.D.J._.mXsXg.Y 2 2 w w = # 9 ) ) ) ( ) | _ O.=.=.;./. XpXIXiX'.(.i.",
"e.i.eXGX7Xa.t 4 r 3 o o # 3 v V / V ) { ..' ` ` ' H.~.gXZX].J.D.J.^.mXfXg.Y w 4 w 5 # o 9 / ) ) ( ( ( ' _ =.=.c.`.5XaXIXdX1X(.Y.",
"R.u.eXHX7X~ t y r 4 o o # & e V V / | { ) ` ` ` ] G.~.gXZX^.J.D.J.^.mXsXg.O.c c r 3 # o 9 / ) / ( ( | _ _ =.;.;.'.8XnXUXsX6X[.Y.",
"w.i.9XHX7X~ 8 * 5 = X X X + q e x C F V m N m B ( @.W.gXCX).#._ @.^.mXaXg.U N v 9 # X X < v m B N M N C H O.+.c. X0XNXUXbX8X[.Y.",
"+XC.9XHX6Xf.8 > y > @ . . @ y p A D p p 6 p p p Z $.(.kXZX`.*.H $.!.BXsXd.L p p p @ @ @ * A Z p p p w S J ! ^ f.A.wXVXUXnX9X[.T.",
"$XT.yXPX8Xf.k d 1.a : : : A } 6.q.q.9.8.,.,.8.X.0.K.(.bXAXoXU.F.U.oXCXsXz.t.P.L.4.y y y p } 8.8.8.0.D q.U.U.U.|..XhXVXUXNXyX.X&X",
"P.Y.tXJX8Xf.f y p 6 + # # e F F V V / / { F ) ) ' @.~.gXZX_.J.[ J.^.mXsXg.Y { ..M < $ $ 9 B / / N ( H | | =.:.v. XwXBXUXnX9X[.Y.",
"$XR.tXJX6X^ s 4 Z 4 + o o 0 v N B V / / b e ) ) ' G.~.gXZX_.J.D.G.^.mXsXg.U ' ) v < $ $ 0 V / / / N c | $.%.;.c. XwXmXUXvXeX[.R.",
"@XR.yXJX8Xf.i 4 q 4 + + + 0 v v M V V V x r / / ( G.~.gXZX_.J.[ J.Q.BXsXg.K ( / m < < $ 9 B / / N N s H $.;.;.;.'.9XxXIXsX6XA.R.",
"$XT.tXJX8Xf.i : y = X   X = 0 e e e z z e 5 z v N O.k.gXZX).#._ G.Q.mXxXs.K N m e & o o < v v b x r w H Q Q Q ;.c.6XdXIXdX XB.R.",
"$XT.0XJX8X^ i : * @ @ . . + 3 5 p 5 5 5 5 = q 0 z U k.gXCX).z.Q +.l.BXxXs.g c 9 4 X . X + 5 q q w w i k R R R ~ x.'.iXIXdX'.B.Y.",
"*X&XhXJXwXt.k d >.u > > @ : A ,.,.,.,.>.>.,.,.,. .i.{.nXDX Xi.u.I. XBXbXz.! 6.4.>.: @ @ u ,.,.,.1.7.u.6.r.r.t.B.A. XpXIXpX X[.T.",
"%X|.hXJX9Xf.E a A y @ & * a G F M F F { { { F V ( =.(.nXGXOXR.L.I.].BXbXh.Q | { b 4 : : p F { { |  . . .-.%.-.:.(. XiXKXuX'.{.i.",
"$X&XyXJX8X^ d y Z 4 & + X = x z b m M M m B V V ( @.~.bXAX].#.@.@.Q.mXsXs.U N V z $ + + 3 F N F N C N C C $.+.&.v.m.uXKXuX'.c.%.",
"$XT.9XJX8X^ E u r 4 + X o & z v b v v M M V V V N @.(.bXZX).#._ @.^.mXxXg.U ( V z = + + 5 N V N N C C _ C $.$.&.c.m.uXKXuX/.c.! ",
"$XT.hXJX8XB.k y p * + X X + 0 z z v v z v m m b C #./.gXCX_.#._ @.Q.mXxXs.U C V x % O O w N N N C C H C H O.$.&.c.m.uXKXuXm.c.r."
};
