/* XPM */
static char *_a317e8de8d04e18ec470d6149c7cf7bRXTokJ793HQ5sg39[] = {
/* columns rows colors chars-per-pixel */
"64 64 255 2 ",
"   c #000400",
".  c #030A01",
"X  c #090508",
"o  c #0D010D",
"O  c #0C0C0D",
"+  c #140104",
"@  c #11000D",
"#  c #061302",
"$  c #0D110E",
"%  c #181A06",
"&  c #0E0111",
"*  c #080813",
"=  c #0D0C12",
"-  c #130014",
";  c #170717",
":  c #160019",
">  c #1A011C",
",  c #0E1511",
"<  c #121215",
"1  c #15131A",
"2  c #171818",
"3  c #161B19",
"4  c #22001E",
"5  c #21181E",
"6  c #0B290A",
"7  c #033500",
"8  c #192819",
"9  c #153717",
"0  c #1A331C",
"q  c #153C1A",
"w  c #1B3C1C",
"e  c #213B1E",
"r  c #1E0022",
"t  c #1B0A20",
"y  c #1C1523",
"u  c #1D1924",
"i  c #1E1D2A",
"p  c #230124",
"a  c #25002A",
"s  c #29052A",
"d  c #241726",
"f  c #231D2B",
"g  c #2B0438",
"h  c #340335",
"j  c #271E33",
"k  c #291E36",
"l  c #311831",
"z  c #1E2621",
"x  c #1E3A21",
"c  c #272927",
"v  c #25232C",
"b  c #312F2A",
"n  c #223D23",
"m  c #283629",
"M  c #272234",
"N  c #2A2235",
"B  c #2D243B",
"V  c #352A33",
"C  c #31253D",
"Z  c #31293D",
"A  c #2E3836",
"S  c #353934",
"D  c #40333F",
"F  c #084C0A",
"G  c #154815",
"H  c #14451B",
"J  c #1B431C",
"K  c #164C1D",
"L  c #1B4B1D",
"P  c #185517",
"I  c #16531E",
"U  c #1C541D",
"Y  c #1C5B1C",
"T  c #21441D",
"R  c #214C1D",
"E  c #22541D",
"W  c #235B1C",
"Q  c #1C681C",
"!  c #127013",
"~  c #24691D",
"^  c #24741B",
"/  c #194621",
"(  c #1C4C22",
")  c #1A5321",
"_  c #165824",
"`  c #1C5B22",
"'  c #234424",
"]  c #234B23",
"[  c #284629",
"{  c #2B4B2B",
"}  c #31482E",
"|  c #245424",
" . c #275427",
".. c #245B24",
"X. c #2A5B25",
"o. c #2B532C",
"O. c #245C2A",
"+. c #2B5B2B",
"@. c #315B2D",
"#. c #354A36",
"$. c #2D5A32",
"%. c #385537",
"&. c #325C34",
"*. c #1C6424",
"=. c #1D6B24",
"-. c #196728",
";. c #1A762A",
":. c #157931",
">. c #246425",
",. c #2B6325",
"<. c #246B24",
"1. c #2B6C25",
"2. c #25642B",
"3. c #2B642B",
"4. c #246C2B",
"5. c #2B6C2B",
"6. c #37652B",
"7. c #31642C",
"8. c #316B2D",
"9. c #277726",
"0. c #2C7324",
"q. c #25732B",
"w. c #2C732C",
"e. c #2C7B2B",
"r. c #35772A",
"t. c #337C2C",
"y. c #2D6431",
"u. c #276A36",
"i. c #2C6C32",
"p. c #346434",
"a. c #336B33",
"s. c #376839",
"d. c #3B6B3B",
"f. c #2C7432",
"g. c #297537",
"h. c #2C7B32",
"j. c #337433",
"k. c #337B34",
"l. c #34733C",
"z. c #3A733C",
"x. c #387B39",
"c. c #3C7B3C",
"v. c #48513B",
"b. c #426C3C",
"n. c #42773D",
"m. c #320044",
"M. c #340B46",
"N. c #2F1641",
"B. c #331B47",
"V. c #342643",
"C. c #342B43",
"Z. c #392D46",
"A. c #362649",
"S. c #3B2D4B",
"D. c #3A3444",
"F. c #383646",
"G. c #3C334B",
"H. c #3E394B",
"J. c #3C2C51",
"K. c #3E3351",
"L. c #402D4E",
"P. c #40344F",
"I. c #42394E",
"U. c #412D52",
"Y. c #432E59",
"T. c #423453",
"R. c #443A53",
"E. c #45355A",
"W. c #49375B",
"Q. c #46395A",
"!. c #4A3B5C",
"~. c #4D1A65",
"^. c #572E6F",
"/. c #4B3561",
"(. c #4D3B61",
"). c #543B68",
"_. c #633C76",
"`. c #3A4F46",
"'. c #386944",
"]. c #3B7B44",
"[. c #48484A",
"{. c #4B4359",
"}. c #4E5355",
"|. c #76525A",
" X c #466845",
".X c #437943",
"XX c #526C51",
"oX c #4E4262",
"OX c #524365",
"+X c #55446B",
"@X c #56486B",
"#X c #594A6C",
"$X c #575669",
"%X c #5A4572",
"&X c #5A4675",
"*X c #5D4C73",
"=X c #5C5373",
"-X c #5E547A",
";X c #615467",
":X c #654A79",
">X c #634C7C",
",X c #63537B",
"<X c #635979",
"1X c #587068",
"2X c #66607C",
"3X c #1B842D",
"4X c #1C8533",
"5X c #1C8A33",
"6X c #1C9435",
"7X c #2B822B",
"8X c #2B872A",
"9X c #34842C",
"0X c #39872C",
"qX c #229E23",
"wX c #389329",
"eX c #2A8635",
"rX c #338334",
"tX c #3A8432",
"yX c #348B33",
"uX c #34843A",
"iX c #3C833C",
"pX c #398B3A",
"aX c #269739",
"sX c #399538",
"dX c #2DA339",
"fX c #438536",
"gX c #429337",
"hX c #3C8643",
"jX c #339642",
"kX c #1FAF42",
"lX c #24A942",
"zX c #2AB849",
"xX c #39B14C",
"cX c #438442",
"vX c #448A45",
"bX c #439343",
"nX c #4E9D4C",
"mX c #4E8D52",
"MX c #30C351",
"NX c #6A3489",
"BX c #685883",
"VX c #73588B",
"CX c #794894",
"ZX c #765B94",
"AX c #576185",
"SX c #676385",
"DX c #736E8C",
"FX c #756294",
"GX c #7B7796",
"HX c #815B98",
"JX c #847898",
"KX c #864DA6",
"LX c #848196",
"PX c #8681A0",
"IX c #A59AC2",
/* pixels */
"+XR.= v C.D.G.G.G.G.G.P.P.T.T.T.T.R.T.T.R.R.I.I.I.I.I.H.H.H.H.H.H.H.G.G.D.D.D.D.D.D.D.D.D.D.D.D.D.D.D.D.D.Z.C.C.C.C.C.Z B < G.OX",
"#XoX1 R.R.!.{.#X=X-X-X,X,XBXBXBXBXBXBXSXSXSXSXSXSXSXSXSXSXSXSXSXSXSXSXBXBX<X<X<X<X<X,X,X,X,X-X-X=X*X*X*X&X#XOXOXoX!.R.H.OXZ A.BX",
"#XOXf R.{.!.R.!.y B N g g g Z k g N.B.B.B.B.B.A.B.A.D.D.D.B.A.B.m.A.A.B.B.B.M.m.m.m.m.M.m.m.m.m.m.g B B B g k M i 2X$XD.#XR.T.ZX",
"#X+Xu R.#X=X*X+X  ; 8 Y Q Q 8 X.1.5.,.1.,.,.,.>.4.3.% + + W 1.w.yX3.X.5.0.5.w.h.w.w.<.=.<.<.<.<.Q Y 2 8 - U 9 X 1 GX<XH.=X!.E.FX",
"#X+Xu I.#X*X,X*X  a +.uXd { s hX.XvXmX].].hX].hX].A s &.pXbXcXvXjXxXhX%.#.d.d.%.`.[.XXmXcXcXc.x.x.m a d p yX] : v JX<XH.,X!.T.VX",
"%X@Xu I.#X*XBX,X  a 7.j.6.@.a l l s.hX.X#.V s.jXx.#.pXbXcXz.fXz.b.cXjXhXs.z.d.h #.%. X XS %..XhXiXk.a.j.m 0X] : v PX<XH.,X!.E.FX",
">XFX1 P.#X*XBX,X  a 7.a.fXfXa S b #.%.s..XuXpXc.fXbXcX.Xc.hXd.z.c.d..XcXhX.X%.n.iXk.s.iXm V %.o.@.$.} sX[ 0X] : v PX<XI.=XR.E.FX",
">XFX< P.#X*XBXBX  a 7.a.x.x.a l s a V #.mX} cXcXiXcX.Xc.c.&.x.vXj.g.z.n.n.n..XcXvX.Xs.n.vX Xv.r p p p sX[ fX' : v PX<XI.*XR.E.FX",
">XZX< G.#X#XBXBX  a @.a.b.mX Xb. X Xd.z.z.%.c.iXc..X].s.o.vXd..XmX#.d.hXz.d.n..X].hXvXs.XXs.vX'.s.p.#.nXm fX' : v JX<XI.*XT.E.VX",
":XVX< G.+X@XBXBX  a +.j.#.'.%.].z.c.z.s.yXtXiXz.z.x.x.a.a.$.mXf.x.n.v.A ].&.x.x.s.c.].%.z.#.} #.#.g.sXpX> fX[ : v JX<XR.#XT.E.VX",
":XVX1 G.+X+XBX>X  a @.k.a c c d &.&.y.x.j.c.z.c.x.p.iXpXk.u.:.h.;.eXdXhXl p [ a.iXc.z.hXuXhX'.v p m n r a fX[ : v GX=XR.#XT.E.BX",
">XVX< G.OXOX,X>X  a @.k.S } d o.b a.k.&.pX[ fXp.p bXl.O.g.aXjXlXaXg.u.pXjXs.S S p.bX} m l.uXl.cXo.p b c r fX[ : v GX#XP.+XT.E.BX",
":XVX= G.!.).,X>X  a @.tXa p j.iXj.{ v d.bXp } a b } sXeXeXlXzXzXzXlXeX{ d.vXiXpX#.a v 1 4 8XyXd.p.{ c.z.+.0X' - v GX<XI.OXT.E.>X",
">XVX= Z.!.(.,X>X  a @.tXm c uX&.d [ j.s.jXp c b b d aXeXaXzXMXMXMXzXaX;..XfXm j.sX' [.;XV bXyXd.p.X.x.pXj.0X' - v GXSXR.).T.E.>X",
":XBX< Z.Q.!.>X>X  r @.r.j.a.8Xf.7X .b.s.hXp c b b c d i.dXzXMXMXzXlXaX:.XXXXr p sX2.{.}.V cX0Xz.s.o.j.pXj.tX' - v GX<XI.(.T.E.>X",
":X>X< Z.Q.W.:X>X  r @.r.j.j.8.n ` {  X&.vXm m d c #.%.7XaXzXzXzXzXdX5X;.[ c m a pXo.|.v.=.j.x.gX&.+.tXx.i.tX' - v DX=XG.(.T.T.>X",
":X:X< Z.T.!.*X&X  r o.8.f.j.} +.n { %.&.vXc b [.mXyXq.aXeXlXlXlXdX6X5XuXm pX[ b 6.A AXH.4 +.rXc.p.,.tXuX3.9Xn @ v DX=XD.(.T.T.>X",
"%X:X= Z.P.W.%X&X  r { 1.j.j.> j.j.w.<.a.tXg `.{.[.'.'.uXg.g.hXhXeX2.aXy.c gXd d c a J.g 4 [ ' iXp.X.yXuX3.9Xn o v DX#XD.W.J.J.&X",
").:X* S.G.E.@X%X  r { >.k.k.: > > r p ] sXp.l.! ).FXDX'.( O.].].eX2.eXf.d tX{ l.g.i.1.f.o.4 > yXp.+.yXrXy.9Xx - v SX#XZ.W.S.J.&X",
").*X* S.G.T.+X%X  > [ >.x.x.& [ o. .' > 5 [ m wX}.NXNX`.K -.uXhXaXq.eX4.V v / uXrXrXrX2.l.k.c tX+.+.rXh.y.e.x @ v SX@XZ.!.S.J.%X",
").:X* A.Z.T.+X%X  > ' >.j.j.8 X.gX5 ] O.O.+.{ dX}.CXNX'.aX3X6XlXdX3XaX4.4 }.XX5.j.w.w.t.,.j.uXr.@. .rXh.+.e.x @ v 2XOXC.Q.Z.S.%X",
"(.*X= V.Z.T.OX+X  > ' *.k.j.e.X.0Xn sX' w.j.h.qXA &X:X#.! 6XkXzXzX6XaX-.{.1X} O.n V j.o.pX3.uXj.@. .k.g.+.e.x @ v <X{.C.R.Z.A.%X",
"W.*X= V.Z.T.OX+X  > ' Y j.a.t.X.t.3.rX{ +.T W ~.%X^.&X X<.jXzXMXzX6XaXQ H.1X$.&.7X[ tX .tX3.uXj.+.| k.f.+.9.J @ v <X{.C.T.Z.C.+X",
"T.,X1 B Z.T.OX+X  > n U 5.1.1. .t.+.k.7.8.p m ~.^.^.^.&.<.a.lXzXzX5XeX;.Z {.[.h <.3.t. .yX2.uXj.&.| k.f.+.e.J @ v <X{.Z T.Z.V.).",
"P.,Xy B C.T.oXOX  > n U 5.5.>.| t.+.h.7.7.e.] a.R % 6 L q.aXkXzXzX4XaX;.> ] =.q.sX3.t.X.yX3.uX{ #.| e.f.+.9.J @ v -X{.Z T.Z.V.).",
"T.,X1 B C.K.oXOX  > n U 5.>.7X .2 +.h.3.7.8XU c m n ( ;.6XkXlXlXaX4XaX9.2 6 n > rX5.t.X.9X2.rXa.a.R e.f.o.9.J @ v =XR.Z K.C.V.).",
"T.:X1 B C.K.oXOX  > n U 3...e. .: ..h.7.3.%.[.iX{ >...*.6XdXlXlXaX:.aX;.[.XX+. .w.' 9X .9X3.rX3.+.R 7X<. .0.J @ f =XI.C T.Z.V.OX",
"T.:X< B C.K.{.OX  > n L ]  .7X .:  .e.@.3.} #.iX{ 8X4.) 5XaX6XaX6X-.aX;.[.1X#.c t.3.t. .0X,.k.3. .U 9.<.| 0.J @ f =XH.B P.C.V.+X",
"T.*X< B C.K.{.oX. > T W n e 8X` :  .e.7.+.<.<.R ,.7X4./ -.;.4X6X5X_ eX9.m / X.+.8X,.r.E 9XX.h.3...U e. .] 0.w - f =XH.B G.C.C.+X",
"T.*X< B C.G.!.(.  > w E : : 8XU :  .7X7.W P X.,.8.e.q./ -.;.4X5X4X-.eXq.a m ] n 7X..t.E 9X..e.3.| E 0.: w 0.w - f =XF.N P.C.C.OX",
"T.*X< C C.G.!.(.  > J ..n >.>.,.E 1.Q S }.S.d w ] 7X=.( =.;.5X6X6X-.eXq.R ^ Q Y X.e 9XE 8X..e.,...R 0.0 d 0.w : f =XD.N P.C.C.).",
"T.#X< C C.G.!.!.. : ] >.8.,.< < w.| - c `. Xm J W 7X4.) ;.4X5X6X5X-.eXq.d ' e 0 ] 8 9XE 8XW e.,.X.  # #   ^ w - f =XD.N G.Z Z.).",
"T.%X< C C.S.Q.(.  : ] ` 8.+.& : q.e.' X.>.~ ..] 8 7X4.I 3X5X5X6X5X-.eXq.m 3.+.' d > wXW 7X..w.E P h OX;X).s.9 - f *XD.N G.C V.(.",
"U.%X< C C.G.Q.W.  : ( ` 5.+.L >.>.9.w.w.w.w.q.9.U rX4.H =.;.:.4X:._ eXf.+.yXrXrXh.w.yX7Xe.5.<.] 7 ).IXIXIX_.. < u #XD.N G.C V./.",
"U.%X1 V.C.G.Q.W.  : ( ` 3.+.<.J <.<.4.4.4.4.4.0.' h.2.8 ) *.=.;.;.) h.h.d 8.8.8.5.7.+.+.,.>.X...P %.CXCXCX^.# = y #XZ.M G.C V./.",
"U.).< C C.S.Q.W.. : / ` 3.+.W 9 2.c 8 z t z y + : 2 : a.{ q ] ( ( 0 w.f.{ 0.1.1.>.X.1. .z 8 1 J 6 V HXCXCX_.. = y +XZ.k S.B V./.",
"U.).< V.C.S.E.W.  : / Y O...^ G 2.d : x 5.2.>.hXl.7.5.i.i.i.Q ^ e.8 i.k.e n n d f.+...j.w.~ L ,.<.l HXKXKXBX  = y +XZ.k S.B V./.",
"U.).1 V.V.S.E.W.  : J Y .. .~ U eX.. .rX5.  D.ZX&X7 ' n ' ' $X2X$X  i.j.> n ' : sXk.,. .E 7.w  .E l HXKXCX:X. O y +XZ.k S.B V./.",
"U.).1 V.V.S.E.W.  : J Y ..| U E w.w e.,.X.W $.NX~.F i.i.w.P CXKX_.  y.i.3.eX4.3.x.O.wX+.> [.S & - c HXNXNX^.O X y +XZ.k S.B V.W.",
"U.).y V.V.S.E.W.  : w Y ..| ~  .5.R e.w 0.>.>.! ~ i.f.f.w.P _.HX2X6 rX2. .yXh }.D > 0Xt.r.c #.E 7 {.JX<X_.).. O y @XZ.k S.B V.E.",
"U.).1 V.V.S.E.(.  : w Y .. .L | w.R e.,.,.[ 5.i.i.4.i.2.4.G :XZX).7 yX2.' sXo.&.o.] sX5 0X .T w.F OXLX;X/.T.# O i &XZ.k K.C A.W.",
"U.).1 V.C S.Q.W.  : w ~  . .2 E w.R w.,.1.> 2.2.2.2.2.h.q.G ).VX@X  f.w.c i.i.3.5.+.gX' 6.{ n w.3.F F F F 7 2 O i *XG.N T.C S.W.",
"U.(.< C.C S.Q.W.  : 0 W E T R E 0.] w.7.1.: 1.3.: >.' 2.2.7 _.VX}.  f.w.} p.3.2.2.x tX] n.3.j.8.t.O. .( x L 8 O f -XG.N T.V.S./.",
"U.(.< C.V.S.Q.W.  : w U 2 ; 0.W 1.] 0.7.w.- : 2 : 7X2.2 / G }.1X$.8 w.w.p m  .] 2.] tX] tX8.x.8.3.8 8 U 1 >.8 X f -XG.N T.C S./.",
"L.(.1 C.C Z.!.W.  : x ..- : 0.E 1.R 0.7.1.: w.9X .e.2./ -.;.! ! -./ h.w.@.s.N p 2.q.tX] 0X8.x.8.3.< U 4.' 0.0 + f -XG.N T.C J./.",
"U.(.< C.C Z.Q.(.  : x ..: : 0.E ,.R w.X.,.8 0X8.t.h.4./ -.3X6X6X4X_ eX4.j.jXj.5.8X>.tX] tX8.c.7.3.9 <.q. .0.0 @ f -XG.N E.C S./.",
"L.(.< V.C.Z.!.(.. : / ..8 0 0.| 1.] w.X.,.8 9X7.t.O.] H -.;.5X5X:._ h.q.S tXm S e.3.rX] tX5.c.3.3.0 ,.O.[ 0.0 @ i -XG.N T.C J./.",
"S.(.< V.C.Z.Q.(.  : J ) >.>.>.| w.R 0.X.,.8 e.7.tXo 4.*._ -.;.:.;.H h.4.b.3.W <.5.5.t.] tX3.c.X.+.0 ,.5.{ 0.w @ f -XG.N T.C S./.",
"S.(.< B V.Z.Q.(.  : L Y X.>.- L e.R q.X.,.8 e.8.fX  sX2.q _ -.-.-.q h.4. .l.a...8.7.e.] rX3.x.....0 >.e.+.1.w @ f -XG.M T.C S./.",
"S.W.1 C V.Z.R.(.  : L Y 3.3.o L e.R q.X.,.8 7X} 6.  sX+.= ( _ _ _ 8 q.q.: h z.pX1.7.e.] 9X+.l.....1 8 e.o.1.w @ f =XG.M T.C A.E.",
"S.W.1 B Z Z.R.W.  : L Y o.+.X L e.L <.,.,.8 7X{ 3.z h.f. .0 q / q - 8X=.W P ~ ` w.1.e.] t.3.l.W X.: : 7XX.~ w @ v =XG.M T.C A.E.",
"V.E.1 B Z Z.T.W.  : J *.: 2 6 L 0.L e.E e.- 1.o.k.O.g.f.h.f. .0 ` 9.7XR <.sX<.L w.E t.T tX .x.....: ; ..e 1.w o f =XG.j P.B A.E.",
"V.T.1 B C Z.T.Q.  : J ` : 2 ; w 9X8 h.y.4.u.O.) O.u.` 2.4.i.h.2.` w 3.e.<.W O.1.>.1.1.1.5.w.+.>...: 2 : : 0.w o f =XG.k S.B A.Y.",
"V.U.1 N B C.G.E.  : J ` & 8 2 8 ' p.+.y.l.i.g.l.u.u.4.*.` 2.' 8 & ` 7X1.3.5.w.1.1.5.4.4.2.U U 9.w ; 0 8 : ^ w o f *XG.k S.N A.Y.",
"V.S.1 N B C.G.R.  : J L ' w.J 8 - & o.a.+.y.s.&.s.'.u.-.-.>.W 3.sX<.} d.1.,.1.i.5.2.O...Y <.O.- : L ~ ^ w ~ w o f #XZ.k Z.N V.U.",
"C S.1 M N Z G.T.  - w H +.] w L L  .2 2 X.8 ] s.&.o.s.a.u.u.g.>.>. .3.1.1.5.4.3...) >.*.q J f.- 1 2 : Q U W w o f @XZ.j S.k V.J.",
"V.S.1 f N B Z.K.  - w q  .] L E U >.] ; - 8 R 8 5.$.{ { 3.i.u.'.a.5.+.y.5.>.....-.*.J & & J 7XU w 2 : =.( W 9 X f OXZ.j S.j V.J.",
"C A.< f N B C.S.. - 9 q ..] o J : - - : : : ; ; R 4.i.&.S [ 2.5.y.] $...Y ` -.*.q o & - - - q Q 8 : : =.L E 9 X d oXC.f C.j V.U.",
"C V.< f f N C.Z.. - 9 q  .( o ^ U I ) U L 0.^ Q - ; L <.5.} > q O.y.| Q =.=.*.q 0 J J J J J 0 8 w J 0 =.w E 9 X d !.C.f V.f k V.",
"C V.< d f M Z Z.. - 9 H 8 8 o Q G 9 9 9 H q 8 8X< < - : J ;.) , L ) *.<.U q ) ` I I U I U L L ( L L L G : U 9 X d Q.C f B d j S.",
"L.N 1 u d f B C.. & 9 L o , $ G 9 9 9 8 P P Q Y 2 8 8 8 - w =.*.*.*.*._ _ ` ` ) ) U L K K K K 8 o & & - - P 9 X u K.B f N d j B ",
"L.j < y d f B V.X = , H H H K H K ) ) U U I I K ` I I I _ I K I I I I I I K K K K K H H H H H H H H H q 9 G 8 X y G.N i j y f f ",
"Y.f 1 y u f N B X O O o o o o O o o o o o o o O o o o @ @ - = - - & & o o o o o o o o o o o & & o o o o O o = X y Z.N u f y 2 U.",
"C k < 1 1 y j j X O O $ O $ $ $ $ $ $ $ $ $ $ $ , < , , , , 8 8 2 , , 2 , < , $ $ $ $ $ $ $ $ $ $ $ O O O $ O O < N f 1 y 1 1 C."
};
