/* XPM */
static char *text1[] = {
/* columns rows colors chars-per-pixel */
"64 64 240 2 ",
"   c #0E0E0E",
".  c #110F0F",
"X  c #0E1107",
"o  c #0E120C",
"O  c #11130D",
"+  c #0E0D12",
"@  c #130E14",
"#  c #190E16",
"$  c #160F18",
"%  c #190E1B",
"&  c #0F1212",
"*  c #141415",
"=  c #191517",
"-  c #151A15",
";  c #191C16",
":  c #161419",
">  c #1A151B",
",  c #161C19",
"<  c #1B1B1B",
"1  c #21181D",
"2  c #162315",
"3  c #1A2216",
"4  c #162A13",
"5  c #1B2B16",
"6  c #162319",
"7  c #1B241B",
"8  c #162B1A",
"9  c #1D2B1B",
"0  c #1C3415",
"q  c #173816",
"w  c #1D331B",
"e  c #1D3B1C",
"r  c #21241D",
"t  c #22281F",
"y  c #203716",
"u  c #21331D",
"i  c #223A1D",
"p  c #1C0E21",
"a  c #1D1422",
"s  c #1D1B22",
"d  c #1E172A",
"f  c #240F2A",
"g  c #211424",
"h  c #221B24",
"j  c #24152B",
"k  c #29152D",
"l  c #24192C",
"z  c #291B2D",
"x  c #2A0F32",
"c  c #261431",
"v  c #2B1433",
"b  c #271931",
"n  c #2B1934",
"m  c #2D153A",
"M  c #2D193A",
"N  c #32143C",
"B  c #341B39",
"V  c #341B3C",
"C  c #172622",
"Z  c #1E2322",
"A  c #1D2B21",
"S  c #1E3321",
"D  c #1E3B24",
"F  c #222323",
"G  c #212B23",
"H  c #26242A",
"J  c #2A222E",
"K  c #262C29",
"L  c #292B2C",
"P  c #223423",
"I  c #223C23",
"U  c #243429",
"Y  c #2B342B",
"T  c #293A29",
"R  c #313C2D",
"E  c #2B2333",
"W  c #262830",
"Q  c #2C2D33",
"!  c #332638",
"~  c #2F3733",
"^  c #313234",
"/  c #313936",
"(  c #37363B",
")  c #17400D",
"_  c #154319",
"`  c #1C451E",
"'  c #174A18",
"]  c #1D4B1D",
"[  c #1C541C",
"{  c #155819",
"}  c #1D5A19",
"|  c #224116",
" . c #23431D",
".. c #224C1C",
"X. c #255717",
"o. c #23561C",
"O. c #235A1D",
"+. c #186809",
"@. c #1A641B",
"#. c #20720F",
"$. c #23641C",
"%. c #2C651B",
"&. c #276A1D",
"*. c #237716",
"=. c #2A761D",
"-. c #2C7C1D",
";. c #1E4422",
":. c #1E4A21",
">. c #1C5A21",
",. c #234423",
"<. c #294425",
"1. c #234B23",
"2. c #294C25",
"3. c #254329",
"4. c #2B452A",
"5. c #294C29",
"6. c #245224",
"7. c #2A5425",
"8. c #245B24",
"9. c #2B5C24",
"0. c #255429",
"q. c #2C5429",
"w. c #265B29",
"e. c #2C5B2A",
"r. c #33552E",
"t. c #315C2C",
"y. c #334630",
"u. c #384537",
"i. c #2D5735",
"p. c #355835",
"a. c #1C6E23",
"s. c #246423",
"d. c #2B6324",
"f. c #256A24",
"g. c #2C6B23",
"h. c #2B6329",
"j. c #256E29",
"k. c #2A6C29",
"l. c #346626",
"z. c #316B26",
"x. c #31632B",
"c. c #346D2A",
"v. c #267524",
"b. c #2A7425",
"n. c #247B23",
"m. c #2A7A25",
"M. c #2C742B",
"N. c #2B7B29",
"B. c #307C24",
"V. c #33742B",
"C. c #337D2C",
"Z. c #36673C",
"A. c #42503D",
"S. c #44763D",
"D. c #2F1641",
"F. c #341543",
"G. c #391645",
"H. c #351A43",
"J. c #3A1A44",
"K. c #35164C",
"L. c #3C164B",
"P. c #3C1A4C",
"I. c #3C1355",
"U. c #3E1B51",
"Y. c #3B2344",
"T. c #3F2E49",
"R. c #41154D",
"E. c #411A4C",
"W. c #48194F",
"Q. c #441552",
"!. c #431B53",
"~. c #4A1956",
"^. c #46155A",
"/. c #4B145B",
"(. c #45195B",
"). c #4C1A5D",
"_. c #52145F",
"`. c #42234D",
"'. c #48324D",
"]. c #432353",
"[. c #49275A",
"{. c #4C3355",
"}. c #470E6A",
"|. c #4D1663",
" X c #4D1A62",
".X c #4F1B69",
"XX c #531665",
"oX c #531A65",
"OX c #54166A",
"+X c #59166C",
"@X c #551C6B",
"#X c #5A1B6C",
"$X c #571672",
"%X c #5D1C72",
"&X c #5B1876",
"*X c #621577",
"=X c #621B75",
"-X c #641B7A",
";X c #691C7E",
":X c #56226A",
">X c #503264",
",X c #582472",
"<X c #612A6D",
"1X c #642773",
"2X c #662875",
"3X c #3D4245",
"4X c #364B46",
"5X c #394C4C",
"6X c #3E7048",
"7X c #454748",
"8X c #515856",
"9X c #496B4A",
"0X c #516352",
"qX c #28851B",
"wX c #31811D",
"eX c #2E941E",
"rX c #27A014",
"tX c #2E8326",
"yX c #2D8D23",
"uX c #26872B",
"iX c #2A832A",
"pX c #2A892E",
"aX c #338726",
"sX c #34832B",
"dX c #358B2A",
"fX c #2F9326",
"gX c #2D9A26",
"hX c #339325",
"jX c #379829",
"kX c #2E8833",
"lX c #368831",
"zX c #318B34",
"xX c #2F9831",
"cX c #389532",
"vX c #33A325",
"bX c #36A726",
"nX c #428E38",
"mX c #429C46",
"MX c #5E1B83",
"NX c #661C82",
/* pixels */
"e e D e S e w w 9 7 7 < < > < < 7 7 7 r r r i yX} : e.6XJ k u hXsX<.,.9 s F F Z F t < u hXwXr 5 -.eXy 4 tXhXw ; &.bXX.1 r -.qX2 ",
"9 7 6 8 6 8 7 9 9 7 7 9 9 9 u P F r F F F 1 e qX} s Z.Z.v j R sXnXmXmXM.9 Z F A Z Z 7 e eX-.3 y -.eXy 4 sXhXw 5 z.jX..1 5 -.*.2 ",
"N.N.m.m.=.m.v.v.v.v.v.=.-.*.wXV.P G I P G F P yX} s i.6X^ j E / p.Z.lXxX7.t A F Z r < ..bX=.3 y =.eX0 4 tXhX0 - =.jX .1 5 -.qXX ",
"gXvXvXvXvXbXbXvXvXvXvXvXbXvXvXC.A A 3.S 7 F u qX} Z Q 4X5XE z k k z T v.m.I 7 H F F t k.bX&.; r =.eX0 4 iXhX0 7 z.jXi = 3 %.#.4 ",
"o.o.O.O.O.O.O.O.O.O.o.[ X.} X.i F 7 9 7 F F S *.} H l z L J b j k j l P g.w.F F Z Z ,.hXvX..1 5 -.aX5 3 tXdX0 ; g.aXy = y -.#.O ",
"- - - - - ; , , 2 3 - 2 2 7 9 7 7 a s F h h A $.{ a k j l k b b k k k k I 7.G F 1 9 g.bX-.y 3 u aXdXy 4 tXdX5 7 z.sXu 4 *.rX+.3 ",
":.` ` ..6.o.o.8.O.$.s.a.f.$.&.O.e 9 t F 7 F 9 [ ] A H H H E z J z z l l h S t < u 9.jXeX[ 3 , 9 wXaX5 3 N.sX5 ; g.aXt 4 #.wX) ; ",
"gXgXgXgXgXyX=.m.m.v.v.n.-.yXgXgXuXv.v.k.f.f.s.k.v.j.j.f.d.h.x.t.e.r.r.4.P 7 < t d.nXeXX.u < < w tXtX5 3 N.sX5 3 g.sXu ; | B.y ; ",
"&.$.$.$.f...w 9 9 9 9 9 9 :.s.v.M.M.N.N.N.N.N.N.m.M.V.M.d.l.l.t.t.x.x.V.b.1.G q.dXfX@.5 < < ; q m.tX9 2 N.C.5 3 %.C.w * u C. .1 ",
"; - , 7 2 6 , , ; , , < < s < 9 7 9 9 A A A S A G F t t r r F F h r t P 9.b.N.cXhXg.w ; < 1 e ..m.tX5 - k.C.5 < 9.sXr = i nXi = ",
"; , , > , < s s s s < s < a < > s , , s < a a < > 1 < > 1 a > > 1 1 1 1 9 s.yXaX&.i 7 , < y &.O.b.m.9 - b.M.5 < 9.sXt > u S.T = ",
"8.6.0.w.w.0.0.6.6.6.1.:.5.1.3.,.3.0.:.:.1.3.,.w 9 G t P u I I ,.i I t 1 1 i O...y < < < <  .X.e M.m.9 - f.C.3 1 9.C.u % Y 9XY 3 ",
"xXxXzXpXzXzXzXzXkXkXkXkXkXkXkXpXpXpXuXuXpXpXuXiXN.N.N.iXiXiXuXuXsXtXm.7.5 , 6 < < 1 A 7 < 7 3 9 g.m.5 = f.M.7 < 7.C.9 > ^ 0XL 0 ",
"` 1.,...1.;.;.;.;.` ;.;.] ] ] ] ] ;.D q :.>.>.s.s.s.s.s.s.s.s.8.O.O.$.b.O.2 - ; ; A y.A < a > 3 d.m.3 * s.M.7 h 7.V.9 > ^ 0XK 4 ",
"= - = - , * * = * * : * * = : : : > > > , ; < < < Z < , ; < < , - = ; 0 ..w z E s A 6XU < < a 7 %.b.9 * 8.N.9 1 5.C.9 = ^ 8XL 2 ",
"6 - - , - - , , < ; 7 ; ; , , : , < > > > > > > > > > : > > : , = * = - 9 T.,X,Xn 6 i.U < s < t d.b.3 * 8.M.9 < ,.V.9 > ^ 8XL 4 ",
"8.9.9.9.8.O.9.9.O.9.9.9.9.9.o.7.7.2. .2.,.2.4.4.R / / / / ~ R / ^ L F = s H.MXMXK.s i.T > h < 7 9.g.7 * O.M.7 > I V.9 > ^ 8XH 5 ",
"c.c.c.V.z.c.c.l.z.z.l.z.d.l.x.x.x.x.x.x.t.r.p.p.p.7X7X7X3X3X3XT.( A.u.1 : a (.MXK.C i.U < < > ; 8.b.; * 6.k.8 a i z.y * h ( Z 9 ",
"9 7 t 9 9 9 t r 9 7 9 3 7 7 7 7 9 r t t F r F F H H F 1 h h l h 1 L u.Y * : U.MXF.6 4XU < > > ; 8.f.; #  .h.5 g G z...= > , : 9 ",
"7 7 7 2 3 3 3 3 ; ; ; ; 3 ; 7 ; ; ; 3 7 < r ; r 3 r 3 ; 7 7 7 = # > y.y.* $ U.NXF.d 5XQ ; = > 9 O...= # i 9.9 < F 7.l.u - : : w ",
"9.9.9.9.O.O.l.9.d.d.d.d.d.d.d.d.l.d.d.%.%.%.%.%.%.X.X.X.X.X.r.R = = R y.* # ^.MXD.l >XE * = 3 ` ..7 # 7 e...< a r u l.x.u ; : u ",
"i i i I i <. .<.5.5.2.<.<.2. .,. . . . .|  .| | y 5 5 5 4 0 A.7X> * Y R * >  X&Xb z >XE - 1  ...3 # 9 t.2.r 1 < < 1 i l.t.9 : 9 ",
"1 1 < < < < 1 7 a 1 a < ; ; < ; ; < ; < 1 > 1 = * , 5 O O - '.'.< * Y T O 1 oX@Xh M ,XW * i 7.y > 1 q.7.9 < 1 < h < = <.7.5 # 9 ",
"> < < < a 1 < 1 < < , , > > > > > > > > = = = = > e e - * = '.{.< * Y Y O g $X X< M ,Xd - ,.7.; 1 4.q.r 1 > < < 1 > # i q.9 @ 9 ",
"> > < > < < > > < > > > a > > > > > < > > 1 > : 9 2.8 - : a {.[.< * ^ Y X g $X X1 V :Xl - ;.7.1 t 4.r = , - , 7 F ; * 9 6.5 @ 7 ",
"> < > < < < < < > , , > < < > > = > > 1 > > % 7 1.e - * & s [.{.> > ( Y X g $X(.> F.,Xn @ 2 i 3 3 4 - = > a h F s s : ; P 2 @ 7 ",
"oX[.[.`.Y.B B B ! ^ ! ~ y.4.4.4.<.T T P u 9 9 ,.` 2 * * & s [.[.= Z 7X^ . d .X X1 G.-XJ.g g n B B ! W.[.:X).:X X[.!.!.!.].K.N J.",
"2X2X2X1X1X<X1X1X<X<X<X7Xp.r.r.r.r.t.r.q.2. .,.i 2 : : - - H [.].* - '.T.* < (..Xl k =X=X#X#X*X=X-X;XNXNXNXNXNX-X%XoX@X,X#XoX X).",
"n B V V N V G.V B B B F r 3 < 3 3 3 ; ; - 3 - - * : = - = d >X].> O ( ( & . F.).n a E.#X+XXXoX_.).W.R.L.G.F.H.V N H.b n P.N g k ",
"1 1 a 1 1 g a > > 1 = # * = = @ * .     @ : & * & * * * * Z U.T.> X r H * X > n h * > 1 h h a > > < < a h g g a P.U.$ l :X`.# g ",
"g a > % % = # = = # O * * . * > a g j N L.R.G.N N M M v a > M P.l 1 j V V m b n v l k k l g l l g > > < h g > B :X(.: l %X~.* k ",
"+X).G.N m m v v x m v N G.E.W.~._.@X#X#X@X,X=X=X%X#X,X:XH., j ).+X+X%X2X-X-X=X%X=X%X%X%X=X=X=X%X@XE.g > < a a H.=XQ.* l %XR.* m ",
"%X-X-X-X%X=X=X=X=X%X=X=X=X=X,XXX/.!.U.m c F.L.L.L.U.Q.L.N > g P.oX=X#XoX X).oXoXoXOXOX@XoX@XoX+X-X&XP.a > 1 h V =XQ.* j @XF.* G.",
"c n N G.L.L.Q.Q.R.L.N N m c l g a a : : : > : : a : a a a , > a l l l s s l l l l j l l d l l z P.+X^.s = , a H.=XQ.= v oXN > L.",
"* % @ * # # % % # * # & * * * : : : p p d j x x j p d f d d d a > > a a a g > > > , > : , , > > a Q.^.a > g g G.%XU.* v XXx * L.",
"!.Q.Q.W.P.L.L.Q.Q.R.Q.R.Q.W.!.Q.^.|.OXOX$X&X&X*X&X$X$X+X+X+X+X/././././.^.^.^.^.I.U.M a < h z F < U.^.s > l l G.%XQ.= m OXc % G.",
"%X%X-X=X-X*X-X-X*X-X;X;X;X;X;X;XNX;X-X=X=X#X$X#X#XOXoXoXOX@X@X+X+X+X+X+X+X+X#X*XNXMX|.c a h n h h ~.|.d < l g N +X^.< l ].n > v ",
"D.F.H.K.G.L.L.L.L.G.G.F.F.F.F.F.N m v l g g a % % p % p p p g g g p g g g f x F.|.&X^.f < s h a l )..Xd > a a v OX|.d : g 1 > > ",
"* * * = > > > = ; = > g % % : $ $ # > % > p p f f j x x c x x v x f g j j > # * F.|.c > a a < < l  X|.c > g a c |.$XN p f f f j ",
"g h * * < > ; - l R./././././././.^./.XXXXXXOX+X=X=X-X-X-X-X-X-X=X#X#X=X#XW.h > c G.j : s > a s j OX+Xn a g g c /.&XXX/._.XXXXXX",
"B ! * * B s , : R.XXG.N G.I.R./.XXXXXXXX|.XX|.XX|. X/.).Q.^./.XXXX+XOX@X@X[.n < g l s a a a < : g !.).n a a a s m ^.Q.I.R.R.R.R.",
"Y.P.O = P.l * h |.F.= * > # * # % % % > : > p : : : : : > > p a p j j g j a > > > > > , : > < : : h z a = > : : a p > > % > % # ",
"Y.P.O * U.b - z oXn & - * a a a f f g a > > d j j k n n n n l k j j b l l z n n n z n n M M M M M V H.H.N V H.H.H.H.H.H.V E.J.E.",
"J.`.o ; U.m * n oXn & * > J.).oX|. X/. X). XoX@X@X@X@X:X$X$X:X@X,X,X@X@X@X@X@X@X@X@X@X@X@X@X@X@X@X@X,X&X:XoX@X@XOX@X,X@X#X,X%X#X",
"J.Y.O : [.D.- c $XD.* * j  X XD.c x x x N m K.G.F.v m m D.K.F.F.F.K.K.F.G.L.L.L.R.L.I.G.U.L.K.U.P.P.P.U.K.U.U.U.P.I.!.!.!.Q.P.Q.",
"`.P.* : [.K.* v $XK.: - F.|.M @ & 8 , + + = s : . & - & . @ & & * @ * & @ @ : : : : : @ : a a : : : : : a a : : : : a > > a a * ",
"E.P.& s >XH.* b $X|.> * F.J.* o , D 7 * @ A P * . , C - : & , 2 * o 6 & & . - C C C C * & F F * & s , & 6 C , * * * O - h ! l * ",
"`.U.& - D.c : a /.^.< * E K - + s D 7 # * P C . * 6 6 * * 6 9 6 * * 9 - * * Z C A K G * : Q L : - Z s : 6 A : : - - * ; l J.z & ",
"].!.= * d a : > N M = & 9 w - @ , I 7 $ : P 6 @ . 7 Z * - w w - * 6 A = * * , * & , - * s W K : , H s & 6 q , : Z 6 - , g J.k * ",
"].!.: - S K > * K U - * S I - @ 2 P 6 $ ; I 6 @ * C A = - 8 , * * S A = : : : & * * = * s s - - , H s : 6 w : : A S - > h J.z O ",
"].].: - ,.D > > ,.D * * P I - * 6 I 2 @ , D 7 * * 9 8 = = * * : 8 I 7 * : : , * - = - : H Z * & < K , * 2 e > > A S ; , h J.n - ",
"( ( * - D I > < ,.S = * I ;., @ 2 I 7 * 3 ,.7 * * A A : : : : 6 D S - = > , : & , - : s E Z - * s K < * 2 e , > C P ; - 1 H.b o ",
"T 3.= = e I s < 3.S > * e ;., * - I 7 # 7 1.7 @ $ A A = > : 7 D I 6 : > , , , 8 8 2 * s Q Z * - s K s * 2 ` < > 9 D , - a P.n * ",
"i 2., = ` ,., < <.I - * e ;., # 2 ;.9 # 9 :.9 # > A e > > , D ,.A : = > , 8 q q 4 , : Z ^ s - * s G , * 2 ` < : A ;.- - d I.K.d ",
"I 2., ; I ;.= ; 1.;.- * ,.:.6 : 9 1.9 # 8 o.e # * P w , > 7 ;.w - : ; - q _ _ 6 : : : H ^ s * * A 4.Z = 8 ` ; > 9 ,., , d I.}.K.",
"<.2., = ,.,.; ; 5.;.; * 1.6.< $ 2 1.9 $ 7 6.I # = P P , : 8 ;.9 : * 5 _ ' _ ; # > 6 6 H / K , * 9 5.9 : 8 ] < > A ,.6 - d D.K.M ",
"<.7.; > 1.,.< ; 6.;.< ; 2.6.< : 2 :.9 $ 7 8.I @ ; T D , > 9 6.9 = * _ { _ ; % # q [ D Q / / G * r 5.9 # 9 ..< % P 5.3 > - < Z < ",
"5.e.< ; 1.7.< ; 6.0.< = ..6.< * 8 6.9 * 9 s.I * - 3.D < : S >.9 > - _ >.; # % q { { 9 s A K 7 * 0 6.Z * q ..< > S 1.3 > ; ; , , ",
"7.9., - 7.7.7 3 0.w.Z = 2.7.7 * 9 1.9 @ 9 d.,.# ; 3.I < > e 8.9 > - ' { : : q { { 4 > = : : = * 9 0.7 # w 1.< > I 0.3 > ; ; ; ; ",
"7.t.7 - 7.9.< ; >.w.< > o.6.7 # 9 0.A * 9 f.,.# ; 3.3.< : u s.e = - ] @.8 q @.{ 4 - , > < , - 2 ] ,.; ; ] 6.; % I 0.; , , , ; < ",
"7.t.< ; 7.h.7 7 8.9.r ; 9.d.7 : u e.u # 9 k.:.* > 4.3., < i g.u : * >.a.>.{ ' 8 = = , 7 w _ [ } ` 3 $ w s.,.; = <.7.; = , 5 0 ; ",
"o.l.< ; q.h.7 ; e.e.7 ; z.b.5 = i h.u * w M.1.* < 4.4.< > i b. .: - [ n.a.q , : ; 7 e o.@.} { q - # 9 o.d.y = = 1.7.; ; 2 [ ' - ",
"q.l.7 ; 9.x.9 ; w.s.1 3 g.b.5 = e d.u * w M.1.= > P I s > y b.` < , o.n.8., > ; w o.@.@.] 0 - # : w 8.&. .< > , 2.0.; * 4 @.{ ; ",
"e.l.3 ; 9.x.7 7 h.h.t 3 g.v.9 :  .k.i ; 0 m.1.= 3 6.2.7 , u f.` , , 1.v.[ ; , e $.f.o.9 ; : * 7 ;.s.f.:.9 < > 9 s.2.; * 4 #.} ; "
};
