/* XPM */
static char *text4[] = {
/* columns rows colors chars-per-pixel */
"64 64 224 2 ",
"   c #0F1E0D",
".  c #141D0E",
"X  c #161513",
"o  c #1A1516",
"O  c #161B14",
"+  c #1A1D15",
"@  c #1A1618",
"#  c #171B18",
"$  c #1B1D1A",
"%  c #211C1D",
"&  c #15240E",
"*  c #19250F",
"=  c #142D0D",
"-  c #182E0D",
";  c #15340E",
":  c #1B340E",
">  c #163A0E",
",  c #1C3A0E",
"<  c #162413",
"1  c #1A2414",
"2  c #162B12",
"3  c #1B2B15",
"4  c #172219",
"5  c #1C231B",
"6  c #172B18",
"7  c #1C2B1A",
"8  c #163312",
"9  c #1B3314",
"0  c #163B12",
"q  c #1B3C13",
"w  c #1D331A",
"e  c #1D3B1A",
"r  c #203C0F",
"t  c #202615",
"y  c #212D15",
"u  c #21241D",
"i  c #222B1B",
"p  c #233515",
"a  c #223A16",
"s  c #21331B",
"d  c #223C1A",
"f  c #1E1E21",
"g  c #221E21",
"h  c #1F2021",
"j  c #1F3920",
"k  c #222021",
"l  c #222C21",
"z  c #223321",
"x  c #253721",
"c  c #17440F",
"v  c #164312",
"b  c #1C4313",
"n  c #1E4B14",
"m  c #1D421A",
"M  c #1E4A1B",
"N  c #1D5515",
"B  c #1D5A15",
"V  c #1F5319",
"C  c #1C5A1B",
"Z  c #214415",
"A  c #234A15",
"S  c #22441B",
"D  c #224C1B",
"F  c #284B1C",
"G  c #215416",
"H  c #225C16",
"J  c #23531C",
"K  c #29561E",
"L  c #245B1A",
"P  c #295D1E",
"I  c #30591E",
"U  c #1F7A0E",
"Y  c #1C6815",
"T  c #1D7014",
"R  c #246415",
"E  c #286416",
"W  c #256A14",
"Q  c #296C16",
"!  c #25631A",
"~  c #2A651B",
"^  c #266C1A",
"/  c #2A6D1D",
"(  c #257517",
")  c #297317",
"_  c #257B15",
"`  c #297C16",
"'  c #24751B",
"]  c #29741C",
"[  c #267C1C",
"{  c #2B7B1C",
"}  c #307D1D",
"|  c #264520",
" . c #234E21",
".. c #245321",
"X. c #295122",
"o. c #245C21",
"O. c #2A5923",
"+. c #315A21",
"@. c #266422",
"#. c #296621",
"$. c #2B6A23",
"%. c #2A6927",
"&. c #346D29",
"*. c #257521",
"=. c #2C7324",
"-. c #267C22",
";. c #2D7D23",
":. c #2D7429",
">. c #2E7C29",
",. c #327426",
"<. c #3A7421",
"1. c #317D23",
"2. c #337C2A",
"3. c #3B7E32",
"4. c #1D9D0F",
"5. c #1C8515",
"6. c #1E9C19",
"7. c #258614",
"8. c #298516",
"9. c #238A15",
"0. c #298C16",
"q. c #27851A",
"w. c #2C841B",
"e. c #258D1E",
"r. c #2D8B1D",
"t. c #31841E",
"y. c #308C1D",
"u. c #2D941D",
"i. c #259A19",
"p. c #2C9A1B",
"a. c #30941C",
"s. c #329C1E",
"d. c #1EAF0F",
"f. c #1EA712",
"g. c #1EB613",
"h. c #21AF0E",
"j. c #23BD0C",
"k. c #24AB14",
"l. c #28AD15",
"z. c #24A318",
"x. c #2CA31C",
"c. c #2DAB1C",
"v. c #36A119",
"b. c #34A51D",
"n. c #34AB1D",
"m. c #22B313",
"M. c #2DB516",
"N. c #25BC14",
"B. c #2EB41B",
"V. c #2DBC1D",
"C. c #31B416",
"Z. c #33B41D",
"A. c #38B41F",
"S. c #35BC1B",
"D. c #32BE1D",
"F. c #278021",
"G. c #2D8422",
"H. c #268B21",
"J. c #2C8B22",
"K. c #2C832C",
"L. c #2D8D28",
"P. c #318323",
"I. c #328C24",
"U. c #32842A",
"Y. c #338D2A",
"T. c #398D2C",
"R. c #2D9322",
"E. c #259E21",
"W. c #2C9C24",
"Q. c #2C9428",
"!. c #2F9C2A",
"~. c #329423",
"^. c #399426",
"/. c #339B23",
"(. c #3B9D26",
"). c #369529",
"_. c #3B952D",
"`. c #349B2B",
"'. c #3B9C2C",
"]. c #2E8731",
"[. c #318C32",
"{. c #349432",
"}. c #389C33",
"|. c #2CA524",
" X c #2EAC23",
".X c #2AA826",
"XX c #33A324",
"oX c #3AA225",
"OX c #34AC24",
"+X c #3AAB24",
"@X c #35A42B",
"#X c #3BA32D",
"$X c #35AC29",
"%X c #3BAD2B",
"&X c #2EB423",
"*X c #2EB821",
"=X c #34B425",
"-X c #3AB524",
";X c #35BC22",
":X c #3ABB24",
">X c #35B42A",
",X c #3BB42A",
"<X c #36BA2B",
"1X c #3BBB2A",
"2X c #3AA231",
"3X c #3AA932",
"4X c #38B031",
"5X c #42892D",
"6X c #459E2C",
"7X c #449637",
"8X c #40AF28",
"9X c #48B42B",
"0X c #42BF2A",
"qX c #44B834",
"wX c #2DC21B",
"eX c #31C11E",
"rX c #36C223",
"tX c #3AC226",
"yX c #36C02A",
"uX c #3CC22A",
"iX c #43C12C",
"pX c #44C62C",
"aX c #4FC838",
"sX c #55C644",
/* pixels */
";.=.a + X w $.K...O O b :.%.9 X X M ,.M 4   X # # @ # $ $ $ 5 $ 5 1 5 $ @ t / Y.D + X w ] J.D $ % u ! { q $ $ $ f f g $ @ S R.H.",
"G.=.a + + 9 :.L...O O b >.:.w X < L F.J 1 # O $ $ $ $ $ $ $ $ % $ u $ $ @ 3 / _.J + o 9 { I.J + % 7 B R.C 6 $ f h 4 h f # e J.H.",
"P.;.d + O 9 =.L.o.O # m 2.>.e # < ! I.H 1 O + + $ 4 5 5 4 f 5 4 5 5 $ # + 3 ] _. .O X w ] ~.J u g 5 b F.H.C 6 h g k f f # d H.H.",
"Y.1.a % O e >.L.o.O # M ].K.e + 1 ~ I.H 3 # # $ 3 q 0 4 % % 6 7 u 5 u $ # 9 { _.J + @ 3 ] R.H 5 g f 7 B e.e.C w k u k k $ S J.r.",
"Y.1.a + + a 2.Q.o.O #  .[.].d + 1 / Y.L 3 + $ 5 A W C 4 g 7 F X.a 5 h f $ p { _.J + o w { a.L 7 k g k i B 9.9.Y D 7 k k f S J.W.",
"Y.,.p % + e >.Q.@.< # M [.].e + 1 $.Y.H 3 $ $ a ( e.C < u D I.5X&.s 4 $ $ 9 t.#XJ 1 X a P.(.~ y k u g 5 w B 5.6.G.D t g # m R.R.",
"Y.=.s + O e 2.!.@.1 # M {.[.S + < ] ^.! t $ + D R.R.J # 7 ~ a.s.5X| 5 u 5 9 G.#XK 1 O d t.oX/ d z u 5 $ 5 w Y z.z.F.d u 4 S ~.!.",
"T.,.s $ + a K.`.~ + #  .{.{.S $ 3 ] ^.P y $ 1 L W.R. .# 5 J t.` #.s 5 $ 5 p J.'.J 1 X S y.v./ a x u u 4 4 h m q.c.|...l $ D Q.!.",
"_.,.a 5 # e K.!.$.< <  .}.{.S 1 3 ;.(.~ 3 $ 1 ~ XXR. .O 4 3 e w u $ h 5 5 a J.#XD + X D u.b.^ 9 l l 5 h 5 5 y H p..X@.w 4 S R.@X",
"9X8XX.1 1 S U.`.%.5 4 ..}.{.S 1 3 { @X~ y $ y / OXR...4 5 4 4 O 1 5 5 $ 5 e J.'.D + O D u.n.] s 5 k 5 5 s d 7 q J..X%.7 # D R.|.",
"9X6X+.t + d Y.@X:.5 4 J }.`.S 1 3 w.@X/ y # 3 Q n.R.K 4 5 6 e o.:.@.w u 5 e R.(.Z O . L v.x.^ 3 5 f 3 L ;.2.a q H..X*.w 5 m R.|.",
"<.I d 7 5 d Y.@X=.7 4 J 2X}.D 1 9 P.@X^ 7 1 ; ) n.u.X.1 1 w :.$X,X{.S u 5 b ~.#XS O 1 =.+XXXK 5 4 5 M J.|.K.a e J.XX*.s 1 b R.@X",
"d x l u % d Y.$X:.t 4 ..2X#XD 1 3 G.$X^ y + 9 ) n.r.D < < w K.<X<X}.| u u Z (.%XD + 3 } +Xy.D 4 4 7 Y @X|.^ w m I.|.-.9 1 S u.|.",
"l l i u t S Y.$X1.y 4 J 2X`.D 1 w J.$X^ y 1 ; ) n.0.Z O 4 6 $.4X>XU.p u 4 D '.8Xn 1 2 / ^.~ w 5 5 e ] |.W.B y b ~.OXG.w + S J. X",
"d d i i $ S ).,X2.p 1 L 2X@XD 4 8 G.$X^ p 1 ; ) n.r.D + + 1 m :.2.X.5 u 5 Z oX%XV < < S K d 7 7 1 m G. XI.F i b ~.OXG.w < m R. X",
"#.$.K i 5 S Y.,XP.3 4 J 3X#XJ 6 9 I.,X] p 1 9 { A.u.F 1 4 1 6 e d 7 u 1 u A +X$XD 1 + 6 7 3 w q 2 m Q..XY.Z u b a.OXG.9 + m J.B.",
"Y.XX=.d 1 S ^.,XP.p 1 J %X@XJ 1 9 I.4X{ p 1 9 { A.u.D 1 4 1 5 5 + 5 u 1 1 M OX%XD $ 4 1 2 0 B @.w M W. XU.a i Z a.OXJ.9 1 m J.&X",
"s.OX} d u d ~.>XP.9 3 J 8X@XJ 2 8 I.8X{ s 1 e w.-Xu.J 1 4 1 5 s s 7 5 5 5 J -X,XD # j M L ( i.q.b ! |. XP.d i a ~.=XG.q 1 q J.&X",
"s.OXG.d + S ~.1XI.p 3 J 3X%XJ 1 0 I.,X{ p 1 0 { -X/.D 1 1 7 ..2.3.O.7 5 1 H =X=XD < D J.XXC.M.9.n *. X XP.p t b I.=XG.e 5 q L.&X",
"s.=XG.Z t S ^.1XI.p 2 H 3X$XH < 0 I.1X{ q 1 , w.,X~.J 1 6 m _.aXsX7Xd $ < R ;X=Xn   C p.S.V.M.q.J {  Xc.P.d i a ~.$XJ.a 4 0 J.&X",
"s.-XI.S 1 S I.1XI.a 3 H %X$XH 2 0 I.1X{ q * , r.-X/.D & 6 M 6XiXqX7XS t < R ;X=Xn   C x.V.c.u.Y n {  X XK.p y b R.$XL.q 1 0 J.&X",
"s.=Xy.S 1 S ~.1XI.q 9 H $X+XL 2 0 ~.1Xw.a 1 q w.-XW.J < 4 w @.Y.T.#.p 5 1 W ;XOXb   C x.=Xr.n = v ;.&X.XP.p t b ~.>XL.q 1 q L.&X",
"s.-Xy.Z 1 S a.1XI.a 3 H $X$XL 8 0 ~.1Xw.q * q w.-Xu.J < h 6 w q e 7 1 5 * W V. Xb   N x.;Xw.0 2 q w.&X&XP.d i a ~.>XJ.q 1 q H.&X",
"v.S.y.A 1 b u.1X~.e 9 B $X$X! 8 q a.:Xw.a 3 b w.-Xu.J 4 6 6 5 7 9 7 $ 1 * W V..Xm . N |.,Xr.e < q -.$X XP.p i Z `.>XL.q 4 q J.*X",
"b.;Xr.Z * b a.1X~.a 3 B $X$X~ 2 c a.1Xw.q 3 b t.A.a.J 1 7 6 7 0 N n 2 4 1 ( V.|.q   N |.;Xr.b 2 q -.>X XP.p y q `.>XL.q 5 q J.*X",
"b.-Xr.A - b a.tXR.b 9 B $X$X^ 8 q /.1Xw.a 3 c w.-Xs.K 5 7 7 j >.@X~.n 4 * ( V.E.q   B z.:X~.D * q -.>XOX2.p i b ~.>XL.q 4 q H.*X",
"b.-Xy.A * b a.tX~.b 3 B OXOX^ 9 q /.1Xr.q 3 c 8.;Xs.J 7 7 w $.qX*Xc.! 2 2 T V.E.0 . N x.rX~.F 2 q -.>X$X1.p y Z `.>XL.q 2 0 H.=X",
"OX-Xr.A * n a.tXa.b 8 B OXOX^ 0 q ~.1Xr.a 3 b r.;X/.K 1 6 9 >.1XwXl.^ 2 = _ V.E.0   N i.<X~.D 2 q -.>XOXP.p i b ).>XL.q 4 0 J.=X",
"b.:Xr.Z * b a.tX/.b 6 B OX=X' 0 c ~.1Xr.Z 1 b r.:XXXK 5 6 w @.3X=X~.n 6 = _ V.E.q   N u.=X).m 2 0 F.4X>X1.a i b ~.<XQ.q 1 0 H.&X",
"+X;Xr.A * b u.tX/.Z 9 B @X=XT > > s.1Xr.a 2 n y.:XXX@.1 6 5 e *.-.N 6 # < ( V.|.,   L XX1XI.A < 0 F.>X$X;.p y b `.>XL.q 1 0 J.=X",
"b.-Xr.A 3 A a.tX/.A 9 N @X=XT q c s.1XI.Z * c 0.:Xn.! 1 5 7 6 w 8 3 < 6 = _ N.|.b . N oXiX~.A < q -.4X>X1.p y b ).4XL.q < 0 G.;X",
"A.:Xw.Z * b u.tXs.b 3 B XX=X' q v /.0Xr.Z 2 b 0.S.n./ 3 h 7 7 5 2 1 4 4 = ' V.|.A & c ~.uX~.D 2 q F.<XOX1.d y b ).<XQ.q < 8 J.=X",
"n.:Xw.Z * b W.yXW.n 9 N |.>XT q c ).iXI.S 2 9 ! w.w.P w 7 h 7 e M v 3 4 = ' V..Xb 1 > u.uX).J 2 e F.1X$X1.p y Z ^.<XY.0 < 0 F.;X",
"-X:Xw.Z - n ~.tXs.M 9 N XX&X' q v /.iX~.b 3 9 9 q b e w 7 w D U.v.J.n 1 & 7.V..Xn * v y.uX).D 1 > { ,X=X1.d w q ).1XL.0 < > J.-X",
"A.-Xw.Z < b a.tX/.n 9 N XX=X' q v W.iX~.A 3 3 D F 8 h h h j ] 1XV.n.R 2 = [ V.|.A 1 q a.uX/.A 2 q { 1X=X1.p y , ).,XY.q < 0 G.>X",
"A.:X` Z * b /.uX/.n 9 N |.=X' q v /.iX~.b 3 0 $.Y.#.q 7 h j ) S.j.l.R - = [ Z..Xb < q y.uX/.A 2 q -.,X,X1.a y b ).1XI.0 < > F.-X",
"A.A.} r & n p.tXXXn 0 N XXOX' q v /.iX~.A 2 9 [ ,X@Xo.6 h z H p.l.i.G 6 2 [ *X.XA & , y.0Xs.A 2 0 [ ,X=X2.s y e (.1XI.0 < ; F.;X",
"A.-X` r & b R.uX/.A 9 N |.&X[ q v (.pX).A 2 8 ' <X<X-.h l l s J ~ O.d k = q.;X.XA 1 0 r.:Xs.F 2 0 -.1X-X1.a y b ).:XP.> < ; G.>X",
"-X-X` r & b s.uXs.n 9 N |.$X' q b /.iX).A 3 8 ( :X<XK.w l l l z s s h 5 = q.;X|.A * > y.0X/.D 1 0 ' 1X,X1.p y q (.0XI.> < 0 G.>X",
":X:X) r * b s.tXs.A 0 N @X$X-.q v XXuX).A 3 8 ' :XrX;.s l w l h h i 7 4 ; w.;XOXA 1 , t.:X~.A 3 0 -.1X>XG.p y b (.0XI.0 & ; G.>X",
"A.:X` : * b s.tX/.N 9 G @X$X*.q v (.iX/.A 3 9 ) ;X:XF.s 7 l l 7 w i 7 5 - w.D.+XA 1 0 t.:X~.A 2 0 [ 1X>Xt.p y v (.:XI.; < ; ;.-X",
":X:X) , * A b.tXXXn 9 N @X$X*.q v /.iX).A 2 9 ) ;X;X;.s l l l 7 7 h h 5 ; w.rX$XA t ; w.,X^.A 3 0 ' 1X-X;.a y , oXtXI.> < ; F.-X",
":XA._ p * A /.tXXXJ 9 N @X&X*.q m `.uX(.Z 3 0 ) D.;X-.9 i h z j m m j 5 ; w.eX$XF 1 : t.1X~.D 1 0 ' 1X-XP.p y c oX0XI.> < = F.,X",
"A.:X) : * n /.uXXXJ 9 G @X$X*.q v /.uX).A 2 0 { D.;X=.7 k j o.*.H.H.@.9 3 t.:X$XA * > t.:XW.D 2 q -.1X,XP.a 3 c 6XtXt.; . ; G.,X",
"A.:XQ r * n s.tXXXA 9 B @X$X] q b /.uX/.A 3 , ` V.*X;.7 h  .Q.z..Xf.q.9 3 w.:X$XA * > w.:X~.A 1 9 { 1X>XP.p 3 , (.0Xr.> & ; { ,X",
":XA.) : - n /.:X(.G 9 B @X$X] a b @XuX).A y > ` rX*X[ 3 j C .Xf.f.4._ 8 ; w.:X$XA - , w.-X~.n < 0 [ 1X>XP.p 1 b (.0XP.: + = ;.,X",
":XA.) y 1 n /.:X`.n 9 H OX$X/ q m W.iX/.A 3 , ` ;X*X{ 3 4 m G.|.e.U C 6 ; w.:X$XA * , w.-X~.A * q [ 1X>Xt.p - > oX0Xt.> . ; ;.%X",
"tXA.Q : * n W.yX(.A 9 B @X>X] e b @XuX~.A 3 q 8.;X;X( 3 5 6 m C C v 6 # 3 r.:X$XA 1 q w.-X~.b 1 0 [ <X-X1.p & > (.iXt.: . - 1.%X",
"S.A.Q p t n s.:X/.A 9 L @XOX] q b (.uX/.A 3 q 8.eX*X' 3 5 h 5 8 0 9 5 5 : 8.A.$XZ 1 0 r.:Xy.A < 0 [ ,X>X1.p * > (.iXw.; * ; 1.%X",
"tXA.Q p t A s.rXW.S p H OXOX] 9 v (.uXR.A y v 7.eX*X' 3 4 6 e %.U.$.7 # : t.eXOXA * q J.1Xr.b < 8 [ ,X,X} p & : (.iXt.; . = ;.8X",
"S.A.E p t A /.tXW.S 3 H OXOX^ p v /.uXa.Z t v q.eX*X( 2 5 9 &.#XoXI.e < - w.;X$XA + , r.-Xt.q < 0 ( ,X-X} p . : ^.iXt.; < 2 ;.,X",
"tXZ.E y t G XX:X~.S 9 L OXOX] : q /.uXu.A y q 0.rX&X' 3 1 d Y.OXc.R.d + ; w.;XOXZ t q y.0X8.v < ; ( >X=X} p . : ^.iXt.: O ; { %X",
"S.A.E y * G oX:X~.Z 3 H XXOX] 0 q /.tXa.A y q 8.eX&X' < 1 d Y.s.y.*.w 4 - w.D.@XZ + a y.-Xw.q * ; T OX=XG.p . r ^.iX} 9 + = { ,X",
"D.A.E y - G b.:XJ.d 7 H n.c.^ 9 v /.1Xu.S 3 , 8.D.&X^ = 4 y L R F s 5 + - w.;XXXZ * q a.:Xw.q < 0 T c.OX1.p . q ^.iX} ; O = 1.8X",
"D.B.R y y H n.D.r.e t ! n. X^ p q /.1Xu.A t q 8.;X=X^ * 5 5 7 2 5 1 + + = w.D.|.b + c y.:XF.0 & > T z.c.{ y . r ^.qX{ 2 . = 1.3X",
"V.c.H y 3 R C.Z.` 9 3 Y c.c.~ w , /.tXR.D t q w.rX=X] < # 5 7 D O.F t # = w.D.XXA + , a.:Xw.9 < 0 T =XB.{ y + a ^.0X) - O 2 1.8X",
"V.u.S 1 9 _ S.c.E y 3 W C.c.! 7 , /.rXu.D y 9 w.:X>X] < # 5 K ).).,.7 # = q.eXXXZ + q u.:X{ w 4 q H.pXA.{ y O a ^.iX{ 2 O - 1.%X",
"M.( q 3 H i.M.7.b 5 9 _ Z.x.H 3 v |.rXp.A u 9 { :X=X/ 1 # 3 $.8X$X~.q + = q.eX|.Z + q r.:X{ 9 < q r.pXS.` y & q a.0XQ 1 X = } -X",
"d.7.W ( i.h.0.B 3 7 H p.C.v.n 3 b b.rXp.A t p { <X=X/ 1 # 3 / $X$XI.9 + ; q.D.|.a t q y.1X] 9 # 8 q.pXS.` y . q s.0XE 1 + 2 P.$X",
"d.k.c.M.h.9.N w y J 0.C.C.0.q 1 n x.rXp.A t 3 { ;X>X/ 1 # 1 H (.(.$.6 @ = q.D.XXS + q y.,X] 3 # 6 Y +Xb.) u * Z v.8XH + O 3 P.,X",
"m.g.g.k.9.N 2 7 G a.C.C.x.W 2 1 c c.rXp.A 1 3 { <X=X/ < O O q &.$.9 $ $ = 7.eX|.Z % 9 t.,X^ 1 + 6 M $.^ G y 1 A v.oXA 1 O 9 I.1X",
"m.g.f.7.c < 4 J u.V.M.p.) e 1 + c c.rXp.A 1 2 { ,X>X/ < # # 1 F S 1 @ o = q.eXXXZ + 9 t.oX! 1 + 6 d q 0 v 3 1 H b.^.q + X 9 Y.8X",
"d.f.U c < 1 A J.Z.M.x.) a 1 $ < B  XrXu.A 1 2 ] ,XOX] & X # 7 %.&.d + + - w.eXb.Z + 3 1.oX! 1 # w o.o.m 9 5 1 E +X} 8 # O 3 <.^.",
"g.5.c + 4 M r.Z.C.z.^ s 1 # 6 M J.=XS.8.q < 8 ' :X-X/ 1 + O D }.2X:.3 X = 8.wX|.a % 3 { oX~ < + S [.3X>.Z 1 2 Q oX/ 6 # < 1 F H "
};
