/* XPM */
static char *text3[] = {
/* columns rows colors chars-per-pixel */
"64 64 226 2 ",
"   c #0C0C0E",
".  c #140E0F",
"X  c #0E130F",
"o  c #0F1E0E",
"O  c #12110E",
"+  c #101E0F",
"@  c #0E0C10",
"#  c #130D14",
"$  c #1A0E17",
"%  c #160E1A",
"&  c #1A0F1C",
"*  c #0E1211",
"=  c #131314",
"-  c #181216",
";  c #141C15",
":  c #181C14",
">  c #151319",
",  c #1A121B",
"<  c #141C19",
"1  c #1B1A1C",
"2  c #0F200E",
"3  c #11210E",
"4  c #0F2111",
"5  c #142314",
"6  c #192616",
"7  c #122B12",
"8  c #152319",
"9  c #1D241D",
"0  c #162B1A",
"q  c #1C2B1D",
"w  c #193317",
"e  c #173A16",
"r  c #173319",
"t  c #1C331C",
"y  c #1C3B1C",
"u  c #21241E",
"i  c #202A1E",
"p  c #22331D",
"a  c #24391F",
"s  c #1E0F21",
"d  c #1D1422",
"f  c #220E24",
"g  c #260E2B",
"h  c #280F2F",
"j  c #221325",
"k  c #241A27",
"l  c #24152B",
"z  c #29152E",
"x  c #251A29",
"c  c #291D2C",
"v  c #2C0F33",
"b  c #271631",
"n  c #2C1633",
"m  c #2D1934",
"M  c #2F1539",
"N  c #2E1838",
"B  c #311436",
"V  c #33153B",
"C  c #36173A",
"Z  c #32193B",
"A  c #1E2521",
"S  c #1E2B21",
"D  c #1D3222",
"F  c #1D3A20",
"G  c #222422",
"H  c #2A2625",
"J  c #292626",
"K  c #212B21",
"L  c #2A232C",
"P  c #213323",
"I  c #263824",
"U  c #2D3B25",
"Y  c #243B29",
"T  c #2E3C29",
"R  c #2D2530",
"E  c #1C431D",
"W  c #1E4A1B",
"Q  c #1E5819",
"!  c #1F5C1C",
"~  c #22431E",
"^  c #204A1E",
"/  c #215B17",
"(  c #22531D",
")  c #215C1A",
"_  c #1F691E",
"`  c #1E701E",
"'  c #22631B",
"]  c #226C1B",
"[  c #22701C",
"{  c #1E4321",
"}  c #1E4C25",
"|  c #1E5321",
" . c #1F5C21",
".. c #244523",
"X. c #214B21",
"o. c #26412A",
"O. c #244D29",
"+. c #364B2E",
"@. c #235522",
"#. c #235C24",
"$. c #285B26",
"%. c #23542B",
"&. c #245C2A",
"*. c #374B33",
"=. c #3C4B34",
"-. c #33563B",
";. c #1F6221",
":. c #246224",
">. c #2A6524",
",. c #246B24",
"<. c #2A6D26",
"1. c #256229",
"2. c #296928",
"3. c #2B6A2A",
"4. c #267325",
"5. c #297427",
"6. c #257B26",
"7. c #2B7B26",
"8. c #2C732B",
"9. c #257829",
"0. c #2D7B2C",
"q. c #307928",
"w. c #307C2A",
"e. c #2E6533",
"r. c #2D6831",
"t. c #346337",
"y. c #3B643D",
"u. c #3D693B",
"i. c #2E7A30",
"p. c #39773E",
"a. c #347E3A",
"s. c #39793C",
"d. c #41463B",
"f. c #371140",
"g. c #3A1542",
"h. c #3A1945",
"j. c #3D1B4A",
"k. c #3E1B50",
"l. c #3F214B",
"z. c #411546",
"x. c #421448",
"c. c #431D4D",
"v. c #441E52",
"b. c #491E56",
"n. c #471D58",
"m. c #4C1E5B",
"M. c #42264E",
"N. c #47374D",
"B. c #4A3B4E",
"V. c #462152",
"C. c #4A2455",
"Z. c #452D51",
"A. c #4A2C54",
"S. c #4D235C",
"D. c #4B2959",
"F. c #51255E",
"G. c #51285E",
"H. c #4D3354",
"J. c #4D3755",
"K. c #503559",
"L. c #4E1D64",
"P. c #531E65",
"I. c #541E6A",
"U. c #5A1D6C",
"Y. c #5E1C71",
"T. c #631D75",
"R. c #651C78",
"E. c #4F2461",
"W. c #552365",
"Q. c #592367",
"!. c #572866",
"~. c #56226A",
"^. c #5B236C",
"/. c #5B296D",
"(. c #5E2571",
"). c #5E2872",
"_. c #61276E",
"`. c #632473",
"'. c #642A73",
"]. c #682F75",
"[. c #62247C",
"{. c #6B3076",
"}. c #396441",
"|. c #3C6840",
" X c #3D7544",
".X c #444244",
"XX c #426D44",
"oX c #417347",
"OX c #427648",
"+X c #26881D",
"@X c #258B1D",
"#X c #2F9A1F",
"$X c #2DA51E",
"%X c #288426",
"&X c #298B21",
"*X c #2C842B",
"=X c #2C8A2C",
"-X c #33802B",
";X c #318D2C",
":X c #2D9525",
">X c #269B26",
",X c #2C9D23",
"<X c #2C952C",
"1X c #279D29",
"2X c #2B9B2A",
"3X c #329B23",
"4X c #359429",
"5X c #32942D",
"6X c #319B2D",
"7X c #338631",
"8X c #2D9531",
"9X c #2D9831",
"0X c #329530",
"qX c #26A324",
"wX c #2CA423",
"eX c #2AA924",
"rX c #2AA42A",
"tX c #2AAE2D",
"yX c #2FAE2D",
"uX c #2DB12C",
"iX c #2FBA2E",
"pX c #2FB231",
"aX c #2CBD30",
"sX c #31B231",
"dX c #2EC132",
"fX c #642283",
/* pixels */
"y t t a F D t t t t t t p a a t t t t t t p t t t t r w y y y y t y y a E y ..y y a a I y t D t y y y t y y y y E E y E y E { E ",
"9.5.5.4.2.1.,.:.,.,.,.,.4.8.0.5.4.9.4.7.7.4.4.4.5.4.4.7.7X7X7.7.7.4.7.7.7.7.9.6.7.9.7.9.,.2.:.,.4.6.6.6.6.6.6.6.%X%X%X=X%X=X=X=X",
"pXpXsXpXtXtXtXrXtXtXtXtXtXtXtXuXtXtXtXyXuXuXuXuXtXtXuXuXuXuXyXyXtXtXuXuXtXuXuXuXtXuXsXsXpXsXsXtXiXiXaXiXaXaXaXaXaXaXaXdXdXdXaXdX",
"2X2X>X>X>X>X>X>X>X>X1X1X1X1X1X1X1X1X2X2X,X>X2X2X>X2X<X2X2X:X:X:X:X:X:X:X:X2X:X:X3X,X,X$X,X,X,X$XqXqXqXeXeXqXqXqXqXrXqXqXrXrXrXtX",
":.:.#.#.(  . . .#.#.#.#.:.:.:.#.#.#.#.#.#.@.@.#.( @.@.#.$.@.@.@.X.( @.@.@.@.@.@.@.@.$.) $.$.$.' ' >.] <.q.<.,.,.<.<.5.,.,.<.2.:.",
"q 9 9 9 9 9 A A G 9 i q q S K i i i i i u u i u A K G u u 9 i u i i u q i i K i i i i i i i K K i i i i p i p i p p i p P p p p ",
"9 1 9 1 1 d q A A 9 u u 9 u u G G 1 u u u u u u G u A G G u u u u G G 9 G G H G u G u u i i K q i i i i i 9 9 i i 9 9 u u G u u ",
"1 A 9 9 S q S S A A A A 9 S S q S K G q A A K K i G k G G G k G G G G G H K H H G k H G G G G u i u u u u i 9 9 i 9 u 9 9 q 9 9 ",
"E E W ( :.] ] 4.,.Q a ~ ' ' :.:.' >.>.>.@.$.' >.W w 9 u q q q D D i P t p p p t q q t t p i i K i i K i q i K u i i u i i i i i ",
":X:X:X,XwXeX$XeX$X,X-X*X,XwX,X#X,X,X,X2X:X:X+X#X-X$.^ ~ ) :._ ' ,.,.,.] ` ` ` 4._ ,.4.4.4.:.' ) :.:.<.:.' :.' :.:.) >.>.:.:.:.2.",
"$XeXwXwXwX$X$X$X$XwX6X3XwXrXwX,XwX,X,XwX3X3X3X3X3X4X4X;X5X2X3X,X2XwXwX,XqXqX$X$XwXwXeX$XwXwX>X>X,XwX,XwXrXwX,XrXwXrXrXrXrXwXqXqX",
"+X@X+X@X@X@X@X@X@X@X@X&X&X&X&X@X&X&X@X@X+X&X:X,X:X:X:X:X:X3X3X3X3X,X,X,X#X#X>XqX$X$X$X$X,X$X,XwX,X$XwXwX$XwX$X$XwXwXwXwXeXeX$XeX",
"w e e e ~ ~ E ~ E W W W E ^ ^ ^ W W W W W W W Q ( ( ( ) Q Q ) / ) ' ) ) ) Q Q _ / / _ ! Q / Q Q Q Q _ _ ' ' ] ] ] ] ] ] ] [ [ [ ",
"* ; : : - 1 < : 8 5 + ; 5 < 5 < ; ; 5 < 5 8 4 4 2 4 2 5 4 + 2 2 o o + + o 2 o o 2 3 2 4 4 3 o o o + + + 3 5 3 7 3 7 7 7 7 7 7 7 ",
"( $.) @.$.$.@.#.#.#.#.#.#.#.#.#.#.#.&.&. . .@.| @.| | W } { { y E E E E E E E E E E E E E E E { y E E E W E E E E e e y e y a e ",
"4X4X4X4X4X4X5X0X5X5X8X0X0X0X<X5X8X8X8X8X8X8X8X=X8X=X=X<X7X=X=X*X*X=X*X*X=X%X&X=X%X=X=X=X=X=X=X=X=X=X=X*X*X*X=X%X=X*X*X*X*X*X*X;X",
"w.q.7.w.q.%X-X-X-X%X7.-X-X%X*X*X7X*X*X=X7X=X=X;X=X;X;X;X;X;X8X8X<X=X8X=X=X<X<X<X<X8X9X9X9X9X<X9X9X9X9X<X1X<X<X<X1X9X9X9X9X<X6X6X",
"e a e e e I e e y e e E E E E ~ ~ ^ ^ } W } ^ X.W } X.X.| } } | | | } | | | | | |  .| | | |  .#.#.|  .#. . . . . . .;. .;.;.:.:.",
". = = = = = : = = < * < ; ; ; < < < < < < < < < < < < < < < < < < + 8 < < 8 8 8 < 8 8 < 8 4 ; < < < < 8 < < 5 ; ; + + + + ; ; ; ",
": O = = + = = O * < = * = = > = > = < = * < = = < * < > < < < < < < < < < < 8 < < < 8 d < 8 8 < 8 8 8 A A < 8 < ; < < < < + < + ",
"P Y P D D D D D S S D S D D S D P i P p D Y P D I I Y Y I Y Y I F o.o.o.o.o.o.T { Y o.o...o.O.O.O.O.%.O.O.O.%.%.} %.| } } } } } ",
"}.}.}.}.}.y.}.-.y.y.}.y.}.}.}.|.}.u.y.u.|.|.|.XXXXXXXXXXoXoXoXoXOXOXOXOXOXOXOXOX X X X X Xp.p.s.s.s.s.s.s.s.s.a.a.a.a.a.a.a.a.7X",
"-.-.-.y.}.}.}.}.u.|.y.y.|.|.u.u.u.u.u.u.u.u.u.u.u.u.u.u.}.u.u.u.u.y.}.}.u.y.}.u.y.}.}.}.t.t.t.t.t.e.e.e.r.e.r.r.r.r.r.r.r.r.r.r.",
"1 d G H Y Y T T T o.T T T T U U U T U U p U U I p p p p i i q q i i q u u u u u u G A G G G A G S G G S K S S K D D D S D D D D ",
"> # @ @ @ # . . . # . . # . . . = . . . # # . . . . . . # # # # . . # #   # # # # # # % # # # # # % # # # % # # % @ # # # # # # ",
"M n v h g g f f & f s s d f j f j j j f d g j g g g g g g g l g v g v b v v v v v n v V v v B B B B M M B B B B B Z B B B V V C ",
"/.!.Q.!.W.E.W.m.F.m.m.m.m.m.P.m.m.L.m.P.L.L.L.L.P.W.P.W.Q.Q.~.~.^.^.^.^.^.(.T.^.(.(.`.`.R.`.`.`.'.`.'.'.`.'.'.'.'.'.].].].{.{.{.",
"S.L.S.S.S.E.S.S.m.P.P.P.Q.P.P.I.~.U.U.U.(.I.(.~.I.U.U.^.~.~.~.~.U.W.W.W.~.W.!.I.S.!.F.F.F.F.F.F.W.E.S.S.W.S.S.G.S.S.S.S.S.G.C.G.",
"j j j j z l h z B B n V M M M Z Z Z M V V f.f.M Z Z Z M n M N N M n n n b z n z n l z n z z z z l j z z l z l l c j j l k j j z ",
"$ $ # % % % % % % $ % % % > $ , % $ % % d > > % $ % , & - , > > > > > % > , - , % & , & & & & & , , % - > % - $ $ - - $ - : - - ",
"n.m.n.n.v.n.c.k.j.k.k.j.c.j.j.j.j.j.j.j.j.h.j.k.h.j.j.h.h.h.h.h.h.h.h.h.h.h.h.h.h.h.h.h.g.x.h.h.h.h.h.g.g.V C C C C C C V V C C ",
"fXfXfXfXfXfXfXfXfXfXfXfXfXfXfXfXfX[.fXfXfXfXfX).[.[.[.[.(.fX).fX[.[.`.[.[.`.[.[.`.[.`.`.`.`.(.`.`.`.Q.`.(.`.U.U.U._._.U._._._._.",
"L.L.L.L.L.L.L.L.I.L.L.I.I.I.I.I.I.I.I.U.U.U.I.I.I.~.~.~.~.U.Q.I.W.Q.~.~.~.~.~.~.~.Q.Q.Q.P.!.W.W.W.W.W.W.!.!.P.Q.P.Q.W.P.Q.F.U.Q.",
"j j g g g f f f s g d g d d l j b d l l b l l g l l l l l l l l l l z l b b b n b n b b n b l n n z z n b b m n n z m M z z z B ",
"@ @ @           @ @ @ @ @ @ #       @       # @ @ @ @ @ @ @ # @ # # @ # # # # = # # # # # % % = > > # % = # = > # , = > # = . O ",
"v M V v M M V B f.f.f.f.f.f.f.C V f.V f.V V C g.f.f.f.f.h.f.g.f.g.f.f.g.V g.g.g.h.h.h.h.h.j.j.j.j.j.j.h.h.h.g.g.C C C C Z Z Z M ",
"Y.Y.Y.Y.T.T.T.T.Y.Y.R.fXR.R.T.R.T.T.T.T.`.R.`.`.[.`.`.R.[.`.`.'.`.`./.`.`.^././.(./.(.).).(.(.`.`.`.`.(.(.^.~.U.Q.U.~.I.Q.~.I.Q.",
"Y.Y.Y.U.U.U.U.U.U.U.U.U.U.U.Q.P.I.I.P.P.W.P.P.P.W.P.Q.P.m.m.m.m.b.b.b.b.b.b.b.v.v.v.v.c.v.c.n.v.b.b.v.n.b.m.m.m.m.P.P.L.P.I.I.U.",
"V B n Z B B n B M n b n n n n z z z z z z n b l l l l j d l j d d d d d d 1 , 1 > d d > > d d 1 1 d d d d j l l m n b M M n Z Z ",
"& & $ $ $ & & & % & & s & % % , , & , , % > > > > > = # = # = = . = * . # # X X X * * X X * @ = @ * * * = * * = = = > > > > % # ",
"g.g.C z.z.z.z.z.z.z.z.z.z.z.z.z.x.z.h.h.z.z.g.C g.V V V Z B N B M B B z n z z z z c z z z l z n M n M N N N V V Z B V V V V Z V ",
"^.U.Q.Q.U._._.`.`._.`.`.`.`.`.`.`.`.`.[.'.`.].`.'.'.'.'._./././././.Q.Q.W.!.Q.W.W.W.!.!.!.!.!.!.!.!.!.~.^.^.^.~.Q./.(.(.(.^.(.).",
"c.c.h.j.z.c.x.c.c.c.c.c.c.c.b.b.V.V.S.V.S.L.W.W.~.~.W.!.W.~././././././././././././.^././.~.W.W.W.!.E.S.S.S.n.S.n.n.n.n.n.m.v.m.",
"# = # # - $ & $ % $ , , $ , & & , s s d d d d d d l d l l b b m N n m m b m M M m N M Z m n b l l l g s s & & & s % & % % % % % ",
"= = = = = # = # = = # # O # = = = @ * * @ * * * # . .   O O O O X = # . # X * * * @ * = @ = # #   # O #   # # # # # # # # # # % ",
"= - - - = > > = = - = = = = = = = = > = = * = = = = = = O . = . = = = = = = > = = = * = = * = = = = > = > > > > % % d % $ & s s ",
"B m m m N Z Z N m N m m n m m c z c c c c z z c L c c c H L c c c c c L c L c c c x d k d j 1 1 1 ; 1 d d 1 1 1 1 d 1 1 1 1 1 1 ",
"S.S.S.S.F.S.G.G.G.G.G.G.G.G.G.G.G.S.S.D.D.D.A.D.D.A.A.A.J.A.A.A.H.H.H.H.H.J.K.K.K.K.J.J.H.B.N.N.N.N.N..X=.=.*.+.+.+.+.+.*.*.*.=.",
"c.c.c.l.M.M.v.M.v.V.V.V.V.V.Z.C.C.A.A.D.D.D.A.A.A.A.Z.A.A.A.Z.Z.Z.Z.Z.Z.Z.Z.Z.N.Z.N.N.B.B.B.B.B.B..X.X.X.Xd.=.=.=.=.=.=.=.=.=.=.",
"1 1 d d d d j j j j x j l l x j j k l x x x x x x x k l l k k k x k d k d k k c c c c L L L L L L R R Z L H H H H H H H H H H H ",
"= = - = - < - - - - - - > > > - = > = - = = = - = = = O O = = = = * = = = . = = = = = = = = = , = > 1 , , = - = 1 - & , - & - - ",
"- ; ; - - - 1 - - - ; - < > > = - - > = = = = > = = = = = # = = = = = = = < = - = = = = , = = = > > > , % > > > % , , $ % - % % ",
"E e e w w w r 0 0 5 8 8 6 6 6 6 0 6 5 5 8 8 8 8 : < : : : 5 : : o ; : : : < 5 : < < < : : : + ; ; + ; : ; : < - : ; : < : : : 5 ",
"! Q ! #.! #.#.#.&.&.1.1.&.1.1.1.&.%.&.&.1.&.&.&.&.&.%.%.%.%.%.%.O.%.O.%.%.&.%.%.%.@.%.@.%.&.%.#.@.$.#.$.%.&.&. .%.#.&.#.#.#.;.#.",
"r r r r e y y E E { { } } X.} %.O.F { O.%.%.| %.%.%.%.%.%.%.%.%.%.%.%.%.%.%.%.&.&.&.&.&.1.&.&.:.&.1.1.1.2.2.2.2.2.2.2.2.,.,.,.,.",
"> ; ; ; ; < ; - ; ; < < < < 4 8 < < < 8 8 < 8 8 8 8 5 8 5 8 5 6 8 8 6 q 6 0 0 6 0 0 r q q 0 q r 0 r r r r r 0 r r r e r t r r t ",
"< > > < * ; < * = * * * O O o X = = * * * = + * o = * * X = = = = = ; * ; * ; * < = = < = O = = * = * * X * X = * X * X * = * = ",
"; 8 0 F { { E E E E E E E E E y p p y y y y F F y F E y y y y F F y y y y { { F y F y y y y F y F F y t t q r r r r w w r r r r ",
"6 E  .,.,.,.;.4.` ,.;.9.,.,.;.1.@.@.#.:.;.;.:.;.:.:.2.:.:.#.#.:.:.:.:.:.:.1.1.1.:.1.1.1.1.1.:.&.1.1.1.&.#.&.:.#.#.>.:.:.:.:.:.:.",
"| 9.9.;. .;.1. .:.;.;.;.;.;.:.1.@.%.%.#.#.&.#.#.#.#.#.#.>.&.1.#.:.&.&.:.#.:.&.:.#.#.:.:.:.1.1.:.1.:.2.>.>.3.>.3.2.3.3.3.<.8.<.<.",
"9.*X .q 0 D D 0 t t t t F F F D q D D p I t t t y t F F D I F t r D F r F I y y t y y y y y { F y F y E E ~ ~ ~ ~ ~ ~ ~ ..^ ^ ..",
"*X;.r < < d < < < 1 > ; < d > < 1 > < < ; = < - = < < * < = = < < < < < < = < = < * < - = < = * > ; ; ; ; = = 5 5 1 5 < 8 < 5 1 ",
":.t < 1 1 < 0 D t S t p D D D D p t D P t t D t D y y r y y D F D D D D F D D F D D D S D S S S S S q 0 q 0 q 6 q 6 0 0 q u i u ",
"r < , , 1 r  .<.<.4.5.8.8.8.2.<.2.8.8.8.8.8.0.8.0.0.i.i.0.0.0.0.0.0.i.i.i.i.0.0.i.9.i.8.8.8.8.8.4.8.<.,.<.,.2.2.>.>.>.2.>.>.3.>."
};
