/* XPM */
static char *text2[] = {
/* columns rows colors chars-per-pixel */
"64 64 234 2 ",
"   c #0F0C14",
".  c #0F0B18",
"X  c #130E15",
"o  c #140D19",
"O  c #101111",
"+  c #151515",
"@  c #191616",
"#  c #151B16",
"$  c #191B16",
"%  c #161519",
"&  c #191619",
"*  c #161A1A",
"=  c #1B1C1A",
"-  c #201E1E",
";  c #192E0F",
":  c #1E310F",
">  c #152415",
",  c #1A2516",
"<  c #152B15",
"1  c #1B2B16",
"2  c #162319",
"3  c #1C231B",
"4  c #162B19",
"5  c #1D2C1B",
"6  c #153315",
"7  c #1B3415",
"8  c #153B15",
"9  c #1B3A16",
"0  c #173319",
"q  c #1C331B",
"w  c #163B19",
"e  c #1D3B1B",
"r  c #212E16",
"t  c #21251D",
"y  c #212C1D",
"u  c #223415",
"i  c #213915",
"p  c #22331D",
"a  c #223B1C",
"s  c #1C1525",
"d  c #1E1C21",
"f  c #221829",
"g  c #2B1738",
"h  c #32173B",
"j  c #1E2422",
"k  c #1F2B21",
"l  c #1E3522",
"z  c #1E3B22",
"x  c #222422",
"c  c #232A22",
"v  c #282C25",
"b  c #25222B",
"n  c #272D2D",
"m  c #223321",
"M  c #213B23",
"N  c #213E29",
"B  c #283828",
"V  c #293B2D",
"C  c #2B2930",
"Z  c #2B3735",
"A  c #2E3535",
"S  c #2E3A33",
"D  c #313A39",
"F  c #164617",
"G  c #1C4515",
"H  c #1C4A15",
"J  c #1D431C",
"K  c #1D4C1B",
"L  c #1B5515",
"P  c #1E5A15",
"I  c #1E531A",
"U  c #1E5B1A",
"Y  c #234516",
"T  c #224B15",
"R  c #22441C",
"E  c #224C1C",
"W  c #2C4D1D",
"Q  c #225317",
"!  c #245C16",
"~  c #23541C",
"^  c #28561C",
"/  c #235B1C",
"(  c #295B1D",
")  c #166615",
"_  c #1E631C",
"`  c #1D6B1C",
"'  c #1D781B",
"]  c #266316",
"[  c #246B16",
"{  c #296816",
"}  c #24631B",
"|  c #29641C",
" . c #236B1C",
".. c #2A6C1B",
"X. c #257615",
"o. c #267B17",
"O. c #24741B",
"+. c #2A731D",
"@. c #257B1C",
"#. c #2C7A1D",
"$. c #1E4522",
"%. c #1E4C22",
"&. c #1E5321",
"*. c #1F5B23",
"=. c #224422",
"-. c #234C22",
";. c #23422B",
":. c #2B432B",
">. c #235423",
",. c #295423",
"<. c #235B23",
"1. c #2A5B23",
"2. c #245528",
"3. c #245C2A",
"4. c #304136",
"5. c #1F6422",
"6. c #1F7F22",
"7. c #246323",
"8. c #296424",
"9. c #246B23",
"0. c #2A6B23",
"q. c #286A2A",
"w. c #31652B",
"e. c #247422",
"r. c #2B7523",
"t. c #257D23",
"y. c #2B7B23",
"u. c #2C7E2B",
"i. c #3C1949",
"p. c #461B58",
"a. c #4E1A63",
"s. c #521C68",
"d. c #5C1E76",
"f. c #1C8619",
"g. c #1D981A",
"h. c #2E8517",
"j. c #278916",
"k. c #24831B",
"l. c #2C831B",
"z. c #258C1B",
"x. c #2D8B1B",
"c. c #318A1F",
"v. c #269315",
"b. c #299816",
"n. c #23941D",
"m. c #2B951C",
"M. c #239B1B",
"N. c #2B9D1B",
"B. c #30931E",
"V. c #319D1C",
"C. c #1CA818",
"Z. c #26A415",
"A. c #29A314",
"S. c #24AB14",
"D. c #2AA914",
"F. c #24A41C",
"G. c #2CA31A",
"H. c #24AC1D",
"J. c #2BAD1C",
"K. c #31A41C",
"L. c #34AD1D",
"P. c #27B516",
"I. c #25B41D",
"U. c #2BB41A",
"Y. c #2BBA1C",
"T. c #35B31D",
"R. c #34BB1C",
"E. c #1E8322",
"W. c #1E8E22",
"Q. c #258324",
"!. c #2C8322",
"~. c #258B23",
"^. c #2B8C24",
"/. c #278528",
"(. c #2C8529",
"). c #2E8B29",
"_. c #318526",
"`. c #328B25",
"'. c #30832A",
"]. c #308929",
"[. c #249323",
"{. c #2C9323",
"}. c #249D25",
"|. c #2C9B23",
" X c #279728",
".X c #2D9328",
"XX c #2D9E2C",
"oX c #329322",
"OX c #329B24",
"+X c #389A25",
"@X c #32962B",
"#X c #339D2B",
"$X c #25A323",
"%X c #2CA424",
"&X c #26AC22",
"*X c #2CAB25",
"=X c #27A62B",
"-X c #2BA42C",
";X c #2CAA2B",
":X c #33A523",
">X c #33AB24",
",X c #39AC24",
"<X c #33A42A",
"1X c #3AA52C",
"2X c #34AB2A",
"3X c #39AD2A",
"4X c #24B322",
"5X c #2CB424",
"6X c #2CBC25",
"7X c #2CB42C",
"8X c #2BB929",
"9X c #34B424",
"0X c #39B224",
"qX c #34BA25",
"wX c #39BA25",
"eX c #35B42A",
"rX c #39B32A",
"tX c #34BB2B",
"yX c #3AB92C",
"uX c #2DA730",
"iX c #32AD32",
"pX c #2DB531",
"aX c #2CB931",
"sX c #30B431",
"dX c #3FBE39",
"fX c #429A2B",
"gX c #40BF24",
"hX c #2FC216",
"jX c #33C21D",
"kX c #2DC224",
"lX c #34C322",
"zX c #35C32B",
"xX c #39C22B",
"cX c #36C332",
/* pixels */
"i.f # @ s i.a.g o o . . . % o o o o o o o o o o o o o o . o . . . o . . .     . . . .       .   O . O O . O O   % # % % o % *   ",
"+ + d h p.d.p.% O % % % d x C C C b f b b j j c c x j d d * * * % * * s # * * * * * * * * # * 2 2 2 2 4 4 4 * O + > >     > 6 # ",
"h i.p.s.d.s.g o % % j Z Z Z Z D D A A A A Z V :.:.:.;.;.;.:.N N z N z V N N $.N N N N N ;.z $.;.;.$.$.l 0 4 2   # 0 < O O < 0 # ",
"a.s.s.a.p.g s % * k Z D n j d j j j x x c k k 5 k k l l m m l l z l N l l N z z M N l a l l l N z l 4 * # # > + # w 0   + < 8 # ",
"f g f s s o % * n D A j % + + + + # % + * + + # # * @ @ $ @ $ $ & $ # $ s * # # $ $ $ $ $ # $ # * % + + + > 2 + * e < + X < w # ",
"# # * & & * j V 4.Z = + + % @ # @ + @ * + # + + + + + @ @ @ + % % % & & % + + # @ @ + + + % + + + + + + > w 2 X 2 J q + + 6 w # ",
"m M m m B V S 4.B * + + $ & * + + @ @ * % # * + # + # # @ @ @ + @ & @ @ @ @ @ $ @ @ @ @ & & & $ + + + # l z > % 2 $.q + + q J # ",
"5 k m m m m k 3 # + @ # & + * & # = = = = & * * $ = $ = $ $ = 3 3 3 3 , = @ = = & = & $ = & & & # + # 5 z l #   3 %.q + # $.J > ",
"% * * % % # + + + % # & $ & # 0 z $.$.$.$.$.$.-.=.$.%.%.%.J -.&.&.&.%.%.z z z z N =.z l l m e l q z l -.%.e , X 2 >.e + # %.K 2 ",
"% % % % % % + + # * $ * & $ 4 %.>.2.2.2.2.2.>.2.2.3.2.3.<.1.2.,.>.-.*.q.q.3.*.q.3.3.3.3.3.3.2.2.>.-.>.%.K K 5 + 5 &.e + # -.&.2 ",
"5 0 0 4 4 4 2 > # * & & * 1 K $.5 y c c k c 5 t 5 c 5 y 5 3 r 3 3 3 0 2.>.z l e e e M l a m l p 0 j > 4 4 4 = @ 5 <.J % # -.&.2 ",
"K J F K K %.%.J J w 0 q R &.%.5 = = 3 = = = * = = = = = = = = = = = = 3 2 = # * * * = = & $ = & * * w K F * $ % 0 3.F % 3 *.*., ",
"6 2 3 3 4 q w J J &.&.*.*.%.5 = = = = = = = = = = = - = = = 3 = = = - = = = = d = d d 3 3 3 = t 2 q } ' ` < & # q 9.J = > 5.5., ",
"# + @ @ % + + # # 2 5 l 0 3 = = = = = = = = = * = = = = = = = = = = = = = = * & = 3 3 3 t = 3 = 3 4 8 ) ` 0 $ * e e.E $ < 5._ , ",
"* + + * 4 2 & * * % % * * * = 5 4 0 w F e w $.F q q a 9 q q w 0 e e 7 9 9 e w q 5 5 3 = = = 3 3 3 4 8 *.&.k = # J u.Q & <  .e.< ",
"& * % 0 K q = = & = 0 K K q e 9.6.E.E.k.Q.t.E.E.t.Q.6.6.Q.t.t.t.t.t.t.t.o.O.O.' 5.9.<.M p a t t x $.E.[.u.>.y = R ).Q $ < Q.E.1 ",
"# * * 0 >.0 * = 4 &.5.) U &.2.5._ 7.~ %.-.-.-.1.>.2.<.2.>.,.1.,.1.1.w.,.,.-.~ ~ ,. .@.t.r.} c c c m t.$X}.q.m t ~ @XQ $ 8 f.W.9 ",
"< = * k *.k = = J e.>.5 4 5 3 3 3 3 x d 3 j j j j x x j x 3 x c x x c x x c c x t y R } Q.Q.=.c c y -.0.} :.v t ( #X/ = 8 v.W.w ",
"F 3 & q <.q f = ,.r.p = 3 4 5 j j x f 3 d x j x x x x x x j t x x x x t x x x x x c x k >.z.@.R c c c c y c v t 0.+X~ 2 e g.~.8 ",
"U 2 & a  .e = , 8.r.c = R  .R = 3 x t x j - x x x x j k c c x t c x x x x x x x x c x j 2 I ~.t.R v x R 8.-.c t r.1X,.3 4 _ } 1 ",
"_ 3 & a r.a = 3  .r.c = } n.E f c j x x x 5 x x 3 M 7.e.5.9.7.U K w 3 - j c x x c x c x - , } M.~.=.3 } G.l.a t y.,X^ = p G 7 $ ",
" .t = R !.=.- 5 r.r.y = [ n.E 3 =.=.k j f 3 c x f ( Z.H.$X X=X4Xg.f.I q k c c v c c v b x - 7 f.&X( y ! G.m.Y y _.3X^ t 8.oXQ > ",
"O.5 = -._.=.t 5 y.y.y $ [ n.~ 3 9.E.e j l *.6.2.l ' f.! E e <.=XC.C.g.k.~ 3 x v t v x c c v = L &X' 3 R G.N.Y r _.3X^ r #.0X{ > ",
"@.q = ~ `.-.= 5 y.!.p , O.M.U 1 t. XJ t >.$X&X~.U [ ~ 5 x t l /.C.C.C.S.O.r v c c x v c c v x Y :X@.5 a V.A.W u `.3X^ r #.0X| ; ",
"@.q 3 1.B.W t u l.l.p t O.M.! q Q.}.%.c 7.&XC.F.^.| u c c y k %.e.f.Z.C.k.a v c v v t v v t t W T.k.p i V.K.W u `.3X^ r #.0X{ 1 ",
"Q.u t 0.,XW = u c._.u t o.N.! 5 ~.$X~ q 7.&X$X%Xl.R c k c c c t 5 a j.P.z.=.v x t v v t t t r X.jXk.r 9 V.K.T u `.3X( r #.wX{ 1 ",
"^.i t ..,X^ t a c.c.p t o.A.! u z.=XK r } H.$X+X-.c c c c c c v y p c.Y.k.a y t v t v t t t r j.hXl.r a +XK.Y a `.0X/ u #.wX..1 ",
"{.i t ..,X^ t i B.c.u 1 l.N.L 7 [.$XK p 7.H.I.+XB x c k y c c c v m #.Y.z.a c c c c p p y t t o.jXX.t i :XK.Y p oX0X( r #.wX{ ; ",
"n.e t +.L.^ t i V.B.a r h.A.Q u n.$XE m 9.I.Y.+XR x c c y c c m v m O.Y.z.R t y =.8.Q.Q. .u t +.jXO.r Y K.K.Y a OX0X( u #.wXX.: ",
"N.i t +.,X! t Y V.x.i : j.D.Q i }.$XE y  .I.F.x.] a t c c c c m v y  .U.n.a p ^ ^.$XH.I.*X .; ..wX+.3 G 1XK.Y a OX0X! u #.R.X.: ",
"|.R t +.,X! t Y K.B.i : b.A.Q i }.$XK p e.H.~.+.l.y.~ t x c c c y v ! J.v.J R .X%XF.&X*XN.} 1 ..yX..1 J >X:XR a OX0X! u #.gX#.: ",
"N.Y r r.gXT r Y A.B.i : b.A.T i F.$XR m +.4X[.' o.z.Q.R x c c y y y T K.n.R ( }.$X*X5X|.] q 1 | wX+., H ,XK.R u OXeX! u #.lX#.: ",
"N.T y y.L.! r W K.b.: G A.D.T Y F.F.E y U &X4X5X5XI.*X0.q x 3 y a W R m.M.G / |.*X*XOX} q c 5 } wX+.5 H L.:XR u OXtX] 7 #.lXl.u ",
"N.T r #.0X! r Q L.v.i H A.D.T Q C.H.E y J ~.8X4X6XY.9X{.u.7.>.( l.y.G k.N.G H {.>X%X} p c k 5 ..R.y.1 H >X:XY u OXtX] u #.lX#.u ",
"A.E r #.T.! r W L.h.i H Z.S.T T Z.v.E y y I ~.*X4XY.6X9XtX9X>X5X5XO.i {.A.H 9 {.OX( q c p c q +.R.x.7 G >XK.R u |.qX} i o.lXl.u ",
"b.T u #.wX! r ( T.h.: T D.A.T 9 L K u c y q R ( +.O.#.x.%XI.I.M.O.G Q T.J.T G OX^.e k c 5 c q #.R.v.7 G >XK.T u B.qX{ u o.lXl.u ",
"Z.T q l.T.! u ! T.h.i ! D.D.Q ! o.G 1 y y y c y p u M R >.} } E q r ] R.R.! G V.t.u v y 5 c 5 +.T.#.7 H *XJ.T 9 |.qX{ u @.lXx.9 ",
"Z.H e l.wX! y ] T.h.: ! P.A.Y { U.o.q c r 5 y y t y t c m l p m m y ~ :XU.! T c.O.y y 5 5 k 5 ! l.~ 5 U U.K.E 9 m.qX] u o.lXx.u ",
"G.T 7 l.R.! r ] T.h.: { P.A.a R b.I.[ q 5 t y c p y y c n k c c 5 y e | +.G 9 X.U t x 5 3 3 2 7 u a E {.Y.G.J 9 n.qX[ 9 o.lXx.u ",
"G.Y 9 x.T.! r { T.#.u { P.V.i y ~ Z.6X~.e.0.q.0.y.y.<.-.=.-.-.-.-.-.-.E K E I X._ e =.R J J e e K O.%XY.Y.#.7 9 [.kX..i O.jXx.i ",
"V.E e l.wX! p | T.h.u | R.N.i t p @.5XzXxXxXcXcXtXiXiXuXuXuXuX;X;X2X;X-X=X=X=X;X*X-X-X-XuXXXXXuX*XtXY.Y.{.T t e N.qX[ i O.lXv.i ",
"V.T e x.qX! r ] T.#.u ..Y.D.Q p B E ..#.!.^.~.|.).( (.iX7X;X*X;X*X;X;X;X*X*X%X*X*X%X*X*X&X*X&X&XH.F.z.#.E r 5 9 N.kX..e [ jXx.i ",
"|.H e `.qX! y { T.#.u ..U.R.l.a p a p m a e a =.R 5 =.7.7.<.2.,.>.>.>.>.,.~ >.,.~ <./ ! ! U / ! / K a R R 5 5 9 N.lX..e [ jXj.i ",
"OXY 7 x.qX! t ] T.+.u ..U.hX9X0.p y p p e p u q 5 y y q k l p 5 r p p p m q a a m p M a M m a a p e -.y.^.J 4 9 N.kX[ 7 X.jXj.u ",
"oXR 9 c.wXP 5 ! 9Xl.r | fXR.jXoX=.a 1.r.y.!.l.y.r.+.r.+.r.#.y.t.y._._._.y.l.!._.`._.^.`.].`.^.`.`.oXOXJ.G.( , 9 N.kX[ : x.Y.o.7 ",
"oXa e ^.yXL 5 ( K.V.Y i | `.gX#.a >.`.;X2X*X9X>X9X3XrX3XrX3X3X2X1X<X<X>X:X1X2X2X<X>X:X2X>X>X>X3X3X>X>XG.h.R 3 J G.kXO.P Z.Z.L < ",
"m.a 9 B.yXQ r K m.wXy.u t | fX^ e =.8.....0...O.O.O.+...+.....[ ] ! } ! ! U / / ! ~ U ! ~ ! } ] } ] ] I 9 t M (.lXJ.| X.v.! : Q ",
"B.9 e m.rXQ 5 q O.9X<X8.u i W a m q e q q 5 q 5 5 5 q 7 7 p 1 0 6 < > < 4 5 4 2 5 5 3 2 2 3 2 2 , 2 , 3 t E '.6XI.@.E H F w 0.OX",
"`.q 9 m.rXE 5 q G oXyX+X| a a =.M e ,.-.a p m p q m l p p m e  .t. .}  .e.r.9.7.7.0.r.9.7.7.7.7.8.8.9.7.y.<X6XI.k.R a e 7.).%XU.",
"#.9 e +XrXE y 5 5 ~ V.wX1X(.(.].).(.@X@X@X].'.'.u.r.u.'.r.J <.2X9XtXtXtXtXtXyXyXyXtXyXtXtXtXtXtXtXtXtX8X6XkX7Xk.R p K ).dXtXH.>X",
"#.8 a OXeXL y e <.G I ^.>X,X3X3X3XrXeXwXeXeXtXtXtXtXyXqX<X~ ] &X5X9X*X5X5X>X>X>X2X>X*X:X<X:X%X>X*X9X5XU.Y.4XQ.M m ,.XXcXtXH.F.k.",
"+.8 a m.qX~ k ,.+Xt.e J ( 8.0.}  . .e.e.@.@.@.@.#.@.@.k.O.R T k.@. .` ` } } } ! ~ <.I / / ~ / ( ] ] |  .z.g./ p 1.-X7XF.M.g.O.G ",
"#.e e B.xX} 5 0.K.>X!.J q k l 5 0 q q e w q w e w q 0 q 0 5 7 U H q w e e e 9 1 , 5 5 5 5 q 5 5 5 q 4 0 F ) }  .{.C.f.) ) ) 8 > ",
"r.8 q !.xXt.1 G @.%X>X^.~ e l q q l m l q q q q l 5 5 5 5 5 5 e 0 < 4 1 5 0 4 3 3 y 5 y r r p y 5 c l k k 4 w J L F 8 q 0 4 3 5 ",
"+.w 1 } rX#XJ 2 w } {.2XXX(.e.9.5.e.e.` 9.` ` } 7.7.*.<.7.7.7.} 5.9.9.9.9.7.7.7.<.7.q.q.9.q.0.q.9.q.7.7.<.2.-.>.I >./ <.>.>.>.} ",
"+.w 5 J OXtXu.1 > 5 I ~.eXeX7X7X5X4X5X7X7X7X7X7X7X5X7X7X7X7X7X7XpX7XpX7X7XpXpXpXpXpXpX7XaXpXaXpXsXpXpXiX;X;X-X<X2X2X2X2X2XuX2X2X",
"l.9 4 5 5.2XiX7.< > 4 J e..X|.{.{.{.{.[.|.%X%X|.%X%X<X%X%X%X%X%X%X=X=X*X%X=X*X*X*X;X*X*X=X=X;X;X7X7X5X5X8X5X9X5XeXtXeXeXtXqXeXwX",
"|.6.w 4 6 y.eXXX<.2 3 5 q J >.E R R J E E E K E E E H I H K G T ! ~ H H K H I E H I <.! ~ ~ K U 9.e.6.6.e.e.O.e.t.e.O.r.+.y.#.y.",
"c.:X` 0 > J .X7X-XU < 3 5 5 p y p p r p p u r y y t t r y 5 5 < :.a , 3 5 p r 5 r p p p q 5 y 5 w J e q 7 6 e 0 q e q p q a e q ",
"~ +X#X_ 6 4 U XX5X<X7.0 4 3 1 5 t 3 5 3 , t 3 1 1 < 1 3 < , < 2 1 7 < < < 5 7 5 1 p 5 p p q 5 5 5 1 5 4 q q 0 l 4 4 0 l q 5 0 q ",
"< U <X^.I > 0 6.*X5X>X).9.7.7.3.>.<.>.*.<.<.8.q.1.7.7.<.7.<.7.<.7.q.q.7.7.7.9.9.9.q.7.9.q.<.<.>.<.7.7.5.5.5.e.5.e.e.e.e.e.q.q.5.",
"F > 0.OX!.e > z t.N.%X>X2XiX;X=X=X=X=X=X=X=X=X=X=X;X;X;X;X=X;X;X-X2XsX;X<X;X2X;X;X-X=X;X2X;X;X;X5X7X7X7X7X7X7X7XpXaXaXaXaXaXaXaX",
"Q.F > O.<Xe.0 2 l K ~ u./.(.Q.t.t.Q.t.Q././././.Q.Q././.t./.t.t.t.u.t.r.e.t.r.y.y.y.t.t.!.Q.!.Q.z.~.[.{.{.~.~.{..X^..X^.^.^. X^.",
"m.Q.8 < Q.OX7.> 2 2 2 t e q l k 0 k l l p e q m m l p l 5 m m m k p m q y c q 5 p m m p p p p M p p M =.=.M M R M M M z z e $.$."
};
