/* XPM */
static char *be035243b3b44e66d0fc995593101ee066WC1B6a4MyNCMna[] = {
/* columns rows colors chars-per-pixel */
"64 64 239 2 ",
"   c #0A050B",
".  c #0E080F",
"X  c #110A0A",
"o  c #0F0712",
"O  c #0E0810",
"+  c #130615",
"@  c #140916",
"#  c #1B0C14",
"$  c #18071C",
"%  c #16091A",
"&  c #1B0B1D",
"*  c #260E1B",
"=  c #230D1C",
"-  c #281517",
";  c #2B131A",
":  c #341A1B",
">  c #3A211B",
",  c #1E0C22",
"<  c #1E1021",
"1  c #220D25",
"2  c #250D2A",
"3  c #290E2D",
"4  c #231125",
"5  c #2B1124",
"6  c #261329",
"7  c #2A122D",
"8  c #321523",
"9  c #341923",
"0  c #3A1C23",
"q  c #33142C",
"w  c #3A162D",
"e  c #361B2C",
"r  c #3C1B2C",
"t  c #2D0F32",
"y  c #310E34",
"u  c #340E3A",
"i  c #2D1232",
"p  c #2E1932",
"a  c #2E1338",
"s  c #321335",
"d  c #391634",
"f  c #321935",
"g  c #3C1B33",
"h  c #35133B",
"j  c #3A153D",
"k  c #351A3A",
"l  c #3B1A3D",
"z  c #3C2121",
"x  c #3C2037",
"c  c #46281B",
"v  c #562B1D",
"b  c #62371E",
"n  c #421D23",
"m  c #421C2C",
"M  c #421C34",
"N  c #491D34",
"B  c #42173C",
"V  c #431B3C",
"C  c #4B1E3B",
"Z  c #521F35",
"A  c #462527",
"S  c #4D222D",
"D  c #4B2C2C",
"F  c #572A27",
"G  c #542D2C",
"H  c #5A3628",
"J  c #462232",
"K  c #4C2334",
"L  c #4B233B",
"P  c #4B2639",
"I  c #562B35",
"U  c #5C2B35",
"Y  c #542338",
"T  c #52253B",
"R  c #522B3C",
"E  c #5B2C3C",
"W  c #5A3435",
"Q  c #5F3B36",
"!  c #5D323B",
"~  c #6E3726",
"^  c #64392A",
"/  c #612C3A",
"(  c #633935",
")  c #663538",
"_  c #753838",
"`  c #6E441E",
"'  c #7D471D",
"]  c #6D452D",
"[  c #77472A",
"{  c #79592D",
"}  c #6E4537",
"|  c #774836",
" . c #7C5338",
".. c #3C0F40",
"X. c #381442",
"o. c #3D1543",
"O. c #3D1A43",
"+. c #421645",
"@. c #421A45",
"#. c #491C44",
"$. c #44164B",
"%. c #49164E",
"&. c #451A4B",
"*. c #4A1C4D",
"=. c #511D48",
"-. c #4B1653",
";. c #471A50",
":. c #4C1C53",
">. c #4E165A",
",. c #4E1B59",
"<. c #511D55",
"1. c #52175B",
"2. c #541D5B",
"3. c #591E5D",
"4. c #472043",
"5. c #4C2344",
"6. c #45214C",
"7. c #4B214C",
"8. c #5B2543",
"9. c #532A42",
"0. c #5C2B44",
"q. c #54234B",
"w. c #552749",
"e. c #5B244D",
"r. c #5B2C4B",
"t. c #593140",
"y. c #4D2153",
"u. c #4F2158",
"i. c #532155",
"p. c #5B2454",
"a. c #5D2A54",
"s. c #54225B",
"d. c #5A235D",
"f. c #642948",
"g. c #642A4C",
"h. c #643344",
"j. c #683747",
"k. c #6A334C",
"l. c #763948",
"z. c #652957",
"x. c #63295B",
"c. c #653152",
"v. c #6D3452",
"b. c #773857",
"n. c #561B61",
"m. c #5A1E63",
"M. c #5E1D68",
"N. c #641E6B",
"B. c #691D77",
"V. c #552260",
"C. c #5C2263",
"Z. c #5F2864",
"A. c #5F2269",
"S. c #612365",
"D. c #642966",
"F. c #63246C",
"G. c #6B2769",
"H. c #65296C",
"J. c #762C6C",
"K. c #6B3064",
"L. c #7A3B68",
"P. c #662470",
"I. c #6B2574",
"U. c #662870",
"Y. c #6C2974",
"T. c #6E2579",
"R. c #6E2979",
"E. c #752A75",
"W. c #71267A",
"Q. c #732A7C",
"!. c #773279",
"~. c #684241",
"^. c #784945",
"/. c #7A426A",
"(. c #8A3F3C",
"). c #8F4E2D",
"_. c #875829",
"`. c #864B37",
"'. c #875737",
"]. c #9A5C3C",
"[. c #996E32",
"{. c #96663A",
"}. c #A66839",
"|. c #B67331",
" X c #843D55",
".X c #862E7D",
"XX c #863C7A",
"oX c #864647",
"OX c #875448",
"+X c #955A46",
"@X c #93514F",
"#X c #884A58",
"$X c #9E5D58",
"%X c #9B6747",
"&X c #99714D",
"*X c #A77445",
"=X c #B07550",
"-X c #8F4B6B",
";X c #A75472",
":X c #C27453",
">X c #C27C73",
",X c #B1833B",
"<X c #CF963B",
"1X c #E79F33",
"2X c #B6894F",
"3X c #B78256",
"4X c #C7904F",
"5X c #D6A44E",
"6X c #E5AA49",
"7X c #E8BC51",
"8X c #CE8F61",
"9X c #F2CA61",
"0X c #782684",
"qX c #752B81",
"wX c #7A2B84",
"eX c #7E2C89",
"rX c #7B3085",
"tX c #822D8D",
"yX c #833389",
"uX c #933B8D",
"iX c #842C91",
"pX c #8A2D96",
"aX c #863192",
"sX c #8A3295",
"dX c #8D329B",
"fX c #913699",
"gX c #982EA3",
"hX c #9534A4",
"jX c #9A36A7",
"kX c #A739AF",
"lX c #914E88",
"zX c #9C4E97",
"xX c #9C5794",
"cX c #A35499",
"vX c #AE6C88",
"bX c #B153A5",
"nX c #C2778C",
"mX c #C46FA8",
"MX c #CC8D8C",
/* pixels */
"+.Q.m.dXW.qX0Xs.u.m.kXeXR.mXh q N o.-.*.O.p *.@.+.A.&.O.h +.@.O.*.l y.7 :.O.&.l :.*.*.O.o.h j p 5.C.;XbXA.iXm.F.Z.tXyX.XE.I.tXj ",
"s $.s X.s j j j O.h :.;.$.$.y o.h o.$.+.:.j s.,.A.M.,.j X.<.2.h O.j -.2 +.j wXtXqXQ.XXD.,.s.$.3 #.+.:.2.j j o.j o.t 7 o.o.o.$., ",
";.A.,.R.A.u.y.-.s.,.:.:.:.V.X.F.F.o.2.:.*.s F.C.wXgX-.A.F.zX!.+.&.@.y.6 O.O.F.Q.I.H.vXwX2.d.$.V f.i.s.s.+.s.s &.yXyXU.m.j >.m.1 ",
"o.$.o.,.+.*.s.+.&.*.@.+.+.:.t %.&.o.A.A.A.2.s.2.+.o.s O.7.bXH.3 O.h O.1 i s U.U.T.T.I.2.X.j s h <.&.*.:.j %.-.2.A.F.2.*.s o.-.1 ",
"+ , *.F.&.m.M.-.Q.2.;.:.6 h -.P.M.+.eXwXiXtXF.F.;.Y.:.C.C.A.eX*.Y.j tX1.qXm.wXQ.Q.Q.C.,.:.O.h $.F.-.*.*.h O.A.qX2.0Xm.I.F.j , o ",
"1 ..2.sXF.wXtXn.pXF.wXsX& p n.wXQ.o.F.F.qXQ.C.Z.,.sXd.V.s.Y.fXs.yX2.sXA.qXm.W.Y.I.U.s.@.O.7 i ,.F.n.O.O.h &.0XpXI.jXY.iXpX$.4 . ",
"t 1.+.2.j $.$.+.:.X.-.2.i h h 2.$.j $.$.i i :.,.X.-.$.o.s h o.d 9.i :.h @ & -.h *.O.:.h i 1 1 o.N.$.h X.j +.$.*.j *.j -.-.j 8.# ",
"2.aXC.C.O.s.:.m.Q.%.A.!.A.F.$.mXcXj f *.6 7 k f ,.s.2.s.u.s.*.c.8X@.s.@.&.h f 6 O.f p p F.F.-.d.MXB.p +.C.V.s.s.+.k p lXvX,.nXs ",
"-.0XqXqXI.Q.R.Q.wXY.R.wXqXwXI.pX0Xt 7 h 1 1 7 7 j @.o.@.O.;.*.s l s -.h O.i p 4 s p 6 7 :.l $.F.uXwXH.H.Q.Q.R.R.H.D.C.Q.rXI.yXs ",
"-.W.tXgXiXpXdXdXdXdXdXdXdXaXpXpXN.j y.,.:.O.s.zX-.v.v.s.:.l l Q =XX.y.h @.l 6.l u.@.F.u.,.:.*.I.sXaXsXY.eXwXiXiXeXdXdXaXsXsXeXt ",
"%.P.:.u.:.P.U.F.F.H.F.F.H.Z.A.C.2.j k h s 6 s @.h K K O.h 6 6 D  .2 f 4 p 6 l 7 O.f %.j s j o.m.F.F.W.2.Q.R.R.T.2.2.U.Q.wXQ.F.3 ",
"5 q 2 $.i $.o.t h i o.o.t u 3 +.h X.:.*.+.O.eXtXn.@.O.Z.s.*.O.&.A.d.2.O.O.p O.7 &.@.s.-.:.&.-.3 o.s j 3 o.o.O.+.i i i s h q I # ",
"r S 1 s.O.6.f &.s.h &.*.h $.t A.s.o.*.@.O.h Y.Q.:.p 7 s.u.O.f O.@.:.D.O.s 7 k 6 l s s.-.*.*.*.4 k X.,.s k f o.-.s *.@.@.B 5 f.= ",
"& # 7 j 3 2 1 2 7 1 7 1 2 s & 1 1 1 7 i 2 1 , , 3 s i s i i 3 2 & % 3 7 I 1 2 , , & t 3 t s 3 % 2 2 3 1 3 3 3 s 1 3 3 i s 2 1 + ",
"g M 8.b.%.l s k O.h O.O.s.Z.i f s X.6 6 6 6 4 4 o.F.-.1.>.:.M.,., 7 6 w.:X*.f 4 7 4 F.W.W.T.,.& p *.m.$.&.&.+.s.@.y.s.@.y.-.yXh ",
"d r B G.@.j s h j 1 h h s X.1 , & , , , % & & & % % % % % @ + + h h i , s , , & & & & $ $ $ % % s t $.o.X.j 1 s , *.:.-.-.1 1 @ ",
"w S i l i u.,.X.O.s s.:.o.:.2 p O.j < % *.O.@.m.X.s.+.6 4 F.u.,.6 f 6 & h ,.s i +.h X.1 F.wX1.2 s j *.-.&.*.h *.j y.&.<.:.j $., ",
"7 s 1 s 1 s s t l 7 O.O.7 j & & , h & @ O.6 @.I.X.b.:.p 6 F.s j i i 4 # s O.s i O.6 a @ m.Q.+.& & 3 %.o.l l 3 j h *.X.j @.1 s $ ",
"@.G.2.H.2.s.s.<.Z.x.b.z.2.H.j y.*.X.7 < @.p &.I.o.vX2.lX*.P.2 C.:.j M 6 k O.bXE.O.7 &.p &.8X<.7 y.*.2.1.,.s.s.V.C.A.V.:.s.:.U.i ",
"s +.-.s.:.d.d.p.x.v.$Xl.h j 1 7 6 X.6 , O.p o.2.u nXs.lX@.P.t 2.*.h p 1 h O.aXF.O.6 &.7 O.b.*.% 6 3 -.-.h @.&.,.%.2.*.*.:.+.X.& ",
"m F o.<.@.@.5.j @.#.<.&.*.<.s 6.s.j  .6 l 7 s 5.X.s.O.j i F.s +., 1 <.o.j o.l.! O.6 O.6 -.4Xj.i @.o.f.e.@.O.+.@.*.@.O.j w.C l.; ",
"r S y d.B w.c.w.z.p.x.y.*.u.& 7 +.j l 7 6.f l 9.+.d.:.<.+.W.h y.4 7 qXs.$.-.;X#XO.p O.7 ;.<Xf.h l $.oXoXk p j k h f s OX+XI F # ",
"7 s #.C @.w.a.@.#.#.#.@.#.=.q O.O.h p 4 6.s j <.O.&.j s 3 W.s O., 1 ,.j 3 3 d d O.7 O.7 *.@X*., i s ,.-.o.*.*.=.&.O.O.w.h.@.C # ",
"B E h.2X] OX#Xr.xXb.2X+Xf.+X9 i.X.h f 7 l 4 C.sX*.*.O.7 % F.s C.< s MX$XK.j 6 i O.p O.p &.7Xp.s <.,.p h :.s.#X>X<.l k +X6XY i., ",
"d q e.b.8.6.6.j +.#.oX0.g. XC -.& i 4 & y.k @.C.s s i p & 2.s X.& j vXL.S.j i 7 7 , p 6 X.{.#.h 3.&.*.+.h +.x.J.-.@.+.0.l.q 7 o ",
"g S W +Xr f h +.C.+.6 6 p k s d.<.s 7 4 xXyX,.j i :.O.=XQ j 2.:.6 i O.:.@.+.>X<.:.O.:.O.%.3Xq.i &.-.s.r.4 6 O.f l *.@.@.g h xXt ",
"q 8 E }.w i 1 7 s.l f f 7 k h #X9.i 6 & !.A.@.4 & @.l e 1 h ,.j 1 4 ;.,.h j ! 4 O.7 O.p @.6Xg.3 $.-.&.@.3 j 7 s h $.X.s s s J.2 ",
"o.2.$.@.h A A #./.1.:.@.h :.i +.+.1 h 3 s s 7 s i X.2 s 7 g q 1 t 1 3 1 1 , w 9 s i 3 i i #.j s .XC.d.-.y 2.+.d.o.:.*.O.*.#.MXh ",
"s.bX&.7.h %X&Xg.vXM.Y.Z.@.s.O.6.,.X.!.2.6.l h l :.R l B :.$Xl.:.R.%.z.*.@.j -X| !.F.@.6.*.g.-.o.wXR.R.F.C.F.A.F.A.H.F.A.F.F.!.s ",
"s o.3 o.t oX@Xe.2.-.n.,.h :.i j o.s A.$.*.O.+.*.+.&.i o.@. Xv.o.m.$.*.j ,.$.S.B F.M.-.,.-.m.-.,.aXaXeXtXeXwXsXsXsXtXtXsXaXaXY.s ",
"s u.h s.o.O.k %.y.O.j j O.6.h H.A.$.V.,.E ( :.i.2.y.s ~.[ }.^.s f O.l s F.<.) r 2.,.%.7.*.*.+.-.wXwXF.Q.R.A.Q.qXqXQ.U.wXwXQ.F.i ",
"s O.h s.+.@.l ,.u.*.p.*.+.7.j Y.Z.&.*.O.s j s j j h 3 } H `.( 4 6 h p 6 :.@.oX9 *.+.j s h h X.2 o.o.o.o.$.O.2 h 7 o.o.o.o.o.o.1 ",
"%.wXo.s.O.d.2.-.u.*.C.2.*.2.@.uXE.-.<.2.#.*.<.F.2.s.&.a.w.&X%X@.K.q.K.&.C.+.h.G ,.+.2.:.-.&.o.t +.i 6 d F.s.h l 7 @.1 , 4 #.nXt ",
"j m.h s.@.C.S.&.O.l s.:.@.D.o.E.S.$.C.2.(.l.-.Z.2.s.+.oX0.3X4X5.5X'.7X5.+.h =X,XF.F.<.u.%.C.$.h d.s 6 s -.@.i 7 1 1 & , & h C.1 ",
"n.hXhXhXhXjXhXhXjXjXhXhXdXhXhXfXwX$.2.-.g.g.o.-.$.-.s = ; 9.l 3 d 7 V 3 o.h r.T -.2.X.-.o.j o.j 2.+.,.-.o.*.-.V.,.s.u.C.2.2.<.1 ",
"$.I.P.eX0XtXtXeXeXtXtXwXwXeXwXwXP.@._ g.K 8.#.U :.l.l 2X} r.g v.:Xv.q.d o.o._ Z @Xz.,.O.*.-.o.j x 2.@.@.O.k $.,.$.s.D.cXS.2.i.1 ",
"o.m.2.m.2.F.F.A.A.F.F.A.2.A.2.2.*.s j @.q.q.l #.O.E e *X) @.s d.XXp.e.w $.o.`.U <.<.o.s j +.u s @.$.f h i 7 3 7 , h i s j y h % ",
"i X.h h h s s s s s s s s s j X.h l './ c c w.&.L.S.h ) L {.{.i s 3 #Xl.! o.E 0 $.V 0.E &.^.w.j y.n.*.:.O.O.*.y.O.i.J L f.d 2.& ",
"d S s C.% k.l +.F.O.7 7 7 4., s s L 3XoX'.[ @.@.$Xc.h | E %X%Xi s i 8X+X^ j H H :.u.O.f @.*Xh.j y.1.O.@.O.l *.y.h 7 1 7 d 3 t O ",
"@.<.X.-.i @.h h -.s O.O.s j 1 h s 3 y s # & & 1 h X.2 r 5 7 1 2 h i 7 i 1 1 y 2 h j 1 s i j s 3 &.i O.X.j -.s j 7 s.o.*.:.s &.& ",
"h l @.i.@.S.:.&.,.j O.&.5 J : 6 6 $.=.-.j $.y.u.<.2.&.) g y.y.j s.:.y.,.$.j L 7 +.+.*.<.$.q s 5 m l s.<.d.W.O.f j Y.:.s.s.j <.$ ",
"h *.+.*.+.+.O.O.o.s h j s g 1 4 1 o.*.-.-.2.2.2.-.F.&.l.T 7 7 1 h 3 6 6 +.o.+.j *.-.$.-.*.&.+.* r s -.-.-.1.O.o.h X.s X.O.o.-., ",
"h :.o.s.s s.:.2.s.h d.s.d M 3 h.5.*.Y.A.*.j <.-.F.3.j ] H 4 & s l s :.j +.h s 1 i.K.:.s.s.s.:.n U w 6.&.&.7.@.*.j y.@.*.i.+.W.i ",
"h :.o.<.j ,.*.-.<.h s.2.l C q :.%.*.F.m.,.*.m.+.*.2.j [.{ 7 j o.@.o.s.:.$.h *.o.A.F.,.V.V.s.:.d p.h *.*.$.*.*.,.$.:.*.*.,.j F.2 ",
"9 c O.u.@.d.-.h J 4 h h 0.j.G R.I.1.K.2.0 D d 0 i f , ; ; 7 h O.@.l 4 1 o.j L g :.@.d.x.o.I M g E K T #.<.:.V D R A.%.-.s.s C # ",
"* : s @.i j j +.q.d @.@.L / A m.1.h @.i 5 9 s s h p , : = % , i s 7 % @ j h *.B *.O.*.:.j ] q M ) C 7 7 j O.s q 7 &.j o.o.7 ) - ",
"w F *.k.s s.&.@.k.s &.o.V Y w W.P.%.F.C.l.) :.:.s m 5 l f 7 1 s.zX*.s 3 v.V S 1 O.s +.h h } R q N *.A.C.h h @.r.*.,.&.-.2.j m # ",
"q n $.@.3 *.j +.@.s O.j 3 * # C.C.$.2.2.E I o.O.7 / r 7 4 2.Z.o.,.j } A +XP q & 7 6 s 6 7 _.K = * y h $.t 3 j 0.@.*.+.-.-.h +.& ",
": c j &.O.g.=.<.A.o.:.,.9 0 4 s.2.-.Y.N.XXL.,.@.@.s 1 k 6 $.i.g f / <X .}.T N 8 F.F.F.Y.C.F.-.A F C @.$.*.&.=.l.#.@.O.2.&.j n # ",
"c b h l 7 q.B +.2.j O.o.0 U 1 H.A.-.wXF.-X#X*.j 7 * + & @ o.<.I g g %XW +XC * # U.I.F.wXA.qX-.V z.@.j o.*.@.V U d d s o.j j [ : ",
": c j :.j C.d.@.p.@.x.i.j 4.q F.C.+.) j.m S t.`.A A : d.d.<.,.= q 5 H z b.O.z ; } ].%.-.$.+Xr.@.x.<.S.2.e.8.,.s.-.M.<.2.s.@.> # ",
"c ` h *.s D.s.@. X*.Z.i.V h.g Z.V.@.%X| '.[.] 5X^ ).H i.<.-.%.g %XB 2X .b.@.^ c +X*X&.s.+.,Xj.7.J.i.S.<.k._ &.i.+.A.<.-.<.+.=.1 ",
"= ; l h B L C V l j i i 1 5 % j h j K E D ^ W G C G.V R R M g 8 _ g Q A c.l > : B h o.R 5.R B O.@.M d d M g J r M q 7 V M 8 - X ",
"A ` | 1XH 1X[.| *X9 7 7 5 9 # V.s.L |.}.| {.G 3X^.s.O.f s 9.L s &.4 5.d g.V G r 9.f i 7X'.9X| u.y.j.e g | |.[ |.( A : ].|.G _.> ",
"v ' ) '.T ) I 9.9.s i i i h 1 i 7 j / 9.0.k.d 3 j F.j i s q e , 6 & & @ t 5 ^ : :.&.X.V @.B o., 7 V s h 9.j.! ) L g w h.) E ) - ",
"v ' W <XA ).v 4.l l D.Z.#.r.5 7.7.V | ! ^ H h.E n.Y.*.s.d.j.I s f 7 7 4 %.+.: ; P.!.2.F.2.d.2.h u.<.&Xj.{._.&.u.&.7.l W ^ J [ - ",
"F _.K _.0 `.( l k h s.3.@.h.7 @.@.l OX( ^.^.5.5.-.2.o.&.%.R ! s p 7 7 2 %.o.* # C.C.-.C.&.2.-.h @.#.[ K ( H o.@.o.O.j Y ) w ~ : ",
"F ' e m 5 O O j d.j T.j B C 3 O.l l S } F ^ T w i.S.-.C.2.l ^ $.F.$.jXS.-.+.N P <.C.-.s.<.m.$.i @.9.A ) +XN @.d o.& , s = s V # ",
"F [ w =Xx     o.d.j 2.&.j B 2 y.*.d [ ] ] [ G H 7.m.$.F.C.&.^ o.F.o.Y.:.$.+.2.3.-.s.&.s.*.d.o.i *.#.G | 4X~ #.=.s % % 8.`.C j % ",
"0 ; 7 h 7 O.s 1 & t 7.@.D [.: ; * j C | q q B B -.$.X.s.d.$.2.2.F.+.~.~.i.+.V q :.&.*.,.*.o.u + , 3 s h j j 1 & 1 h y m W M E 4 ",
"g 8 @.y.O.<.+.$   s H.<.^.6X> C B l `.'.| 4X5.7.-.:.X.s.d.%.-.2.R.o.2X4Xi.+.+X'.s.&.&.,.@.^.j 1 u X.+.o.:.,.1   1 u.-.].<X0.a.7 ",
"1 y s +.i $.o.1 s $.1.o.*.x.s X.j j V C C M o.h -.2.j &.&.t $.2.F.+.s s %.2 L g o.j *.O.o.*.o.2 t s o.o.o.O.j h s i 3 o.*.j 1 . ",
"y d s *.j 2.-.o.y.*.m.2.s.Q.s K M $.xXxX!.& p 4 :.C.o.d.*.3 -.2.R.O.4 < o.7 4.g j +.o.4 S.tX2.h $.$.&.@.y.u.:.*.@.7 6 m.A.i.O O ",
"u %.u Q.W.1.0Xo.o.o.m.,.o.2.%.-.-.$.N.N.M.t j h $.-.j 1 + 3 +.$.1.h X.j o.j -.o.<.3.$.j 1.B.1.j -.-.*.A.C.Q.T.A.$.o.o.-.-.o.1 2 "
};
