/* XPM */
static char *diseno[] = {
/* columns rows colors chars-per-pixel */
"64 64 252 2 ",
"   c #110F12",
".  c #131414",
"X  c #171718",
"o  c #1C1D1C",
"O  c #18350E",
"+  c #162713",
"@  c #192315",
"#  c #1B2C15",
"$  c #1D231B",
"%  c #1D2B1A",
"&  c #1C3414",
"*  c #1C3B13",
"=  c #1B3815",
"-  c #1E3318",
";  c #202F17",
":  c #21251D",
">  c #222C1C",
",  c #213B16",
"<  c #23341C",
"1  c #25391A",
"2  c #253B1B",
"3  c #1E1622",
"4  c #1F1A24",
"5  c #221526",
"6  c #231B25",
"7  c #25152A",
"8  c #29162E",
"9  c #261B2A",
"0  c #291B2C",
"q  c #2C1632",
"w  c #2D1B33",
"e  c #2F1738",
"r  c #311B36",
"t  c #34173B",
"y  c #351C3B",
"u  c #391C3E",
"i  c #1F2220",
"p  c #242323",
"a  c #252C22",
"s  c #292C26",
"d  c #272228",
"f  c #2B242C",
"g  c #2C2C2B",
"h  c #302C2E",
"j  c #263222",
"k  c #2A3425",
"l  c #263A21",
"z  c #2B3C24",
"x  c #2C332A",
"c  c #2E3A29",
"v  c #303C26",
"b  c #31342D",
"n  c #323C2C",
"m  c #2E2332",
"M  c #322335",
"N  c #342C34",
"B  c #392C35",
"V  c #35223B",
"C  c #39233E",
"Z  c #362A39",
"A  c #3A2B3D",
"S  c #353334",
"D  c #393536",
"F  c #353B32",
"G  c #393D34",
"H  c #373538",
"J  c #3B333B",
"K  c #3D3C3C",
"L  c #403C3D",
"P  c #1D460E",
"I  c #1D4313",
"U  c #1E4B13",
"Y  c #1E5210",
"T  c #21480C",
"R  c #22540E",
"E  c #215E0A",
"W  c #224415",
"Q  c #234C15",
"!  c #284E14",
"~  c #25431B",
"^  c #29441D",
"/  c #254C1A",
"(  c #2A4B1D",
")  c #235314",
"_  c #295416",
"`  c #255C14",
"'  c #295B15",
"]  c #265319",
"[  c #2B531C",
"{  c #265B19",
"}  c #2C5B1B",
"|  c #30571D",
" . c #25650E",
".. c #2C780D",
"X. c #337B0D",
"o. c #266214",
"O. c #2B6414",
"+. c #266815",
"@. c #2B6B15",
"#. c #2C631B",
"$. c #2D6C1B",
"%. c #32641C",
"&. c #336C18",
"*. c #336A1C",
"=. c #277314",
"-. c #2C7414",
";. c #2C7B12",
":. c #2D731A",
">. c #2E7B19",
",. c #327C14",
"<. c #357518",
"1. c #32731C",
"2. c #337C1A",
"3. c #3B7E1B",
"4. c #284621",
"5. c #2C4423",
"6. c #2D4B23",
"7. c #2D432A",
"8. c #304426",
"9. c #314C25",
"0. c #32432B",
"q. c #39452F",
"w. c #354B2B",
"e. c #394D2E",
"r. c #2D5321",
"t. c #2E5B21",
"y. c #325324",
"u. c #335B24",
"i. c #345329",
"p. c #39532D",
"a. c #365B2A",
"s. c #3B5B2C",
"d. c #3A4334",
"f. c #384834",
"g. c #3B4C34",
"h. c #3D433A",
"j. c #3C5332",
"k. c #3A5234",
"l. c #3D5B32",
"z. c #2E6220",
"x. c #2F6C22",
"c. c #346322",
"v. c #346C23",
"b. c #396926",
"n. c #3C632B",
"m. c #3C6A2A",
"M. c #357424",
"N. c #3B7222",
"B. c #357A22",
"V. c #3B7C25",
"C. c #3D752B",
"Z. c #3C7B2B",
"A. c #3E6533",
"S. c #41423C",
"D. c #424C3B",
"F. c #464E3B",
"G. c #44533B",
"H. c #455A39",
"J. c #40682D",
"K. c #41752B",
"L. c #456637",
"P. c #427733",
"I. c #50793C",
"U. c #361A41",
"Y. c #3B1D43",
"T. c #3E1D49",
"R. c #3C2243",
"E. c #3D2B42",
"W. c #3F2449",
"Q. c #3F3442",
"!. c #421D48",
"~. c #421E4B",
"^. c #461E51",
"/. c #4A1E54",
"(. c #4E1E59",
"). c #511F5D",
"_. c #412346",
"`. c #422B45",
"'. c #43234B",
"]. c #48274E",
"[. c #452B4A",
"{. c #423444",
"}. c #423B43",
"|. c #443449",
" X c #48354C",
".X c #4B3C4C",
"XX c #4B2354",
"oX c #4A2655",
"OX c #4C2B54",
"+X c #4D225A",
"@X c #512857",
"#X c #52235D",
"$X c #522B5B",
"%X c #4C3452",
"&X c #543758",
"*X c #5D1F6C",
"=X c #611E6F",
"-X c #552361",
";X c #592465",
":X c #5A2963",
">X c #5C236A",
",X c #5C2B68",
"<X c #5C3166",
"1X c #61296C",
"2X c #642372",
"3X c #682579",
"4X c #454343",
"5X c #454C41",
"6X c #494B44",
"7X c #4B4847",
"8X c #4B434B",
"9X c #4B5245",
"0X c #534E51",
"qX c #4F6343",
"wX c #2C870E",
"eX c #31880E",
"rX c #2D950E",
"tX c #319A0D",
"yX c #2C8311",
"uX c #2D8B12",
"iX c #2E8219",
"pX c #338414",
"aX c #328B13",
"sX c #33821B",
"dX c #3A8919",
"fX c #2E9911",
"gX c #389717",
"hX c #34A40D",
"jX c #33AC0C",
"kX c #37B80B",
"lX c #2EA312",
"zX c #34A312",
"xX c #33AB11",
"cX c #3BA917",
"vX c #3AB913",
"bX c #3A8324",
"nX c #388427",
"mX c #3B8B23",
"MX c #3C9323",
"NX c #41B81C",
"BX c #42802D",
"VX c #37C80C",
"CX c #3EDE0C",
"ZX c #3CC913",
"AX c #3ED213",
"SX c #3FD914",
"DX c #3EE412",
"FX c #42D40E",
"GX c #43D815",
"HX c #42E40D",
"JX c #43E414",
"KX c #43E915",
/* pixels */
"y `.A V e y e 0 T.(.Y.(.e  X5 r ~.t Y.e U.t u oX~.R.e y 5 V u T.'.~.'.^.XX#X#X:X;X:X#X-X^.Y.R.9 '.4Xd.l d.V Z g j w j M f m w w ",
"g 0 m y e R.r 0 T.~.!.(.e B 6 r Y.^.=X^.t t U.oXR.y W.w ~.U.|.U.y Y.!.!.T.U.r r 6 5 7 7 u !.U.9 _.D.q.5.F V M x < M V Q.J M m N ",
"u Y.R.Y.t R.e w T.T.~.~.u r r r ~.).y 9 q U.u oXR.Y.~.U.r t J ^.3X3X2X=X*X=X*X>XT.y U.y _.-Xy 5 W.G.w.5.f U.R.k a r f R.{.{.Z _.",
"2X1X+X+Xy +Xr y Y.(.~.=X^.t e u t t t t y y Y.oXR.'.U.T.U.e _.XXT.t y Y.t r y +X~.'.U.7 _.#Xw 0 A j.9.1 J Y.U.k s 0 Y.XXXXXXW.T.",
"y u T.+Xy #X#Xt U.*X3X3Xt ^.t !.q 0 w r y y T.XXR.T.+XU.U.4 T.w r r w w w y u t U.y T.d '.#XN 5 E.j.9.x n T.u x s : /.!.oX_.~.~.",
"y _.w ~.-X~.~.u ^.!.2X;X=X2X>XY.(.^.u ~.^.(.8 '.'.oXe ;X^.8 e M r y r r y y y y y XXU.Y.oX+Xh 4 _.j.9.h F 5 V x f : +Xr M M !.^.",
"/.^.w U.U.U.t ~.^.T.u !.~././.(.XXXXY.u y f X W.'.b T.).^.w 0 T./.u !.!.t u ~.2X).U.w e oX].x 5 '.g.y.N G < C x m : ^.r L.L.b '.",
"e (.T.(.p X U.5 t ~.!.!.T.+X#XU.U.y w '.3Xm X '.W.S XX+XT.e 9 W.#X!.Y.e y !.!.~.#X+X0 m h oXb 5 [.D.6.2 d.~.U.n m 6 '.r H.I.p.K ",
"w 2XU.q ~.T./.).*X).T.>X!./.^./.'./.^.'.'.XXy W.W.m W.-XT.w 9 [.L 7 _.#Xq /.T.~.^.~.q 5 d.XXx 4 Z F.8.^ B L !.v f 6 XXq qXL.G.9.",
"e XX(.^.2X/.5 0 X q t y -Xe T.!.Y.Y.R.U.5 e Y.[.Q.E.W.$XT.0 9 [.S.V u #X#X+XXX+XXXT.oXq 9.#Xx 6 D G.9.( L Y.!.b d $ ].y s B `.%X",
"U.;XT.t ~./.8 y T.>X).*X*XU.).>X3 [ y.8 r.T.Y.[.}.M W.$XT.0 4 [.8X7 ~.~.W.R.N F K p H.M 9.$Xg 5 D H.9.8.G.u !.B s p XXu p o 0.C ",
"3 5 3 3 Y.8 q 1X3 (.~.8 q ^.U.X X X 5 8 X . Y.W.h.U.W.OXT.0 9 [.&Xq !.u H |.;X'.y C 9Xm 9.$Xx i D s.8.^ u.B u b 6 q oXr .X}.Z R.",
"-X-X;X;X;X;X*X).#X#X;X#X#X#X#X#X#X+X#X#X-X-X+Xe 4 W.E. XT.7 9 E.%Xu Z b b B :Xp W.M 6XN 9.OXg : D s.| 9.y.L u 7 y ^.~.8 XX@X#X#X",
"_._.~.XX].^.!.].+X+X^.^.XX#X:X:X:X-X#X:X:X,X,XR.R.V E.8XR.0 9 S 7XC N J j x W.6 ].g 7XS w.OXf ; L H.| 8.9.L u u /.~.].h k s j a ",
"w r r 5 u 7 7 7 0 7 5 5 5 5 5 7 8 7 7 7 8 q w w e w a .XG q 9 [ H.M _.G p k M 0XR.k 5X0.0.OXr : L H.c.0.8 u Y.Y.r r r 0 w M Z A ",
"XX^.B A /.].@X/.].$X1X1X1X1X1X1X1X,X>X<X<X,X,X0XQ.x l E.h.0 p K u.r Z G f k A H.s l H.6.L ].t 6 B H.9.b Y.M ~..X6X6X9XH.6X7X8X.X",
"E.u d y T.2X}.L.l.k.f.k.h.h.h.f.f.f.h.f.h.d.h.G 5XH.0.$Xg.g 6 h.C.V S d.M j '.E.L ; J.y.B Y.u 0 5.J.8.g ^.Y.n c 0.7.5.4.5.j k b ",
"4Xd.f.D.%X'.,X{.E.0.7.7.w.i.i.u.r.r.t.t.[ u.n D J E.OX Xl.g 9 K m.R.S f.'.k m +X0 : J.y._.~.u 7 ^ 9.v g _.u ; > > > a a p x V.C.",
"0.A C w u g D.g.k.e.w.w.i.i.i.i.l.A.p.p.A.p.j f.5Xk.k.A.p.< 0 }.m.E.b 0.[.k 0 . > b J.y.; r (.0 ! L v g !.y 8Xi.V.Z.Z.Z.Z.B./ $.",
"G.5X7X7X4XQ.E.E.Q.K h.D.k.k.g.k.k.e.f.d.[. X[.'.[.Q.j ~ 7.2 0 A J.R.b w.S m.8 . V 9.9.MX1 w @Xp W J.( k ^.y > u.* ] B.V.B.1.B.B.",
"% % % % - % % > % % % $ o @ o o X @ $ + % - $ > a i w . l.z a k.P.i.d x e.w.( [ e.8.D NX^ 0 ].o [ *.( 1 B !.5.} - #.] I I I * O ",
"r.r.n.a.d.G k.a.y.t.t.z.z.t.} t.t.r.t.t.r.u.u.6.r.c $X. L.x $ e.m.dXcXJ 6.x k s s s v NX( 0 @X6 ! K.| ^ x !.8.[ & c.- I ) ) ) Q ",
"= - > a a a i a l l l < - - - * = = 2 2 l = l ~ 4.f $XX qXc > p.t.gXGXNXJ ~ ~ / ( ( @ cX! 0 @X@ ( N.| 1 x _.8._ & *.2 - ] U o.#.",
"c.n.g.5X4X5X7X5X4X8X8X.X.X}.8X}.8X8X8X5X5X5X5X5Xh.4XQ.< L.k - z.ZXdXGXKX{ 5.r./ ~ ! O.GX[ f @X; 9.N.^ ^ k R.8._ ; N.~ Y ;.I ZXU ",
"r.4.6.7.F S S N S c c n n n F n 7.7.7.7.7.4.7.7.7.d.Q.k.t.j - x.JXgXpXzXGXZX# @ W @ -.>.x s @X; 9.*.( 2 x C 5._ , <.W P hX) zX& ",
"Q.Q.H H S S S S S S S H H H H H J S H Z S S H H H d.d.w.7.j r.4.@.I @.GX....yX;.*.0 H Q.A p %X; 8.m.[ ~ z Z 8._ , <.O.dX-., zXP ",
"Z E.E.E.E.E.E.A E.Q.Z Z J E.E.A E.E.Q.Q.Q.E.E.W.R.Q.F n d.U.l 6.r.4.sXZXVXVXwXzXgX7.0.0.b G S.# 0.J.[ 2 5.N 8._ , _ } zXO.' P zX",
"a.k.g.k.k.g.Q.|.Q.Q. X X X}.4X4Xk.k.4X XOXOX$XoXOX XOX|.H f.i.y.9.- iX` #.#.{ { t.z.z.4.^ y.d.: 8.J.' ~ 5.n 9._ ' pX! dXpX' ` ` ",
"mXmXnXnXZ.Z.Z.Z.Z.C.Z.B.nXx.U #.M.M.sXnXnXnXZ.nXZ.Z.Z.M.M.M.M.M.x.M.M.M.b.m.m.m.n.a.i.i.c.u.i.$ 9.m.' 1 ( v 9.' ' 2.@.' bXbXmXbX",
") { { { +.{ #.$.+.$.x.:.=.;.O <.{ U .. .+.+.+.o.+.o.+.iX>.>.:.=.nXsX1.v.z.t.r.r.t.v.A.5X4.5.2 , ( J.O.1 ! 8.9.=.yXQ ~ * I / Q Q ",
"O = = = # - l z.V.t.t.z.z.aX+.*.dXyXAXwXfXO * O = O { { o.o.o.{ ] ] ] ~ 4.r.6.4Xf.:.:.:.1.v.*.,.< J.O.1 / ^ [ =.HXaXI & I Y * * ",
"+.U U / U 4.r.# % % + % = { @.*.dXjXhXrXuXo.] ] ) { +.+.$.=.:.#.$.z.r.[ ] 4.4.r.t.z.$.:.:.>.-.pX; K.&.1 ^ ( [ +.kXkXgX# = I U U ",
"/ ( ] 4.r.4.w.&X&X&X,X[.m R | %.sXxXSXAXAXAX-.-.>.:.>.>.>.o.{ +.:.=.+.o.t.t.t.#.#.#.#.%.y.5.c c 0.N.*.2 ^ ] [ @.+.Q Q Q +.=.=.o.",
"BXP.Z.Z.Z.P.Q.x ^ k A _.6 ! ' u.2.xXKXKXKXcXA.bXnXMXMXMXMXMXnXnXB.bXmXmXMXgXdXmXbXbX3.bXZ.Z.Z.P.s.} &.# , [ _ Q _ & - z Q +.o.R ",
"* 1 & j a p % 5.0 r '.'.6 Q ' s.3.xXJXKXKXcXh./ z.x.x.x.x.>.>.$.:.1.:.$.$.:.:.>.sX2.:.iX>.B.v.c.C.v.,.& < ( v.v.b.b.6.4.5.Q Q Q ",
"t.t.t.6.r.6.0.b > u.Z 6 0 * _ s.2.xXJXJXJXNXK %./ ] / ] ] { { t.{ z.t.r.r.r.] r./ 0.D G 0.4.4.4.^ z [ ] 4X< , * * = 4.~ v.M.x.M.",
"Z.nXZ.Z.Z.C.A.a.#.%.L r 0 T [ s.3.xXGX=.rXcX|.a ] =.=.I U I I I I I I W ) = ~ ] W W W uXfXlXlXlXzXrX^ u.0.S ' #.yXAX) - # U # # ",
" .P wXyXyX>.o I . N.F k g ! _ J.3.` GX% O.$.{.< z.x.:.= ` -.=.;.+.lXVXVXxXaX] -.=.;.yXgXSXlXKXKXJXJX[ c.c S _ O.o.sXb.a.] V.C.C.",
"zX+ xX+.:.] F l.! n.D 1 0 E B 0 . ..HXAXHX1.}.< } %.v.a B . + + = # * = hXaX! ' yXzX;.wXAXAXDXVXvXfXg.V.| | &.` U Q Q ] ] U U Q ",
"HXZ A + ` / < p.&.dXx s 9 / 5 0 A ` vXjXZX1.K < } *.} x p.4.O.-.$.-.O.O VXaX_ _ O.GXGXcXuXrXtXfXfXuXsX>.:.sX' O.r.u.t.[ } t.#.t.",
"tXJ u ( gX<.* @ O.dX! p 0 B !.g J ' , { @.| .X> | &.*.8.u.| e.f.F n 9.` VXpX! | 8.cXgXsXpXcXZXvXvXvXcXdX$.:.sX} v.s % #.6.& %.#.",
"' {.C 9. . .pX9.&.dXF.9 y 0 @Xt 9 O.=.6 eX9.|.: [ *.@.W N.[ } | 7.0.b R wX,.! | | } *.9.K 6 N c 6.6.r.5.( 6.6.[ ] 5 yXgX9.# c.~ ",
"} `.C s R R pXdX%.<.H.Y.$XC L w o X.HX;...w..X6 y.%.,.aXV.E.I NX=.N.F g.uXpX_ 1 n F F 6.l J n 9.i.7.z.[ r.6.r.' ` # jXgXH.; y.6.",
"[ [.C v E P dX;.&.3.S.0 C y t !.$ O FX ...e.|.d y.%.,.,.n.g -.O.hX*.F.e.uX,.! 2 6Xs r.r.y.N 0.D ( f.( 2.' Q yXtXyX& zXzXG.X K.; ",
"[ ~.C n  .P eX;.<.dXG.r _._.E.Z n P AX....w.{.0 w.*...-.J.g  .' jX&.F.p.uXyX( ^ .Xp S.k p F.{.| ] s.H _ } # c CXE T NXaXK X J., ",
"^ L C 0.E I aXyX,.dXJ._.k J V [.# R AX-.X.e.{.d w.&.;.-.i.g ' ' jX@.G.u.wX*.k ^ &X0 7Xv k e.{., , ( S I ) - e.CX@.* R sXF.: J., ",
"^ `.C 5.E P eXyX..dXsXu g - j , -.Y ZX-.X.p.Q.d 0.&.-...L.1 ' _ jX@.G.c.wX#.2 p $X0 }.z k p.L ' ! b.b -.iXgXgX2.[ r.( ( S.: J., ",
"2 [.u z E P pXyXX.dX3.u [.E.d X o yXFX=.X.a.|.f G &.&.&.L.1 _ R jX@.l.| yXsX~ f #X0 8X1 g H._.' %.n.0.W 5.= & # # # # # # 1 J., ",
"5._.C ^ E * X.uX..dXK.5 r ~.y k d   o.O.,.u.|.f q.*.$.@.H.^ ( _ jX@.J.u.yX,.! + @X9 &Xk ; e.f L S.J.2 ^ ^ ( 4X9X9XH.9Xl.L.A.i., ",
"8._.V v E T X.uX-.dXdXa b k ; v 4._ U ` ,.u.{.f q.*.#.O.H.> [ _ jXO.s.u.pX-., < 6X6 .X1 < H.> < S.n.8.W ^ | G ( x.$.:.x.$.x.$.` ",
"^ _.M v E P ,.pX&.pX&.&.c.p.k D b r.{ U pXu.`.0 i.*.%.} 8.g ( ' jXO.n.u.yX-.W , F.6 .X1 , K.> 1 L J.5.2 , ( n ^ = I 2 / } [ / aX",
"^ `.V 1 R T ,.,.,.dX<.N.n.p.h M S x 4.# -.p.|.0 p.c.#.%.z S.9.`  .* u.u.yX-.Q j S.0 .X: & K.f 1 L s.5.^ ^ ( n z Q z.z.#.} ] ] } ",
"v `.u 1 ) Q ,.:.2.gX} } } i.< ^ h.K l M.# s.|.0 H.| , } 9.v C } #.#.p.y.yX-.! ( F.7 @XM @ K.a 1 L s.5.^ , n N c ^ / %.1.v.2.Z.e.",
"8._.u y.~ : MXt.N.} sXmXbXV.( , n C.r.r.@ c.|.o s.I.. u.( y.D 0 < - e.b.X.O.Q _ F.0 u ].p g.> ; _.H.z 2 1 H C 2 n a @ r.*.x.v.v.",
"z _.u 9.^ f < l y.%.^ 4.1 l % R.0.] / ~ u.6.J ^ s.9.G.J.( 6.q.o : > ; > %., ! ' b ( S.0 6.6Xs # [.G.^ j < Z C 2 z f x -.uXaXuXrX",
"v _.u 8., b.t.t.c.a.6.< 9.q.a V d e.z [ u.5 d i.. H.9.8.9.J.d.F.9X9X0X9Xb ! ' } 8.1 H.: 8.F.0 & OXS.^ z z C Z < z f f rXFXP yXAX",
"j '.y v }.g.i.a.i.w.5Xf {.`.0 V w u.< y.G OXC f   H.6.y.7.6.r.9.9.9.6.5.e.a W [ ^ ( G.: ^ F.0 < $XS.5.z j R.G p k f x yXgXg ) zX",
"b '.y n ~ 6.~ 4.4.k E.a l 0.: '.0.y.4.2 K Y._.].. H.^ 0 : c v x 5.5.v v c B 0 < > y.H.$ v G.0 > OXe.x z g R.n Z a d } # < +.;.' ",
"b '.M n ( ~ ( t.t.6.d.c S F > '.p.r.r.y.D Y.r @X0 i.9.c A _.E.C B B B S N XXE.G 0.1 H.6 M d.7 > E.g.M 2 a C c N a d z W # jXyXI ",
"6 _.C c ~ c , g Z Z K z r R.7 _.g 7.0.G {.r C 5 u p.G.[.`.`.`.[.[.'.].'._.C M d.d.v 5X8 L L 8 p V g.h 2 x y w M j 6 u vXzXQ ZXDX",
"f _.C v ^ x 1 w R.XXR.9 r #X9 oXV b c 5.V ~.C Z h w.F V x b p y M V x x x x f M Y.2 5X8 R..X8 6 @Xd.g z z g y M a d w vX=.u + O.",
"'.!.y c ^ h < q R.9 r 9 u w 5 T.U.;Xk 4.E.XXu B N : S.b c H j 5.6.7.4.6.5.5.5.6.5.2 9X8 W.$X0 6 [.S.g l z u Y.Z d f 6 ..tX( 8.0.",
"(.!.y z ^ m s 8 Y.V Y.#Xu X 6 u +Xo z R.XXy R.U.y R. X.XQ.W.d.k.f.7.e.i.p.p.w.F F d.4X8 T.oXm 5 A S.s s F R.y S m 0 h B.o.@.z g.",
"y N u k ^ 0 r w T.T.~.~.Y.X r u XX> o % % 5 _.r w R.u u U.m M V U.U.y U.e y w y u y y 8 !.XXf 5 `.g.x m d.U.U.S V '.V r r r y R."
};
